<?xml version="1.0" encoding="UTF-8"?>
<svg xmlns="http://www.w3.org/2000/svg" viewBox="0 0 180 120">
  <path fill="#000000" d="M 22 24 C 38 18 74 18 96 24 C 106 27 106 39 95 41 C 78 44 62 45 51 51 C 36 59 31 78 41 92 C 48 103 66 102 82 93 C 91 88 99 98 91 106 C 72 122 40 120 25 101 C 8 79 17 43 48 32 C 40 31 31 32 25 34 C 15 37 12 27 22 24 Z" />
  <path fill="#000000" d="M 106 36 C 121 26 145 24 158 35 C 172 47 163 74 145 79 C 134 82 122 78 117 68 L 108 105 C 105 118 87 113 91 101 L 107 40 C 107 39 106 38 106 36 Z M 124 53 C 126 62 137 66 145 58 C 149 54 148 47 143 44 C 136 40 127 45 124 53 Z" />
  <path fill="#000000" d="M 70 8 C 78 -3 93 -1 100 11 L 112 31 C 119 43 102 51 95 39 L 84 20 L 73 39 C 66 51 49 43 56 31 Z" />
</svg>
