<svg version="1.1" id="Layer_1" xmlns="http://www.w3.org/2000/svg" xmlns:xlink="http://www.w3.org/1999/xlink" x="0px" y="0px"
	 width="100%" viewBox="0 0 768 1024" enable-background="new 0 0 768 1024" xml:space="preserve">
<path fill="#000000" opacity="1.000000" stroke="none" 
	d="
M359.540588,398.772278 
	C365.419403,400.785950 371.306091,401.274719 376.263824,405.228180 
	C379.150970,407.530487 383.593719,406.883423 387.364105,405.552643 
	C390.177979,404.559509 392.898102,404.150391 394.782074,407.171753 
	C398.611877,403.433716 403.508606,403.252747 407.817383,402.978790 
	C421.568298,402.104523 435.258057,400.064178 449.114868,400.749023 
	C458.748230,401.225159 468.363129,402.220032 478.040771,401.900635 
	C481.982574,401.770538 482.813995,404.814636 483.144562,408.021881 
	C483.448578,410.971100 482.853027,412.533417 479.354980,413.615692 
	C470.731018,416.284027 462.117920,415.086700 453.658386,414.149872 
	C429.240662,411.445831 405.426453,415.807495 381.418671,418.830444 
	C364.044220,421.018158 346.793945,424.688934 329.135742,424.337494 
	C326.396942,424.282959 323.779633,424.217651 321.801880,421.989868 
	C318.768036,418.572479 319.502747,415.655853 323.980316,414.814911 
	C335.371918,412.675354 346.825104,410.889221 358.456970,410.663513 
	C359.096527,410.651093 359.732666,410.461273 361.148041,410.223206 
	C357.519867,407.400299 353.613312,407.370453 350.183258,406.723480 
	C335.452637,403.945007 321.796143,398.966705 309.808197,389.681976 
	C306.520386,387.135590 302.631439,385.338806 298.516449,388.907837 
	C296.731323,390.456116 297.033051,392.929291 295.525208,394.572815 
	C292.769989,394.614502 291.304504,392.965515 289.834137,390.663879 
	C292.687103,388.055237 294.900635,384.988983 298.219482,383.067963 
	C300.534302,381.728088 300.727722,380.182892 299.472961,377.722717 
	C293.401764,365.819153 296.900665,354.605103 307.795837,346.443085 
	C313.879791,341.885406 319.656860,336.990173 326.089752,332.821014 
	C331.575439,329.265747 337.498291,326.774353 343.238068,323.861969 
	C354.126740,318.337006 365.757629,314.561554 377.290344,310.687256 
	C381.451691,309.289276 385.686615,308.324097 389.794983,305.950623 
	C378.887024,302.762238 367.830658,302.534302 357.372528,299.184601 
	C335.864746,292.295776 316.153625,282.961212 305.041534,261.710022 
	C299.306396,250.741974 295.363007,239.280731 294.495544,226.672867 
	C293.612885,213.844925 295.120850,201.584961 300.128998,189.829666 
	C306.084991,175.849625 316.028992,165.600632 329.498627,158.414307 
	C344.865173,150.215973 361.740295,148.249023 378.482056,146.158066 
	C389.610931,144.768112 400.887817,144.120743 412.202667,144.172546 
	C426.960846,144.240128 441.726074,143.376587 456.482910,142.781097 
	C461.134674,142.593369 465.797852,142.172623 470.401123,141.489883 
	C473.274933,141.063660 476.075195,140.540009 478.537872,138.246735 
	C481.708191,135.294495 485.632050,137.215866 485.873047,141.588974 
	C486.105560,145.807632 483.969574,148.853134 480.320343,150.872253 
	C475.072205,153.776093 469.204559,154.500290 463.444702,154.968857 
	C444.888428,156.478394 426.297791,156.962357 407.661011,156.980774 
	C390.241913,156.997986 372.829651,158.196854 355.640411,161.675903 
	C345.625031,163.703018 336.105499,166.671448 327.361359,172.094543 
	C313.565704,180.650558 306.472961,193.477386 304.756897,209.078384 
	C301.946381,234.629105 309.273621,256.827698 329.192902,273.849060 
	C337.530609,280.973785 347.941864,284.322510 358.259033,287.680908 
	C372.250397,292.235168 386.749481,294.104889 401.242218,295.556030 
	C413.506927,296.784058 425.852325,297.069122 438.160278,294.396881 
	C455.392914,290.655365 472.839355,288.216034 490.541718,288.016449 
	C493.686127,287.980957 497.029053,288.616669 497.278137,291.668274 
	C497.557922,295.095551 498.581543,299.599640 493.259552,301.408722 
	C480.238647,305.834808 466.796509,308.448608 453.170807,308.289551 
	C435.571960,308.084106 418.662659,310.406097 401.844879,315.710510 
	C385.534851,320.854767 369.058563,325.524475 353.246460,332.027496 
	C338.170013,338.227966 323.473145,345.337494 311.295685,356.610626 
	C302.952850,364.333893 304.563385,372.631592 312.557770,381.225555 
	C314.290344,383.088043 315.124817,384.823792 315.124634,387.393677 
	C317.393066,386.269836 319.194641,386.437744 321.114716,387.451782 
	C330.324615,392.315887 340.330566,394.950958 350.301178,397.668549 
	C353.204285,398.459808 356.145538,398.917236 359.540588,398.772278 
z"/>
<path fill="#000000" opacity="1.000000" stroke="none" 
	d="
M454.312134,694.113647 
	C450.241333,711.827209 438.354553,720.427795 421.742249,723.366699 
	C404.466675,726.423035 386.954559,726.017822 369.491425,726.384460 
	C349.316376,726.808105 329.388245,724.088196 309.439484,721.920349 
	C294.077698,720.250977 278.862061,717.274109 263.550049,715.099976 
	C242.609299,712.126526 221.958160,707.636841 201.370438,702.955811 
	C181.295868,698.391541 161.749130,691.712219 141.457184,687.256592 
	C139.798691,688.678589 140.368210,690.833008 140.427795,692.725159 
	C140.933182,708.776428 137.902634,724.539551 136.719315,740.447632 
	C134.744583,766.995178 132.557831,793.607849 135.557587,820.199341 
	C136.637924,829.775940 139.497498,839.169250 144.494949,847.573669 
	C150.816483,858.204773 159.407562,856.398743 168.126068,845.848267 
	C176.866272,835.271423 180.675903,822.597717 178.007202,808.518250 
	C177.530960,806.005737 176.720459,802.928345 179.247833,800.844360 
	C180.816681,800.882751 181.210648,801.838562 181.515427,802.795410 
	C186.807571,819.409973 183.915771,842.690308 170.024979,855.118408 
	C156.890335,866.869995 145.546600,865.201172 136.893158,849.521545 
	C128.654160,834.592896 126.072365,818.185791 125.852119,801.352234 
	C125.575584,780.216431 125.203873,758.902771 128.107346,738.066956 
	C132.965805,703.202087 131.197601,668.308777 131.828079,633.406860 
	C132.095535,618.600525 133.740295,603.798462 133.552658,589.009705 
	C133.303192,569.350891 129.465286,550.299683 119.657524,532.888306 
	C116.160553,526.680237 109.967888,525.369934 104.047585,529.308411 
	C102.387657,530.412659 102.017502,531.933350 102.389198,533.645630 
	C102.871010,535.865173 102.528160,537.907898 101.673782,539.917542 
	C96.997986,539.802063 93.185493,533.373291 94.692345,527.846863 
	C96.358337,521.736816 100.356987,517.902771 106.554764,516.228821 
	C113.205788,514.432495 118.781372,515.053223 123.486603,520.965637 
	C130.111938,529.290710 132.976089,539.176575 136.210648,548.938782 
	C142.554413,568.084900 142.991562,587.874573 142.119568,607.742676 
	C141.281845,626.830078 140.690659,645.914856 141.068695,665.021240 
	C141.159439,669.608276 140.067978,674.219971 141.154602,678.765320 
	C150.484375,678.884399 159.515350,679.728882 168.326828,682.273499 
	C188.135101,687.993713 208.153168,692.794739 228.379196,696.846802 
	C242.402054,699.656006 256.446381,702.349365 270.582550,704.384094 
	C298.345428,708.380249 326.056305,713.414429 354.137817,714.137573 
	C376.650055,714.717346 399.249969,714.230652 421.617828,710.787354 
	C435.580811,708.638000 444.701416,698.092529 445.805359,683.654053 
	C446.628418,672.889221 445.566162,662.426514 442.202423,652.154968 
	C441.299652,649.398254 439.898773,646.529663 441.454163,643.426025 
	C443.680328,642.910522 444.792419,644.176392 445.777740,645.858521 
	C454.506592,660.759888 457.865051,676.616821 454.312134,694.113647 
z"/>
<path fill="#000000" opacity="1.000000" stroke="none" 
	d="
M446.660889,483.013977 
	C428.610413,486.250122 411.239227,490.761871 393.394745,493.476837 
	C403.659698,496.628601 413.586731,500.119843 423.245697,504.397308 
	C436.103333,510.091370 444.683746,519.923889 450.109894,532.527588 
	C453.945282,541.436401 455.970673,551.025085 456.070282,560.668518 
	C456.262299,579.253052 448.729767,593.989746 432.579193,603.991272 
	C421.591797,610.795349 409.539154,614.296448 396.919952,616.032288 
	C369.715576,619.774231 344.239410,614.117371 320.707489,600.429443 
	C305.400116,591.525513 295.142456,578.393799 289.396484,561.198975 
	C282.192322,539.640686 286.215546,519.772400 296.383148,500.694183 
	C299.580322,494.695160 304.170807,489.075653 309.839844,484.783234 
	C315.399597,480.573608 316.543030,480.946075 318.527924,487.387054 
	C336.965851,484.722473 355.713409,485.610016 374.087372,482.594849 
	C390.318054,479.931427 406.633118,477.802490 422.735962,474.282776 
	C437.023254,471.159943 451.408234,468.525909 464.973022,462.831146 
	C469.733307,460.832703 474.370605,458.498840 477.664337,454.318848 
	C480.437317,450.799713 481.662292,447.040955 478.569733,442.982361 
	C477.967590,442.192078 477.417999,441.333771 477.878235,440.250763 
	C487.132324,440.394806 491.653870,446.130341 489.807434,455.015259 
	C488.282349,462.354004 484.166412,467.118713 477.607086,470.903564 
	C467.951508,476.474884 457.381470,479.279236 446.660889,483.013977 
M297.620056,554.843323 
	C301.681854,569.129883 309.401642,580.494324 322.254211,588.630859 
	C333.038544,595.458069 344.714874,599.009277 356.922424,601.984619 
	C378.470245,607.236511 399.215210,604.111084 419.418671,596.641663 
	C430.828003,592.423523 439.788300,584.776917 443.388641,572.309387 
	C446.661163,560.977112 445.041687,549.958191 441.493744,539.040710 
	C437.926025,528.062439 431.301636,519.385437 420.671844,514.760498 
	C404.981873,507.934021 388.985718,501.937073 371.841949,499.484863 
	C354.698242,497.032715 337.773804,498.723572 320.861115,501.257935 
	C318.036316,501.681244 316.044342,501.056122 314.166199,499.093994 
	C313.198303,498.082825 312.978729,496.220795 310.536377,496.156097 
	C297.710175,513.412964 292.461914,532.528381 297.620056,554.843323 
z"/>
<path fill="#000000" opacity="1.000000" stroke="none" 
	d="
M277.631897,610.584229 
	C272.377747,611.001892 271.443634,607.105042 271.048523,603.819092 
	C269.602692,591.793518 263.716125,581.919189 256.785675,572.466797 
	C248.253830,560.830261 238.691559,549.970520 231.092056,537.620972 
	C227.051697,531.055298 227.030762,528.751709 231.566513,522.375366 
	C246.040924,502.027527 258.918396,480.723328 269.106812,457.877625 
	C270.107574,455.633575 270.463379,453.093201 271.043091,450.672302 
	C271.755768,447.696045 273.013702,444.811157 276.569092,445.676941 
	C279.935547,446.496765 279.896942,449.626221 279.552948,452.608093 
	C278.702393,459.980713 275.824890,466.709076 273.047241,473.458832 
	C266.049500,490.463318 255.965790,505.789246 246.043198,521.100647 
	C241.020782,528.850647 240.195084,534.665649 246.590759,541.934143 
	C253.704819,550.018921 259.860779,558.960632 266.258423,567.658264 
	C273.251129,577.164978 277.938141,587.777405 280.380280,599.319824 
	C281.216003,603.269836 281.255798,607.260620 277.631897,610.584229 
z"/>
<path fill="#000000" opacity="1.000000" stroke="none" 
	d="
M501.431030,933.577637 
	C496.716156,936.019409 493.090576,934.935669 489.947937,931.380676 
	C487.209076,928.282410 483.999603,926.126892 479.615936,926.179443 
	C477.920135,926.199768 476.172668,925.547668 475.119080,924.283386 
	C473.055084,921.806702 470.371490,920.964905 467.412048,920.232788 
	C464.987305,919.632935 463.495789,918.049561 465.592560,915.509399 
	C466.439758,914.482971 466.357269,913.540649 466.250092,912.310608 
	C465.653992,905.469299 467.645325,903.910767 474.290375,905.919739 
	C476.347076,906.541504 478.361572,907.323792 480.351013,908.140625 
	C482.009521,908.821716 483.542877,909.030518 484.982697,907.709717 
	C485.856567,906.908081 486.819794,906.322693 488.063721,906.252075 
	C492.433746,906.004272 503.825928,915.828430 504.297211,920.277405 
	C504.997253,926.886108 504.997253,926.886108 511.233429,925.920898 
	C512.389526,928.558228 510.948303,929.834106 508.742645,930.713745 
	C506.432953,931.634888 504.104584,932.509277 501.431030,933.577637 
z"/>
<path fill="#000000" opacity="1.000000" stroke="none" 
	d="
M541.081055,971.886230 
	C543.131287,975.961487 545.690063,979.131714 548.726135,982.057678 
	C553.688110,986.839478 553.826965,988.685669 550.351562,994.486023 
	C548.862854,996.970642 548.930298,1000.394714 545.633789,1002.183228 
	C543.529724,999.868591 542.024841,997.283813 541.035095,994.312622 
	C537.991150,985.175110 534.847412,976.107544 529.155151,968.127808 
	C525.701843,963.286926 527.140991,960.222351 532.946228,959.661804 
	C535.660706,959.399658 536.605957,955.415161 540.582214,957.016541 
	C538.357849,961.801147 537.032654,966.864075 541.081055,971.886230 
z"/>
<path fill="#000000" opacity="1.000000" stroke="none" 
	d="
M96.742157,653.955322 
	C97.593048,652.213928 98.009872,650.737671 97.341034,649.275330 
	C95.353600,644.930298 98.140236,641.588745 99.704109,638.040222 
	C100.224533,636.859375 101.494850,635.979187 103.011360,636.340881 
	C104.308502,636.650269 104.595787,637.871094 105.072716,638.945923 
	C106.640808,642.479797 106.149368,646.740967 109.084152,649.670959 
	C108.743080,650.094421 108.556404,650.548828 108.339012,650.563904 
	C100.429741,651.117065 98.831970,653.533081 101.050926,661.645447 
	C101.779236,664.308105 101.419167,670.769165 100.454361,672.350159 
	C94.910561,668.393005 93.336609,661.052246 96.742157,653.955322 
z"/>
<path fill="#000000" opacity="1.000000" stroke="none" 
	d="
M212.699982,422.572052 
	C208.003586,423.866913 203.745331,425.203827 199.181473,423.628113 
	C201.912964,418.662537 209.429764,415.692657 214.166733,417.812378 
	C218.568207,419.782013 222.643845,417.676605 226.710281,416.969879 
	C231.437897,416.148285 235.576248,417.418213 239.776352,418.845428 
	C241.487396,419.426910 243.210434,420.767181 242.185318,423.005188 
	C241.304749,424.927673 239.747192,424.268524 237.961472,423.905823 
	C229.775894,422.243408 221.533157,420.704681 212.699982,422.572052 
z"/>
<path fill="#000000" opacity="1.000000" stroke="none" 
	d="
M270.855804,434.736633 
	C267.034393,431.891266 262.656403,430.537476 259.390808,427.423035 
	C264.199768,424.343903 281.306000,433.207214 285.189667,441.151642 
	C280.828888,440.365082 277.210602,446.258209 272.619598,441.796478 
	C276.844879,437.036316 276.801178,436.857330 270.855804,434.736633 
z"/>
<path fill="#000000" opacity="1.000000" stroke="none" 
	d="
M357.683807,879.828247 
	C358.004913,886.359680 359.603027,892.968872 355.381531,899.133057 
	C351.702850,892.112610 352.572998,884.797058 357.683807,879.828247 
z"/>
<path fill="#000000" opacity="1.000000" stroke="none" 
	d="
M119.452446,640.329834 
	C119.834023,641.875000 119.818878,643.180542 118.263206,643.265442 
	C113.807182,643.508606 109.908829,637.455078 111.885796,633.324524 
	C116.568085,633.079834 117.470421,637.089539 119.452446,640.329834 
z"/>
</svg>