<?xml version="1.0" standalone="no"?>
<!DOCTYPE svg PUBLIC "-//W3C//DTD SVG 20010904//EN"
 "http://www.w3.org/TR/2001/REC-SVG-20010904/DTD/svg10.dtd">
<svg version="1.0" xmlns="http://www.w3.org/2000/svg"
 width="225.000000pt" height="225.000000pt" viewBox="0 0 225.000000 225.000000"
 preserveAspectRatio="xMidYMid meet">
<metadata>
Created by potrace 1.16, written by Peter Selinger 2001-2019
</metadata>
<g transform="translate(0.000000,225.000000) scale(0.100000,-0.100000)"
fill="#000000" stroke="none">
<path d="M666 1465 c-74 -30 -143 -95 -157 -149 -9 -33 -8 -43 9 -65 58 -79
141 -92 282 -43 10 3 4 8 -15 12 -16 4 -25 8 -20 9 6 1 3 6 -5 12 -11 8 -12
12 -2 16 17 7 15 23 -4 23 -14 0 -14 3 -4 15 10 12 9 15 -6 15 -27 0 -84 43
-84 63 0 31 28 74 62 96 44 28 17 26 -56 -4z"/>
<path d="M1028 1423 c-19 -8 -41 -25 -48 -38 -12 -22 -77 -51 -155 -68 -11 -3
5 -6 35 -7 41 -1 49 -4 30 -9 l-25 -7 23 -8 c12 -4 35 -5 51 -1 17 3 32 2 36
-4 3 -6 -2 -11 -12 -11 -14 0 -15 -2 -4 -9 21 -13 -18 -31 -68 -31 -49 0 -74
-21 -102 -88 -47 -107 -29 -217 51 -312 39 -46 125 -100 159 -100 9 0 -6 11
-34 24 -52 24 -89 56 -65 56 7 0 28 12 47 26 l33 25 -6 -40 c-6 -37 -4 -41 14
-41 12 0 24 11 32 30 13 32 37 56 46 47 3 -3 1 -22 -6 -42 -16 -49 -6 -83 28
-92 35 -9 53 -5 69 15 15 20 17 52 3 52 -18 0 -10 45 15 82 14 20 25 41 25 46
0 16 32 24 44 12 8 -8 1 -20 -26 -42 -32 -25 -38 -36 -38 -67 0 -51 18 -73 62
-74 40 -1 68 16 68 43 0 30 76 51 184 51 72 0 213 -36 246 -64 29 -23 43 -63
31 -85 -20 -37 -113 -47 -161 -17 -9 5 -11 4 -6 -4 15 -24 73 -44 128 -45 65
-1 106 22 121 67 12 36 -17 94 -61 124 -84 55 -257 97 -408 98 l-102 0 5 32
c11 64 -48 52 -131 -27 -37 -35 -56 -46 -63 -39 -17 17 -52 1 -68 -31 -19 -37
-35 -47 -35 -21 0 25 99 134 116 127 17 -6 44 31 44 59 0 27 -40 65 -67 65
-12 0 -36 -14 -54 -30 -41 -40 -67 -34 -44 10 32 62 169 105 238 76 33 -13 37
-19 37 -50 0 -39 -9 -47 -60 -56 l-35 -6 40 -13 c35 -11 47 -11 77 2 20 9 44
27 54 42 17 25 16 28 -4 70 -30 62 -66 79 -157 73 -56 -4 -85 -12 -134 -38
-96 -52 -127 -110 -76 -147 l25 -18 -46 -55 c-25 -30 -52 -68 -60 -83 -18 -34
-28 -29 -58 31 -45 91 -39 160 18 217 22 22 28 23 55 14 39 -14 61 1 61 42 0
27 0 28 53 22 43 -4 57 -2 80 17 66 53 85 154 37 205 -28 30 -59 35 -102 18z"/>
</g>
</svg>
