<?xml version="1.0" encoding="UTF-8"?>
<svg xmlns="http://www.w3.org/2000/svg" viewBox="0.419 -6.940 318.530 156.530">
<path fill="none" stroke="#000000" stroke-width="1" stroke-linecap="round" stroke-linejoin="round" d="M 91.934 140.575 L 90.958 140.358 L 89.660 139.624 L 88.361 138.890 L 85.383 136.224 L 82.694 133.266 L 79.826 128.021 L 76.225 120.910 L 74.694 118.338 L 70.424 110.452 L 68.638 106.883 L 67.602 105.177 L 65.389 100.712 L 60.068 91.125 L 57.866 86.654 L 55.882 83.195 L 53.571 78.780 L 49.021 71.043 L 47.694 68.364 L 45.434 64.575" />
<path fill="none" stroke="#000000" stroke-width="1" stroke-linecap="round" stroke-linejoin="round" d="M 92.434 140.575 L 93.909 138.558 L 95.383 136.541 L 96.427 134.843 L 97.702 132.140 L 103.079 116.071 L 106.881 105.790 L 113.490 85.931 L 116.529 77.495 L 118.790 71.963 L 119.356 70.054 L 119.546 68.063 L 119.667 65.067 L 119.434 61.575" />
<path fill="none" stroke="#000000" stroke-width="1" stroke-linecap="round" stroke-linejoin="round" d="M 200.434 99.575 L 200.023 96.607 L 199.494 90.631 L 198.831 78.650 L 197.347 63.733 L 194.879 45.923 L 194.040 41.002 L 193.512 37.041 L 193.321 34.047 L 193.240 29.049 L 193.518 25.059 L 194.050 23.140 L 194.579 21.742 L 195.109 20.345 L 196.434 18.075" />
<path fill="none" stroke="#000000" stroke-width="1" stroke-linecap="round" stroke-linejoin="round" d="M 196.934 18.075 L 198.866 18.570 L 199.770 18.981 L 200.675 19.402 L 201.953 20.178 L 203.232 20.955 L 204.713 22.295 L 206.195 23.636 L 208.785 26.676 L 210.484 29.141 L 213.562 34.274 L 215.879 38.686 L 217.862 42.145 L 220.508 47.509 L 224.916 55.321 L 226.234 58.007 L 230.731 65.769 L 233.820 70.895 L 237.674 76.723 L 242.095 82.143 L 244.776 85.112 L 246.931 87.197 L 249.339 88.978 L 251.040 90.017 L 252.823 90.908 L 255.611 91.988 L 258.544 92.604 L 260.532 92.775 L 262.521 92.618 L 265.411 91.864 L 267.131 90.852 L 267.916 90.234 L 269.990 88.074 L 271.711 85.622 L 273.095 82.973 L 274.303 80.239 L 276.371 73.574 L 277.795 66.734 L 278.858 59.824 L 280.996 42.975 L 282.025 36.059 L 283.069 30.159 L 283.511 28.213 L 284.984 23.450 L 286.735 19.874 L 288.700 17.610 L 290.973 15.664 L 292.882 15.117 L 295.872 14.889 L 297.872 14.875 L 300.864 15.078 L 301.845 15.230 L 302.770 15.599 L 305.457 16.913 L 306.291 17.448 L 309.934 20.575" />
<path fill="none" stroke="#000000" stroke-width="1" stroke-linecap="round" stroke-linejoin="round" d="M 45.434 64.575 L 43.095 60.177 L 42.394 58.314 L 42.070 57.369 L 41.668 55.415 L 41.434 53.075" />
<path fill="none" stroke="#000000" stroke-width="1" stroke-linecap="round" stroke-linejoin="round" d="M 45.434 64.575 L 59.434 50.575" />
<path fill="none" stroke="#000000" stroke-width="1" stroke-linecap="round" stroke-linejoin="round" d="M 119.434 61.575 L 117.990 61.177 L 116.546 60.779 L 113.620 60.148 L 105.716 58.971 L 93.896 57.008 L 70.426 52.223 L 60.604 50.462 L 59.434 50.575" />
<path fill="none" stroke="#000000" stroke-width="1" stroke-linecap="round" stroke-linejoin="round" d="M 119.434 61.575 L 121.435 59.339 L 122.646 57.751 L 125.107 53.415 L 127.826 48.090 L 128.558 46.234 L 136.504 30.152 L 141.918 20.618 L 146.206 13.885 L 149.209 9.893 L 151.851 6.893 L 156.434 2.075" />
<path fill="none" stroke="#000000" stroke-width="1" stroke-linecap="round" stroke-linejoin="round" d="M 41.434 53.075 L 35.902 47.297 L 33.310 44.258 L 29.381 38.480 L 27.387 35.029 L 16.689 18.185 L 15.234 15.574 L 11.944 10.569 L 10.441 7.986 L 9.434 6.575" />
<path fill="none" stroke="#000000" stroke-width="1" stroke-linecap="round" stroke-linejoin="round" d="M 41.434 53.075 L 43.061 51.924 L 44.836 51.020 L 46.612 50.116 L 50.310 48.631 L 51.288 48.431 L 52.285 48.375 L 54.267 48.601 L 56.190 49.126 L 58.051 49.830 L 59.434 50.575" />
<path fill="none" stroke="#000000" stroke-width="1" stroke-linecap="round" stroke-linejoin="round" d="M 196.434 17.575 L 195.907 16.730 L 194.877 13.923 L 193.934 12.075" />
</svg>