<?xml version="1.0" encoding="UTF-8"?>
<svg xmlns="http://www.w3.org/2000/svg" viewBox="-2.895 -34.282 226.840 222.340">
<path fill="none" stroke="#000000" stroke-width="1" stroke-linecap="round" stroke-linejoin="round" d="M 100.025 181.638 L 100.925 180.738 L 101.825 179.838 L 102.725 178.938 L 103.625 178.038 L 104.525 177.138 L 105.425 176.238 L 106.325 175.338 L 107.225 174.438 L 108.125 173.538 L 109.025 172.638" />
<path fill="none" stroke="#000000" stroke-width="1" stroke-linecap="round" stroke-linejoin="round" d="M 109.525 172.638 L 110.425 173.538 L 111.325 174.438 L 112.225 175.338 L 113.125 176.238 L 114.025 177.138 L 114.925 178.038 L 115.825 178.938 L 116.725 179.838 L 117.625 180.738 L 118.525 181.638" />
<path fill="none" stroke="#000000" stroke-width="1" stroke-linecap="round" stroke-linejoin="round" d="M 109.525 172.138 L 109.331 171.158 L 108.727 130.164 L 108.629 129.169 L 108.808 127.181 L 108.691 122.207 L 108.758 120.211 L 108.825 118.214 L 109.025 116.138" />
<path fill="none" stroke="#000000" stroke-width="1" stroke-linecap="round" stroke-linejoin="round" d="M 7.025 123.138 L 7.914 122.249 L 8.803 121.360 L 9.692 120.471 L 10.581 119.582 L 11.469 118.693 L 12.358 117.804 L 13.247 116.915 L 14.136 116.026 L 15.025 115.138" />
<path fill="none" stroke="#000000" stroke-width="1" stroke-linecap="round" stroke-linejoin="round" d="M 213.025 123.138 L 212.136 122.249 L 211.247 121.360 L 210.358 120.471 L 209.469 119.582 L 208.581 118.693 L 207.692 117.804 L 206.803 116.915 L 205.914 116.026 L 205.025 115.138" />
<path fill="none" stroke="#000000" stroke-width="1" stroke-linecap="round" stroke-linejoin="round" d="M 109.025 116.138 L 142.018 115.467 L 205.025 115.138" />
<path fill="none" stroke="#000000" stroke-width="1" stroke-linecap="round" stroke-linejoin="round" d="M 15.025 115.138 L 14.136 114.249 L 13.247 113.360 L 12.358 112.471 L 11.469 111.582 L 10.581 110.693 L 9.692 109.804 L 8.803 108.915 L 7.914 108.026 L 7.025 107.138" />
<path fill="none" stroke="#000000" stroke-width="1" stroke-linecap="round" stroke-linejoin="round" d="M 15.025 115.138 L 84.025 114.889 L 108.025 114.638" />
<path fill="none" stroke="#000000" stroke-width="1" stroke-linecap="round" stroke-linejoin="round" d="M 205.025 115.138 L 205.914 114.249 L 206.803 113.360 L 207.692 112.471 L 208.581 111.582 L 209.469 110.693 L 210.358 109.804 L 211.247 108.915 L 212.136 108.026 L 213.025 107.138" />
<path fill="none" stroke="#000000" stroke-width="1" stroke-linecap="round" stroke-linejoin="round" d="M 108.025 114.638 L 108.411 111.663 L 108.321 108.678 L 108.231 105.694 L 108.395 101.032 L 108.560 96.371 L 108.725 91.709 L 108.725 89.709 L 108.525 88.638" />
<path fill="none" stroke="#000000" stroke-width="1" stroke-linecap="round" stroke-linejoin="round" d="M 108.525 88.138 L 106.512 85.913 L 104.628 83.582 L 103.536 81.915 L 102.627 80.141 L 101.581 77.339 L 100.443 73.517 L 98.505 67.858 L 96.389 62.266 L 90.182 49.773 L 87.278 44.543 L 83.914 39.589 L 80.462 34.693 L 76.072 29.247 L 70.738 23.288 L 64.437 16.863 L 59.321 12.087 L 52.469 6.258 L 44.451 0.304 L 37.063 -4.809 L 26.820 -10.999 L 19.025 -15.362" />
<path fill="none" stroke="#000000" stroke-width="1" stroke-linecap="round" stroke-linejoin="round" d="M 109.025 88.138 L 111.969 85.429 L 114.032 83.252 L 115.359 81.756 L 116.444 80.089 L 117.258 78.271 L 119.231 72.625 L 120.697 68.920 L 125.512 57.976 L 127.712 53.507 L 129.232 50.927 L 130.577 48.258 L 134.775 41.471 L 138.167 36.535 L 141.164 32.541 L 145.619 27.146 L 149.708 22.755 L 152.536 19.927 L 158.342 14.423 L 162.854 10.471 L 169.206 5.624 L 172.492 3.354 L 174.212 2.344 L 179.200 -0.973 L 184.406 -3.915 L 196.868 -10.191 L 198.525 -11.362" />
<path fill="none" stroke="#000000" stroke-width="1" stroke-linecap="round" stroke-linejoin="round" d="M 198.525 -11.362 L 199.419 -10.915 L 200.967 -10.529 L 202.515 -10.143 L 204.063 -9.757 L 205.612 -9.371 L 207.160 -8.984 L 208.863 -8.602 L 210.567 -8.219 L 212.270 -7.837 L 213.974 -7.454 L 215.749 -7.158 L 217.525 -6.862" />
<path fill="none" stroke="#000000" stroke-width="1" stroke-linecap="round" stroke-linejoin="round" d="M 198.525 -11.362 L 198.778 -12.499 L 199.032 -13.636 L 199.285 -14.772 L 199.538 -15.909 L 199.792 -17.045 L 200.045 -18.182 L 200.415 -19.602 L 200.785 -21.022 L 201.155 -22.442 L 201.525 -23.862" />
<path fill="none" stroke="#000000" stroke-width="1" stroke-linecap="round" stroke-linejoin="round" d="M 3.525 -11.862 L 5.078 -12.234 L 6.631 -12.606 L 8.184 -12.978 L 9.738 -13.350 L 11.291 -13.722 L 12.758 -14.019 L 14.226 -14.315 L 15.693 -14.611 L 17.160 -14.908 L 18.525 -15.362" />
<path fill="none" stroke="#000000" stroke-width="1" stroke-linecap="round" stroke-linejoin="round" d="M 19.025 -15.862 L 18.768 -17.082 L 18.510 -18.302 L 18.253 -19.522 L 17.995 -20.742 L 17.738 -21.962 L 17.480 -23.182 L 17.223 -24.402 L 16.965 -25.622 L 16.676 -26.575 L 16.025 -27.862" />
</svg>