<?xml version="1.0" encoding="UTF-8"?>
<svg xmlns="http://www.w3.org/2000/svg" viewBox="0.419 -6.940 318.530 156.530">
<path fill="none" stroke="#000000" stroke-width="1" stroke-linecap="round" stroke-linejoin="round" d="M 91.934 140.575 L 90.958 140.358 L 89.660 139.624 L 88.361 138.890 L 85.383 136.224 L 82.719 133.245 L 79.357 127.133 L 76.195 120.915 L 73.666 116.616 L 70.470 110.413 L 68.486 106.953 L 66.276 102.487 L 65.238 100.781 L 61.149 92.797 L 59.629 90.217 L 57.407 85.757 L 45.434 64.575" />
<path fill="none" stroke="#000000" stroke-width="1" stroke-linecap="round" stroke-linejoin="round" d="M 92.434 140.575 L 93.909 138.558 L 95.383 136.541 L 97.336 133.069 L 99.345 127.434 L 104.052 113.240 L 104.820 111.403 L 107.839 102.956 L 110.964 93.492 L 113.344 86.936 L 115.503 80.300 L 118.793 71.958 L 119.357 70.048 L 119.546 68.057 L 119.667 65.061 L 119.434 61.575" />
<path fill="none" stroke="#000000" stroke-width="1" stroke-linecap="round" stroke-linejoin="round" d="M 200.434 99.575 L 200.023 96.607 L 199.585 91.627 L 198.852 79.651 L 198.362 73.674 L 197.326 63.734 L 195.335 48.883 L 193.518 37.038 L 193.321 34.044 L 193.241 29.046 L 193.518 25.057 L 194.051 23.137 L 194.580 21.740 L 195.110 20.342 L 196.434 18.075" />
<path fill="none" stroke="#000000" stroke-width="1" stroke-linecap="round" stroke-linejoin="round" d="M 196.934 18.075 L 198.866 18.570 L 199.780 18.959 L 200.695 19.349 L 201.963 20.143 L 203.230 20.938 L 204.709 22.283 L 206.187 23.628 L 208.779 26.666 L 210.466 29.140 L 213.993 35.162 L 217.859 42.136 L 220.504 47.500 L 222.488 50.959 L 224.314 54.502 L 230.729 65.765 L 233.817 70.891 L 237.671 76.720 L 242.058 82.169 L 244.732 85.139 L 246.908 87.195 L 250.170 89.493 L 252.807 90.899 L 255.592 91.985 L 259.506 92.772 L 262.491 92.574 L 265.395 91.874 L 267.116 90.864 L 267.902 90.246 L 269.979 88.089 L 271.702 85.639 L 273.086 82.989 L 274.294 80.255 L 276.367 73.593 L 277.380 68.706 L 278.887 59.848 L 280.527 45.955 L 281.542 39.038 L 283.063 30.180 L 283.508 28.234 L 284.978 23.471 L 286.725 19.893 L 288.684 17.625 L 290.952 15.670 L 292.861 15.120 L 295.851 14.890 L 297.850 14.875 L 301.826 15.221 L 304.552 16.442 L 306.274 17.434 L 309.934 20.575" />
<path fill="none" stroke="#000000" stroke-width="1" stroke-linecap="round" stroke-linejoin="round" d="M 45.434 64.575 L 43.095 60.177 L 42.394 58.314 L 42.070 57.369 L 41.668 55.415 L 41.434 53.075" />
<path fill="none" stroke="#000000" stroke-width="1" stroke-linecap="round" stroke-linejoin="round" d="M 45.434 64.575 L 59.434 50.575" />
<path fill="none" stroke="#000000" stroke-width="1" stroke-linecap="round" stroke-linejoin="round" d="M 119.434 61.575 L 117.990 61.177 L 116.546 60.779 L 113.620 60.148 L 105.716 58.971 L 93.896 57.008 L 67.478 51.686 L 60.602 50.461 L 59.434 50.575" />
<path fill="none" stroke="#000000" stroke-width="1" stroke-linecap="round" stroke-linejoin="round" d="M 119.434 61.575 L 121.435 59.339 L 122.646 57.751 L 124.625 54.289 L 127.826 48.090 L 130.729 41.750 L 136.959 29.263 L 143.507 18.074 L 145.098 15.538 L 149.222 9.893 L 151.857 6.887 L 156.434 2.075" />
<path fill="none" stroke="#000000" stroke-width="1" stroke-linecap="round" stroke-linejoin="round" d="M 41.434 53.075 L 35.908 47.291 L 33.943 45.027 L 31.023 40.981 L 14.142 13.890 L 11.937 10.559 L 10.435 7.976 L 9.434 6.575" />
<path fill="none" stroke="#000000" stroke-width="1" stroke-linecap="round" stroke-linejoin="round" d="M 41.434 53.075 L 43.061 51.924 L 45.279 50.789 L 47.496 49.654 L 50.300 48.616 L 51.282 48.432 L 52.278 48.375 L 54.261 48.600 L 56.184 49.125 L 58.046 49.827 L 59.434 50.575" />
<path fill="none" stroke="#000000" stroke-width="1" stroke-linecap="round" stroke-linejoin="round" d="M 196.434 17.575 L 195.907 16.730 L 194.877 13.923 L 193.934 12.075" />
</svg>