<?xml version="1.0" encoding="UTF-8"?>
<svg xmlns="http://www.w3.org/2000/svg" viewBox="27.400 -14.139 194.125 199.840">
<path fill="none" stroke="#000000" stroke-width="1" stroke-linecap="round" stroke-linejoin="round" d="M 119.775 180.045 L 119.356 179.364 L 118.935 178.684 L 118.512 178.005 L 118.087 177.327 L 117.660 176.650 L 117.232 175.974 L 116.802 175.300 L 116.371 174.626 L 115.939 173.953 L 115.506 173.280 L 115.072 172.608 L 114.637 171.936 L 114.202 171.265 L 113.768 170.593 L 113.333 169.922 L 112.898 169.250 L 112.464 168.578 L 112.031 167.905 L 111.599 167.232 L 111.168 166.558 L 110.738 165.884 L 110.310 165.208 L 109.884 164.530 L 109.460 163.852 L 109.039 163.172 L 108.620 162.490 L 108.205 161.806 L 107.793 161.121 L 107.384 160.433 L 106.979 159.743 L 106.578 159.051 L 106.181 158.356 L 105.789 157.659 L 105.402 156.959 L 105.019 156.256 L 104.643 155.551 L 104.271 154.842 L 103.906 154.131 L 103.546 153.416 L 103.193 152.698 L 102.847 151.977 L 102.507 151.253 L 102.174 150.525 L 101.849 149.794 L 101.531 149.061 L 101.257 148.415 L 101.025 147.858" />
<path fill="none" stroke="#000000" stroke-width="1" stroke-linecap="round" stroke-linejoin="round" d="M 122.119 152.456 L 122.119 151.656 L 122.119 150.856 L 122.119 150.056 L 122.119 149.256 L 122.119 148.456 L 122.119 147.656 L 122.119 146.856 L 122.119 146.056 L 122.119 145.256 L 122.119 144.456 L 122.119 143.656 L 122.119 142.856 L 122.119 142.056 L 122.119 141.256 L 122.119 140.456 L 122.119 139.656 L 122.119 138.856 L 122.119 138.056 L 122.119 137.256 L 122.119 136.456 L 122.119 135.656 L 122.119 134.856 L 122.119 134.056 L 122.119 133.256 L 122.119 132.456 L 122.119 131.656 L 122.119 130.856 L 122.119 130.056 L 122.119 129.256 L 122.119 128.456 L 122.119 127.656 L 122.119 126.856 L 122.119 126.056 L 122.119 125.256 L 122.119 124.456 L 122.119 123.656 L 122.119 122.856 L 122.119 122.056 L 122.119 121.256 L 122.119 120.456 L 122.119 119.656 L 122.119 118.856 L 122.119 118.056 L 122.119 117.256 L 122.119 116.456 L 122.119 115.656 L 122.119 114.856 L 122.119 114.056 L 122.119 113.256 L 122.119 112.456 L 122.119 111.656 L 122.119 110.856 L 122.119 110.056 L 122.119 109.256 L 122.119 108.456 L 122.119 107.656 L 122.119 106.856 L 122.119 106.056 L 122.119 105.256 L 122.119 104.456 L 122.119 103.656 L 122.119 102.856 L 122.119 102.056 L 122.119 101.256 L 122.119 100.456 L 122.119 99.656 L 122.119 98.856 L 122.119 98.056 L 122.119 97.256 L 122.119 96.456 L 122.119 95.656 L 122.119 94.856 L 122.119 94.056 L 122.119 93.256 L 122.119 92.456 L 122.119 91.656 L 122.119 90.856 L 122.119 90.056 L 122.119 89.256 L 122.119 88.456 L 122.119 87.656 L 122.119 86.856 L 122.119 86.056 L 122.119 85.256 L 122.119 84.456 L 122.119 83.656 L 122.119 82.856 L 122.119 82.056 L 122.119 81.256 L 122.119 80.456 L 122.119 79.656 L 122.119 78.856 L 122.119 78.056 L 122.119 77.256 L 122.119 76.456 L 122.119 75.656 L 122.119 74.856 L 122.119 74.056 L 122.119 73.256 L 122.119 72.456 L 122.119 71.656 L 122.119 70.856 L 122.119 70.056 L 122.119 69.256 L 122.119 68.456 L 122.119 67.656 L 122.119 66.856 L 122.119 66.056 L 122.119 65.256 L 122.119 64.456 L 122.119 63.656 L 122.119 62.856 L 122.119 62.056 L 122.119 61.256 L 122.119 60.456 L 122.119 59.656 L 122.119 58.856 L 122.118 58.056 L 122.110 57.256 L 122.094 56.456 L 122.058 55.658 L 121.998 54.861 L 121.913 54.066 L 121.811 53.272 L 121.699 52.480 L 121.578 51.689 L 121.446 50.901 L 121.303 50.113 L 121.149 49.328 L 120.986 48.546 L 120.812 47.765 L 120.626 46.987 L 120.431 46.211 L 120.226 45.438 L 120.008 44.668 L 119.780 43.901 L 119.541 43.138 L 119.292 42.378 L 119.032 41.621 L 118.760 40.869 L 118.479 40.120 L 118.188 39.375 L 117.884 38.635 L 117.571 37.899 L 117.246 37.169 L 116.911 36.442 L 116.568 35.719 L 116.212 35.003 L 115.847 34.291 L 115.471 33.586 L 115.085 32.885 L 114.692 32.188 L 114.286 31.499 L 113.872 30.814 L 113.447 30.137 L 113.014 29.464 L 112.573 28.797 L 112.121 28.137 L 111.662 27.482 L 111.192 26.834 L 110.715 26.192 L 110.231 25.555 L 109.737 24.926 L 109.236 24.302 L 108.726 23.686 L 108.210 23.076 L 107.687 22.470 L 107.154 21.873 L 106.616 21.281 L 106.071 20.696 L 105.518 20.118 L 104.961 19.544 L 104.395 18.978 L 103.824 18.418 L 103.247 17.865 L 102.663 17.317 L 102.075 16.775 L 101.480 16.240 L 100.881 15.711 L 100.276 15.187 L 99.665 14.670 L 99.051 14.158 L 98.430 13.654 L 97.805 13.154 L 97.177 12.659 L 96.543 12.171 L 95.905 11.688 L 95.263 11.211 L 94.617 10.739 L 93.967 10.272 L 93.313 9.812 L 92.656 9.356 L 91.995 8.905 L 91.331 8.460 L 90.663 8.019 L 89.992 7.584 L 89.318 7.153 L 88.641 6.727 L 87.960 6.306 L 87.278 5.889 L 86.592 5.477 L 85.903 5.070 L 85.212 4.667 L 84.518 4.269 L 83.822 3.875 L 83.124 3.484 L 82.608 3.198 L 82.275 3.013" />
<path fill="none" stroke="#000000" stroke-width="1" stroke-linecap="round" stroke-linejoin="round" d="M 93.994 122.567 L 93.423 122.007 L 92.852 121.447 L 92.281 120.887 L 91.709 120.326 L 91.138 119.766 L 90.567 119.206 L 89.997 118.645 L 89.426 118.085 L 88.855 117.524 L 88.284 116.964 L 87.713 116.403 L 87.143 115.842 L 86.572 115.282 L 86.002 114.721 L 85.431 114.160 L 84.861 113.599 L 84.291 113.037 L 83.721 112.476 L 83.151 111.915 L 82.581 111.353 L 82.012 110.791 L 81.442 110.229 L 80.873 109.667 L 80.304 109.105 L 79.735 108.543 L 79.166 107.980 L 78.598 107.417 L 78.029 106.854 L 77.461 106.291 L 76.893 105.728 L 76.326 105.164 L 75.758 104.600 L 75.191 104.036 L 74.624 103.472 L 74.057 102.907 L 73.490 102.343 L 72.924 101.777 L 72.358 101.212 L 71.792 100.647 L 71.226 100.081 L 70.661 99.515 L 70.096 98.948 L 69.532 98.382 L 68.967 97.814 L 68.403 97.247 L 67.839 96.680 L 67.276 96.112 L 66.713 95.543 L 66.150 94.975 L 65.588 94.406 L 65.026 93.836 L 64.464 93.267 L 63.903 92.697 L 63.342 92.126 L 62.781 91.556 L 62.221 90.985 L 61.661 90.413 L 61.102 89.841 L 60.543 89.269 L 59.984 88.696 L 59.426 88.123 L 58.868 87.550 L 58.311 86.976 L 57.754 86.402 L 57.197 85.827 L 56.641 85.252 L 56.085 84.676 L 55.530 84.100 L 54.975 83.524 L 54.421 82.947 L 53.867 82.370 L 53.314 81.792 L 52.761 81.214 L 52.209 80.635 L 51.657 80.056 L 51.106 79.476 L 50.555 78.896 L 50.004 78.315 L 49.455 77.734 L 48.905 77.153 L 48.357 76.571 L 47.808 75.988 L 47.261 75.405 L 46.713 74.821 L 46.167 74.237 L 45.621 73.653 L 45.075 73.067 L 44.530 72.482 L 43.986 71.895 L 43.442 71.309 L 42.899 70.721 L 42.356 70.134 L 41.814 69.545 L 41.273 68.956 L 40.732 68.367 L 40.191 67.777 L 39.652 67.186 L 39.113 66.595 L 38.574 66.004 L 38.118 65.501 L 37.744 65.089" />
<path fill="none" stroke="#000000" stroke-width="1" stroke-linecap="round" stroke-linejoin="round" d="M 140.869 122.567 L 141.546 122.142 L 142.223 121.715 L 142.898 121.286 L 143.573 120.856 L 144.245 120.423 L 144.917 119.988 L 145.587 119.552 L 146.257 119.113 L 146.924 118.673 L 147.591 118.231 L 148.256 117.786 L 148.920 117.340 L 149.583 116.892 L 150.244 116.441 L 150.904 115.989 L 151.563 115.535 L 152.220 115.079 L 152.876 114.622 L 153.531 114.162 L 154.184 113.701 L 154.837 113.237 L 155.487 112.772 L 156.137 112.305 L 156.785 111.836 L 157.431 111.365 L 158.077 110.892 L 158.721 110.417 L 159.364 109.941 L 160.005 109.463 L 160.645 108.983 L 161.284 108.501 L 161.921 108.017 L 162.557 107.532 L 163.191 107.044 L 163.824 106.555 L 164.456 106.064 L 165.086 105.572 L 165.715 105.077 L 166.342 104.581 L 166.969 104.083 L 167.593 103.583 L 168.216 103.082 L 168.838 102.578 L 169.459 102.073 L 170.078 101.566 L 170.695 101.058 L 171.311 100.548 L 171.926 100.035 L 172.539 99.522 L 173.151 99.006 L 173.761 98.489 L 174.370 97.970 L 174.977 97.449 L 175.583 96.927 L 176.188 96.403 L 176.791 95.877 L 177.392 95.350 L 177.992 94.820 L 178.591 94.290 L 179.188 93.757 L 179.783 93.223 L 180.377 92.687 L 180.969 92.149 L 181.560 91.610 L 182.149 91.069 L 182.737 90.526 L 183.324 89.982 L 183.908 89.436 L 184.492 88.888 L 185.073 88.339 L 185.653 87.788 L 186.232 87.235 L 186.809 86.681 L 187.384 86.125 L 187.958 85.568 L 188.530 85.009 L 189.100 84.448 L 189.669 83.885 L 190.236 83.321 L 190.802 82.756 L 191.366 82.188 L 191.928 81.619 L 192.489 81.049 L 193.048 80.477 L 193.606 79.903 L 194.162 79.327 L 194.716 78.750 L 195.268 78.172 L 195.819 77.591 L 196.368 77.010 L 196.915 76.426 L 197.461 75.841 L 198.005 75.254 L 198.547 74.666 L 199.088 74.076 L 199.626 73.485 L 200.163 72.892 L 200.698 72.297 L 201.232 71.701 L 201.764 71.103 L 202.293 70.504 L 202.821 69.903 L 203.348 69.301 L 203.872 68.697 L 204.395 68.091 L 204.916 67.484 L 205.435 66.875 L 205.952 66.265 L 206.467 65.653 L 206.981 65.039 L 207.492 64.424 L 208.002 63.807 L 208.450 63.263 L 208.837 62.790" />
<path fill="none" stroke="#000000" stroke-width="1" stroke-linecap="round" stroke-linejoin="round" d="M 117.431 85.781 L 116.888 85.194 L 116.345 84.607 L 115.802 84.019 L 115.259 83.432 L 114.716 82.844 L 114.174 82.255 L 113.632 81.667 L 113.091 81.078 L 112.550 80.489 L 112.008 79.900 L 111.468 79.310 L 110.927 78.720 L 110.387 78.131 L 109.846 77.540 L 109.307 76.950 L 108.767 76.360 L 108.227 75.769 L 107.688 75.178 L 107.149 74.587 L 106.610 73.996 L 106.071 73.405 L 105.532 72.813 L 104.994 72.222 L 104.455 71.630 L 103.917 71.038 L 103.379 70.446 L 102.841 69.854 L 102.303 69.262 L 101.765 68.670 L 101.228 68.077 L 100.690 67.485 L 100.153 66.892 L 99.615 66.299 L 99.078 65.707 L 98.541 65.114 L 98.004 64.521 L 97.467 63.928 L 96.930 63.335 L 96.393 62.742 L 95.856 62.149 L 95.319 61.555 L 94.783 60.962 L 94.246 60.369 L 93.709 59.775 L 93.173 59.182 L 92.636 58.589 L 92.100 57.995 L 91.563 57.402 L 91.027 56.808 L 90.490 56.215 L 89.954 55.622 L 89.417 55.028 L 88.881 54.435 L 88.344 53.841 L 87.808 53.248 L 87.271 52.654 L 86.735 52.061 L 86.198 51.467 L 85.662 50.874 L 85.125 50.281 L 84.589 49.687 L 84.052 49.094 L 83.515 48.501 L 82.979 47.908 L 82.442 47.314 L 81.905 46.721 L 81.368 46.128 L 80.831 45.535 L 80.294 44.942 L 79.757 44.349 L 79.220 43.756 L 78.683 43.163 L 78.146 42.570 L 77.608 41.978 L 77.071 41.385 L 76.534 40.793 L 75.996 40.200 L 75.458 39.608 L 74.921 39.015 L 74.383 38.423 L 73.845 37.831 L 73.307 37.239 L 72.769 36.647 L 72.231 36.055 L 71.692 35.463 L 71.154 34.871 L 70.616 34.280 L 70.077 33.688 L 69.538 33.097 L 68.999 32.506 L 68.460 31.914 L 67.921 31.323 L 67.382 30.732 L 66.843 30.142 L 66.303 29.551 L 65.764 28.960 L 65.224 28.370 L 64.684 27.779 L 64.144 27.189 L 63.604 26.599 L 63.063 26.009 L 62.523 25.419 L 61.982 24.830 L 61.441 24.240 L 60.901 23.651 L 60.359 23.061 L 59.818 22.472 L 59.277 21.883 L 58.735 21.294 L 58.193 20.706 L 57.652 20.117 L 57.110 19.529 L 56.567 18.941 L 56.025 18.353 L 55.482 17.765 L 54.940 17.177 L 54.397 16.590 L 53.854 16.002 L 53.310 15.415 L 52.767 14.828 L 52.223 14.241 L 51.679 13.654 L 51.135 13.068 L 50.591 12.481 L 50.046 11.895 L 49.502 11.309 L 48.957 10.724 L 48.412 10.138 L 47.867 9.553 L 47.321 8.967 L 46.776 8.382 L 46.230 7.797 L 45.684 7.213 L 45.137 6.628 L 44.591 6.044 L 44.044 5.460 L 43.497 4.876 L 42.950 4.293 L 42.403 3.709 L 41.855 3.126 L 41.307 2.543 L 40.759 1.960 L 40.211 1.377 L 39.663 0.795 L 39.114 0.213 L 38.565 -0.369 L 38.016 -0.951 L 37.467 -1.532 L 36.917 -2.114 L 36.367 -2.695 L 35.817 -3.276 L 35.267 -3.856 L 34.716 -4.437 L 34.165 -5.017 L 33.614 -5.597 L 33.244 -5.986 L 33.056 -6.184" />
<path fill="none" stroke="#000000" stroke-width="1" stroke-linecap="round" stroke-linejoin="round" d="M 131.494 88.080 L 131.898 87.390 L 132.304 86.701 L 132.711 86.012 L 133.120 85.325 L 133.531 84.638 L 133.944 83.953 L 134.358 83.269 L 134.774 82.585 L 135.192 81.903 L 135.612 81.222 L 136.034 80.542 L 136.457 79.863 L 136.882 79.186 L 137.309 78.509 L 137.737 77.833 L 138.167 77.159 L 138.599 76.485 L 139.032 75.813 L 139.467 75.142 L 139.904 74.471 L 140.343 73.802 L 140.783 73.134 L 141.225 72.467 L 141.668 71.802 L 142.114 71.137 L 142.560 70.473 L 143.009 69.811 L 143.458 69.149 L 143.910 68.489 L 144.363 67.829 L 144.818 67.171 L 145.274 66.514 L 145.732 65.858 L 146.192 65.204 L 146.653 64.550 L 147.116 63.897 L 147.580 63.246 L 148.046 62.595 L 148.513 61.946 L 148.982 61.298 L 149.452 60.650 L 149.924 60.005 L 150.397 59.360 L 150.873 58.716 L 151.349 58.073 L 151.827 57.432 L 152.306 56.791 L 152.788 56.152 L 153.270 55.514 L 153.754 54.877 L 154.239 54.241 L 154.726 53.606 L 155.215 52.973 L 155.704 52.340 L 156.196 51.709 L 156.689 51.079 L 157.183 50.450 L 157.678 49.822 L 158.175 49.195 L 158.674 48.569 L 159.174 47.945 L 159.675 47.321 L 160.178 46.699 L 160.682 46.078 L 161.188 45.458 L 161.695 44.839 L 162.203 44.221 L 162.713 43.605 L 163.225 42.990 L 163.737 42.376 L 164.251 41.763 L 164.767 41.151 L 165.283 40.540 L 165.802 39.931 L 166.321 39.322 L 166.842 38.715 L 167.364 38.109 L 167.888 37.504 L 168.413 36.900 L 168.939 36.298 L 169.467 35.697 L 169.996 35.097 L 170.526 34.498 L 171.058 33.900 L 171.591 33.303 L 172.126 32.708 L 172.661 32.114 L 173.198 31.521 L 173.736 30.929 L 174.276 30.339 L 174.817 29.749 L 175.359 29.161 L 175.903 28.574 L 176.448 27.988 L 176.994 27.404 L 177.542 26.821 L 178.090 26.238 L 178.640 25.658 L 179.192 25.078 L 179.744 24.499 L 180.298 23.922 L 180.853 23.346 L 181.410 22.771 L 181.968 22.198 L 182.526 21.626 L 183.087 21.054 L 183.648 20.485 L 184.211 19.916 L 184.775 19.349 L 185.340 18.782 L 185.907 18.218 L 186.474 17.654 L 187.043 17.092 L 187.613 16.530 L 188.185 15.971 L 188.757 15.412 L 189.331 14.855 L 189.907 14.298 L 190.483 13.744 L 191.060 13.190 L 191.639 12.638 L 192.219 12.087 L 192.800 11.537 L 193.383 10.988 L 193.966 10.441 L 194.551 9.895 L 195.137 9.350 L 195.724 8.807 L 196.312 8.265 L 196.902 7.725 L 197.493 7.185 L 198.085 6.647 L 198.678 6.110 L 199.272 5.574 L 199.867 5.040 L 200.464 4.507 L 201.062 3.975 L 201.661 3.445 L 202.261 2.916 L 202.862 2.388 L 203.464 1.862 L 204.068 1.337 L 204.673 0.813 L 205.278 0.290 L 205.885 -0.231 L 206.494 -0.750 L 207.103 -1.269 L 207.713 -1.786 L 208.325 -2.302 L 208.937 -2.816 L 209.551 -3.330 L 210.166 -3.841 L 210.782 -4.352 L 211.399 -4.861 L 212.017 -5.368 L 212.637 -5.875 L 213.257 -6.380 L 213.879 -6.884 L 214.501 -7.386 L 215.125 -7.887 L 215.581 -8.252 L 215.869 -8.483" />
</svg>