<?xml version="1.0" encoding="UTF-8"?>
<svg xmlns="http://www.w3.org/2000/svg" viewBox="70.475 -17.200 109.956 199.625">
<path fill="none" stroke="#000000" stroke-width="1" stroke-linecap="round" stroke-linejoin="round" d="M 76.125 139.575 L 76.923 139.636 L 77.720 139.697 L 78.518 139.759 L 79.316 139.820 L 80.113 139.879 L 80.911 139.935 L 81.710 139.988 L 82.508 140.041 L 83.306 140.094 L 84.104 140.146 L 84.903 140.195 L 85.702 140.242 L 86.500 140.287 L 87.299 140.333 L 88.098 140.378 L 88.897 140.421 L 89.695 140.462 L 90.495 140.501 L 91.294 140.540 L 92.093 140.579 L 92.892 140.617 L 93.691 140.653 L 94.490 140.686 L 95.290 140.719 L 96.089 140.751 L 96.888 140.784 L 97.688 140.815 L 98.487 140.845 L 99.287 140.872 L 100.086 140.899 L 100.886 140.926 L 101.685 140.952 L 102.485 140.978 L 103.285 141.001 L 104.084 141.023 L 104.884 141.044 L 105.684 141.065 L 106.483 141.086 L 107.283 141.106 L 108.083 141.125 L 108.883 141.141 L 109.683 141.157 L 110.482 141.173 L 111.282 141.188 L 112.082 141.203 L 112.882 141.217 L 113.682 141.228 L 114.482 141.239 L 115.282 141.249 L 116.082 141.260 L 116.882 141.270 L 117.682 141.279 L 118.482 141.286 L 119.282 141.291 L 120.082 141.296 L 120.882 141.302 L 121.681 141.307 L 122.481 141.311 L 123.281 141.314 L 124.081 141.314 L 124.881 141.315 L 125.681 141.315 L 126.481 141.316 L 127.281 141.315 L 128.081 141.313 L 128.881 141.309 L 129.681 141.304 L 130.481 141.300 L 131.281 141.295 L 132.081 141.290 L 132.881 141.283 L 133.681 141.274 L 134.481 141.265 L 135.281 141.255 L 136.081 141.246 L 136.881 141.236 L 137.681 141.224 L 138.481 141.211 L 139.281 141.196 L 140.081 141.181 L 140.880 141.166 L 141.680 141.152 L 142.480 141.135 L 143.280 141.117 L 144.080 141.097 L 144.879 141.077 L 145.679 141.057 L 146.479 141.037 L 147.279 141.015 L 148.078 140.991 L 148.878 140.966 L 149.677 140.940 L 150.477 140.914 L 151.277 140.889 L 152.076 140.861 L 152.876 140.832 L 153.675 140.801 L 154.474 140.769 L 155.274 140.738 L 156.073 140.706 L 156.872 140.672 L 157.672 140.637 L 158.471 140.599 L 159.270 140.561 L 160.069 140.524 L 160.868 140.485 L 161.667 140.445 L 162.466 140.402 L 163.265 140.357 L 164.063 140.313 L 164.862 140.269 L 165.661 140.222 L 166.459 140.174 L 167.258 140.122 L 168.056 140.071 L 168.854 140.019 L 169.653 139.966 L 170.451 139.910 L 171.248 139.852 L 172.046 139.792 L 172.844 139.733 L 173.561 139.586 L 174.050 139.196 L 174.312 138.561 L 174.427 137.770 L 174.542 136.978 L 174.658 136.186 L 174.741 135.393 L 174.781 134.596 L 174.777 133.797 L 174.761 132.997 L 174.745 132.197 L 174.730 131.398 L 174.714 130.598 L 174.698 129.798 L 174.682 128.998 L 174.666 128.198 L 174.651 127.398 L 174.635 126.598 L 174.619 125.799 L 174.603 124.999 L 174.588 124.199 L 174.572 123.399 L 174.556 122.599 L 174.540 121.799 L 174.525 121.000 L 174.509 120.200 L 174.493 119.400 L 174.477 118.600 L 174.462 117.800 L 174.446 117.000 L 174.430 116.201 L 174.414 115.401 L 174.399 114.601 L 174.383 113.801 L 174.367 113.001 L 174.351 112.201 L 174.336 111.401 L 174.320 110.602 L 174.304 109.802 L 174.288 109.002 L 174.272 108.202 L 174.257 107.402 L 174.241 106.602 L 174.225 105.803 L 174.209 105.003 L 174.194 104.203 L 174.178 103.403 L 174.162 102.603 L 174.146 101.803 L 174.131 101.003 L 174.115 100.204 L 174.099 99.404 L 174.083 98.604 L 174.068 97.804 L 174.052 97.004 L 174.036 96.204 L 174.020 95.405 L 174.005 94.605 L 173.989 93.805 L 173.973 93.005 L 173.957 92.205 L 173.942 91.405 L 173.926 90.605 L 173.910 89.806 L 173.894 89.006 L 173.878 88.206 L 173.863 87.406 L 173.847 86.606 L 173.831 85.806 L 173.815 85.007 L 173.800 84.207 L 173.784 83.407 L 173.768 82.607 L 173.752 81.807 L 173.737 81.007 L 173.721 80.207 L 173.705 79.408 L 173.689 78.608 L 173.674 77.808 L 173.658 77.008 L 173.642 76.208 L 173.626 75.408 L 173.611 74.609 L 173.595 73.809 L 173.579 73.009 L 173.563 72.209 L 173.548 71.409 L 173.532 70.609 L 173.516 69.810 L 173.500 69.010 L 173.485 68.210 L 173.469 67.410 L 173.453 66.610 L 173.437 65.810 L 173.421 65.010 L 173.406 64.211 L 173.390 63.411 L 173.374 62.611 L 173.358 61.811 L 173.343 61.011 L 173.327 60.211 L 173.311 59.412 L 173.295 58.612 L 173.280 57.812 L 173.264 57.012 L 173.248 56.212 L 173.232 55.412 L 173.217 54.612 L 173.201 53.813 L 173.185 53.013 L 173.169 52.213 L 173.154 51.413 L 173.138 50.613 L 173.122 49.813 L 173.106 49.014 L 173.091 48.214 L 173.075 47.414 L 173.059 46.614 L 173.043 45.814 L 173.027 45.014 L 173.012 44.214 L 172.996 43.415 L 172.980 42.615 L 172.964 41.815 L 172.949 41.015 L 172.933 40.215 L 172.917 39.415 L 172.748 38.715 L 172.343 38.167 L 171.703 37.772 L 170.979 37.430 L 170.255 37.091 L 169.508 36.829 L 168.738 36.645 L 167.945 36.536 L 167.153 36.428 L 166.360 36.319 L 165.567 36.213 L 164.773 36.112 L 163.979 36.017 L 163.185 35.923 L 162.390 35.829 L 161.596 35.735 L 160.801 35.646 L 160.005 35.561 L 159.209 35.481 L 158.413 35.401 L 157.617 35.321 L 156.821 35.242 L 156.025 35.167 L 155.228 35.097 L 154.431 35.030 L 153.634 34.962 L 152.836 34.895 L 152.039 34.829 L 151.241 34.768 L 150.444 34.711 L 149.645 34.656 L 148.847 34.600 L 148.049 34.545 L 147.251 34.492 L 146.453 34.443 L 145.654 34.397 L 144.855 34.353 L 144.056 34.309 L 143.258 34.266 L 142.459 34.224 L 141.660 34.186 L 140.860 34.152 L 140.061 34.119 L 139.262 34.086 L 138.462 34.053 L 137.663 34.022 L 136.863 33.995 L 136.064 33.971 L 135.264 33.949 L 134.464 33.927 L 133.665 33.905 L 132.865 33.884 L 132.065 33.867 L 131.265 33.854 L 130.465 33.842 L 129.665 33.831 L 128.866 33.819 L 128.066 33.809 L 127.266 33.801 L 126.466 33.798 L 125.666 33.797 L 124.866 33.796 L 124.066 33.795 L 123.266 33.794 L 122.466 33.797 L 121.666 33.803 L 120.866 33.812 L 120.066 33.822 L 119.266 33.831 L 118.466 33.841 L 117.666 33.853 L 116.866 33.869 L 116.066 33.889 L 115.267 33.909 L 114.467 33.929 L 113.667 33.949 L 112.868 33.971 L 112.068 33.997 L 111.269 34.027 L 110.469 34.058 L 109.670 34.089 L 108.870 34.119 L 108.071 34.152 L 107.272 34.189 L 106.473 34.230 L 105.674 34.271 L 104.875 34.313 L 104.076 34.355 L 103.277 34.399 L 102.479 34.447 L 101.681 34.498 L 100.882 34.552 L 100.084 34.605 L 99.286 34.658 L 98.488 34.714 L 97.690 34.774 L 96.893 34.837 L 96.095 34.902 L 95.298 34.968 L 94.501 35.033 L 93.704 35.101 L 92.907 35.174 L 92.111 35.251 L 91.314 35.329 L 90.518 35.407 L 89.722 35.485 L 88.926 35.568 L 88.131 35.655 L 87.336 35.746 L 86.542 35.837 L 85.747 35.929 L 84.952 36.022 L 84.158 36.121 L 83.365 36.224 L 82.572 36.330 L 81.779 36.436 L 80.986 36.543 L 80.195 36.657 L 79.404 36.780 L 78.615 36.911 L 77.826 37.042 L 77.037 37.172 L 76.470 37.492 L 76.166 38.034 L 76.125 38.799 L 76.125 39.599 L 76.125 40.399 L 76.125 41.199 L 76.125 41.999 L 76.125 42.799 L 76.125 43.599 L 76.125 44.399 L 76.125 45.199 L 76.125 45.999 L 76.125 46.799 L 76.125 47.599 L 76.125 48.399 L 76.125 49.199 L 76.125 49.999 L 76.125 50.799 L 76.125 51.599 L 76.125 52.399 L 76.125 53.199 L 76.125 53.999 L 76.125 54.799 L 76.125 55.599 L 76.125 56.399 L 76.125 57.199 L 76.125 57.999 L 76.125 58.799 L 76.125 59.599 L 76.125 60.399 L 76.125 61.199 L 76.125 61.999 L 76.125 62.799 L 76.125 63.599 L 76.125 64.399 L 76.125 65.199 L 76.125 65.999 L 76.125 66.799 L 76.125 67.599 L 76.125 68.399 L 76.125 69.199 L 76.125 69.999 L 76.125 70.799 L 76.125 71.599 L 76.125 72.399 L 76.125 73.199 L 76.125 73.999 L 76.125 74.799 L 76.125 75.599 L 76.125 76.399 L 76.125 77.199 L 76.125 77.999 L 76.125 78.799 L 76.125 79.599 L 76.125 80.399 L 76.125 81.199 L 76.125 81.999 L 76.125 82.799 L 76.125 83.599 L 76.125 84.399 L 76.125 85.199 L 76.125 85.999 L 76.125 86.799 L 76.125 87.599 L 76.125 88.399 L 76.125 89.199 L 76.125 89.999 L 76.125 90.799 L 76.125 91.599 L 76.125 92.399 L 76.125 93.199 L 76.125 93.999 L 76.125 94.799 L 76.125 95.599 L 76.125 96.399 L 76.125 97.199 L 76.125 97.999 L 76.125 98.799 L 76.125 99.599 L 76.125 100.399 L 76.125 101.199 L 76.125 101.999 L 76.125 102.799 L 76.125 103.599 L 76.125 104.399 L 76.125 105.199 L 76.125 105.999 L 76.125 106.799 L 76.125 107.599 L 76.125 108.399 L 76.125 109.199 L 76.125 109.999 L 76.125 110.799 L 76.125 111.599 L 76.125 112.399 L 76.125 113.199 L 76.125 113.999 L 76.125 114.799 L 76.125 115.599 L 76.125 116.399 L 76.125 117.199 L 76.125 117.999 L 76.125 118.799 L 76.125 119.599 L 76.125 120.399 L 76.125 121.199 L 76.125 121.999 L 76.125 122.799 L 76.125 123.599 L 76.125 124.399 L 76.125 125.199 L 76.125 125.999 L 76.125 126.799 L 76.125 127.599 L 76.125 128.399 L 76.125 129.199 L 76.125 129.999 L 76.125 130.799 L 76.125 131.599 L 76.125 132.399 L 76.125 133.199 L 76.125 133.999 L 76.125 134.799 L 76.125 135.599 L 76.125 136.399 L 76.125 137.199 L 76.125 137.999 L 76.125 138.791 L 76.125 139.575" />
<path fill="none" stroke="#000000" stroke-width="1" stroke-linecap="round" stroke-linejoin="round" d="M 124.500 176.775 L 124.500 175.975 L 124.500 175.175 L 124.500 174.375 L 124.500 173.575 L 124.500 172.775 L 124.500 171.975 L 124.500 171.175 L 124.500 170.375 L 124.500 169.575 L 124.500 168.775 L 124.500 167.975 L 124.500 167.175 L 124.500 166.375 L 124.500 165.575 L 124.500 164.775 L 124.500 163.975 L 124.500 163.175 L 124.500 162.375 L 124.500 161.575 L 124.500 160.775 L 124.500 159.975 L 124.500 159.175 L 124.500 158.375 L 124.500 157.575 L 124.500 156.775 L 124.500 155.975 L 124.500 155.175 L 124.500 154.375 L 124.500 153.575 L 124.500 152.775 L 124.500 151.975 L 124.500 151.175 L 124.500 150.375 L 124.500 149.575 L 124.500 148.775 L 124.500 147.975 L 124.500 147.175 L 124.500 146.375 L 124.500 145.575 L 124.500 144.775 L 124.500 143.975 L 124.500 143.175 L 124.500 142.375 L 124.500 141.575 L 124.500 140.775 L 124.500 139.975 L 124.500 139.175 L 124.500 138.375 L 124.500 137.575 L 124.500 136.775 L 124.500 135.975 L 124.500 135.175 L 124.500 134.375 L 124.500 133.575 L 124.500 132.775 L 124.500 131.975 L 124.500 131.175 L 124.500 130.375 L 124.500 129.575 L 124.500 128.775 L 124.500 127.975 L 124.500 127.175 L 124.500 126.375 L 124.500 125.575 L 124.500 124.775 L 124.500 123.975 L 124.500 123.175 L 124.500 122.375 L 124.500 121.575 L 124.500 120.775 L 124.500 119.975 L 124.500 119.175 L 124.500 118.375 L 124.500 117.575 L 124.500 116.775 L 124.500 115.975 L 124.500 115.175 L 124.500 114.375 L 124.500 113.575 L 124.500 112.775 L 124.500 111.975 L 124.500 111.175 L 124.500 110.375 L 124.500 109.575 L 124.500 108.775 L 124.500 107.975 L 124.500 107.175 L 124.500 106.375 L 124.500 105.575 L 124.500 104.775 L 124.500 103.975 L 124.500 103.175 L 124.500 102.375 L 124.500 101.575 L 124.500 100.775 L 124.500 99.975 L 124.500 99.175 L 124.500 98.375 L 124.500 97.575 L 124.500 96.775 L 124.500 95.975 L 124.500 95.175 L 124.500 94.375 L 124.500 93.575 L 124.500 92.775 L 124.500 91.975 L 124.500 91.175 L 124.500 90.375 L 124.500 89.575 L 124.500 88.775 L 124.500 87.975 L 124.500 87.175 L 124.500 86.375 L 124.500 85.575 L 124.500 84.775 L 124.500 83.975 L 124.500 83.175 L 124.500 82.375 L 124.500 81.575 L 124.500 80.775 L 124.500 79.975 L 124.500 79.175 L 124.500 78.375 L 124.500 77.575 L 124.500 76.775 L 124.500 75.975 L 124.500 75.175 L 124.500 74.375 L 124.500 73.575 L 124.500 72.775 L 124.500 71.975 L 124.500 71.175 L 124.500 70.375 L 124.500 69.575 L 124.500 68.775 L 124.500 67.975 L 124.500 67.175 L 124.500 66.375 L 124.500 65.575 L 124.500 64.775 L 124.500 63.975 L 124.500 63.175 L 124.500 62.375 L 124.500 61.575 L 124.500 60.775 L 124.500 59.975 L 124.500 59.175 L 124.500 58.375 L 124.500 57.575 L 124.500 56.775 L 124.500 55.975 L 124.500 55.175 L 124.500 54.375 L 124.500 53.575 L 124.500 52.775 L 124.500 51.975 L 124.500 51.175 L 124.500 50.375 L 124.500 49.575 L 124.500 48.775 L 124.500 47.975 L 124.500 47.175 L 124.500 46.375 L 124.500 45.575 L 124.500 44.775 L 124.500 43.975 L 124.500 43.175 L 124.500 42.375 L 124.500 41.575 L 124.500 40.775 L 124.500 39.975 L 124.500 39.175 L 124.500 38.375 L 124.500 37.575 L 124.500 36.775 L 124.500 35.975 L 124.500 35.175 L 124.500 34.375 L 124.500 33.575 L 124.500 32.775 L 124.500 31.975 L 124.500 31.175 L 124.500 30.375 L 124.500 29.575 L 124.500 28.775 L 124.500 27.975 L 124.500 27.175 L 124.500 26.375 L 124.500 25.575 L 124.500 24.775 L 124.500 23.975 L 124.500 23.175 L 124.500 22.375 L 124.500 21.575 L 124.500 20.775 L 124.500 19.975 L 124.500 19.175 L 124.500 18.375 L 124.500 17.575 L 124.500 16.775 L 124.500 15.975 L 124.500 15.175 L 124.500 14.375 L 124.500 13.575 L 124.500 12.775 L 124.500 11.975 L 124.500 11.175 L 124.500 10.375 L 124.500 9.575 L 124.500 8.775 L 124.500 7.975 L 124.500 7.175 L 124.500 6.375 L 124.500 5.575 L 124.500 4.775 L 124.500 3.975 L 124.500 3.175 L 124.500 2.375 L 124.500 1.575 L 124.500 0.775 L 124.500 -0.025 L 124.500 -0.825 L 124.500 -1.625 L 124.500 -2.425 L 124.500 -3.225 L 124.500 -4.025 L 124.500 -4.825 L 124.500 -5.625 L 124.500 -6.425 L 124.500 -7.225 L 124.500 -8.025 L 124.500 -8.825 L 124.500 -9.625 L 124.500 -10.425 L 124.500 -11.067 L 124.500 -11.550" />
</svg>