<?xml version="1.0" encoding="UTF-8"?>
<svg xmlns="http://www.w3.org/2000/svg" viewBox="-6.059 -44.465 316.764 177.763">
<path fill="none" stroke="#000000" stroke-width="1" stroke-linecap="round" stroke-linejoin="round" d="M 295.406 -35.500 L 294.200 -30.680 L 294.076 -29.688 L 293.732 -28.753 L 293.521 -26.765 L 293.304 -25.789 L 293.067 -22.802 L 292.740 -20.835 L 292.740 -19.835 L 292.573 -18.862 L 292.573 -17.862 L 292.740 -15.875 L 292.573 -13.902 L 292.573 -12.902 L 292.740 -10.914 L 292.573 -9.935 L 292.596 -8.935 L 292.721 -5.938 L 293.089 -0.952 L 293.231 4.046 L 293.573 7.022 L 293.580 9.021 L 293.740 9.995 L 293.740 10.995 L 294.073 12.962 L 294.073 13.962 L 294.219 14.938 L 294.334 16.924 L 294.551 17.901 L 294.784 20.888 L 295.102 22.859 L 295.213 24.856 L 295.512 26.831 L 295.573 29.825 L 295.675 30.819 L 296.073 32.774 L 296.073 33.774 L 296.240 34.747 L 296.240 35.747 L 296.549 37.716 L 296.830 40.697 L 297.073 41.667 L 297.240 43.658 L 296.996 45.639 L 296.754 46.609 L 296.623 47.600 L 296.218 48.495 L 295.813 49.390 L 295.406 50.000" />
<path fill="none" stroke="#000000" stroke-width="1" stroke-linecap="round" stroke-linejoin="round" d="M 295.406 50.000 L 295.875 50.938 L 296.165 51.884 L 297.167 55.730 L 298.036 58.574 L 298.200 59.558 L 298.508 60.504 L 298.708 61.480 L 299.081 62.398 L 299.205 63.390 L 299.615 65.340 L 299.861 67.320 L 300.080 68.293 L 300.287 71.285 L 300.586 73.261 L 300.736 76.257 L 301.073 78.227 L 301.073 79.227 L 301.328 82.189 L 301.571 83.159 L 301.696 84.151 L 301.718 86.150 L 301.740 88.148 L 301.658 89.144 L 301.576 90.140 L 300.967 90.931 L 300.359 91.722 L 298.406 94.000" />
<path fill="none" stroke="#000000" stroke-width="1" stroke-linecap="round" stroke-linejoin="round" d="M 295.406 50.000 L 294.754 49.674 L 294.101 49.347 L 293.641 49.173 L 293.181 48.998 L 292.353 48.446 L 291.524 47.894 L 290.790 47.217 L 290.160 46.442 L 286.643 40.463 L 283.246 35.550 L 282.750 34.687 L 282.114 33.916 L 280.967 32.284 L 280.498 31.420 L 275.631 26.391 L 272.715 23.654 L 270.980 22.691 L 269.173 21.883 L 268.197 21.687 L 267.261 21.342 L 265.269 21.169 L 263.271 21.197 L 262.276 21.296 L 261.380 21.675 L 259.643 22.632 L 258.853 23.243 L 258.142 23.944 L 255.626 27.049 L 253.033 31.265 L 250.910 35.744 L 250.189 37.589 L 249.609 39.485 L 248.861 41.318 L 248.235 43.201 L 248.093 44.191 L 247.755 45.128 L 247.582 46.112 L 246.238 49.842 L 245.681 51.743 L 245.220 53.680 L 245.109 54.674 L 244.471 57.588 L 244.193 58.540 L 244.063 59.531 L 243.746 60.480 L 243.632 61.473 L 243.198 63.413 L 243.099 64.408 L 242.687 66.358 L 242.588 67.353 L 242.303 68.308 L 242.077 70.291 L 241.695 72.248 L 241.474 74.231 L 241.237 75.202 L 241.065 77.194 L 240.790 78.155 L 240.589 80.142 L 240.204 82.099 L 239.956 84.077 L 239.406 86.000" />
<path fill="none" stroke="#000000" stroke-width="1" stroke-linecap="round" stroke-linejoin="round" d="M 207.906 90.500 L 207.573 84.509 L 207.205 82.547 L 206.996 80.563 L 206.406 78.500" />
<path fill="none" stroke="#000000" stroke-width="1" stroke-linecap="round" stroke-linejoin="round" d="M 206.406 78.500 L 204.820 77.490 L 204.044 76.863 L 203.297 76.199 L 201.943 74.729 L 201.282 73.405 L 200.621 72.080 L 200.286 71.140 L 199.801 70.269 L 199.096 68.425 L 198.289 66.622 L 197.225 64.941 L 196.881 64.013 L 195.493 61.380 L 193.792 57.798 L 193.233 56.976 L 192.899 56.044 L 192.067 54.240 L 191.538 53.396 L 191.208 52.453 L 190.654 51.621 L 190.256 50.707 L 189.642 49.920 L 188.664 48.198 L 187.831 46.395 L 187.268 45.578 L 184.875 41.236 L 183.789 39.566 L 182.824 37.835 L 182.232 37.033 L 180.202 33.619 L 179.577 32.839 L 179.085 31.973 L 175.733 27.034 L 175.241 26.169 L 174.601 25.400 L 172.317 22.138 L 171.800 21.288 L 170.017 18.889 L 168.156 16.545 L 166.804 15.071 L 165.570 13.497 L 162.822 10.593 L 162.069 9.934 L 160.456 8.764 L 158.906 7.500" />
<path fill="none" stroke="#000000" stroke-width="1" stroke-linecap="round" stroke-linejoin="round" d="M 158.906 7.000 L 159.281 6.625 L 159.656 6.250 L 160.031 5.875 L 160.406 5.500 L 160.781 5.125 L 161.156 4.750 L 161.531 4.375 L 161.906 4.000" />
<path fill="none" stroke="#000000" stroke-width="1" stroke-linecap="round" stroke-linejoin="round" d="M 158.406 7.000 L 157.783 6.792 L 156.011 5.903 L 154.135 5.279 L 153.149 5.204 L 151.303 5.974 L 149.610 7.037 L 148.248 8.490 L 147.818 9.382 L 147.170 11.254 L 146.693 13.179 L 146.602 14.175 L 146.232 16.137 L 146.051 19.131 L 145.740 21.105 L 145.706 23.100 L 145.573 24.078 L 145.598 25.074 L 145.740 26.051 L 145.606 27.035 L 145.621 28.025 L 145.736 29.010 L 145.573 29.983 L 145.726 30.958 L 145.573 31.929 L 145.702 33.923 L 146.024 35.896 L 146.216 37.885 L 146.240 38.884 L 146.118 39.865 L 146.240 40.830 L 146.240 41.830 L 146.591 43.793 L 146.716 45.789 L 147.058 47.757 L 147.294 50.744 L 147.511 51.720 L 147.715 53.708 L 148.138 55.649 L 148.237 56.644 L 148.508 57.607 L 148.768 59.585 L 149.077 60.535 L 149.201 61.527 L 149.496 62.475 L 150.337 66.361 L 151.018 68.223 L 151.217 69.199 L 151.560 70.135 L 151.804 71.096 L 152.487 72.951 L 152.699 73.924 L 154.129 77.616 L 154.709 79.513 L 156.164 83.199 L 157.051 84.967 L 157.701 86.846 L 158.149 87.728 L 159.157 89.438 L 160.406 91.000" />
<path fill="none" stroke="#000000" stroke-width="1" stroke-linecap="round" stroke-linejoin="round" d="M 206.406 78.500 L 207.696 76.971 L 208.169 76.116 L 208.557 75.199 L 208.785 71.209 L 209.073 68.224 L 209.073 65.224 L 209.240 64.251 L 209.240 63.251 L 209.073 62.271 L 209.101 61.272 L 209.270 57.275 L 209.573 53.287 L 209.573 48.287 L 209.740 47.314 L 209.573 46.341 L 209.740 45.368 L 209.715 43.426 L 209.573 42.449 L 209.727 40.457 L 210.090 38.492 L 210.239 36.499 L 210.073 35.516 L 210.240 33.527 L 210.073 31.544 L 210.235 29.551 L 210.560 27.577 L 210.726 24.582 L 211.077 22.616 L 211.219 20.621 L 211.809 17.695 L 212.131 16.762 L 212.313 15.781 L 212.595 14.825 L 212.719 13.833 L 213.287 11.929 L 214.442 9.196 L 216.193 5.640 L 217.244 3.953 L 218.406 2.500" />
<path fill="none" stroke="#000000" stroke-width="1" stroke-linecap="round" stroke-linejoin="round" d="M 40.406 5.000 L 43.849 5.326 L 46.499 6.670 L 49.148 8.015 L 50.819 9.101 L 52.547 10.070 L 53.352 10.657 L 54.215 11.154 L 54.999 11.774 L 56.716 12.770 L 58.367 13.877 L 63.196 17.395 L 64.038 17.922 L 67.178 20.386 L 69.647 22.066 L 73.472 25.276 L 79.774 30.168 L 81.255 31.511 L 82.832 32.739 L 84.302 34.096 L 87.380 36.644 L 88.710 38.126 L 93.029 42.291 L 97.272 46.533 L 102.849 52.269 L 104.103 53.825 L 106.109 56.054 L 106.663 56.886 L 107.977 58.392 L 108.548 59.212 L 109.829 60.745 L 112.112 64.007 L 115.580 70.021 L 116.443 71.806 L 117.154 73.657 L 118.027 75.432 L 118.265 76.397 L 118.601 77.335 L 118.810 78.307 L 119.491 80.169 L 120.131 83.081 L 120.230 84.076 L 120.489 85.040 L 120.740 87.002 L 120.740 93.002 L 120.595 96.998 L 119.954 99.904 L 118.941 102.698 L 118.507 103.588 L 116.866 106.081 L 116.256 106.865 L 114.196 109.044 L 112.005 111.092 L 110.373 112.227 L 109.507 112.719 L 108.725 113.341 L 103.468 116.126 L 97.834 118.036 L 95.928 118.591 L 92.070 119.535 L 89.161 120.197 L 88.169 120.321 L 87.234 120.667 L 86.242 120.791 L 84.302 121.234 L 83.313 121.364 L 82.362 121.671 L 80.376 121.883 L 79.405 122.125 L 77.415 122.297 L 75.452 122.657 L 72.469 122.930 L 71.493 123.147 L 68.500 123.328 L 66.526 123.647 L 61.530 123.829 L 57.546 124.173 L 47.547 124.333 L 33.547 124.333 L 32.574 124.167 L 30.576 124.142 L 28.600 123.837 L 25.603 123.692 L 22.635 123.298 L 20.638 123.180 L 18.676 122.818 L 16.680 122.685 L 14.718 122.321 L 12.722 122.188 L 10.760 121.821 L 8.774 121.623 L 7.821 121.324 L 6.827 121.213 L 4.888 120.769 L 2.906 120.500" />
<path fill="none" stroke="#000000" stroke-width="1" stroke-linecap="round" stroke-linejoin="round" d="M 45.906 111.500 L 44.817 111.213 L 43.727 110.925 L 42.880 110.424 L 42.091 109.810 L 41.381 109.109 L 40.670 108.407 L 40.070 107.607 L 39.666 106.724 L 38.694 102.874 L 38.594 101.879 L 38.214 99.922 L 38.089 97.926 L 37.762 95.954 L 37.726 93.958 L 37.573 92.983 L 37.740 89.994 L 37.740 83.994 L 37.573 82.014 L 37.727 81.039 L 37.573 80.068 L 37.740 77.076 L 37.740 76.076 L 37.573 74.084 L 37.740 70.165 L 37.670 68.208 L 37.762 66.221 L 38.073 64.252 L 38.089 61.254 L 38.240 60.269 L 38.073 58.296 L 38.073 57.296 L 38.240 56.323 L 38.210 55.325 L 38.073 54.337 L 38.100 53.339 L 38.240 52.350 L 38.240 50.350 L 38.073 48.362 L 38.073 47.362 L 38.240 46.389 L 38.240 43.389 L 38.083 41.417 L 38.573 38.468 L 38.573 30.468 L 38.710 29.481 L 38.740 28.484 L 38.725 22.539 L 38.575 19.542 L 38.240 16.565 L 38.251 9.620 L 38.587 8.173 L 38.923 6.726 L 39.352 5.832 L 39.906 5.000" />
<path fill="none" stroke="#000000" stroke-width="1" stroke-linecap="round" stroke-linejoin="round" d="M 39.906 4.500 L 38.685 2.973 L 38.183 2.119 L 37.681 1.265 L 37.044 -0.617 L 36.406 -2.500" />
</svg>