<?xml version="1.0" encoding="UTF-8"?>
<svg xmlns="http://www.w3.org/2000/svg" viewBox="-12.579 -11.516 423.470 177.136">
<path fill="none" stroke="#000000" stroke-width="1" stroke-linecap="round" stroke-linejoin="round" d="M 51.406 0.469 L 52.270 1.332 L 53.134 2.196 L 53.997 3.060 L 54.861 3.923 L 55.724 4.787 L 56.588 5.651 L 57.452 6.514 L 58.315 7.378 L 59.179 8.241 L 60.043 9.105 L 60.906 9.969" />
<path fill="none" stroke="#000000" stroke-width="1" stroke-linecap="round" stroke-linejoin="round" d="M 61.406 9.969 L 62.270 9.105 L 63.134 8.241 L 63.997 7.378 L 64.861 6.514 L 65.724 5.651 L 66.588 4.787 L 67.452 3.923 L 68.315 3.060 L 69.179 2.196 L 70.043 1.332 L 70.906 0.469" />
<path fill="none" stroke="#000000" stroke-width="1" stroke-linecap="round" stroke-linejoin="round" d="M 61.406 10.469 L 61.090 11.417 L 61.073 12.415 L 61.073 15.415 L 61.240 16.388 L 61.073 18.376 L 61.073 22.376 L 61.240 24.364 L 61.092 25.352 L 61.073 26.350 L 61.218 27.338 L 61.240 28.336 L 61.240 30.336 L 61.073 32.316 L 61.138 35.272 L 61.073 39.262 L 61.098 40.259 L 61.240 41.245 L 61.073 43.231 L 61.198 44.221 L 61.073 46.197 L 61.240 47.177 L 61.191 49.115 L 61.073 50.095 L 61.073 53.095 L 61.240 54.079 L 61.240 61.079 L 61.099 62.048 L 61.082 62.996 L 61.240 63.971 L 61.216 64.969 L 61.074 65.959 L 61.073 66.959 L 61.073 69.959 L 61.220 71.937 L 61.079 72.927 L 61.073 76.872 L 61.240 77.845 L 61.240 78.845 L 61.120 79.826 L 61.240 82.805 L 61.133 83.787 L 61.073 85.723 L 61.153 87.710 L 61.102 90.556 L 61.240 91.534 L 61.102 92.517 L 61.103 93.511 L 61.240 94.502 L 61.240 97.502 L 61.073 98.475 L 61.075 100.474 L 61.240 101.448 L 61.216 102.446 L 61.073 103.434 L 61.073 105.434 L 61.240 107.417 L 61.240 108.417 L 61.073 109.390 L 61.073 110.390 L 61.240 112.309 L 61.240 113.309 L 61.132 114.292 L 61.073 116.228 L 61.088 117.227 L 61.240 118.214 L 61.073 120.198 L 61.073 123.198 L 61.240 124.171 L 61.240 127.171 L 61.073 129.159 L 61.073 132.159 L 60.906 133.969" />
<path fill="none" stroke="#000000" stroke-width="1" stroke-linecap="round" stroke-linejoin="round" d="M 60.906 134.469 L 59.988 135.081 L 59.095 135.510 L 57.238 136.202 L 54.393 137.074 L 53.405 137.144 L 38.406 137.300 L 7.406 137.469" />
<path fill="none" stroke="#000000" stroke-width="1" stroke-linecap="round" stroke-linejoin="round" d="M 7.406 137.469 L 6.517 138.358 L 5.628 139.247 L 4.740 140.135 L 3.851 141.024 L 2.962 141.913 L 2.073 142.802 L 1.184 143.691 L 0.295 144.580 L -0.594 145.469" />
<path fill="none" stroke="#000000" stroke-width="1" stroke-linecap="round" stroke-linejoin="round" d="M 7.406 137.469 L 6.517 136.580 L 5.628 135.691 L 4.740 134.802 L 3.851 133.913 L 2.962 133.024 L 2.073 132.135 L 1.184 131.247 L 0.295 130.358 L -0.594 129.469" />
<path fill="none" stroke="#000000" stroke-width="1" stroke-linecap="round" stroke-linejoin="round" d="M 61.406 134.469 L 62.787 135.262 L 64.598 136.064 L 65.564 136.300 L 66.482 136.676 L 68.408 137.139 L 84.407 137.305 L 114.406 137.469" />
<path fill="none" stroke="#000000" stroke-width="1" stroke-linecap="round" stroke-linejoin="round" d="M 114.406 137.469 L 115.295 138.358 L 116.184 139.247 L 117.073 140.135 L 117.962 141.024 L 118.851 141.913 L 119.740 142.802 L 120.628 143.691 L 121.517 144.580 L 122.406 145.469" />
<path fill="none" stroke="#000000" stroke-width="1" stroke-linecap="round" stroke-linejoin="round" d="M 114.406 137.469 L 115.295 136.580 L 116.184 135.691 L 117.073 134.802 L 117.962 133.913 L 118.851 133.024 L 119.740 132.135 L 120.628 131.247 L 121.517 130.358 L 122.406 129.469" />
<path fill="none" stroke="#000000" stroke-width="1" stroke-linecap="round" stroke-linejoin="round" d="M 125.906 123.469 L 127.810 124.405 L 129.715 125.341 L 130.563 125.865 L 132.028 126.627 L 133.493 127.390 L 134.958 128.153 L 135.906 128.469" />
<path fill="none" stroke="#000000" stroke-width="1" stroke-linecap="round" stroke-linejoin="round" d="M 135.906 128.469 L 136.781 129.562 L 139.065 132.825 L 139.705 133.594 L 140.198 134.458 L 142.441 137.744 L 144.240 140.135 L 144.732 141.001 L 147.491 145.138 L 151.553 150.803 L 152.211 151.556 L 152.967 152.188 L 155.625 153.578 L 157.611 153.635 L 158.546 153.378 L 161.150 151.889 L 161.906 151.254 L 162.565 150.502 L 163.068 149.645 L 163.691 148.863 L 164.183 147.997 L 164.789 147.204 L 165.306 146.356 L 165.938 145.582 L 166.464 144.732 L 167.105 143.964 L 167.601 143.102 L 169.399 140.710 L 170.507 139.057 L 170.966 138.185 L 173.928 134.176 L 176.215 130.916 L 176.708 130.063 L 177.906 128.469" />
<path fill="none" stroke="#000000" stroke-width="1" stroke-linecap="round" stroke-linejoin="round" d="M 177.906 128.469 L 178.855 128.153 L 180.179 127.477 L 181.503 126.802 L 182.827 126.127 L 184.151 125.452 L 185.821 124.366 L 187.906 123.469" />
<path fill="none" stroke="#000000" stroke-width="1" stroke-linecap="round" stroke-linejoin="round" d="M 177.406 126.969 L 175.906 125.219 L 174.406 123.469" />
<path fill="none" stroke="#000000" stroke-width="1" stroke-linecap="round" stroke-linejoin="round" d="M 139.406 123.469 L 137.479 125.967 L 137.097 126.872 L 136.502 127.670 L 135.906 128.469" />
<path fill="none" stroke="#000000" stroke-width="1" stroke-linecap="round" stroke-linejoin="round" d="M 119.406 104.469 L 120.641 103.350 L 121.876 102.231 L 123.111 101.112 L 124.347 100.265 L 125.584 99.419 L 126.406 98.969" />
<path fill="none" stroke="#000000" stroke-width="1" stroke-linecap="round" stroke-linejoin="round" d="M 126.406 98.969 L 125.600 97.801 L 124.795 96.634 L 123.989 95.466 L 123.183 94.299 L 122.688 93.438 L 122.194 92.578 L 121.570 91.796 L 121.087 90.930 L 120.604 90.063 L 119.406 88.469" />
<path fill="none" stroke="#000000" stroke-width="1" stroke-linecap="round" stroke-linejoin="round" d="M 126.406 98.969 L 127.301 99.416 L 131.054 100.688 L 135.829 102.038 L 138.744 102.669 L 139.739 102.769 L 141.689 103.173 L 143.670 103.410 L 144.642 103.640 L 147.635 103.840 L 149.609 104.152 L 151.603 104.302 L 153.589 104.135 L 157.583 104.302 L 160.578 104.134 L 162.544 103.780 L 164.539 103.638 L 165.502 103.370 L 167.480 103.111 L 168.430 102.799 L 169.422 102.675 L 171.345 102.173 L 172.263 101.797 L 173.228 101.558 L 174.155 101.198 L 179.487 98.575 L 181.133 97.458 L 183.478 95.593 L 184.959 94.250 L 186.278 92.748 L 186.860 91.934 L 188.148 90.407 L 188.645 89.545 L 189.261 88.759 L 189.755 87.893 L 190.582 86.099 L 191.635 83.325 L 192.214 81.428 L 192.591 80.510 L 192.732 79.520 L 193.039 78.570 L 193.252 76.584 L 193.495 75.614 L 193.601 74.624 L 193.726 71.627 L 193.714 67.628 L 193.497 64.649 L 193.136 63.723 L 192.406 62.469" />
<path fill="none" stroke="#000000" stroke-width="1" stroke-linecap="round" stroke-linejoin="round" d="M 192.406 62.469 L 189.252 62.251 L 186.829 62.276 L 184.406 62.302 L 182.426 62.135 L 179.426 62.135 L 177.448 62.281 L 176.460 62.135 L 174.472 62.302 L 172.486 62.135 L 170.486 62.135 L 169.508 62.268 L 168.513 62.302 L 164.516 62.146 L 159.530 61.786 L 154.532 61.639 L 152.558 61.327 L 149.565 61.133 L 148.595 60.891 L 146.611 60.666 L 144.662 60.256 L 143.668 60.146 L 142.733 59.801 L 141.743 59.660 L 140.804 59.328 L 139.822 59.149 L 135.162 57.472 L 133.376 56.613 L 131.705 55.526 L 130.830 55.072 L 128.461 53.240 L 126.303 51.160 L 125.644 50.408 L 124.490 48.782 L 124.030 47.911 L 122.943 46.241 L 121.773 43.519 L 121.168 41.633 L 120.715 39.695 L 120.468 37.715 L 120.236 36.743 L 120.073 33.748 L 120.073 31.748 L 120.225 28.752 L 120.866 24.820 L 121.707 21.966 L 122.462 20.136 L 123.749 17.456 L 124.867 15.812 L 127.626 12.916 L 129.825 10.877 L 131.435 9.695 L 132.273 9.180 L 134.909 7.801 L 136.793 7.164 L 138.605 6.369 L 143.448 5.275 L 145.442 5.129 L 147.415 4.801 L 149.408 4.635 L 152.402 4.802 L 155.380 5.162 L 157.377 5.273 L 158.352 5.451 L 163.163 6.672 L 164.145 6.838 L 165.065 7.217 L 166.881 7.987 L 167.766 8.446 L 169.510 9.380 L 171.181 10.466 L 172.049 10.929 L 175.115 13.494 L 176.590 14.845 L 181.468 19.863 L 183.660 21.910 L 184.924 22.691 L 186.188 23.472 L 187.116 23.815 L 188.043 24.158 L 188.971 24.501 L 190.906 24.969" />
<path fill="none" stroke="#000000" stroke-width="1" stroke-linecap="round" stroke-linejoin="round" d="M 191.406 24.969 L 191.961 24.137 L 192.390 23.243 L 193.120 21.402 L 193.631 19.496 L 193.722 18.500 L 194.083 16.534 L 194.240 14.542 L 194.240 13.542 L 194.105 12.564 L 194.228 10.591 L 193.906 9.469" />
<path fill="none" stroke="#000000" stroke-width="1" stroke-linecap="round" stroke-linejoin="round" d="M 193.906 8.969 L 193.056 8.119 L 192.206 7.269 L 191.356 6.419 L 190.506 5.569 L 189.656 4.719 L 188.806 3.869 L 187.956 3.019 L 187.106 2.169 L 186.256 1.319 L 185.406 0.469" />
<path fill="none" stroke="#000000" stroke-width="1" stroke-linecap="round" stroke-linejoin="round" d="M 194.406 8.969 L 195.256 8.119 L 196.106 7.269 L 196.956 6.419 L 197.806 5.569 L 198.656 4.719 L 199.506 3.869 L 200.356 3.019 L 201.206 2.169 L 202.056 1.319 L 202.906 0.469" />
<path fill="none" stroke="#000000" stroke-width="1" stroke-linecap="round" stroke-linejoin="round" d="M 191.406 25.469 L 192.096 27.339 L 192.206 28.333 L 192.617 30.282 L 192.707 31.278 L 193.103 33.229 L 193.257 35.223 L 193.591 37.191 L 193.734 40.187 L 194.111 43.162 L 194.240 45.158 L 194.073 46.131 L 194.240 48.104 L 194.240 49.104 L 194.073 50.087 L 194.223 51.069 L 194.240 52.067 L 194.135 55.062 L 193.491 60.007 L 192.810 61.863 L 192.406 62.469" />
<path fill="none" stroke="#000000" stroke-width="1" stroke-linecap="round" stroke-linejoin="round" d="M 250.906 83.969 L 250.357 82.046 L 250.097 80.069 L 249.705 78.118 L 249.571 76.122 L 249.233 74.152 L 249.032 70.158 L 248.767 68.176 L 248.740 61.178 L 248.573 59.192 L 248.740 57.205 L 248.573 56.232 L 248.740 54.246 L 248.740 52.246 L 248.573 50.273 L 248.573 49.273 L 248.740 47.300 L 248.740 44.300 L 248.573 43.327 L 248.573 41.327 L 248.740 39.354 L 248.573 37.381 L 248.601 34.386 L 248.740 33.408 L 248.740 31.408 L 248.573 30.435 L 248.579 29.436 L 248.740 28.452 L 248.719 24.453 L 248.573 22.461 L 248.573 15.461 L 248.740 13.473 L 248.579 12.493 L 248.710 10.518 L 248.406 9.469" />
<path fill="none" stroke="#000000" stroke-width="1" stroke-linecap="round" stroke-linejoin="round" d="M 248.406 8.969 L 247.556 8.119 L 246.706 7.269 L 245.856 6.419 L 245.006 5.569 L 244.156 4.719 L 243.306 3.869 L 242.456 3.019 L 241.606 2.169 L 240.756 1.319 L 239.906 0.469" />
<path fill="none" stroke="#000000" stroke-width="1" stroke-linecap="round" stroke-linejoin="round" d="M 248.906 8.969 L 249.756 8.119 L 250.606 7.269 L 251.456 6.419 L 252.306 5.569 L 253.156 4.719 L 254.006 3.869 L 254.856 3.019 L 255.706 2.169 L 256.556 1.319 L 257.406 0.469" />
<path fill="none" stroke="#000000" stroke-width="1" stroke-linecap="round" stroke-linejoin="round" d="M 310.906 0.469 L 311.756 1.319 L 312.606 2.169 L 313.456 3.019 L 314.306 3.869 L 315.156 4.719 L 316.006 5.569 L 316.856 6.419 L 317.706 7.269 L 318.556 8.119 L 319.406 8.969" />
<path fill="none" stroke="#000000" stroke-width="1" stroke-linecap="round" stroke-linejoin="round" d="M 319.406 9.469 L 319.638 9.816 L 319.573 11.759 L 319.656 12.718 L 319.573 14.705 L 319.740 16.678 L 319.573 18.664 L 319.573 19.664 L 319.740 21.583 L 319.573 23.556 L 319.740 24.528 L 319.740 25.528 L 319.597 26.514 L 319.573 27.512 L 319.740 28.485 L 319.740 31.485 L 319.576 32.458 L 319.645 36.253 L 319.573 37.242 L 319.740 39.225 L 319.573 40.205 L 319.740 42.195 L 319.740 43.195 L 319.573 45.187 L 319.573 48.187 L 319.740 50.175 L 319.573 52.166 L 319.573 53.166 L 319.740 55.157 L 319.573 56.136 L 319.740 58.120 L 319.740 60.120 L 319.573 61.093 L 319.573 62.093 L 319.728 63.077 L 319.740 64.076 L 319.573 65.049 L 319.598 66.045 L 319.733 67.022 L 319.573 69.012 L 319.726 73.008 L 320.406 78.969" />
<path fill="none" stroke="#000000" stroke-width="1" stroke-linecap="round" stroke-linejoin="round" d="M 320.406 78.969 L 321.090 79.425 L 321.977 79.867 L 322.865 80.309 L 323.752 80.751 L 324.576 81.308 L 325.400 81.865 L 326.909 83.172 L 328.340 84.569 L 329.681 86.052 L 332.001 89.284 L 333.889 91.612 L 336.629 94.525 L 338.106 95.873 L 338.906 96.469" />
<path fill="none" stroke="#000000" stroke-width="1" stroke-linecap="round" stroke-linejoin="round" d="M 338.906 96.969 L 338.240 97.635 L 337.573 98.302 L 336.906 98.969 L 336.240 99.635 L 335.573 100.302 L 334.906 100.969" />
<path fill="none" stroke="#000000" stroke-width="1" stroke-linecap="round" stroke-linejoin="round" d="M 339.406 96.969 L 340.968 98.218 L 346.120 101.189 L 347.049 101.540 L 348.012 101.790 L 348.929 102.167 L 349.905 102.368 L 352.758 103.193 L 355.710 103.661 L 358.708 103.781 L 362.708 103.796 L 366.699 103.599 L 367.661 103.325 L 368.650 103.188 L 372.463 102.098 L 375.156 100.835 L 375.979 100.278 L 377.714 99.315 L 379.922 97.286 L 383.381 93.678 L 384.719 91.032 L 385.786 89.351 L 386.963 86.634 L 387.972 83.838 L 388.813 79.953 L 389.103 79.004 L 389.202 78.009 L 389.591 76.053 L 389.733 74.058 L 390.073 72.095 L 390.073 70.095 L 390.240 68.106 L 390.240 63.106 L 390.073 62.123 L 390.240 60.139 L 390.073 59.166 L 390.073 57.166 L 390.169 56.182 L 390.073 55.221 L 390.073 53.221 L 390.151 52.233 L 390.073 51.275 L 390.073 49.275 L 390.240 48.302 L 390.240 47.302 L 390.073 46.329 L 390.073 44.329 L 390.240 42.341 L 390.221 41.342 L 390.080 40.352 L 390.240 38.364 L 390.222 37.366 L 390.073 36.378 L 390.240 35.405 L 390.073 34.432 L 390.085 33.434 L 390.240 32.459 L 390.073 30.480 L 390.073 28.480 L 390.240 26.493 L 390.089 25.518 L 390.073 24.521 L 390.215 23.544 L 390.240 22.548 L 390.073 21.568 L 390.211 20.585 L 390.073 18.609 L 390.134 15.653 L 390.073 14.663 L 390.240 12.690 L 390.073 11.717 L 390.073 10.717 L 390.212 9.760 L 390.406 9.469" />
<path fill="none" stroke="#000000" stroke-width="1" stroke-linecap="round" stroke-linejoin="round" d="M 390.406 8.969 L 391.256 8.119 L 392.106 7.269 L 392.956 6.419 L 393.806 5.569 L 394.656 4.719 L 395.506 3.869 L 396.356 3.019 L 397.206 2.169 L 398.056 1.319 L 398.906 0.469" />
<path fill="none" stroke="#000000" stroke-width="1" stroke-linecap="round" stroke-linejoin="round" d="M 389.906 8.969 L 389.056 8.119 L 388.206 7.269 L 387.356 6.419 L 386.506 5.569 L 385.656 4.719 L 384.806 3.869 L 383.956 3.019 L 383.106 2.169 L 382.256 1.319 L 381.406 0.469" />
<path fill="none" stroke="#000000" stroke-width="1" stroke-linecap="round" stroke-linejoin="round" d="M 328.406 0.469 L 327.556 1.319 L 326.706 2.169 L 325.856 3.019 L 325.006 3.869 L 324.156 4.719 L 323.306 5.569 L 322.456 6.419 L 321.606 7.269 L 320.756 8.119 L 319.906 8.969" />
<path fill="none" stroke="#000000" stroke-width="1" stroke-linecap="round" stroke-linejoin="round" d="M 320.406 78.969 L 319.059 81.010 L 317.712 83.052 L 317.262 83.935 L 315.937 87.672 L 314.157 91.215 L 313.141 92.921 L 312.501 93.689 L 311.968 94.533 L 309.955 96.753 L 308.482 98.105 L 306.079 99.882 L 305.226 100.396 L 302.572 101.719 L 301.652 102.096 L 300.684 102.330 L 299.761 102.687 L 297.837 103.180 L 296.843 103.291 L 295.878 103.548 L 294.891 103.665 L 291.894 103.795 L 288.894 103.802 L 284.897 103.655 L 280.973 103.002 L 278.107 102.197 L 275.330 101.158 L 274.462 100.669 L 273.543 100.280 L 270.998 98.738 L 268.643 96.890 L 265.035 93.430 L 260.169 88.398 L 258.688 87.055 L 257.370 86.384 L 256.052 85.713 L 254.503 85.132 L 252.955 84.550 L 251.406 83.969" />
<path fill="none" stroke="#000000" stroke-width="1" stroke-linecap="round" stroke-linejoin="round" d="M 250.906 84.469 L 250.352 85.301 L 249.847 86.699 L 249.342 88.097 L 249.176 89.070 L 249.093 90.066 L 248.757 92.037 L 248.736 94.981 L 248.573 95.954 L 248.726 96.929 L 248.740 98.927 L 248.406 99.969" />
<path fill="none" stroke="#000000" stroke-width="1" stroke-linecap="round" stroke-linejoin="round" d="M 248.406 100.469 L 247.556 101.319 L 246.706 102.169 L 245.856 103.019 L 245.006 103.869 L 244.156 104.719 L 243.306 105.569 L 242.456 106.419 L 241.606 107.269 L 240.756 108.119 L 239.906 108.969" />
<path fill="none" stroke="#000000" stroke-width="1" stroke-linecap="round" stroke-linejoin="round" d="M 248.906 100.469 L 249.756 101.319 L 250.606 102.169 L 251.456 103.019 L 252.306 103.869 L 253.156 104.719 L 254.006 105.569 L 254.856 106.419 L 255.706 107.269 L 256.556 108.119 L 257.406 108.969" />
</svg>