<?xml version="1.0" encoding="UTF-8"?>
<svg xmlns="http://www.w3.org/2000/svg" viewBox="25.560 -72.398 295.380 298.213">
<path fill="none" stroke="#000000" stroke-width="1" stroke-linecap="round" stroke-linejoin="round" d="M 254.000 -39.125 L 256.604 -37.210 L 264.688 -29.752 L 266.020 -28.273 L 270.344 -24.114 L 273.000 -21.125" />
<path fill="none" stroke="#000000" stroke-width="1" stroke-linecap="round" stroke-linejoin="round" d="M 273.500 -20.625 L 274.789 -19.096 L 275.167 -18.229 L 275.000 -17.625" />
<path fill="none" stroke="#000000" stroke-width="1" stroke-linecap="round" stroke-linejoin="round" d="M 274.500 -17.125 L 272.759 -18.097 L 272.102 -18.819 L 272.000 -19.125" />
<path fill="none" stroke="#000000" stroke-width="1" stroke-linecap="round" stroke-linejoin="round" d="M 271.500 -19.625 L 269.213 -21.565 L 266.000 -24.625" />
<path fill="none" stroke="#000000" stroke-width="1" stroke-linecap="round" stroke-linejoin="round" d="M 266.000 -24.625 L 261.838 -28.947 L 259.500 -31.625" />
<path fill="none" stroke="#000000" stroke-width="1" stroke-linecap="round" stroke-linejoin="round" d="M 252.000 -28.125 L 251.463 -26.513 L 251.250 -25.540 L 251.167 -24.546 L 251.500 -23.625" />
<path fill="none" stroke="#000000" stroke-width="1" stroke-linecap="round" stroke-linejoin="round" d="M 251.500 -23.625 L 249.750 -21.875 L 248.000 -20.125" />
<path fill="none" stroke="#000000" stroke-width="1" stroke-linecap="round" stroke-linejoin="round" d="M 248.000 -20.125 L 246.278 -21.173 L 244.000 -23.125" />
<path fill="none" stroke="#000000" stroke-width="1" stroke-linecap="round" stroke-linejoin="round" d="M 244.000 -23.125 L 243.021 -23.328 L 242.138 -23.748 L 240.514 -24.904 L 237.399 -27.402 L 236.535 -27.897 L 235.743 -28.504 L 233.249 -30.140 L 230.858 -31.938 L 229.122 -32.886 L 227.322 -33.730 L 226.500 -34.291 L 225.607 -34.720 L 224.646 -34.966 L 223.711 -35.316 L 222.734 -35.392 L 221.808 -35.029 L 220.992 -34.456 L 220.046 -34.148 L 219.120 -34.140 L 218.242 -34.595 L 217.500 -35.125" />
<path fill="none" stroke="#000000" stroke-width="1" stroke-linecap="round" stroke-linejoin="round" d="M 244.000 -23.125 L 248.146 -27.462 L 250.000 -29.625" />
<path fill="none" stroke="#000000" stroke-width="1" stroke-linecap="round" stroke-linejoin="round" d="M 252.000 -28.125 L 252.596 -28.602 L 253.503 -28.949 L 253.819 -28.001 L 253.164 -26.121 L 251.500 -23.625" />
<path fill="none" stroke="#000000" stroke-width="1" stroke-linecap="round" stroke-linejoin="round" d="M 248.000 -20.125 L 249.794 -18.641 L 251.220 -17.239 L 256.000 -12.125" />
<path fill="none" stroke="#000000" stroke-width="1" stroke-linecap="round" stroke-linejoin="round" d="M 256.000 -12.125 L 253.500 -9.625 L 251.000 -7.125 L 248.500 -4.625 L 246.000 -2.125" />
<path fill="none" stroke="#000000" stroke-width="1" stroke-linecap="round" stroke-linejoin="round" d="M 245.500 -2.125 L 244.245 -3.678 L 242.000 -6.125" />
<path fill="none" stroke="#000000" stroke-width="1" stroke-linecap="round" stroke-linejoin="round" d="M 246.000 -1.625 L 247.563 -0.488 L 249.260 0.546 L 252.257 0.682 L 255.257 0.708 L 257.755 0.627 L 260.253 0.545 L 261.711 0.237 L 263.168 -0.070 L 264.000 -0.625" />
<path fill="none" stroke="#000000" stroke-width="1" stroke-linecap="round" stroke-linejoin="round" d="M 264.000 -2.625 L 266.400 -5.025 L 268.800 -7.425 L 271.200 -9.825 L 273.600 -12.225 L 276.000 -14.625" />
<path fill="none" stroke="#000000" stroke-width="1" stroke-linecap="round" stroke-linejoin="round" d="M 276.000 -14.625 L 276.496 -13.757 L 277.000 -12.125" />
<path fill="none" stroke="#000000" stroke-width="1" stroke-linecap="round" stroke-linejoin="round" d="M 278.000 -11.625 L 280.000 -13.625" />
<path fill="none" stroke="#000000" stroke-width="1" stroke-linecap="round" stroke-linejoin="round" d="M 280.500 -13.625 L 281.551 -14.309 L 282.500 -14.625" />
<path fill="none" stroke="#000000" stroke-width="1" stroke-linecap="round" stroke-linejoin="round" d="M 281.000 -12.125 L 283.000 -10.625" />
<path fill="none" stroke="#000000" stroke-width="1" stroke-linecap="round" stroke-linejoin="round" d="M 283.000 -10.625 L 283.210 -8.639 L 283.500 -7.625" />
<path fill="none" stroke="#000000" stroke-width="1" stroke-linecap="round" stroke-linejoin="round" d="M 284.500 -8.625 L 285.371 -8.440 L 286.214 -8.951 L 287.000 -9.625" />
<path fill="none" stroke="#000000" stroke-width="1" stroke-linecap="round" stroke-linejoin="round" d="M 287.000 -9.625 L 288.445 -7.957 L 289.000 -7.125" />
<path fill="none" stroke="#000000" stroke-width="1" stroke-linecap="round" stroke-linejoin="round" d="M 289.000 -6.625 L 285.500 -3.125" />
<path fill="none" stroke="#000000" stroke-width="1" stroke-linecap="round" stroke-linejoin="round" d="M 285.000 -3.125 L 284.469 -3.862 L 282.500 -6.125" />
<path fill="none" stroke="#000000" stroke-width="1" stroke-linecap="round" stroke-linejoin="round" d="M 282.000 -6.125 L 279.000 -6.625" />
<path fill="none" stroke="#000000" stroke-width="1" stroke-linecap="round" stroke-linejoin="round" d="M 278.500 -6.625 L 277.596 -6.022 L 275.809 -5.164 L 273.076 -4.009 L 271.314 -3.120 L 265.500 2.375" />
<path fill="none" stroke="#000000" stroke-width="1" stroke-linecap="round" stroke-linejoin="round" d="M 265.500 2.375 L 266.196 4.247 L 267.500 6.375" />
<path fill="none" stroke="#000000" stroke-width="1" stroke-linecap="round" stroke-linejoin="round" d="M 268.000 6.375 L 270.270 5.191 L 271.248 5.001 L 273.111 4.320 L 274.070 4.061 L 274.986 3.678 L 277.844 2.851 L 280.703 2.024 L 282.565 1.343 L 284.500 0.875" />
<path fill="none" stroke="#000000" stroke-width="1" stroke-linecap="round" stroke-linejoin="round" d="M 285.000 0.875 L 287.500 3.875" />
<path fill="none" stroke="#000000" stroke-width="1" stroke-linecap="round" stroke-linejoin="round" d="M 288.000 3.875 L 290.692 0.917 L 291.063 0.115 L 290.611 -0.769 L 290.000 -1.625" />
<path fill="none" stroke="#000000" stroke-width="1" stroke-linecap="round" stroke-linejoin="round" d="M 290.000 -1.625 L 287.370 -1.317 L 285.500 -0.625" />
<path fill="none" stroke="#000000" stroke-width="1" stroke-linecap="round" stroke-linejoin="round" d="M 285.500 -0.625 L 285.152 -1.560 L 285.000 -2.625" />
<path fill="none" stroke="#000000" stroke-width="1" stroke-linecap="round" stroke-linejoin="round" d="M 290.000 -1.625 L 292.000 -3.625" />
<path fill="none" stroke="#000000" stroke-width="1" stroke-linecap="round" stroke-linejoin="round" d="M 292.000 -3.625 L 293.725 -1.177 L 295.000 0.875" />
<path fill="none" stroke="#000000" stroke-width="1" stroke-linecap="round" stroke-linejoin="round" d="M 295.000 0.875 L 295.757 2.405 L 296.000 3.375" />
<path fill="none" stroke="#000000" stroke-width="1" stroke-linecap="round" stroke-linejoin="round" d="M 296.000 3.375 L 297.338 5.063 L 297.720 7.024 L 297.831 8.018 L 297.726 9.012 L 297.148 10.903 L 296.453 12.204 L 295.758 13.505 L 293.773 15.755 L 289.000 20.875" />
<path fill="none" stroke="#000000" stroke-width="1" stroke-linecap="round" stroke-linejoin="round" d="M 289.000 20.875 L 288.309 24.119 L 288.209 25.114 L 287.590 26.990 L 287.203 27.896 L 287.000 28.875" />
<path fill="none" stroke="#000000" stroke-width="1" stroke-linecap="round" stroke-linejoin="round" d="M 287.500 29.375 L 289.444 27.431 L 291.389 25.486 L 293.333 23.542 L 295.278 21.597 L 297.222 19.653 L 299.167 17.708 L 301.111 15.764 L 303.056 13.819 L 305.000 11.875" />
<path fill="none" stroke="#000000" stroke-width="1" stroke-linecap="round" stroke-linejoin="round" d="M 305.000 11.875 L 304.185 9.448 L 303.644 8.620 L 302.500 5.875" />
<path fill="none" stroke="#000000" stroke-width="1" stroke-linecap="round" stroke-linejoin="round" d="M 296.000 3.375 L 294.336 4.484 L 291.740 5.925 L 289.500 7.875" />
<path fill="none" stroke="#000000" stroke-width="1" stroke-linecap="round" stroke-linejoin="round" d="M 289.500 7.875 L 288.823 6.158 L 288.555 5.207 L 288.000 4.375" />
<path fill="none" stroke="#000000" stroke-width="1" stroke-linecap="round" stroke-linejoin="round" d="M 289.500 7.875 L 288.831 14.933 L 288.667 18.929 L 288.684 19.926 L 289.000 20.875" />
<path fill="none" stroke="#000000" stroke-width="1" stroke-linecap="round" stroke-linejoin="round" d="M 286.500 29.375 L 285.551 29.059 L 283.913 27.923 L 281.542 26.103 L 279.349 24.056 L 277.230 21.932 L 274.516 18.997 L 273.935 18.183 L 272.620 16.677 L 270.353 13.402 L 268.223 8.934 L 267.828 8.020 L 267.500 6.875" />
<path fill="none" stroke="#000000" stroke-width="1" stroke-linecap="round" stroke-linejoin="round" d="M 263.500 -3.625 L 266.000 -6.125 L 268.500 -8.625 L 271.000 -11.125 L 273.500 -13.625 L 276.000 -16.125" />
<path fill="none" stroke="#000000" stroke-width="1" stroke-linecap="round" stroke-linejoin="round" d="M 278.500 -15.125 L 279.482 -16.270 L 280.000 -17.125" />
<path fill="none" stroke="#000000" stroke-width="1" stroke-linecap="round" stroke-linejoin="round" d="M 281.000 -12.125 L 279.000 -10.125" />
<path fill="none" stroke="#000000" stroke-width="1" stroke-linecap="round" stroke-linejoin="round" d="M 279.000 -10.125 L 278.500 -7.125" />
<path fill="none" stroke="#000000" stroke-width="1" stroke-linecap="round" stroke-linejoin="round" d="M 284.500 -8.625 L 286.000 -10.125" />
<path fill="none" stroke="#000000" stroke-width="1" stroke-linecap="round" stroke-linejoin="round" d="M 286.500 -10.625 L 285.668 -11.180 L 284.500 -11.625" />
<path fill="none" stroke="#000000" stroke-width="1" stroke-linecap="round" stroke-linejoin="round" d="M 289.500 -6.625 L 292.000 -3.625" />
<path fill="none" stroke="#000000" stroke-width="1" stroke-linecap="round" stroke-linejoin="round" d="M 305.500 12.875 L 303.500 14.875 L 301.500 16.875 L 299.500 18.875 L 297.500 20.875 L 295.500 22.875 L 293.500 24.875 L 291.500 26.875 L 289.500 28.875 L 287.500 30.875" />
<path fill="none" stroke="#000000" stroke-width="1" stroke-linecap="round" stroke-linejoin="round" d="M 287.500 30.875 L 287.333 31.848 L 288.000 33.375" />
<path fill="none" stroke="#000000" stroke-width="1" stroke-linecap="round" stroke-linejoin="round" d="M 288.000 33.375 L 288.504 35.007 L 289.000 35.875" />
<path fill="none" stroke="#000000" stroke-width="1" stroke-linecap="round" stroke-linejoin="round" d="M 289.000 35.875 L 288.445 36.707 L 287.827 38.592 L 287.703 39.584 L 287.226 41.519 L 286.821 42.411 L 286.500 43.375" />
<path fill="none" stroke="#000000" stroke-width="1" stroke-linecap="round" stroke-linejoin="round" d="M 286.500 43.875 L 288.438 45.812 L 290.375 47.750 L 292.312 49.688 L 294.250 51.625 L 296.188 53.562 L 298.125 55.500 L 300.062 57.438 L 302.000 59.375" />
<path fill="none" stroke="#000000" stroke-width="1" stroke-linecap="round" stroke-linejoin="round" d="M 296.500 64.875 L 294.000 62.375" />
<path fill="none" stroke="#000000" stroke-width="1" stroke-linecap="round" stroke-linejoin="round" d="M 294.000 62.375 L 293.725 63.337 L 293.500 65.375" />
<path fill="none" stroke="#000000" stroke-width="1" stroke-linecap="round" stroke-linejoin="round" d="M 294.000 62.375 L 293.690 59.392 L 293.204 57.986 L 292.718 56.581 L 292.124 55.804 L 283.500 46.875" />
<path fill="none" stroke="#000000" stroke-width="1" stroke-linecap="round" stroke-linejoin="round" d="M 283.500 46.875 L 277.353 52.723 L 275.754 53.895 L 273.500 55.875" />
<path fill="none" stroke="#000000" stroke-width="1" stroke-linecap="round" stroke-linejoin="round" d="M 269.000 57.375 L 266.018 57.706 L 265.069 58.019 L 263.078 58.189 L 257.080 58.173 L 255.096 57.952 L 254.120 57.735 L 252.152 57.451 L 251.223 57.097 L 249.517 56.089 L 246.251 53.824 L 244.781 52.468 L 242.731 50.279 L 240.817 47.977 L 240.456 47.060 L 239.593 45.277 L 238.507 43.606 L 236.815 40.022 L 234.779 37.820 L 232.606 35.753 L 231.824 35.150 L 230.059 34.248 L 229.500 33.875" />
<path fill="none" stroke="#000000" stroke-width="1" stroke-linecap="round" stroke-linejoin="round" d="M 229.000 33.875 L 224.945 38.256 L 224.186 38.906 L 222.534 40.016 L 220.658 40.669 L 218.892 41.555 L 216.902 41.708 L 215.905 41.655 L 214.927 41.493 L 212.221 40.303 L 210.746 38.954 L 209.411 37.466 L 208.542 35.688 L 207.802 33.853 L 207.601 32.877 L 207.030 30.980 L 205.642 28.348 L 202.897 25.439 L 199.290 21.978 L 197.537 21.061 L 195.783 20.145 L 194.030 19.228 L 192.151 18.579 L 191.259 18.174 L 190.268 18.042 L 189.268 18.042 L 188.275 18.153 L 186.373 18.700 L 185.459 19.094 L 184.500 19.375" />
<path fill="none" stroke="#000000" stroke-width="1" stroke-linecap="round" stroke-linejoin="round" d="M 184.500 19.375 L 184.394 19.162 L 184.263 18.225 L 184.572 17.278 L 185.000 16.375" />
<path fill="none" stroke="#000000" stroke-width="1" stroke-linecap="round" stroke-linejoin="round" d="M 186.000 15.375 L 188.000 13.375 L 190.000 11.375 L 192.000 9.375 L 194.000 7.375 L 196.000 5.375 L 198.000 3.375 L 200.000 1.375" />
<path fill="none" stroke="#000000" stroke-width="1" stroke-linecap="round" stroke-linejoin="round" d="M 183.000 6.375 L 181.833 4.866 L 181.500 -2.125" />
<path fill="none" stroke="#000000" stroke-width="1" stroke-linecap="round" stroke-linejoin="round" d="M 183.000 10.375 L 183.167 11.454 L 183.167 12.454 L 183.500 13.375" />
<path fill="none" stroke="#000000" stroke-width="1" stroke-linecap="round" stroke-linejoin="round" d="M 184.500 19.375 L 182.938 20.624 L 181.228 21.632 L 180.500 21.875" />
<path fill="none" stroke="#000000" stroke-width="1" stroke-linecap="round" stroke-linejoin="round" d="M 180.500 21.875 L 178.410 24.240 L 176.620 26.634 L 174.748 30.130 L 174.725 31.110 L 175.363 32.992 L 176.000 34.875" />
<path fill="none" stroke="#000000" stroke-width="1" stroke-linecap="round" stroke-linejoin="round" d="M 176.000 34.875 L 169.528 41.670 L 168.239 43.199 L 166.329 45.512 L 166.500 46.375" />
<path fill="none" stroke="#000000" stroke-width="1" stroke-linecap="round" stroke-linejoin="round" d="M 166.500 46.375 L 165.868 48.272 L 165.500 51.375" />
<path fill="none" stroke="#000000" stroke-width="1" stroke-linecap="round" stroke-linejoin="round" d="M 166.500 46.375 L 168.500 44.375 L 170.500 42.375 L 172.500 40.375 L 174.500 38.375 L 176.500 36.375" />
<path fill="none" stroke="#000000" stroke-width="1" stroke-linecap="round" stroke-linejoin="round" d="M 176.500 36.375 L 177.114 37.911 L 177.391 41.894 L 177.612 43.881 L 177.636 46.880 L 177.660 49.878 L 177.500 53.875" />
<path fill="none" stroke="#000000" stroke-width="1" stroke-linecap="round" stroke-linejoin="round" d="M 174.500 64.375 L 174.780 70.579 L 174.945 71.543 L 175.500 72.375" />
<path fill="none" stroke="#000000" stroke-width="1" stroke-linecap="round" stroke-linejoin="round" d="M 176.000 73.875 L 175.833 74.858 L 175.833 77.858 L 175.670 79.849 L 174.596 81.525 L 174.223 82.426 L 173.902 83.370 L 173.699 84.345 L 173.324 85.263 L 173.151 86.247 L 172.813 87.185 L 172.671 88.175 L 172.328 89.110 L 172.175 91.104 L 171.831 93.073 L 171.689 95.068 L 171.057 97.982 L 170.208 100.834 L 169.469 102.671 L 168.607 104.455 L 167.521 106.125 L 167.070 107.004 L 165.961 108.655 L 164.790 110.268 L 163.429 111.733 L 161.331 113.877 L 159.145 115.931 L 157.540 117.110 L 155.875 118.177 L 154.150 119.158 L 152.390 120.069 L 149.547 120.956 L 145.596 121.494 L 141.605 121.708 L 137.609 121.548 L 135.647 121.181 L 133.659 120.992 L 132.698 120.717 L 131.707 120.588 L 130.775 120.263 L 127.863 119.602 L 125.187 118.333 L 123.334 117.625 L 122.448 117.191 L 121.588 116.712 L 119.952 115.570 L 119.100 115.075 L 117.584 113.783 L 116.166 112.374 L 114.837 110.879 L 114.065 110.251 L 113.373 109.533 L 109.023 104.068 L 108.503 103.214 L 107.864 102.445 L 106.798 100.768 L 105.484 98.100 L 104.761 96.254 L 103.900 94.474 L 102.899 91.673 L 102.693 90.700 L 101.258 87.011 L 100.611 84.097 L 100.286 83.165 L 100.157 82.174 L 99.882 81.212 L 99.694 79.225 L 99.000 75.375" />
<path fill="none" stroke="#000000" stroke-width="1" stroke-linecap="round" stroke-linejoin="round" d="M 130.500 62.375 L 132.820 63.907 L 134.665 64.625 L 135.551 65.059 L 136.500 65.375" />
<path fill="none" stroke="#000000" stroke-width="1" stroke-linecap="round" stroke-linejoin="round" d="M 137.000 65.375 L 138.899 64.242 L 140.799 63.109 L 141.573 62.501 L 149.500 54.875" />
<path fill="none" stroke="#000000" stroke-width="1" stroke-linecap="round" stroke-linejoin="round" d="M 134.500 43.375 L 136.469 41.112 L 136.832 40.204 L 136.438 39.285 L 135.000 37.375" />
<path fill="none" stroke="#000000" stroke-width="1" stroke-linecap="round" stroke-linejoin="round" d="M 135.000 37.375 L 132.500 37.375" />
<path fill="none" stroke="#000000" stroke-width="1" stroke-linecap="round" stroke-linejoin="round" d="M 132.500 37.375 L 132.184 38.324 L 132.167 39.321 L 132.300 40.311 L 133.034 42.143 L 134.000 43.375" />
<path fill="none" stroke="#000000" stroke-width="1" stroke-linecap="round" stroke-linejoin="round" d="M 134.000 43.875 L 134.225 45.861 L 134.333 47.857 L 134.220 50.853 L 134.028 51.818 L 133.226 54.685 L 132.881 55.613 L 132.686 56.589 L 132.340 57.525 L 132.172 58.510 L 131.797 59.428 L 131.573 60.395 L 130.500 62.375" />
<path fill="none" stroke="#000000" stroke-width="1" stroke-linecap="round" stroke-linejoin="round" d="M 130.500 62.375 L 129.541 62.094 L 127.724 61.321 L 126.092 60.174 L 125.322 59.536 L 124.469 59.029 L 121.568 56.276 L 119.530 54.075 L 119.009 53.223 L 117.716 51.699 L 117.160 50.868 L 116.510 50.108 L 115.397 48.460 L 114.937 47.588 L 113.251 45.127 L 111.731 42.569 L 108.908 38.475 L 108.458 37.596 L 107.371 35.926 L 106.491 34.155 L 105.000 32.375" />
<path fill="none" stroke="#000000" stroke-width="1" stroke-linecap="round" stroke-linejoin="round" d="M 105.000 32.375 L 101.000 28.375" />
<path fill="none" stroke="#000000" stroke-width="1" stroke-linecap="round" stroke-linejoin="round" d="M 101.000 28.375 L 99.321 25.901 L 98.828 25.036 L 98.204 24.255 L 96.500 21.375" />
<path fill="none" stroke="#000000" stroke-width="1" stroke-linecap="round" stroke-linejoin="round" d="M 96.500 20.875 L 97.408 19.720 L 97.856 18.840 L 98.253 17.943 L 98.803 16.028 L 98.667 14.045 L 98.713 13.049 L 98.911 12.079 L 99.383 11.202 L 99.657 10.241 L 100.099 9.344 L 100.251 8.364 L 100.500 5.375" />
<path fill="none" stroke="#000000" stroke-width="1" stroke-linecap="round" stroke-linejoin="round" d="M 101.000 4.875 L 102.736 4.594 L 103.729 4.570 L 107.670 5.210 L 108.530 5.720 L 109.438 6.126 L 111.000 7.375" />
<path fill="none" stroke="#000000" stroke-width="1" stroke-linecap="round" stroke-linejoin="round" d="M 111.000 7.375 L 113.175 8.849 L 115.361 10.902 L 117.402 13.100 L 118.551 14.730 L 119.006 15.605 L 120.092 17.276 L 120.966 19.052 L 123.351 23.399 L 124.464 25.048 L 125.814 26.522 L 127.294 27.865 L 128.168 28.320 L 129.000 28.875" />
<path fill="none" stroke="#000000" stroke-width="1" stroke-linecap="round" stroke-linejoin="round" d="M 129.500 28.875 L 130.055 28.043 L 131.735 24.466 L 132.210 22.531 L 132.334 21.539 L 132.975 19.663 L 133.720 17.826 L 135.001 15.152 L 136.143 13.529 L 137.504 12.063 L 139.612 9.929 L 142.527 7.191 L 144.138 6.010 L 145.001 5.541 L 146.672 4.455 L 151.075 2.190 L 153.919 1.307 L 155.892 1.042 L 157.890 1.097 L 159.869 1.342 L 162.000 1.875" />
<path fill="none" stroke="#000000" stroke-width="1" stroke-linecap="round" stroke-linejoin="round" d="M 162.000 1.875 L 158.368 5.781 L 157.770 6.566 L 156.807 8.286 L 155.452 9.756 L 153.987 11.115 L 153.158 11.627 L 152.238 12.006 L 151.270 12.240 L 150.351 12.620 L 146.845 14.470 L 146.069 15.085 L 144.600 16.442 L 141.841 19.336 L 140.067 21.740 L 139.547 22.590 L 137.833 26.134 L 137.667 27.107 L 137.649 28.105 L 137.374 29.066 L 137.213 30.052 L 137.222 31.040 L 137.333 32.022 L 137.167 32.995 L 137.109 33.980 L 136.109 35.711 L 135.000 37.375" />
<path fill="none" stroke="#000000" stroke-width="1" stroke-linecap="round" stroke-linejoin="round" d="M 132.500 37.375 L 131.423 35.691 L 130.749 32.787 L 130.202 30.885 L 129.500 29.375" />
<path fill="none" stroke="#000000" stroke-width="1" stroke-linecap="round" stroke-linejoin="round" d="M 106.500 22.875 L 106.284 22.227 L 105.389 20.458 L 105.074 18.523 L 104.768 17.585 L 104.305 15.648 L 104.181 14.656 L 104.177 13.658 L 104.445 12.707 L 105.000 11.875" />
<path fill="none" stroke="#000000" stroke-width="1" stroke-linecap="round" stroke-linejoin="round" d="M 105.000 11.875 L 107.490 10.216 L 108.349 9.742 L 111.000 7.375" />
<path fill="none" stroke="#000000" stroke-width="1" stroke-linecap="round" stroke-linejoin="round" d="M 99.500 3.875 L 98.551 4.191 L 97.000 4.375" />
<path fill="none" stroke="#000000" stroke-width="1" stroke-linecap="round" stroke-linejoin="round" d="M 96.500 4.375 L 95.135 3.283 L 94.234 2.909 L 93.257 2.715 L 91.289 2.981 L 89.500 3.875" />
<path fill="none" stroke="#000000" stroke-width="1" stroke-linecap="round" stroke-linejoin="round" d="M 90.500 7.875 L 93.027 7.708 L 94.000 7.875" />
<path fill="none" stroke="#000000" stroke-width="1" stroke-linecap="round" stroke-linejoin="round" d="M 94.000 7.875 L 96.500 4.875" />
<path fill="none" stroke="#000000" stroke-width="1" stroke-linecap="round" stroke-linejoin="round" d="M 99.500 3.875 L 99.500 1.625 L 99.500 -0.625" />
<path fill="none" stroke="#000000" stroke-width="1" stroke-linecap="round" stroke-linejoin="round" d="M 94.000 8.875 L 92.809 10.472 L 92.239 12.369 L 92.236 13.359 L 92.418 14.340 L 92.725 15.286 L 93.500 16.375" />
<path fill="none" stroke="#000000" stroke-width="1" stroke-linecap="round" stroke-linejoin="round" d="M 93.500 16.375 L 94.217 15.364 L 95.134 13.596 L 95.167 12.605 L 95.081 11.619 L 94.555 9.707 L 94.000 8.875" />
<path fill="none" stroke="#000000" stroke-width="1" stroke-linecap="round" stroke-linejoin="round" d="M 93.000 17.875 L 94.053 18.595 L 96.000 20.875" />
<path fill="none" stroke="#000000" stroke-width="1" stroke-linecap="round" stroke-linejoin="round" d="M 93.000 17.875 L 91.027 17.546 L 90.057 17.306 L 89.000 16.875" />
<path fill="none" stroke="#000000" stroke-width="1" stroke-linecap="round" stroke-linejoin="round" d="M 101.000 28.375 L 103.750 25.625 L 106.500 22.875" />
<path fill="none" stroke="#000000" stroke-width="1" stroke-linecap="round" stroke-linejoin="round" d="M 106.500 22.875 L 107.054 23.983 L 107.259 24.951 L 107.333 25.946 L 107.180 27.937 L 106.077 30.691 L 105.000 32.375" />
<path fill="none" stroke="#000000" stroke-width="1" stroke-linecap="round" stroke-linejoin="round" d="M 105.000 -12.125 L 105.695 -13.688 L 105.819 -14.680 L 106.077 -15.645 L 106.333 -17.624 L 106.649 -18.573 L 106.771 -19.564 L 107.205 -21.505 L 107.304 -22.500 L 107.900 -25.426 L 108.910 -28.220 L 109.528 -29.005 L 110.056 -29.853 L 111.393 -31.340 L 112.807 -32.754 L 116.500 -36.125" />
<path fill="none" stroke="#000000" stroke-width="1" stroke-linecap="round" stroke-linejoin="round" d="M 117.000 -36.625 L 117.333 -39.605 L 117.318 -42.605 L 117.168 -45.601 L 116.858 -46.551 L 116.599 -48.529 L 116.330 -49.492 L 116.219 -50.486 L 115.710 -52.407 L 114.291 -55.015 L 113.212 -56.671 L 112.032 -58.282 L 110.693 -59.765 L 109.927 -60.408 L 108.295 -61.556 L 105.641 -62.864 L 104.687 -63.150 L 101.779 -63.807 L 98.785 -63.958 L 95.789 -63.822 L 93.839 -63.426 L 92.844 -63.326 L 90.908 -62.860 L 90.012 -62.466 L 86.440 -60.747 L 84.770 -59.661 L 83.894 -59.207 L 83.108 -58.590 L 82.259 -58.063 L 81.491 -57.423 L 80.631 -56.924 L 77.018 -53.468 L 72.784 -49.217 L 70.019 -46.326 L 68.868 -44.710 L 67.802 -43.031 L 66.393 -40.412 L 65.825 -39.593 L 65.188 -37.710 L 63.373 -34.185 L 62.713 -32.311 L 61.934 -30.493 L 61.681 -29.532 L 60.894 -27.715 L 60.222 -25.846 L 59.792 -24.959 L 59.189 -23.068 L 57.985 -20.352 L 57.276 -18.503 L 56.412 -15.655 L 56.204 -14.681 L 55.829 -13.763 L 55.661 -12.778 L 55.319 -11.842 L 55.195 -10.850 L 54.922 -9.891 L 54.678 -7.912 L 54.454 -6.939 L 54.300 -5.955 L 54.167 -3.959 L 53.812 -1.993 L 53.670 0.002 L 53.403 0.965 L 53.154 3.949 L 52.831 5.922 L 52.657 8.916 L 52.309 10.880 L 52.166 13.877 L 51.822 16.855 L 51.667 23.853 L 51.667 27.853 L 51.853 35.849 L 52.136 37.829 L 52.389 41.818 L 52.699 43.789 L 52.810 45.786 L 53.115 47.760 L 53.289 49.751 L 53.693 51.694 L 53.901 53.681 L 54.118 54.657 L 54.293 56.647 L 54.672 58.605 L 54.825 60.599 L 55.206 62.556 L 55.416 64.541 L 55.659 65.511 L 55.942 67.481 L 56.210 68.435 L 56.321 69.429 L 56.577 70.394 L 56.833 72.373 L 57.149 73.322 L 57.284 74.312 L 58.200 78.178 L 58.311 79.172 L 58.585 80.130 L 58.981 82.078 L 60.791 88.786 L 61.164 89.704 L 61.398 90.672 L 62.079 92.534 L 62.324 93.497 L 62.708 94.414 L 64.375 100.126 L 65.181 101.934 L 65.790 103.824 L 67.054 106.520 L 67.385 107.453 L 69.193 110.980 L 69.799 112.871 L 70.258 113.750 L 70.603 114.685 L 71.078 115.561 L 71.798 117.399 L 72.661 119.193 L 73.214 120.018 L 73.674 120.896 L 75.828 125.359 L 77.197 127.998 L 77.837 129.881 L 78.295 130.760 L 78.850 131.584 L 80.105 134.282 L 81.491 136.915 L 81.826 137.847 L 82.902 139.522 L 84.263 142.163 L 87.248 147.310 L 87.862 148.098 L 88.820 149.835 L 92.119 154.811 L 92.736 156.691 L 93.167 158.630 L 93.142 160.627 L 92.868 161.588 L 92.725 162.577 L 92.179 164.479 L 91.802 165.397 L 91.601 166.373 L 91.279 167.316 L 90.486 169.123 L 89.694 170.931 L 87.100 173.959 L 83.000 178.375" />
<path fill="none" stroke="#000000" stroke-width="1" stroke-linecap="round" stroke-linejoin="round" d="M 83.000 178.375 L 81.893 178.154 L 80.004 177.543 L 78.200 176.725 L 77.232 176.491 L 76.310 176.119 L 74.540 175.235 L 72.663 174.582 L 70.900 173.683 L 65.270 171.760 L 64.294 171.563 L 63.358 171.218 L 62.370 171.071 L 60.500 170.375" />
<path fill="none" stroke="#000000" stroke-width="1" stroke-linecap="round" stroke-linejoin="round" d="M 60.000 170.375 L 59.168 169.820 L 58.283 169.379 L 54.956 167.194 L 53.220 166.235 L 50.779 164.514 L 49.042 163.556 L 48.254 162.945 L 47.405 162.418 L 45.901 161.102 L 44.318 159.885 L 42.106 157.860 L 40.550 156.603 L 39.071 155.257 L 38.226 154.738 L 37.437 154.125 L 36.573 153.631 L 35.805 152.990 L 35.087 152.295 L 34.000 150.875" />
<path fill="none" stroke="#000000" stroke-width="1" stroke-linecap="round" stroke-linejoin="round" d="M 60.000 170.875 L 60.164 177.873 L 60.328 184.871 L 60.676 186.838 L 60.818 188.832 L 61.050 189.802 L 61.358 191.771 L 61.695 192.710 L 61.903 193.682 L 62.905 196.482 L 63.334 197.376 L 64.437 199.033 L 65.805 200.486 L 66.605 201.077 L 67.500 201.375" />
<path fill="none" stroke="#000000" stroke-width="1" stroke-linecap="round" stroke-linejoin="round" d="M 67.500 201.375 L 69.170 199.513 L 70.841 197.651 L 79.170 189.013 L 87.500 180.375" />
<path fill="none" stroke="#000000" stroke-width="1" stroke-linecap="round" stroke-linejoin="round" d="M 87.500 180.375 L 88.428 180.684 L 90.068 181.816 L 92.477 183.578 L 94.000 184.875" />
<path fill="none" stroke="#000000" stroke-width="1" stroke-linecap="round" stroke-linejoin="round" d="M 94.000 184.875 L 94.203 185.854 L 94.611 186.745 L 96.030 189.367 L 97.086 191.048 L 100.000 194.375" />
<path fill="none" stroke="#000000" stroke-width="1" stroke-linecap="round" stroke-linejoin="round" d="M 100.000 194.375 L 99.667 195.274 L 99.794 196.265 L 100.406 199.188 L 101.409 201.988 L 101.838 202.881 L 103.211 204.314 L 105.000 205.208 L 105.929 205.573 L 107.826 206.206 L 109.500 205.875" />
<path fill="none" stroke="#000000" stroke-width="1" stroke-linecap="round" stroke-linejoin="round" d="M 109.500 205.875 L 112.185 207.213 L 114.134 207.662 L 116.000 207.375" />
<path fill="none" stroke="#000000" stroke-width="1" stroke-linecap="round" stroke-linejoin="round" d="M 116.500 207.375 L 118.289 208.269 L 119.264 208.375 L 120.264 208.375 L 121.183 208.033 L 122.500 207.375" />
<path fill="none" stroke="#000000" stroke-width="1" stroke-linecap="round" stroke-linejoin="round" d="M 122.500 207.375 L 120.877 206.010 L 119.987 205.644 L 117.000 205.375" />
<path fill="none" stroke="#000000" stroke-width="1" stroke-linecap="round" stroke-linejoin="round" d="M 117.000 205.375 L 114.502 202.592 L 113.947 201.769 L 113.500 200.875" />
<path fill="none" stroke="#000000" stroke-width="1" stroke-linecap="round" stroke-linejoin="round" d="M 113.500 200.375 L 114.244 200.003 L 116.106 199.322 L 117.000 198.875" />
<path fill="none" stroke="#000000" stroke-width="1" stroke-linecap="round" stroke-linejoin="round" d="M 117.000 198.875 L 119.942 199.463 L 120.934 199.542 L 122.929 199.489 L 123.500 199.375" />
<path fill="none" stroke="#000000" stroke-width="1" stroke-linecap="round" stroke-linejoin="round" d="M 124.000 199.375 L 125.051 200.048 L 126.043 200.172 L 127.041 200.208 L 128.030 200.118 L 129.000 199.875" />
<path fill="none" stroke="#000000" stroke-width="1" stroke-linecap="round" stroke-linejoin="round" d="M 129.000 199.875 L 130.923 200.424 L 131.907 200.542 L 132.907 200.542 L 134.829 200.076 L 136.000 199.375" />
<path fill="none" stroke="#000000" stroke-width="1" stroke-linecap="round" stroke-linejoin="round" d="M 136.000 199.375 L 137.259 200.361 L 139.122 201.024 L 141.112 201.204 L 143.078 201.551 L 147.075 201.705 L 150.059 202.013 L 154.054 202.208 L 155.051 202.191 L 156.000 201.875" />
<path fill="none" stroke="#000000" stroke-width="1" stroke-linecap="round" stroke-linejoin="round" d="M 156.000 201.875 L 156.849 200.634 L 157.500 199.875" />
<path fill="none" stroke="#000000" stroke-width="1" stroke-linecap="round" stroke-linejoin="round" d="M 156.000 201.875 L 156.894 202.322 L 157.843 202.542 L 158.799 202.609 L 159.789 202.542 L 162.000 201.875" />
<path fill="none" stroke="#000000" stroke-width="1" stroke-linecap="round" stroke-linejoin="round" d="M 162.000 201.875 L 161.347 200.888 L 160.500 200.375" />
<path fill="none" stroke="#000000" stroke-width="1" stroke-linecap="round" stroke-linejoin="round" d="M 162.000 201.875 L 163.872 202.542 L 166.872 202.542 L 167.827 202.266 L 169.804 202.003 L 170.765 201.728 L 171.753 201.577 L 175.746 201.483 L 177.727 201.205 L 180.720 201.026 L 181.682 200.752 L 183.669 200.555 L 185.626 200.173 L 187.613 199.972 L 188.583 199.729 L 190.555 199.453 L 192.000 198.875" />
<path fill="none" stroke="#000000" stroke-width="1" stroke-linecap="round" stroke-linejoin="round" d="M 186.500 196.375 L 185.916 196.570 L 184.939 196.708 L 183.940 196.722 L 181.978 197.094 L 180.983 197.193 L 178.983 197.208 L 178.000 197.375" />
<path fill="none" stroke="#000000" stroke-width="1" stroke-linecap="round" stroke-linejoin="round" d="M 173.500 196.875 L 172.879 197.082 L 171.900 197.208 L 170.918 197.063 L 169.921 197.059 L 167.926 197.202 L 161.927 197.187 L 159.942 196.963 L 157.000 196.375" />
<path fill="none" stroke="#000000" stroke-width="1" stroke-linecap="round" stroke-linejoin="round" d="M 156.500 196.375 L 153.166 196.708 L 150.167 196.697 L 146.169 196.564 L 143.190 196.234 L 140.196 196.042 L 139.211 196.156 L 137.449 197.059 L 136.500 197.375" />
<path fill="none" stroke="#000000" stroke-width="1" stroke-linecap="round" stroke-linejoin="round" d="M 136.000 197.375 L 134.409 196.035 L 130.810 194.415 L 129.899 194.042 L 129.000 194.375" />
<path fill="none" stroke="#000000" stroke-width="1" stroke-linecap="round" stroke-linejoin="round" d="M 129.000 194.375 L 128.852 196.004 L 128.833 198.003 L 128.667 198.976 L 129.000 199.875" />
<path fill="none" stroke="#000000" stroke-width="1" stroke-linecap="round" stroke-linejoin="round" d="M 124.000 198.875 L 124.328 196.903 L 126.000 193.875" />
<path fill="none" stroke="#000000" stroke-width="1" stroke-linecap="round" stroke-linejoin="round" d="M 126.000 193.375 L 124.940 192.539 L 123.188 191.630 L 121.332 190.930 L 120.500 190.375" />
<path fill="none" stroke="#000000" stroke-width="1" stroke-linecap="round" stroke-linejoin="round" d="M 120.500 190.375 L 119.401 192.407 L 119.213 193.382 L 118.492 195.232 L 117.203 197.896 L 117.000 198.875" />
<path fill="none" stroke="#000000" stroke-width="1" stroke-linecap="round" stroke-linejoin="round" d="M 113.000 200.375 L 112.065 200.027 L 111.000 199.875" />
<path fill="none" stroke="#000000" stroke-width="1" stroke-linecap="round" stroke-linejoin="round" d="M 110.500 199.875 L 109.699 199.341 L 104.385 196.670 L 101.827 195.151 L 100.949 194.691 L 100.000 194.375" />
<path fill="none" stroke="#000000" stroke-width="1" stroke-linecap="round" stroke-linejoin="round" d="M 94.000 184.875 L 96.929 184.224 L 99.920 184.026 L 101.892 183.697 L 104.888 183.547 L 106.888 183.542 L 109.881 183.720 L 110.851 183.963 L 112.833 184.208 L 113.768 184.559 L 114.746 184.748 L 115.667 185.125 L 117.000 185.875" />
<path fill="none" stroke="#000000" stroke-width="1" stroke-linecap="round" stroke-linejoin="round" d="M 117.000 186.375 L 117.808 187.417 L 120.500 190.375" />
<path fill="none" stroke="#000000" stroke-width="1" stroke-linecap="round" stroke-linejoin="round" d="M 117.500 185.875 L 120.402 185.158 L 121.390 185.019 L 122.329 184.688 L 123.322 184.564 L 124.320 184.542 L 125.314 184.643 L 128.000 185.375" />
<path fill="none" stroke="#000000" stroke-width="1" stroke-linecap="round" stroke-linejoin="round" d="M 128.500 185.375 L 130.500 183.375" />
<path fill="none" stroke="#000000" stroke-width="1" stroke-linecap="round" stroke-linejoin="round" d="M 128.500 185.875 L 129.675 186.647 L 130.564 187.075 L 131.554 187.208 L 132.551 187.191 L 133.500 186.875" />
<path fill="none" stroke="#000000" stroke-width="1" stroke-linecap="round" stroke-linejoin="round" d="M 133.500 186.875 L 133.724 186.202 L 134.184 185.324 L 134.500 184.375" />
<path fill="none" stroke="#000000" stroke-width="1" stroke-linecap="round" stroke-linejoin="round" d="M 134.500 187.875 L 136.780 189.506 L 137.744 189.747 L 139.606 190.428 L 140.500 190.875" />
<path fill="none" stroke="#000000" stroke-width="1" stroke-linecap="round" stroke-linejoin="round" d="M 138.000 185.875 L 137.498 186.708 L 136.524 186.550 L 135.608 186.925 L 134.500 187.875" />
<path fill="none" stroke="#000000" stroke-width="1" stroke-linecap="round" stroke-linejoin="round" d="M 129.000 194.375 L 128.132 193.879 L 126.500 193.375" />
<path fill="none" stroke="#000000" stroke-width="1" stroke-linecap="round" stroke-linejoin="round" d="M 127.500 207.875 L 129.867 209.137 L 131.707 209.920 L 132.679 210.117 L 133.673 210.208 L 134.653 210.045 L 135.653 210.042 L 136.626 210.208 L 137.626 210.208 L 139.612 210.042 L 141.605 210.203 L 143.572 210.542 L 147.572 210.542 L 148.570 210.518 L 151.556 210.219 L 155.552 210.064 L 157.552 210.042 L 159.544 210.208 L 160.541 210.195 L 162.500 209.875" />
<path fill="none" stroke="#000000" stroke-width="1" stroke-linecap="round" stroke-linejoin="round" d="M 163.500 207.875 L 162.668 207.320 L 161.705 207.136 L 159.709 207.042 L 157.709 207.042 L 156.724 207.134 L 154.764 207.042 L 152.791 207.208 L 148.791 207.208 L 142.802 207.542 L 131.802 207.542 L 127.500 207.875" />
<path fill="none" stroke="#000000" stroke-width="1" stroke-linecap="round" stroke-linejoin="round" d="M 127.500 207.875 L 122.500 207.375" />
<path fill="none" stroke="#000000" stroke-width="1" stroke-linecap="round" stroke-linejoin="round" d="M 125.000 212.875 L 126.147 212.748 L 128.145 212.708 L 130.085 213.125 L 131.079 213.208 L 132.000 212.875" />
<path fill="none" stroke="#000000" stroke-width="1" stroke-linecap="round" stroke-linejoin="round" d="M 125.500 215.875 L 124.605 216.042 L 123.629 215.939 L 121.710 215.542 L 120.710 215.542 L 118.742 215.223 L 116.748 215.071 L 114.797 214.680 L 112.807 214.499 L 111.831 214.282 L 108.854 213.964 L 107.884 213.721 L 106.893 213.591 L 106.029 213.164 L 104.500 211.875" />
<path fill="none" stroke="#000000" stroke-width="1" stroke-linecap="round" stroke-linejoin="round" d="M 104.500 211.875 L 103.284 212.179 L 101.292 212.141 L 100.332 211.930 L 99.500 211.375" />
<path fill="none" stroke="#000000" stroke-width="1" stroke-linecap="round" stroke-linejoin="round" d="M 99.500 210.875 L 100.361 210.368 L 101.341 210.208 L 102.341 210.208 L 104.201 210.842 L 105.000 211.375" />
<path fill="none" stroke="#000000" stroke-width="1" stroke-linecap="round" stroke-linejoin="round" d="M 105.000 211.375 L 106.109 211.139 L 107.096 211.055 L 108.086 211.197 L 111.000 211.875" />
<path fill="none" stroke="#000000" stroke-width="1" stroke-linecap="round" stroke-linejoin="round" d="M 109.500 205.875 L 109.783 203.895 L 110.272 201.970 L 110.500 200.375" />
<path fill="none" stroke="#000000" stroke-width="1" stroke-linecap="round" stroke-linejoin="round" d="M 99.000 210.875 L 96.097 210.164 L 95.104 210.053 L 94.150 209.758 L 92.185 209.437 L 91.224 209.174 L 90.231 209.050 L 89.297 208.702 L 88.312 208.531 L 87.394 208.154 L 85.497 207.574 L 84.518 207.616 L 84.000 207.875" />
<path fill="none" stroke="#000000" stroke-width="1" stroke-linecap="round" stroke-linejoin="round" d="M 84.000 207.875 L 84.000 209.875" />
<path fill="none" stroke="#000000" stroke-width="1" stroke-linecap="round" stroke-linejoin="round" d="M 84.000 207.875 L 82.402 206.689 L 79.530 205.890 L 78.591 205.564 L 77.701 205.148 L 75.786 204.599 L 74.896 204.182 L 73.005 203.576 L 72.089 203.193 L 70.192 202.613 L 68.332 201.930 L 67.500 201.375" />
<path fill="none" stroke="#000000" stroke-width="1" stroke-linecap="round" stroke-linejoin="round" d="M 83.000 178.375 L 84.919 179.015 L 85.902 179.192 L 87.500 180.375" />
<path fill="none" stroke="#000000" stroke-width="1" stroke-linecap="round" stroke-linejoin="round" d="M 140.000 213.875 L 140.616 214.080 L 141.596 214.203 L 144.589 214.012 L 147.571 213.708 L 150.571 213.708 L 153.541 213.323 L 154.500 213.375" />
<path fill="none" stroke="#000000" stroke-width="1" stroke-linecap="round" stroke-linejoin="round" d="M 152.500 216.375 L 151.606 216.822 L 150.000 217.375" />
<path fill="none" stroke="#000000" stroke-width="1" stroke-linecap="round" stroke-linejoin="round" d="M 143.000 217.375 L 141.921 217.042 L 141.000 217.375" />
<path fill="none" stroke="#000000" stroke-width="1" stroke-linecap="round" stroke-linejoin="round" d="M 148.500 193.375 L 150.000 193.875" />
<path fill="none" stroke="#000000" stroke-width="1" stroke-linecap="round" stroke-linejoin="round" d="M 267.000 69.375 L 267.468 66.412 L 267.693 65.438 L 267.935 64.468 L 268.500 63.375" />
<path fill="none" stroke="#000000" stroke-width="1" stroke-linecap="round" stroke-linejoin="round" d="M 283.500 46.875 L 286.000 43.875" />
<path fill="none" stroke="#000000" stroke-width="1" stroke-linecap="round" stroke-linejoin="round" d="M 289.000 35.875 L 290.912 36.440 L 293.500 36.875" />
<path fill="none" stroke="#000000" stroke-width="1" stroke-linecap="round" stroke-linejoin="round" d="M 293.500 36.875 L 295.021 37.483 L 295.998 37.680 L 296.916 38.055 L 297.898 38.234 L 298.837 38.566 L 299.827 38.707 L 300.761 39.061 L 301.746 39.208 L 302.726 39.042 L 303.714 39.137 L 307.000 41.375" />
<path fill="none" stroke="#000000" stroke-width="1" stroke-linecap="round" stroke-linejoin="round" d="M 308.000 41.375 L 310.751 44.279 L 312.500 46.375" />
<path fill="none" stroke="#000000" stroke-width="1" stroke-linecap="round" stroke-linejoin="round" d="M 293.500 36.875 L 295.438 35.044 L 297.376 33.212 L 299.314 31.381 L 300.087 30.752 L 304.203 27.913 L 310.500 24.375" />
<path fill="none" stroke="#000000" stroke-width="1" stroke-linecap="round" stroke-linejoin="round" d="M 305.500 12.875 L 305.833 13.796 L 305.718 14.785 L 305.159 15.578 L 299.657 21.385 L 288.000 33.375" />
<path fill="none" stroke="#000000" stroke-width="1" stroke-linecap="round" stroke-linejoin="round" d="M 263.000 -3.625 L 261.156 -5.756 L 259.964 -7.357 L 258.000 -9.625" />
<path fill="none" stroke="#000000" stroke-width="1" stroke-linecap="round" stroke-linejoin="round" d="M 258.000 -10.125 L 264.019 -15.958 L 267.000 -18.625" />
<path fill="none" stroke="#000000" stroke-width="1" stroke-linecap="round" stroke-linejoin="round" d="M 257.500 -10.125 L 256.000 -12.125" />
<path fill="none" stroke="#000000" stroke-width="1" stroke-linecap="round" stroke-linejoin="round" d="M 229.500 14.875 L 229.306 26.384 L 229.171 31.383 L 229.000 33.375" />
<path fill="none" stroke="#000000" stroke-width="1" stroke-linecap="round" stroke-linejoin="round" d="M 180.500 21.875 L 176.447 17.454 L 175.915 16.609 L 175.264 15.850 L 173.456 13.468 L 172.926 12.622 L 170.465 9.483 L 169.937 8.635 L 169.286 7.875 L 165.828 3.002 L 165.188 2.234 L 164.302 1.776 L 163.327 1.588 L 162.000 1.875" />
<path fill="none" stroke="#000000" stroke-width="1" stroke-linecap="round" stroke-linejoin="round" d="M 120.000 -22.125 L 119.718 -25.112 L 119.514 -26.084 L 119.000 -27.625" />
<path fill="none" stroke="#000000" stroke-width="1" stroke-linecap="round" stroke-linejoin="round" d="M 119.000 -27.625 L 118.555 -28.793 L 118.000 -29.625" />
<path fill="none" stroke="#000000" stroke-width="1" stroke-linecap="round" stroke-linejoin="round" d="M 118.000 -29.625 L 114.621 -25.939 L 114.000 -25.158 L 112.837 -23.531 L 113.000 -22.625" />
<path fill="none" stroke="#000000" stroke-width="1" stroke-linecap="round" stroke-linejoin="round" d="M 112.500 -16.125 L 112.951 -17.488 L 113.882 -19.246 L 114.685 -21.050 L 114.959 -22.001 L 116.343 -24.636 L 119.000 -27.625" />
<path fill="none" stroke="#000000" stroke-width="1" stroke-linecap="round" stroke-linejoin="round" d="M 118.000 -29.625 L 118.167 -30.598 L 118.167 -31.598 L 117.555 -34.515 L 117.000 -35.625" />
</svg>