<?xml version="1.0" encoding="UTF-8"?>
<svg xmlns="http://www.w3.org/2000/svg" viewBox="25.560 -72.395 295.380 298.210">
<path fill="none" stroke="#000000" stroke-width="1" stroke-linecap="round" stroke-linejoin="round" d="M 254.000 -39.125 L 255.768 -37.741 L 256.600 -37.205 L 265.402 -29.051 L 266.736 -27.573 L 268.930 -25.528 L 271.048 -23.403 L 273.000 -21.125" />
<path fill="none" stroke="#000000" stroke-width="1" stroke-linecap="round" stroke-linejoin="round" d="M 273.500 -20.625 L 274.180 -20.278 L 275.184 -18.574 L 275.500 -17.625" />
<path fill="none" stroke="#000000" stroke-width="1" stroke-linecap="round" stroke-linejoin="round" d="M 275.000 -17.125 L 274.106 -17.572 L 273.269 -18.110 L 272.000 -19.125" />
<path fill="none" stroke="#000000" stroke-width="1" stroke-linecap="round" stroke-linejoin="round" d="M 271.500 -19.625 L 269.213 -21.565 L 266.000 -24.625" />
<path fill="none" stroke="#000000" stroke-width="1" stroke-linecap="round" stroke-linejoin="round" d="M 266.000 -24.625 L 261.838 -28.947 L 259.500 -31.625" />
<path fill="none" stroke="#000000" stroke-width="1" stroke-linecap="round" stroke-linejoin="round" d="M 252.000 -28.125 L 251.696 -26.940 L 251.352 -26.004 L 251.167 -25.024 L 251.500 -24.125" />
<path fill="none" stroke="#000000" stroke-width="1" stroke-linecap="round" stroke-linejoin="round" d="M 251.500 -24.125 L 250.245 -22.572 L 248.000 -20.125" />
<path fill="none" stroke="#000000" stroke-width="1" stroke-linecap="round" stroke-linejoin="round" d="M 248.000 -20.125 L 249.794 -18.641 L 251.220 -17.239 L 256.000 -12.125" />
<path fill="none" stroke="#000000" stroke-width="1" stroke-linecap="round" stroke-linejoin="round" d="M 256.000 -12.125 L 253.500 -9.625 L 251.000 -7.125 L 248.500 -4.625 L 246.000 -2.125" />
<path fill="none" stroke="#000000" stroke-width="1" stroke-linecap="round" stroke-linejoin="round" d="M 246.000 -2.125 L 242.000 -6.125" />
<path fill="none" stroke="#000000" stroke-width="1" stroke-linecap="round" stroke-linejoin="round" d="M 246.000 -2.125 L 246.520 -1.272 L 247.233 -0.572 L 248.018 0.046 L 249.918 0.570 L 252.915 0.708 L 255.915 0.708 L 259.912 0.564 L 260.894 0.423 L 264.000 -0.625" />
<path fill="none" stroke="#000000" stroke-width="1" stroke-linecap="round" stroke-linejoin="round" d="M 264.000 -2.625 L 266.500 -5.125 L 269.000 -7.625 L 271.500 -10.125 L 274.000 -12.625 L 276.500 -15.125" />
<path fill="none" stroke="#000000" stroke-width="1" stroke-linecap="round" stroke-linejoin="round" d="M 276.500 -15.125 L 277.167 -13.253 L 277.000 -12.125" />
<path fill="none" stroke="#000000" stroke-width="1" stroke-linecap="round" stroke-linejoin="round" d="M 278.000 -11.625 L 280.000 -13.625" />
<path fill="none" stroke="#000000" stroke-width="1" stroke-linecap="round" stroke-linejoin="round" d="M 280.000 -13.625 L 279.937 -13.815 L 279.332 -14.570 L 278.500 -15.125" />
<path fill="none" stroke="#000000" stroke-width="1" stroke-linecap="round" stroke-linejoin="round" d="M 278.500 -15.125 L 279.482 -16.270 L 280.000 -17.125" />
<path fill="none" stroke="#000000" stroke-width="1" stroke-linecap="round" stroke-linejoin="round" d="M 282.500 -14.625 L 281.259 -13.776 L 280.500 -13.125" />
<path fill="none" stroke="#000000" stroke-width="1" stroke-linecap="round" stroke-linejoin="round" d="M 281.000 -12.125 L 279.000 -9.625" />
<path fill="none" stroke="#000000" stroke-width="1" stroke-linecap="round" stroke-linejoin="round" d="M 279.000 -9.625 L 278.500 -7.125" />
<path fill="none" stroke="#000000" stroke-width="1" stroke-linecap="round" stroke-linejoin="round" d="M 278.500 -6.625 L 277.596 -6.022 L 276.702 -5.593 L 274.852 -4.880 L 273.083 -4.000 L 271.314 -3.120 L 265.500 2.375" />
<path fill="none" stroke="#000000" stroke-width="1" stroke-linecap="round" stroke-linejoin="round" d="M 265.500 2.375 L 265.816 3.324 L 267.500 6.375" />
<path fill="none" stroke="#000000" stroke-width="1" stroke-linecap="round" stroke-linejoin="round" d="M 268.000 6.375 L 270.270 5.191 L 271.248 5.001 L 273.111 4.320 L 274.070 4.061 L 274.986 3.678 L 277.844 2.851 L 280.703 2.024 L 282.565 1.343 L 284.500 0.875" />
<path fill="none" stroke="#000000" stroke-width="1" stroke-linecap="round" stroke-linejoin="round" d="M 284.500 0.875 L 287.500 3.875" />
<path fill="none" stroke="#000000" stroke-width="1" stroke-linecap="round" stroke-linejoin="round" d="M 288.000 3.875 L 290.692 0.917 L 291.063 0.115 L 290.611 -0.769 L 290.000 -1.625" />
<path fill="none" stroke="#000000" stroke-width="1" stroke-linecap="round" stroke-linejoin="round" d="M 290.000 -1.625 L 291.500 -3.125" />
<path fill="none" stroke="#000000" stroke-width="1" stroke-linecap="round" stroke-linejoin="round" d="M 292.000 -3.125 L 295.000 0.375" />
<path fill="none" stroke="#000000" stroke-width="1" stroke-linecap="round" stroke-linejoin="round" d="M 295.000 0.875 L 296.036 2.490 L 296.500 3.375" />
<path fill="none" stroke="#000000" stroke-width="1" stroke-linecap="round" stroke-linejoin="round" d="M 296.500 3.875 L 297.232 4.796 L 297.697 5.650 L 297.833 7.642 L 297.693 9.634 L 296.802 11.391 L 295.911 13.148 L 289.000 20.375" />
<path fill="none" stroke="#000000" stroke-width="1" stroke-linecap="round" stroke-linejoin="round" d="M 289.000 20.375 L 288.449 23.131 L 288.206 25.114 L 287.590 26.990 L 287.203 27.896 L 287.000 28.875" />
<path fill="none" stroke="#000000" stroke-width="1" stroke-linecap="round" stroke-linejoin="round" d="M 287.500 29.375 L 289.444 27.431 L 291.389 25.486 L 293.333 23.542 L 295.278 21.597 L 297.222 19.653 L 299.167 17.708 L 301.111 15.764 L 303.056 13.819 L 305.000 11.875" />
<path fill="none" stroke="#000000" stroke-width="1" stroke-linecap="round" stroke-linejoin="round" d="M 305.000 11.875 L 304.174 9.406 L 303.634 8.578 L 303.055 6.707 L 302.500 5.875" />
<path fill="none" stroke="#000000" stroke-width="1" stroke-linecap="round" stroke-linejoin="round" d="M 296.000 3.875 L 295.021 4.078 L 293.270 4.990 L 291.598 6.044 L 289.500 7.875" />
<path fill="none" stroke="#000000" stroke-width="1" stroke-linecap="round" stroke-linejoin="round" d="M 289.500 7.875 L 288.823 6.158 L 288.555 5.207 L 288.000 4.375" />
<path fill="none" stroke="#000000" stroke-width="1" stroke-linecap="round" stroke-linejoin="round" d="M 289.500 7.875 L 288.874 14.445 L 288.678 18.439 L 288.667 19.439 L 289.000 20.375" />
<path fill="none" stroke="#000000" stroke-width="1" stroke-linecap="round" stroke-linejoin="round" d="M 286.500 29.375 L 285.551 29.059 L 283.913 27.923 L 281.542 26.103 L 279.349 24.056 L 277.230 21.932 L 274.516 18.997 L 273.935 18.183 L 272.620 16.677 L 270.353 13.402 L 268.223 8.934 L 267.828 8.020 L 267.500 6.875" />
<path fill="none" stroke="#000000" stroke-width="1" stroke-linecap="round" stroke-linejoin="round" d="M 263.500 -3.625 L 266.000 -6.125 L 268.500 -8.625 L 271.000 -11.125 L 273.500 -13.625 L 276.000 -16.125" />
<path fill="none" stroke="#000000" stroke-width="1" stroke-linecap="round" stroke-linejoin="round" d="M 281.000 -12.125 L 282.500 -10.625" />
<path fill="none" stroke="#000000" stroke-width="1" stroke-linecap="round" stroke-linejoin="round" d="M 283.000 -10.125 L 283.110 -9.131 L 283.500 -7.625" />
<path fill="none" stroke="#000000" stroke-width="1" stroke-linecap="round" stroke-linejoin="round" d="M 282.500 -6.125 L 285.500 -2.625" />
<path fill="none" stroke="#000000" stroke-width="1" stroke-linecap="round" stroke-linejoin="round" d="M 285.500 -2.625 L 285.167 -1.546 L 285.500 -0.625" />
<path fill="none" stroke="#000000" stroke-width="1" stroke-linecap="round" stroke-linejoin="round" d="M 285.500 -0.625 L 287.370 -1.317 L 290.000 -1.625" />
<path fill="none" stroke="#000000" stroke-width="1" stroke-linecap="round" stroke-linejoin="round" d="M 292.000 -3.625 L 289.500 -6.625" />
<path fill="none" stroke="#000000" stroke-width="1" stroke-linecap="round" stroke-linejoin="round" d="M 289.500 -6.625 L 287.500 -4.625 L 285.500 -2.625" />
<path fill="none" stroke="#000000" stroke-width="1" stroke-linecap="round" stroke-linejoin="round" d="M 282.000 -6.125 L 279.000 -6.625" />
<path fill="none" stroke="#000000" stroke-width="1" stroke-linecap="round" stroke-linejoin="round" d="M 284.500 -11.625 L 285.440 -11.387 L 286.000 -10.625" />
<path fill="none" stroke="#000000" stroke-width="1" stroke-linecap="round" stroke-linejoin="round" d="M 287.000 -9.625 L 288.911 -7.432 L 289.500 -6.625" />
<path fill="none" stroke="#000000" stroke-width="1" stroke-linecap="round" stroke-linejoin="round" d="M 284.500 -11.625 L 284.000 -13.125" />
<path fill="none" stroke="#000000" stroke-width="1" stroke-linecap="round" stroke-linejoin="round" d="M 267.000 -18.625 L 264.019 -15.958 L 258.000 -10.125" />
<path fill="none" stroke="#000000" stroke-width="1" stroke-linecap="round" stroke-linejoin="round" d="M 257.500 -10.125 L 256.000 -12.125" />
<path fill="none" stroke="#000000" stroke-width="1" stroke-linecap="round" stroke-linejoin="round" d="M 258.000 -9.625 L 259.964 -7.357 L 261.156 -5.756 L 263.000 -3.625" />
<path fill="none" stroke="#000000" stroke-width="1" stroke-linecap="round" stroke-linejoin="round" d="M 248.000 -20.125 L 246.290 -21.161 L 244.500 -22.625" />
<path fill="none" stroke="#000000" stroke-width="1" stroke-linecap="round" stroke-linejoin="round" d="M 244.000 -22.625 L 243.168 -23.180 L 242.288 -23.628 L 240.659 -24.778 L 237.544 -27.277 L 236.688 -27.781 L 235.904 -28.402 L 235.039 -28.894 L 234.247 -29.502 L 233.397 -30.017 L 231.005 -31.815 L 229.308 -32.840 L 227.500 -33.658 L 226.654 -34.176 L 224.803 -34.883 L 223.916 -35.313 L 222.933 -35.458 L 221.963 -35.264 L 221.136 -34.713 L 219.323 -33.958 L 218.353 -34.056 L 217.500 -34.625" />
<path fill="none" stroke="#000000" stroke-width="1" stroke-linecap="round" stroke-linejoin="round" d="M 244.500 -23.125 L 250.000 -29.625" />
<path fill="none" stroke="#000000" stroke-width="1" stroke-linecap="round" stroke-linejoin="round" d="M 252.000 -28.125 L 252.653 -28.647 L 253.602 -28.792 L 254.222 -28.070 L 254.157 -27.114 L 251.500 -24.125" />
<path fill="none" stroke="#000000" stroke-width="1" stroke-linecap="round" stroke-linejoin="round" d="M 229.500 14.875 L 229.306 26.384 L 229.171 31.383 L 229.000 33.375" />
<path fill="none" stroke="#000000" stroke-width="1" stroke-linecap="round" stroke-linejoin="round" d="M 229.000 33.875 L 225.409 37.799 L 223.861 39.058 L 222.192 40.119 L 218.535 41.600 L 217.542 41.708 L 215.548 41.610 L 212.765 40.608 L 211.948 40.068 L 211.198 39.407 L 209.828 37.952 L 209.257 37.147 L 208.806 36.266 L 208.169 34.383 L 207.757 33.491 L 207.227 31.573 L 206.842 30.668 L 206.422 29.764 L 205.356 28.088 L 202.626 25.168 L 199.010 21.717 L 197.227 20.853 L 195.445 19.988 L 193.663 19.124 L 190.880 18.120 L 189.885 18.042 L 187.895 18.201 L 186.977 18.573 L 185.000 18.875" />
<path fill="none" stroke="#000000" stroke-width="1" stroke-linecap="round" stroke-linejoin="round" d="M 185.000 18.875 L 182.689 20.781 L 181.834 21.291 L 180.500 21.875" />
<path fill="none" stroke="#000000" stroke-width="1" stroke-linecap="round" stroke-linejoin="round" d="M 180.500 21.875 L 176.490 17.525 L 175.969 16.672 L 175.318 15.913 L 174.149 14.299 L 173.499 13.540 L 172.980 12.685 L 170.509 9.553 L 169.991 8.698 L 169.340 7.939 L 165.882 3.066 L 165.241 2.298 L 164.409 1.754 L 163.434 1.559 L 162.500 1.875" />
<path fill="none" stroke="#000000" stroke-width="1" stroke-linecap="round" stroke-linejoin="round" d="M 162.500 1.875 L 157.703 6.972 L 157.190 7.805 L 155.891 9.318 L 153.701 11.366 L 151.872 12.101 L 149.985 12.719 L 149.162 13.277 L 146.528 14.668 L 143.624 17.418 L 141.572 19.606 L 140.952 20.385 L 139.293 22.869 L 138.043 25.560 L 137.191 29.394 L 137.167 30.392 L 137.330 31.365 L 137.313 32.314 L 137.037 34.263 L 136.462 36.148 L 135.500 37.375" />
<path fill="none" stroke="#000000" stroke-width="1" stroke-linecap="round" stroke-linejoin="round" d="M 135.500 37.375 L 132.500 37.375" />
<path fill="none" stroke="#000000" stroke-width="1" stroke-linecap="round" stroke-linejoin="round" d="M 132.500 37.375 L 132.184 38.324 L 132.167 39.321 L 132.300 40.311 L 133.034 42.143 L 134.000 43.375" />
<path fill="none" stroke="#000000" stroke-width="1" stroke-linecap="round" stroke-linejoin="round" d="M 134.000 43.375 L 134.316 47.119 L 134.333 49.119 L 134.200 51.113 L 133.698 53.022 L 133.365 53.962 L 133.183 54.943 L 132.808 55.861 L 132.614 56.839 L 132.064 58.747 L 131.055 61.543 L 130.500 62.375" />
<path fill="none" stroke="#000000" stroke-width="1" stroke-linecap="round" stroke-linejoin="round" d="M 130.500 62.375 L 132.693 63.812 L 135.413 64.984 L 136.375 65.208 L 137.359 65.077 L 139.079 64.093 L 140.799 63.109 L 141.573 62.501 L 149.500 54.875" />
<path fill="none" stroke="#000000" stroke-width="1" stroke-linecap="round" stroke-linejoin="round" d="M 165.500 51.375 L 169.007 45.317 L 169.607 44.521 L 176.500 36.375" />
<path fill="none" stroke="#000000" stroke-width="1" stroke-linecap="round" stroke-linejoin="round" d="M 176.500 36.375 L 177.106 37.890 L 177.191 38.878 L 177.346 46.377 L 177.500 53.875" />
<path fill="none" stroke="#000000" stroke-width="1" stroke-linecap="round" stroke-linejoin="round" d="M 174.500 64.375 L 174.951 70.926 L 175.097 71.902 L 175.454 73.334 L 175.812 74.767 L 175.823 76.266 L 175.833 77.765 L 175.682 79.755 L 174.653 81.449 L 174.242 82.333 L 173.715 84.252 L 173.351 85.173 L 173.175 86.156 L 172.826 87.091 L 172.685 88.081 L 172.343 89.017 L 172.182 91.009 L 171.845 92.980 L 171.695 94.974 L 171.092 97.894 L 170.227 100.741 L 169.522 102.592 L 168.664 104.379 L 168.090 105.195 L 167.127 106.928 L 164.855 110.198 L 161.398 113.810 L 158.450 116.505 L 155.951 118.120 L 154.239 119.129 L 152.482 120.046 L 149.635 120.921 L 145.703 121.559 L 142.708 121.708 L 138.711 121.570 L 135.743 121.169 L 133.751 121.018 L 132.789 120.743 L 131.801 120.600 L 130.860 120.305 L 127.957 119.618 L 125.309 118.294 L 124.378 117.960 L 123.484 117.531 L 121.725 116.617 L 119.167 115.097 L 116.921 113.130 L 112.760 108.808 L 109.056 104.107 L 106.814 100.816 L 105.512 98.143 L 104.357 95.411 L 103.706 93.533 L 103.276 92.646 L 102.921 91.717 L 102.701 90.749 L 101.264 87.060 L 100.633 84.140 L 100.292 83.214 L 100.168 82.221 L 99.896 81.260 L 99.724 80.276 L 99.667 78.280 L 99.000 75.375" />
<path fill="none" stroke="#000000" stroke-width="1" stroke-linecap="round" stroke-linejoin="round" d="M 130.500 62.375 L 129.541 62.094 L 127.717 61.330 L 126.868 60.809 L 124.464 59.036 L 121.569 56.277 L 119.531 54.076 L 119.009 53.224 L 116.541 50.090 L 116.018 49.239 L 115.397 48.455 L 114.935 47.586 L 113.250 45.124 L 111.730 42.566 L 108.888 38.486 L 107.812 36.812 L 106.490 34.154 L 105.000 32.375" />
<path fill="none" stroke="#000000" stroke-width="1" stroke-linecap="round" stroke-linejoin="round" d="M 105.000 32.375 L 103.667 31.348 L 102.947 30.655 L 101.000 28.375" />
<path fill="none" stroke="#000000" stroke-width="1" stroke-linecap="round" stroke-linejoin="round" d="M 101.000 28.375 L 99.321 25.901 L 98.828 25.036 L 98.204 24.255 L 96.500 21.375" />
<path fill="none" stroke="#000000" stroke-width="1" stroke-linecap="round" stroke-linejoin="round" d="M 96.500 20.875 L 97.427 19.694 L 98.259 17.911 L 98.565 16.963 L 98.718 15.029 L 98.667 14.037 L 98.750 13.044 L 99.283 11.126 L 100.168 9.360 L 100.500 5.375" />
<path fill="none" stroke="#000000" stroke-width="1" stroke-linecap="round" stroke-linejoin="round" d="M 100.500 5.375 L 102.480 5.092 L 103.476 5.042 L 105.476 5.064 L 107.470 5.206 L 109.229 6.118 L 110.072 6.637 L 111.000 7.375" />
<path fill="none" stroke="#000000" stroke-width="1" stroke-linecap="round" stroke-linejoin="round" d="M 111.000 7.375 L 113.184 8.857 L 115.369 10.911 L 117.410 13.109 L 118.558 14.740 L 119.436 16.512 L 121.635 19.833 L 121.967 20.764 L 123.351 23.399 L 124.464 25.048 L 125.814 26.522 L 127.294 27.865 L 128.168 28.320 L 129.000 28.875" />
<path fill="none" stroke="#000000" stroke-width="1" stroke-linecap="round" stroke-linejoin="round" d="M 129.500 28.875 L 129.878 28.309 L 131.682 24.781 L 131.859 23.798 L 132.170 22.848 L 132.294 21.856 L 132.821 19.938 L 133.717 18.174 L 134.382 16.302 L 134.821 15.413 L 135.926 13.763 L 137.287 12.297 L 139.387 10.155 L 142.291 7.405 L 144.699 5.642 L 147.256 4.123 L 150.799 2.342 L 152.655 1.655 L 154.579 1.163 L 155.573 1.052 L 156.572 1.042 L 159.558 1.287 L 162.500 1.875" />
<path fill="none" stroke="#000000" stroke-width="1" stroke-linecap="round" stroke-linejoin="round" d="M 181.500 -2.125 L 181.978 4.859 L 182.290 5.789 L 182.360 6.774 L 182.701 7.712 L 183.000 8.875" />
<path fill="none" stroke="#000000" stroke-width="1" stroke-linecap="round" stroke-linejoin="round" d="M 183.000 10.375 L 183.167 10.976 L 183.167 11.976 L 183.500 12.875" />
<path fill="none" stroke="#000000" stroke-width="1" stroke-linecap="round" stroke-linejoin="round" d="M 185.500 15.375 L 190.615 10.596 L 200.000 1.375" />
<path fill="none" stroke="#000000" stroke-width="1" stroke-linecap="round" stroke-linejoin="round" d="M 180.500 21.875 L 178.513 24.122 L 176.700 26.502 L 174.798 29.982 L 174.688 30.959 L 175.295 32.849 L 176.039 34.684 L 176.350 35.623 L 176.500 36.375" />
<path fill="none" stroke="#000000" stroke-width="1" stroke-linecap="round" stroke-linejoin="round" d="M 135.500 37.375 L 136.691 38.972 L 136.633 39.902 L 136.147 40.776 L 135.547 41.570 L 134.000 43.375" />
<path fill="none" stroke="#000000" stroke-width="1" stroke-linecap="round" stroke-linejoin="round" d="M 132.500 37.375 L 131.423 35.691 L 130.749 32.787 L 130.202 30.885 L 129.500 29.375" />
<path fill="none" stroke="#000000" stroke-width="1" stroke-linecap="round" stroke-linejoin="round" d="M 106.500 22.875 L 105.719 20.469 L 104.999 18.624 L 104.756 17.678 L 104.408 15.712 L 104.333 13.720 L 105.000 11.875" />
<path fill="none" stroke="#000000" stroke-width="1" stroke-linecap="round" stroke-linejoin="round" d="M 105.000 11.875 L 106.594 10.677 L 108.337 9.752 L 111.000 7.375" />
<path fill="none" stroke="#000000" stroke-width="1" stroke-linecap="round" stroke-linejoin="round" d="M 99.500 3.875 L 99.500 1.625 L 99.500 -0.625" />
<path fill="none" stroke="#000000" stroke-width="1" stroke-linecap="round" stroke-linejoin="round" d="M 99.000 4.375 L 97.000 4.375" />
<path fill="none" stroke="#000000" stroke-width="1" stroke-linecap="round" stroke-linejoin="round" d="M 96.500 4.375 L 95.135 3.283 L 94.234 2.909 L 93.257 2.715 L 91.289 2.981 L 89.500 3.875" />
<path fill="none" stroke="#000000" stroke-width="1" stroke-linecap="round" stroke-linejoin="round" d="M 90.500 7.875 L 94.000 7.375" />
<path fill="none" stroke="#000000" stroke-width="1" stroke-linecap="round" stroke-linejoin="round" d="M 94.500 7.375 L 96.500 4.875" />
<path fill="none" stroke="#000000" stroke-width="1" stroke-linecap="round" stroke-linejoin="round" d="M 94.000 8.875 L 92.406 11.414 L 92.227 12.389 L 92.239 13.380 L 92.424 14.360 L 92.737 15.303 L 93.500 16.375" />
<path fill="none" stroke="#000000" stroke-width="1" stroke-linecap="round" stroke-linejoin="round" d="M 93.500 16.375 L 94.206 15.378 L 94.995 13.552 L 95.167 12.592 L 95.167 11.592 L 94.555 9.707 L 94.000 8.875" />
<path fill="none" stroke="#000000" stroke-width="1" stroke-linecap="round" stroke-linejoin="round" d="M 93.500 17.875 L 96.000 20.875" />
<path fill="none" stroke="#000000" stroke-width="1" stroke-linecap="round" stroke-linejoin="round" d="M 93.000 17.875 L 91.027 17.546 L 90.057 17.306 L 89.000 16.875" />
<path fill="none" stroke="#000000" stroke-width="1" stroke-linecap="round" stroke-linejoin="round" d="M 101.000 28.375 L 103.750 25.625 L 106.500 22.875" />
<path fill="none" stroke="#000000" stroke-width="1" stroke-linecap="round" stroke-linejoin="round" d="M 106.500 22.875 L 107.081 24.036 L 107.256 25.011 L 107.333 27.007 L 107.214 27.999 L 106.828 28.895 L 106.191 30.778 L 105.000 32.375" />
<path fill="none" stroke="#000000" stroke-width="1" stroke-linecap="round" stroke-linejoin="round" d="M 105.000 -12.125 L 105.701 -13.666 L 106.194 -15.590 L 106.284 -16.585 L 106.758 -19.542 L 107.222 -21.457 L 107.332 -22.450 L 107.574 -23.421 L 107.882 -25.389 L 108.889 -28.184 L 116.500 -36.125" />
<path fill="none" stroke="#000000" stroke-width="1" stroke-linecap="round" stroke-linejoin="round" d="M 117.000 -36.625 L 117.333 -39.605 L 117.318 -42.605 L 117.168 -45.601 L 116.858 -46.551 L 116.599 -48.529 L 116.330 -49.492 L 116.219 -50.486 L 115.710 -52.407 L 114.291 -55.015 L 113.212 -56.671 L 112.032 -58.282 L 111.381 -59.041 L 110.693 -59.765 L 109.927 -60.408 L 108.295 -61.556 L 105.641 -62.864 L 104.687 -63.150 L 101.779 -63.807 L 99.784 -63.950 L 97.785 -63.955 L 95.789 -63.822 L 93.839 -63.426 L 92.844 -63.326 L 90.908 -62.860 L 86.440 -60.747 L 84.770 -59.661 L 83.894 -59.207 L 83.108 -58.590 L 82.259 -58.063 L 81.491 -57.423 L 80.631 -56.924 L 76.306 -52.765 L 70.019 -46.326 L 68.868 -44.710 L 67.802 -43.031 L 65.966 -39.513 L 65.636 -38.580 L 63.366 -34.173 L 62.710 -32.298 L 61.928 -30.481 L 61.679 -29.518 L 60.886 -27.704 L 60.219 -25.833 L 59.789 -24.946 L 59.186 -23.054 L 57.977 -20.341 L 57.273 -18.489 L 56.407 -15.642 L 56.202 -14.667 L 55.826 -13.750 L 55.656 -12.765 L 55.319 -11.828 L 55.208 -10.834 L 54.796 -8.885 L 54.706 -7.889 L 54.306 -5.938 L 54.127 -3.948 L 53.910 -2.972 L 53.593 0.005 L 53.350 0.975 L 53.151 3.967 L 52.830 5.940 L 52.672 8.936 L 52.324 10.903 L 52.188 13.900 L 51.833 16.877 L 51.667 23.875 L 51.667 27.875 L 51.829 34.873 L 52.173 37.852 L 52.309 40.849 L 52.653 42.813 L 52.830 45.807 L 53.151 47.781 L 53.293 49.775 L 53.693 51.719 L 53.867 53.710 L 54.200 55.679 L 54.370 57.670 L 54.645 58.631 L 54.826 60.621 L 55.055 61.594 L 55.422 64.563 L 55.664 65.533 L 55.765 66.528 L 56.213 68.458 L 56.323 69.451 L 56.583 70.416 L 56.903 72.382 L 57.199 73.329 L 57.309 74.323 L 57.548 75.291 L 57.855 77.261 L 58.189 78.200 L 58.331 79.190 L 58.677 80.125 L 58.801 81.117 L 59.460 84.026 L 60.583 87.832 L 60.794 88.805 L 61.170 89.723 L 61.407 90.689 L 62.088 92.551 L 62.328 93.517 L 62.712 94.433 L 63.808 98.251 L 64.220 99.142 L 64.770 101.056 L 65.185 101.947 L 65.792 103.837 L 66.533 105.674 L 68.726 110.114 L 69.404 111.980 L 71.201 115.513 L 71.806 117.404 L 72.663 119.199 L 73.216 120.024 L 73.676 120.902 L 76.220 126.279 L 76.747 127.117 L 77.666 128.874 L 78.304 130.758 L 78.850 131.584 L 81.826 137.854 L 82.387 138.676 L 82.803 139.580 L 83.350 140.417 L 83.755 141.326 L 84.805 143.005 L 87.255 147.319 L 87.866 148.108 L 88.823 149.845 L 89.916 151.508 L 91.682 153.921 L 92.552 155.703 L 93.167 158.609 L 93.148 160.607 L 92.873 161.568 L 92.727 162.556 L 92.183 164.459 L 91.805 165.376 L 91.609 166.353 L 91.283 167.295 L 90.940 168.215 L 90.320 169.563 L 89.699 170.911 L 87.115 173.944 L 83.000 178.375" />
<path fill="none" stroke="#000000" stroke-width="1" stroke-linecap="round" stroke-linejoin="round" d="M 83.000 178.375 L 84.637 178.921 L 85.609 179.143 L 86.471 179.586 L 88.000 180.875" />
<path fill="none" stroke="#000000" stroke-width="1" stroke-linecap="round" stroke-linejoin="round" d="M 88.000 180.875 L 85.438 183.438 L 82.875 186.000 L 80.312 188.562 L 77.750 191.125 L 75.188 193.688 L 72.625 196.250 L 70.062 198.812 L 67.500 201.375" />
<path fill="none" stroke="#000000" stroke-width="1" stroke-linecap="round" stroke-linejoin="round" d="M 67.500 201.375 L 66.599 201.075 L 65.801 200.482 L 64.433 199.028 L 63.332 197.370 L 62.902 196.477 L 61.901 193.677 L 61.694 192.704 L 61.356 191.766 L 61.076 190.301 L 60.795 188.836 L 60.631 186.844 L 60.324 184.871 L 60.162 177.873 L 60.000 170.875" />
<path fill="none" stroke="#000000" stroke-width="1" stroke-linecap="round" stroke-linejoin="round" d="M 60.000 170.375 L 59.168 169.820 L 58.283 169.379 L 54.956 167.194 L 53.220 166.235 L 50.779 164.514 L 49.042 163.556 L 48.254 162.945 L 47.405 162.418 L 45.909 161.093 L 44.328 159.870 L 42.130 157.829 L 40.561 156.589 L 39.071 155.255 L 38.225 154.737 L 37.436 154.124 L 36.572 153.630 L 35.804 152.990 L 35.086 152.294 L 34.000 150.875" />
<path fill="none" stroke="#000000" stroke-width="1" stroke-linecap="round" stroke-linejoin="round" d="M 60.500 170.375 L 62.370 171.071 L 63.358 171.218 L 64.294 171.563 L 65.270 171.760 L 70.900 173.683 L 72.663 174.582 L 74.540 175.235 L 76.310 176.119 L 77.232 176.491 L 78.200 176.725 L 80.004 177.543 L 81.893 178.154 L 83.000 178.375" />
<path fill="none" stroke="#000000" stroke-width="1" stroke-linecap="round" stroke-linejoin="round" d="M 88.000 180.875 L 89.820 181.702 L 92.275 183.395 L 93.500 184.375" />
<path fill="none" stroke="#000000" stroke-width="1" stroke-linecap="round" stroke-linejoin="round" d="M 94.000 184.375 L 99.697 184.049 L 101.667 183.708 L 104.662 183.551 L 106.662 183.542 L 109.654 183.742 L 110.630 183.959 L 112.614 184.188 L 113.557 184.498 L 114.537 184.687 L 115.389 185.190 L 117.000 186.375" />
<path fill="none" stroke="#000000" stroke-width="1" stroke-linecap="round" stroke-linejoin="round" d="M 117.000 186.375 L 117.808 187.417 L 120.500 190.375" />
<path fill="none" stroke="#000000" stroke-width="1" stroke-linecap="round" stroke-linejoin="round" d="M 120.500 190.375 L 119.401 192.407 L 119.213 193.382 L 118.492 195.232 L 117.203 197.896 L 117.000 198.875" />
<path fill="none" stroke="#000000" stroke-width="1" stroke-linecap="round" stroke-linejoin="round" d="M 117.000 198.875 L 116.106 199.322 L 114.244 200.003 L 113.500 200.375" />
<path fill="none" stroke="#000000" stroke-width="1" stroke-linecap="round" stroke-linejoin="round" d="M 113.500 200.875 L 114.055 201.707 L 114.510 202.581 L 117.000 205.375" />
<path fill="none" stroke="#000000" stroke-width="1" stroke-linecap="round" stroke-linejoin="round" d="M 117.000 205.375 L 119.987 205.644 L 120.877 206.010 L 122.500 207.375" />
<path fill="none" stroke="#000000" stroke-width="1" stroke-linecap="round" stroke-linejoin="round" d="M 122.500 207.375 L 127.500 207.875" />
<path fill="none" stroke="#000000" stroke-width="1" stroke-linecap="round" stroke-linejoin="round" d="M 127.500 207.875 L 129.820 209.201 L 131.640 210.029 L 132.637 210.042 L 133.610 210.208 L 136.610 210.208 L 137.583 210.042 L 138.583 210.042 L 145.581 210.208 L 157.581 210.208 L 158.576 210.183 L 159.552 210.055 L 160.533 210.208 L 162.500 209.875" />
<path fill="none" stroke="#000000" stroke-width="1" stroke-linecap="round" stroke-linejoin="round" d="M 163.500 207.875 L 162.668 207.320 L 161.705 207.136 L 159.709 207.042 L 156.716 207.208 L 129.716 207.208 L 128.749 207.376 L 127.500 207.875" />
<path fill="none" stroke="#000000" stroke-width="1" stroke-linecap="round" stroke-linejoin="round" d="M 122.500 207.375 L 121.183 208.033 L 120.264 208.375 L 119.264 208.375 L 118.289 208.269 L 116.500 207.375" />
<path fill="none" stroke="#000000" stroke-width="1" stroke-linecap="round" stroke-linejoin="round" d="M 116.000 207.375 L 114.195 207.696 L 112.207 207.488 L 111.223 207.310 L 110.319 206.948 L 109.500 206.375" />
<path fill="none" stroke="#000000" stroke-width="1" stroke-linecap="round" stroke-linejoin="round" d="M 109.000 206.375 L 106.402 206.086 L 104.430 205.756 L 103.595 205.251 L 102.863 204.571 L 102.235 203.794 L 101.459 201.960 L 101.215 201.000 L 100.727 199.605 L 100.238 198.210 L 99.794 196.265 L 99.667 195.274 L 100.000 194.375" />
<path fill="none" stroke="#000000" stroke-width="1" stroke-linecap="round" stroke-linejoin="round" d="M 100.000 194.375 L 100.949 194.691 L 102.706 195.610 L 105.264 197.130 L 109.699 199.341 L 110.500 199.875" />
<path fill="none" stroke="#000000" stroke-width="1" stroke-linecap="round" stroke-linejoin="round" d="M 111.000 199.875 L 112.065 200.027 L 113.000 200.375" />
<path fill="none" stroke="#000000" stroke-width="1" stroke-linecap="round" stroke-linejoin="round" d="M 110.500 200.375 L 110.272 201.970 L 109.783 203.895 L 109.500 205.875" />
<path fill="none" stroke="#000000" stroke-width="1" stroke-linecap="round" stroke-linejoin="round" d="M 111.000 211.875 L 107.843 211.208 L 106.843 211.208 L 105.894 211.428 L 105.000 211.875" />
<path fill="none" stroke="#000000" stroke-width="1" stroke-linecap="round" stroke-linejoin="round" d="M 105.000 211.875 L 103.956 210.947 L 103.152 210.368 L 102.229 210.042 L 101.268 210.131 L 100.359 210.362 L 99.500 210.875" />
<path fill="none" stroke="#000000" stroke-width="1" stroke-linecap="round" stroke-linejoin="round" d="M 99.500 210.875 L 101.555 211.824 L 104.500 212.375" />
<path fill="none" stroke="#000000" stroke-width="1" stroke-linecap="round" stroke-linejoin="round" d="M 105.000 212.375 L 106.599 213.554 L 108.567 213.892 L 109.548 214.042 L 111.547 214.050 L 112.533 214.219 L 113.481 214.535 L 115.460 214.792 L 116.425 215.042 L 118.425 215.042 L 119.416 215.173 L 120.385 215.413 L 123.321 215.786 L 124.248 216.145 L 125.200 216.075 L 125.500 215.875" />
<path fill="none" stroke="#000000" stroke-width="1" stroke-linecap="round" stroke-linejoin="round" d="M 125.000 212.875 L 126.147 212.748 L 128.145 212.708 L 130.085 213.125 L 131.079 213.208 L 132.000 212.875" />
<path fill="none" stroke="#000000" stroke-width="1" stroke-linecap="round" stroke-linejoin="round" d="M 140.000 213.875 L 140.661 214.095 L 141.642 214.195 L 145.605 213.708 L 148.605 213.708 L 150.590 213.560 L 151.572 213.669 L 153.541 213.323 L 154.500 213.375" />
<path fill="none" stroke="#000000" stroke-width="1" stroke-linecap="round" stroke-linejoin="round" d="M 152.500 216.375 L 150.973 217.042 L 150.000 216.875" />
<path fill="none" stroke="#000000" stroke-width="1" stroke-linecap="round" stroke-linejoin="round" d="M 143.000 217.375 L 141.921 217.042 L 141.000 217.375" />
<path fill="none" stroke="#000000" stroke-width="1" stroke-linecap="round" stroke-linejoin="round" d="M 136.000 199.375 L 137.270 200.369 L 139.134 201.029 L 141.131 201.058 L 144.080 201.560 L 147.077 201.690 L 151.057 202.068 L 155.051 202.191 L 156.000 201.875" />
<path fill="none" stroke="#000000" stroke-width="1" stroke-linecap="round" stroke-linejoin="round" d="M 156.000 201.875 L 156.849 200.634 L 157.500 199.875" />
<path fill="none" stroke="#000000" stroke-width="1" stroke-linecap="round" stroke-linejoin="round" d="M 156.000 201.875 L 157.872 202.542 L 158.853 202.659 L 160.763 202.542 L 162.000 201.875" />
<path fill="none" stroke="#000000" stroke-width="1" stroke-linecap="round" stroke-linejoin="round" d="M 162.000 201.875 L 161.334 200.876 L 160.500 200.375" />
<path fill="none" stroke="#000000" stroke-width="1" stroke-linecap="round" stroke-linejoin="round" d="M 162.000 201.875 L 163.897 202.507 L 164.880 202.688 L 165.874 202.655 L 166.859 202.487 L 167.820 202.212 L 169.795 201.943 L 170.757 201.708 L 172.757 201.708 L 174.753 201.580 L 177.728 201.205 L 180.721 201.026 L 181.683 200.751 L 183.670 200.555 L 185.627 200.170 L 187.604 199.917 L 188.574 199.684 L 189.569 199.585 L 190.538 199.362 L 192.000 198.875" />
<path fill="none" stroke="#000000" stroke-width="1" stroke-linecap="round" stroke-linejoin="round" d="M 186.500 196.375 L 180.925 197.199 L 178.949 197.059 L 178.000 197.375" />
<path fill="none" stroke="#000000" stroke-width="1" stroke-linecap="round" stroke-linejoin="round" d="M 173.500 197.375 L 171.819 197.148 L 163.918 197.208 L 162.945 197.042 L 160.946 197.033 L 157.000 196.375" />
<path fill="none" stroke="#000000" stroke-width="1" stroke-linecap="round" stroke-linejoin="round" d="M 156.500 196.375 L 153.867 196.668 L 150.869 196.708 L 146.872 196.563 L 142.914 196.042 L 141.931 196.184 L 140.939 196.163 L 139.951 196.042 L 138.976 196.224 L 138.094 196.677 L 136.500 197.875" />
<path fill="none" stroke="#000000" stroke-width="1" stroke-linecap="round" stroke-linejoin="round" d="M 136.500 197.875 L 134.237 195.906 L 130.631 194.296 L 129.684 194.042 L 129.000 194.375" />
<path fill="none" stroke="#000000" stroke-width="1" stroke-linecap="round" stroke-linejoin="round" d="M 129.000 194.375 L 128.833 197.369 L 128.833 199.369 L 128.500 199.875" />
<path fill="none" stroke="#000000" stroke-width="1" stroke-linecap="round" stroke-linejoin="round" d="M 128.500 199.875 L 127.769 200.084 L 126.786 200.208 L 125.790 200.155 L 124.832 199.930 L 124.000 199.375" />
<path fill="none" stroke="#000000" stroke-width="1" stroke-linecap="round" stroke-linejoin="round" d="M 123.500 199.375 L 122.940 199.542 L 120.940 199.542 L 117.000 198.875" />
<path fill="none" stroke="#000000" stroke-width="1" stroke-linecap="round" stroke-linejoin="round" d="M 124.000 198.875 L 124.328 196.903 L 126.000 193.875" />
<path fill="none" stroke="#000000" stroke-width="1" stroke-linecap="round" stroke-linejoin="round" d="M 126.000 193.375 L 124.940 192.539 L 123.188 191.630 L 121.332 190.930 L 120.500 190.375" />
<path fill="none" stroke="#000000" stroke-width="1" stroke-linecap="round" stroke-linejoin="round" d="M 117.000 186.375 L 117.832 185.820 L 119.717 185.202 L 120.709 185.078 L 122.649 184.636 L 123.644 184.542 L 124.643 184.559 L 125.635 184.684 L 128.000 185.375" />
<path fill="none" stroke="#000000" stroke-width="1" stroke-linecap="round" stroke-linejoin="round" d="M 128.500 185.375 L 130.500 183.375" />
<path fill="none" stroke="#000000" stroke-width="1" stroke-linecap="round" stroke-linejoin="round" d="M 128.500 185.875 L 130.586 187.001 L 131.567 187.170 L 132.564 187.208 L 133.500 186.875" />
<path fill="none" stroke="#000000" stroke-width="1" stroke-linecap="round" stroke-linejoin="round" d="M 133.500 186.875 L 134.184 185.324 L 134.500 184.375" />
<path fill="none" stroke="#000000" stroke-width="1" stroke-linecap="round" stroke-linejoin="round" d="M 134.500 187.875 L 136.075 189.202 L 137.856 190.046 L 138.816 190.298 L 140.500 191.375" />
<path fill="none" stroke="#000000" stroke-width="1" stroke-linecap="round" stroke-linejoin="round" d="M 138.000 185.875 L 137.498 186.708 L 136.524 186.550 L 135.608 186.925 L 134.500 187.875" />
<path fill="none" stroke="#000000" stroke-width="1" stroke-linecap="round" stroke-linejoin="round" d="M 129.000 194.375 L 128.132 193.879 L 126.500 193.375" />
<path fill="none" stroke="#000000" stroke-width="1" stroke-linecap="round" stroke-linejoin="round" d="M 128.500 199.875 L 130.214 200.139 L 131.208 200.208 L 133.207 200.180 L 135.168 199.930 L 136.000 199.375" />
<path fill="none" stroke="#000000" stroke-width="1" stroke-linecap="round" stroke-linejoin="round" d="M 100.000 194.375 L 97.331 191.396 L 96.054 189.273 L 94.777 187.149 L 94.386 186.240 L 93.500 184.875" />
<path fill="none" stroke="#000000" stroke-width="1" stroke-linecap="round" stroke-linejoin="round" d="M 84.500 207.375 L 88.795 208.608 L 90.732 209.071 L 91.724 209.195 L 92.659 209.539 L 93.649 209.682 L 94.589 210.011 L 99.500 210.875" />
<path fill="none" stroke="#000000" stroke-width="1" stroke-linecap="round" stroke-linejoin="round" d="M 84.000 209.875 L 84.000 207.875" />
<path fill="none" stroke="#000000" stroke-width="1" stroke-linecap="round" stroke-linejoin="round" d="M 84.000 207.375 L 82.381 206.727 L 81.397 206.552 L 79.582 205.763 L 76.779 204.765 L 75.812 204.531 L 74.892 204.162 L 72.973 203.636 L 68.332 201.930 L 67.500 201.375" />
<path fill="none" stroke="#000000" stroke-width="1" stroke-linecap="round" stroke-linejoin="round" d="M 112.500 -16.125 L 114.688 -21.067 L 115.292 -22.958 L 116.331 -24.646 L 119.000 -27.625" />
<path fill="none" stroke="#000000" stroke-width="1" stroke-linecap="round" stroke-linejoin="round" d="M 119.000 -27.625 L 118.555 -28.793 L 118.000 -29.625" />
<path fill="none" stroke="#000000" stroke-width="1" stroke-linecap="round" stroke-linejoin="round" d="M 118.000 -29.625 L 114.621 -25.939 L 114.000 -25.158 L 112.837 -23.531 L 113.000 -22.625" />
<path fill="none" stroke="#000000" stroke-width="1" stroke-linecap="round" stroke-linejoin="round" d="M 120.000 -22.125 L 119.685 -25.108 L 119.000 -27.625" />
<path fill="none" stroke="#000000" stroke-width="1" stroke-linecap="round" stroke-linejoin="round" d="M 118.000 -29.625 L 118.167 -30.598 L 118.167 -31.598 L 117.555 -34.515 L 117.000 -35.625" />
<path fill="none" stroke="#000000" stroke-width="1" stroke-linecap="round" stroke-linejoin="round" d="M 229.500 33.875 L 230.332 34.430 L 232.106 35.304 L 234.304 37.345 L 236.364 39.525 L 236.945 40.322 L 237.897 42.067 L 238.249 42.998 L 238.804 43.831 L 239.196 44.748 L 239.735 45.580 L 240.993 48.273 L 241.526 49.100 L 242.877 50.574 L 244.286 51.994 L 246.488 54.030 L 247.356 54.493 L 250.658 56.702 L 252.453 57.554 L 254.435 57.805 L 255.411 58.022 L 258.406 58.174 L 261.405 58.208 L 264.401 58.073 L 266.344 57.670 L 267.338 57.560 L 268.294 57.277 L 269.283 57.208 L 270.000 57.375" />
<path fill="none" stroke="#000000" stroke-width="1" stroke-linecap="round" stroke-linejoin="round" d="M 270.000 57.375 L 270.996 56.586 L 275.340 54.203 L 276.121 53.579 L 276.976 53.075 L 283.500 46.875" />
<path fill="none" stroke="#000000" stroke-width="1" stroke-linecap="round" stroke-linejoin="round" d="M 283.500 46.875 L 292.184 55.867 L 292.739 56.665 L 293.225 58.071 L 293.711 59.476 L 294.167 61.402 L 294.000 62.375" />
<path fill="none" stroke="#000000" stroke-width="1" stroke-linecap="round" stroke-linejoin="round" d="M 294.000 62.375 L 293.725 63.337 L 293.500 65.375" />
<path fill="none" stroke="#000000" stroke-width="1" stroke-linecap="round" stroke-linejoin="round" d="M 294.000 62.375 L 296.500 64.875" />
<path fill="none" stroke="#000000" stroke-width="1" stroke-linecap="round" stroke-linejoin="round" d="M 302.000 59.375 L 300.062 57.438 L 298.125 55.500 L 296.188 53.562 L 294.250 51.625 L 292.312 49.688 L 290.375 47.750 L 288.438 45.812 L 286.500 43.875" />
<path fill="none" stroke="#000000" stroke-width="1" stroke-linecap="round" stroke-linejoin="round" d="M 286.500 43.375 L 286.821 42.411 L 287.226 41.519 L 287.703 39.584 L 287.827 38.592 L 288.445 36.707 L 289.000 35.875" />
<path fill="none" stroke="#000000" stroke-width="1" stroke-linecap="round" stroke-linejoin="round" d="M 289.000 35.875 L 290.870 36.567 L 293.500 36.875" />
<path fill="none" stroke="#000000" stroke-width="1" stroke-linecap="round" stroke-linejoin="round" d="M 293.500 36.875 L 294.800 37.395 L 296.730 37.867 L 298.628 38.439 L 300.577 38.826 L 302.500 39.375" />
<path fill="none" stroke="#000000" stroke-width="1" stroke-linecap="round" stroke-linejoin="round" d="M 304.500 39.875 L 306.094 41.073 L 307.887 41.888 L 310.924 44.490 L 312.500 46.375" />
<path fill="none" stroke="#000000" stroke-width="1" stroke-linecap="round" stroke-linejoin="round" d="M 293.500 36.875 L 295.438 35.044 L 297.376 33.212 L 299.314 31.381 L 300.087 30.752 L 304.203 27.913 L 310.500 24.375" />
<path fill="none" stroke="#000000" stroke-width="1" stroke-linecap="round" stroke-linejoin="round" d="M 305.500 12.875 L 303.500 14.875 L 301.500 16.875 L 299.500 18.875 L 297.500 20.875 L 295.500 22.875 L 293.500 24.875 L 291.500 26.875 L 289.500 28.875 L 287.500 30.875" />
<path fill="none" stroke="#000000" stroke-width="1" stroke-linecap="round" stroke-linejoin="round" d="M 287.500 30.875 L 287.333 31.848 L 288.000 33.375" />
<path fill="none" stroke="#000000" stroke-width="1" stroke-linecap="round" stroke-linejoin="round" d="M 288.000 33.375 L 288.504 35.007 L 289.000 35.875" />
<path fill="none" stroke="#000000" stroke-width="1" stroke-linecap="round" stroke-linejoin="round" d="M 288.000 33.375 L 296.687 24.525 L 305.374 15.676 L 305.781 14.806 L 305.833 13.811 L 305.500 12.875" />
<path fill="none" stroke="#000000" stroke-width="1" stroke-linecap="round" stroke-linejoin="round" d="M 286.000 43.875 L 283.500 46.875" />
<path fill="none" stroke="#000000" stroke-width="1" stroke-linecap="round" stroke-linejoin="round" d="M 269.500 58.375 L 268.667 58.976 L 269.000 59.875" />
<path fill="none" stroke="#000000" stroke-width="1" stroke-linecap="round" stroke-linejoin="round" d="M 269.000 60.875 L 268.470 61.637 L 268.031 62.517 L 267.332 64.386 L 267.000 69.375" />
</svg>