<?xml version="1.0" encoding="UTF-8"?>
<svg xmlns="http://www.w3.org/2000/svg" viewBox="16.002 6.584 153.170 105.837">
<path fill="none" stroke="#000000" stroke-width="1" stroke-linecap="round" stroke-linejoin="round" d="M 80.837 11.253 L 79.629 11.427 L 78.677 11.692 L 77.159 12.333 L 75.641 12.974 L 74.123 13.614 L 72.956 14.240 L 71.790 14.865 L 70.624 15.490 L 69.342 16.239 L 68.060 16.988 L 67.129 17.333 L 66.199 17.678 L 65.307 18.109 L 64.487 18.677 L 61.924 20.184 L 60.464 20.962 L 59.005 21.739 L 57.545 22.516 L 56.259 23.263 L 54.972 24.010 L 53.685 24.756 L 52.399 25.503 L 50.837 26.753" />
<path fill="none" stroke="#000000" stroke-width="1" stroke-linecap="round" stroke-linejoin="round" d="M 50.837 26.753 L 49.783 26.083 L 45.787 25.919 L 38.787 25.919 L 37.793 25.997 L 35.846 26.432 L 33.857 26.622 L 32.887 26.865 L 30.900 27.067 L 28.951 27.481 L 27.960 27.603 L 27.023 27.944 L 26.049 28.147 L 25.118 28.483 L 23.200 29.013 L 22.309 29.425 L 20.337 29.753" />
<path fill="none" stroke="#000000" stroke-width="1" stroke-linecap="round" stroke-linejoin="round" d="M 46.337 42.753 L 45.383 43.426 L 44.513 43.914 L 43.731 44.537 L 42.011 45.528 L 41.244 46.146 L 36.228 51.028 L 33.471 53.926 L 32.860 54.706 L 31.213 57.196 L 28.613 62.536 L 28.064 64.451 L 27.655 65.343 L 27.479 66.326 L 27.168 67.276 L 27.057 68.270 L 26.632 70.211 L 26.405 72.195 L 26.188 73.171 L 26.003 76.142 L 26.253 78.124 L 26.470 79.100 L 26.635 81.092 L 27.016 83.049 L 27.116 84.044 L 27.595 85.969 L 28.232 87.845 L 29.404 90.565 L 30.491 92.235 L 31.364 94.011 L 31.889 94.858 L 33.654 97.268 L 35.706 99.455 L 37.904 101.496 L 38.763 101.996 L 39.531 102.636 L 41.165 103.782 L 45.599 105.972 L 50.364 107.363 L 53.289 107.937 L 57.286 108.086 L 60.286 108.086 L 65.283 107.927 L 67.233 107.530 L 68.228 107.430 L 69.182 107.137 L 70.167 106.982 L 73.990 105.922 L 74.907 105.539 L 76.797 104.929 L 80.367 103.207 L 82.087 102.231 L 83.758 101.145 L 85.541 100.283 L 86.477 100.006 L 88.471 99.919 L 90.466 100.070 L 92.422 100.461 L 93.417 100.561 L 94.362 100.863 L 98.337 101.253" />
<path fill="none" stroke="#000000" stroke-width="1" stroke-linecap="round" stroke-linejoin="round" d="M 98.837 101.253 L 99.564 100.072 L 100.467 98.307 L 101.462 95.503 L 102.099 92.585 L 102.944 89.735 L 103.788 85.851 L 104.357 83.952 L 106.057 77.212 L 106.244 76.234 L 106.546 75.287 L 106.716 74.305 L 107.035 73.362 L 107.188 72.375 L 107.525 71.438 L 107.666 70.448 L 108.014 69.513 L 108.155 68.523 L 108.503 67.588 L 108.667 66.602 L 109.050 65.685 L 109.659 63.795 L 110.116 62.916 L 111.168 61.232 L 113.837 58.253" />
<path fill="none" stroke="#000000" stroke-width="1" stroke-linecap="round" stroke-linejoin="round" d="M 113.837 57.753 L 114.125 52.761 L 114.259 51.775 L 114.517 50.810 L 114.641 49.818 L 115.008 48.899 L 116.076 45.077 L 116.337 43.253" />
<path fill="none" stroke="#000000" stroke-width="1" stroke-linecap="round" stroke-linejoin="round" d="M 116.337 43.253 L 115.254 42.398 L 114.382 41.934 L 113.544 41.398 L 112.705 40.862 L 111.826 40.411 L 109.337 38.753" />
<path fill="none" stroke="#000000" stroke-width="1" stroke-linecap="round" stroke-linejoin="round" d="M 109.337 38.753 L 108.442 39.200 L 107.285 39.636 L 106.127 40.073 L 104.970 40.510 L 103.812 40.947 L 102.823 41.091 L 101.874 41.407 L 100.875 41.413 L 99.876 41.419 L 97.918 41.061 L 96.923 40.961 L 95.986 40.661 L 94.478 39.996 L 92.969 39.332 L 91.460 38.668 L 90.212 38.064 L 88.964 37.460 L 87.716 36.857 L 86.468 36.253 L 85.220 35.649 L 83.837 34.753" />
<path fill="none" stroke="#000000" stroke-width="1" stroke-linecap="round" stroke-linejoin="round" d="M 83.837 34.753 L 83.980 33.749 L 83.992 31.750 L 84.003 29.750 L 83.837 22.753" />
<path fill="none" stroke="#000000" stroke-width="1" stroke-linecap="round" stroke-linejoin="round" d="M 83.837 22.253 L 82.809 20.537 L 81.337 17.753" />
<path fill="none" stroke="#000000" stroke-width="1" stroke-linecap="round" stroke-linejoin="round" d="M 81.337 16.753 L 81.170 16.238 L 81.003 15.724 L 81.003 14.724 L 81.007 13.724 L 81.172 12.739 L 81.337 11.753" />
<path fill="none" stroke="#000000" stroke-width="1" stroke-linecap="round" stroke-linejoin="round" d="M 81.337 11.253 L 83.304 10.919 L 86.297 11.067 L 88.118 11.811 L 90.578 13.500 L 91.837 14.253" />
<path fill="none" stroke="#000000" stroke-width="1" stroke-linecap="round" stroke-linejoin="round" d="M 91.837 14.253 L 88.390 17.857 L 84.943 21.461 L 84.640 21.857 L 84.337 22.253" />
<path fill="none" stroke="#000000" stroke-width="1" stroke-linecap="round" stroke-linejoin="round" d="M 91.837 14.253 L 93.061 14.865 L 94.645 16.076 L 96.228 17.287 L 97.074 17.818 L 99.272 19.859 L 101.388 21.986 L 103.435 24.179 L 104.617 25.788 L 105.129 26.628 L 106.939 30.156 L 107.939 32.957 L 108.405 34.889 L 108.871 36.821 L 109.337 38.753" />
<path fill="none" stroke="#000000" stroke-width="1" stroke-linecap="round" stroke-linejoin="round" d="M 116.337 43.253 L 119.035 41.250 L 119.794 40.599 L 122.331 39.048 L 124.098 38.129 L 126.827 36.988 L 128.745 36.462 L 129.664 36.089 L 130.650 35.923 L 131.585 35.578 L 133.565 35.321 L 134.536 35.086 L 137.536 35.086 L 139.506 35.419 L 141.500 35.573 L 142.440 35.894 L 143.426 36.051 L 145.342 36.589 L 147.978 37.966 L 148.822 38.474 L 150.439 39.640 L 152.610 41.708 L 153.845 43.268 L 154.390 44.102 L 154.828 44.989 L 155.480 46.860 L 155.787 48.829 L 156.337 50.753" />
<path fill="none" stroke="#000000" stroke-width="1" stroke-linecap="round" stroke-linejoin="round" d="M 156.337 50.753 L 156.003 51.652 L 155.988 53.650 L 155.745 54.620 L 155.422 56.582 L 154.418 59.381 L 153.536 61.156 L 151.738 63.545 L 150.392 65.025 L 148.970 66.430 L 147.437 67.702 L 146.591 68.228 L 143.048 69.991 L 142.124 70.359 L 140.185 70.803 L 139.206 70.968 L 137.211 71.086 L 134.216 70.948 L 131.297 70.337 L 129.442 69.656 L 127.711 68.690 L 126.043 67.606 L 125.269 66.974 L 121.798 63.380 L 119.600 61.340 L 117.969 60.191 L 117.094 59.737 L 116.258 59.194 L 115.423 58.651 L 114.337 58.253" />
<path fill="none" stroke="#000000" stroke-width="1" stroke-linecap="round" stroke-linejoin="round" d="M 83.837 34.753 L 81.574 36.722 L 80.708 37.189 L 79.920 37.803 L 79.074 38.333 L 78.306 38.973 L 77.442 39.468 L 76.660 40.091 L 75.796 40.585 L 74.143 41.694 L 72.491 42.804 L 71.604 43.241 L 69.762 43.968 L 67.871 44.577 L 66.065 45.388 L 65.093 45.586 L 61.093 45.586 L 57.093 45.586 L 56.107 45.503 L 55.120 45.419 L 53.772 45.090 L 52.423 44.761 L 51.074 44.431 L 49.726 44.102 L 48.377 43.773 L 47.439 43.445 L 46.337 42.753" />
<path fill="none" stroke="#000000" stroke-width="1" stroke-linecap="round" stroke-linejoin="round" d="M 46.337 42.753 L 46.540 41.774 L 46.948 40.882 L 47.464 40.036 L 47.981 39.190 L 48.497 38.343 L 49.069 37.525 L 49.640 36.707 L 50.136 35.856 L 50.560 34.968 L 50.834 34.011 L 51.042 33.045 L 51.170 31.049 L 51.153 29.050 L 50.941 27.066 L 50.837 26.753" />
<path fill="none" stroke="#000000" stroke-width="1" stroke-linecap="round" stroke-linejoin="round" d="M 156.337 50.753 L 157.187 50.753 L 158.037 50.753 L 158.887 50.753 L 159.737 50.753 L 160.587 50.753 L 161.437 50.753 L 162.287 50.753 L 163.137 50.753 L 163.987 50.753 L 164.837 50.753" />
</svg>