<?xml version="1.0" encoding="UTF-8"?>
<svg xmlns="http://www.w3.org/2000/svg" viewBox="-3.559 -9.591 357.878 149.131">
<path fill="none" stroke="#000000" stroke-width="1" stroke-linecap="round" stroke-linejoin="round" d="M 312.093 0.538 L 311.294 1.304 L 310.459 1.799 L 308.462 1.871 L 303.486 2.332 L 300.560 2.979 L 298.667 3.624 L 297.291 4.220 L 295.915 4.815 L 295.037 5.295 L 294.160 5.774 L 293.333 6.336 L 292.507 6.898 L 291.680 7.460 L 290.907 8.093 L 290.134 8.726 L 290.034 9.699 L 289.995 16.698 L 289.996 58.697 L 289.920 62.696 L 289.557 67.681 L 289.523 69.681" />
<path fill="none" stroke="#000000" stroke-width="1" stroke-linecap="round" stroke-linejoin="round" d="M 243.222 91.440 L 242.463 90.789 L 241.755 90.084 L 241.047 89.379 L 240.339 88.674 L 239.537 87.492 L 238.735 86.310 L 237.934 85.128 L 237.132 83.946 L 236.331 82.764 L 235.529 81.582 L 234.728 80.400 L 233.897 80.057 L 232.956 80.396 L 232.016 80.735 L 231.058 81.023 L 230.101 81.311 L 229.125 81.528 L 228.149 81.745 L 227.159 81.880 L 226.162 81.948 L 225.165 82.016 L 223.668 81.943 L 222.171 81.871 L 221.180 81.744 L 219.227 81.320 L 215.399 80.170 L 214.841 79.427 L 214.382 78.628" />
<path fill="none" stroke="#000000" stroke-width="1" stroke-linecap="round" stroke-linejoin="round" d="M 194.013 103.226 L 192.302 104.225 L 191.560 104.890 L 188.750 108.126 L 185.940 111.362 L 183.130 114.598 L 180.320 117.834 L 177.510 121.070 L 174.700 124.306 L 171.890 127.542 L 171.026 128.034 L 169.597 128.489 L 168.168 128.944 L 166.208 129.329 L 165.212 129.412 L 164.213 129.409 L 162.230 129.165 L 161.354 128.728 L 160.686 127.985 L 157.577 124.071 L 154.468 120.157 L 151.359 116.243 L 148.250 112.329 L 145.141 108.415 L 142.032 104.501 L 140.441 103.305" />
<path fill="none" stroke="#000000" stroke-width="1" stroke-linecap="round" stroke-linejoin="round" d="M 116.579 102.126 L 115.785 102.733 L 115.213 103.533 L 114.544 107.976 L 113.874 112.418 L 113.417 114.365 L 112.557 117.238 L 111.864 119.113 L 111.206 120.644 L 110.547 122.176 L 109.889 123.707 L 109.482 124.620 L 108.944 125.434 L 108.022 125.791 L 106.102 126.350 L 104.151 126.789 L 102.201 127.229 L 100.225 127.531 L 94.254 128.119 L 89.258 128.277 L 71.260 128.282 L 69.270 128.111 L 68.298 127.877 L 66.452 127.119 L 65.586 126.623 L 64.767 126.050 L 63.948 125.477 L 63.184 124.832 L 62.420 124.187 L 61.712 123.482 L 61.218 122.629 L 61.214 66.633 L 61.211 10.638 L 60.600 9.895 L 59.812 9.278 L 59.008 8.684 L 58.204 8.090 L 57.400 7.495 L 56.565 6.945 L 55.731 6.395 L 54.411 5.684 L 53.091 4.973 L 51.704 4.405 L 50.316 3.838 L 48.888 3.383 L 47.460 2.928 L 43.535 2.171 L 39.550 1.861 L 35.555 1.823 L 34.642 1.546 L 33.596 0.551" />
<path fill="none" stroke="#000000" stroke-width="1" stroke-linecap="round" stroke-linejoin="round" d="M 61.244 10.414 L 62.434 9.460 L 63.623 8.505 L 64.440 7.930 L 65.258 7.354 L 66.076 6.778 L 66.919 6.242 L 67.763 5.706 L 69.104 5.037 L 70.445 4.367 L 72.319 3.672 L 74.230 3.082 L 76.174 2.616 L 79.131 2.124 L 82.121 1.886 L 86.119 1.814 L 87.113 1.868 L 87.952 2.346 L 88.608 3.101" />
<path fill="none" stroke="#000000" stroke-width="1" stroke-linecap="round" stroke-linejoin="round" d="M 145.517 3.929 L 145.905 5.891 L 145.951 6.879 L 144.280 7.976 L 142.778 9.296 L 142.076 10.007 L 140.866 11.597 L 139.841 13.314 L 139.034 15.141 L 138.434 17.047 L 137.975 18.994 L 137.828 19.982 L 137.672 21.976 L 137.708 23.973 L 138.083 26.949 L 138.317 27.921 L 138.972 29.808 L 139.409 30.708 L 140.373 32.460 L 141.978 34.994 L 143.175 36.594 L 145.224 38.784 L 146.689 40.144 L 148.230 41.418 L 154.059 45.291 L 159.382 48.052 L 162.103 49.315 L 169.439 52.500 L 177.815 55.790 L 178.792 55.978 L 180.787 56.116 L 182.453 56.163 L 184.118 56.210 L 185.784 56.256 L 186.242 56.352 L 186.700 56.448 L 186.957 57.397 L 187.146 59.387 L 187.104 65.386 L 187.007 67.383 L 186.509 72.358 L 186.216 74.335 L 185.979 75.307 L 185.309 77.189 L 184.425 78.981 L 183.292 80.626 L 182.012 82.162 L 180.538 83.512 L 178.092 85.245 L 176.340 86.206 L 173.591 87.406 L 172.646 87.731 L 168.753 88.641 L 165.772 88.971 L 162.776 89.064 L 159.787 88.826 L 155.857 88.092 L 153.956 87.482 L 152.117 86.698 L 150.335 85.793 L 147.918 84.019 L 146.436 82.678 L 144.508 80.381 L 143.390 78.726 L 142.540 76.916 L 141.817 75.053 L 141.342 73.111 L 140.996 70.133 L 140.992 69.133 L 141.130 68.162 L 141.784 67.411 L 142.438 66.661 L 143.168 65.514 L 143.898 64.368" />
<path fill="none" stroke="#000000" stroke-width="1" stroke-linecap="round" stroke-linejoin="round" d="M 186.761 56.267 L 187.044 54.488 L 187.166 52.492 L 187.243 19.493 L 187.141 17.496 L 187.002 16.525 L 185.684 16.327 L 184.365 16.129 L 183.047 15.931 L 181.553 15.814 L 180.058 15.698 L 179.573 15.579 L 179.088 15.460 L 178.154 15.113 L 177.270 14.647 L 171.546 10.622 L 167.258 8.054 L 162.773 5.846 L 161.849 5.462 L 159.941 4.866 L 157.973 4.516 L 156.977 4.447 L 154.977 4.442 L 152.980 4.539 L 151.014 4.900 L 149.089 5.437 L 146.341 6.638" />
<path fill="none" stroke="#000000" stroke-width="1" stroke-linecap="round" stroke-linejoin="round" d="M 186.970 16.104 L 188.029 10.450 L 188.971 7.612 L 189.773 7.018 L 190.726 6.724 L 191.680 6.430 L 192.662 6.244 L 193.644 6.057 L 194.641 5.992 L 195.640 6.038 L 196.633 6.153 L 197.626 6.267 L 199.575 6.712 L 201.411 7.496 L 202.285 7.982 L 203.935 9.110 L 206.170 11.110 L 208.231 13.288 L 208.736 14.140 L 209.326 15.516 L 209.916 16.891 L 210.172 17.857" />
<path fill="none" stroke="#000000" stroke-width="1" stroke-linecap="round" stroke-linejoin="round" d="M 257.611 0.551 L 256.970 1.318 L 256.112 1.759 L 251.125 2.048 L 249.136 2.240 L 246.213 2.905 L 244.344 3.614 L 243.433 4.028 L 242.523 4.441 L 241.635 4.900 L 240.747 5.359 L 239.485 6.169 L 238.224 6.980 L 237.423 7.578 L 236.621 8.176 L 236.046 8.972 L 235.651 9.885 L 235.684 54.884 L 235.523 67.882 L 235.635 69.878 L 236.349 70.292 L 237.337 70.448 L 238.829 70.596 L 240.321 70.744 L 241.813 70.892 L 243.305 71.040 L 244.209 71.455 L 245.051 71.991 L 251.846 77.891 L 255.043 80.291 L 257.532 81.964 L 260.212 83.307 L 263.913 84.820 L 265.843 85.341 L 267.808 85.709 L 268.800 85.827 L 270.799 85.868 L 273.794 85.751 L 275.755 85.364 L 277.663 84.767 L 278.607 84.437 L 280.388 83.534 L 281.251 83.030 L 282.874 81.861 L 283.650 81.231 L 285.022 79.779 L 286.226 78.183 L 286.741 77.327 L 287.631 75.537 L 288.347 73.670 L 288.775 72.233 L 289.202 70.796 L 290.125 70.469 L 291.048 70.143 L 292.047 70.137 L 293.046 70.131 L 294.036 70.272 L 295.026 70.414 L 296.002 70.625 L 296.978 70.836 L 297.921 71.168 L 298.777 71.674 L 299.536 72.323 L 303.922 76.410 L 306.204 78.355 L 308.594 80.167 L 311.079 81.847 L 313.744 83.220 L 316.499 84.405 L 318.406 85.005 L 320.359 85.430 L 323.340 85.762 L 326.337 85.828 L 328.329 85.660 L 329.314 85.489 L 331.240 84.951 L 332.179 84.608 L 334.022 83.834 L 334.896 83.350 L 336.549 82.226 L 337.324 81.594 L 338.043 80.900 L 339.346 79.385 L 340.458 77.723 L 341.776 75.030 L 342.734 72.189 L 342.953 71.214 L 343.223 69.233 L 343.742 65.267 L 343.916 63.275 L 344.044 58.277 L 344.055 17.279 L 344.191 10.281 L 344.077 9.290 L 343.626 8.441 L 342.407 7.569 L 341.187 6.697 L 339.892 5.941 L 338.596 5.186 L 337.258 4.511 L 335.920 3.835 L 334.039 3.160 L 331.127 2.450 L 327.161 1.937 L 324.167 1.790 L 323.196 1.647 L 322.025 0.647" />
<path fill="none" stroke="#000000" stroke-width="1" stroke-linecap="round" stroke-linejoin="round" d="M 61.214 123.062 L 60.478 123.738 L 59.741 124.413 L 59.005 125.089 L 58.209 125.694 L 57.362 126.224 L 56.515 126.754 L 55.626 127.212 L 53.753 127.904 L 52.779 128.125 L 51.787 128.246 L 32.790 128.252 L 24.800 127.884 L 21.820 127.546 L 19.853 127.191 L 16.942 126.470 L 15.046 125.833 L 14.193 125.346 L 13.674 124.499 L 13.013 123.153 L 12.352 121.806 L 11.634 119.940 L 10.916 118.074 L 10.036 115.208 L 9.331 112.292 L 8.517 107.361 L 8.165 104.385 L 7.967 103.419 L 7.377 102.633 L 6.570 101.934" />
</svg>