<?xml version="1.0" encoding="UTF-8"?>
<svg xmlns="http://www.w3.org/2000/svg" viewBox="5.353 -8.662 522.050 196.369">
<path fill="none" stroke="#000000" stroke-width="1" stroke-linecap="round" stroke-linejoin="round" d="M 20.128 135.613 L 21.128 135.613 L 22.120 135.737 L 23.116 135.830 L 24.113 135.906 L 25.111 135.974 L 26.109 136.033 L 27.107 136.092 L 28.106 136.113 L 29.106 136.113 L 30.106 136.113 L 31.106 136.113 L 32.106 136.113 L 33.106 136.113 L 34.106 136.113 L 35.105 136.170 L 36.103 136.229 L 37.101 136.289 L 38.099 136.360 L 39.096 136.432 L 40.092 136.518 L 41.088 136.609 L 42.082 136.701 L 43.075 136.816 L 44.071 136.899 L 45.069 136.969 L 46.067 137.023 L 47.066 137.076 L 48.065 137.126 L 49.064 137.170 L 50.063 137.213 L 51.062 137.256 L 52.061 137.296 L 53.060 137.336 L 54.059 137.376 L 55.059 137.416 L 56.057 137.471 L 57.055 137.530 L 58.053 137.590 L 59.052 137.650 L 60.050 137.709 L 61.048 137.755 L 62.048 137.733 L 63.048 137.711 L 64.048 137.689 L 65.047 137.666 L 66.047 137.644 L 67.047 137.622 L 68.047 137.600 L 69.046 137.573 L 70.044 137.505 L 71.042 137.437 L 72.039 137.369 L 73.037 137.301 L 74.035 137.233 L 75.032 137.165 L 76.030 137.097 L 77.023 136.979 L 78.014 136.847 L 79.005 136.714 L 79.996 136.582 L 80.987 136.450 L 81.963 136.235 L 82.915 136.254 L 83.812 136.696 L 84.709 137.138 L 85.648 137.483 L 86.587 137.826 L 87.526 138.169 L 88.465 138.513 L 89.405 138.854 L 90.364 139.139 L 91.322 139.423 L 92.281 139.708 L 93.240 139.992 L 94.198 140.277 L 95.157 140.562 L 96.116 140.846 L 97.093 141.056 L 98.073 141.256 L 99.053 141.456 L 100.032 141.656 L 101.012 141.856 L 101.992 142.055 L 102.976 142.232 L 103.967 142.362 L 104.959 142.492 L 105.950 142.622 L 106.942 142.751 L 107.933 142.881 L 108.925 143.012 L 109.916 143.142 L 110.908 143.272 L 111.906 143.338 L 112.904 143.401 L 113.900 143.480 L 114.892 143.604 L 115.885 143.728 L 116.879 143.828 L 117.876 143.911 L 118.869 144.022 L 119.861 144.155 L 120.852 144.284 L 121.848 144.375 L 122.844 144.462 L 123.841 144.539 L 124.838 144.613 L 125.838 144.613 L 126.835 144.683 L 127.830 144.782 L 128.826 144.873 L 129.822 144.961 L 130.819 145.037 L 131.816 145.113 L 132.816 145.113 L 133.816 145.113 L 134.816 145.113 L 135.816 145.113 L 136.816 145.113 L 137.816 145.113 L 138.816 145.113 L 139.816 145.113 L 140.816 145.113 L 141.816 145.113 L 142.816 145.113 L 143.816 145.113 L 144.816 145.113 L 145.816 145.113 L 146.816 145.113 L 147.816 145.113 L 148.816 145.113 L 149.816 145.113 L 150.628 145.113" />
<path fill="none" stroke="#000000" stroke-width="1" stroke-linecap="round" stroke-linejoin="round" d="M 82.628 136.113 L 82.628 135.613 L 82.628 135.113 L 82.628 134.113 L 82.606 133.113 L 82.571 132.113 L 82.536 131.114 L 82.501 130.115 L 82.466 129.115 L 82.404 128.117 L 82.334 127.120 L 82.265 126.122 L 82.195 125.125 L 82.126 124.127 L 82.056 123.129 L 81.986 122.132 L 81.897 121.136 L 81.794 120.141 L 81.692 119.147 L 81.590 118.152 L 81.487 117.157 L 81.385 116.162 L 81.281 115.168 L 81.157 114.176 L 81.033 113.183 L 80.909 112.191 L 80.785 111.199 L 80.661 110.206 L 80.537 109.214 L 80.418 108.221 L 80.308 107.227 L 80.178 106.236 L 80.046 105.245 L 79.921 104.252 L 79.811 103.258 L 79.710 102.264 L 79.606 101.269 L 79.482 100.277 L 79.386 99.281 L 79.295 98.286 L 79.144 97.297 L 78.992 96.309 L 78.900 95.313 L 78.823 94.316 L 78.712 93.323 L 78.580 92.332 L 78.450 91.340 L 78.339 90.346 L 78.229 89.353 L 78.120 88.359 L 78.025 87.363 L 77.930 86.368 L 77.835 85.372 L 77.745 84.376 L 77.659 83.380 L 77.572 82.384 L 77.485 81.387 L 77.404 80.391 L 77.324 79.394 L 77.244 78.397 L 77.164 77.400 L 77.068 76.405 L 76.958 75.411 L 76.847 74.417 L 76.737 73.423 L 76.626 72.429 L 76.527 71.434 L 76.427 70.439 L 76.328 69.444 L 76.228 68.449 L 76.129 67.454 L 76.036 66.459 L 75.942 65.463 L 75.849 64.467 L 75.756 63.472 L 75.662 62.476 L 75.573 61.480 L 75.487 60.484 L 75.400 59.488 L 75.313 58.491 L 75.229 57.495 L 75.146 56.498 L 75.116 55.500 L 75.005 54.506 L 74.907 53.511 L 74.816 52.515 L 74.731 51.519 L 74.648 50.522 L 74.628 49.523 L 74.596 48.524 L 74.519 47.527 L 74.448 46.530 L 74.396 45.531 L 74.343 44.532 L 74.292 43.534 L 74.250 42.535 L 74.208 41.535 L 74.167 40.536 L 74.128 39.537 L 74.128 38.537 L 74.128 37.537 L 74.128 36.537 L 74.128 35.537 L 74.128 34.537 L 74.128 33.537 L 74.128 32.537 L 74.128 31.537 L 74.128 30.537 L 74.128 29.537 L 74.128 28.537 L 74.128 27.537 L 74.128 26.537 L 74.156 25.538 L 74.193 24.538 L 74.230 23.539 L 74.267 22.540 L 74.309 21.541 L 74.368 20.542 L 74.426 19.544 L 74.511 18.548 L 74.628 17.555 L 74.754 16.564 L 74.873 15.572 L 74.995 14.579 L 75.159 13.593 L 75.324 12.607 L 75.501 11.623 L 75.628 10.638 L 75.829 9.660 L 76.104 8.698 L 76.128 8.613" />
<path fill="none" stroke="#000000" stroke-width="1" stroke-linecap="round" stroke-linejoin="round" d="M 201.128 13.612 L 200.639 14.484 L 200.136 15.348 L 199.668 16.231 L 199.262 17.145 L 198.952 18.093 L 198.689 19.057 L 198.461 20.031 L 198.249 21.008 L 198.203 21.236 L 198.411 20.258 L 198.628 19.282 L 198.890 18.317 L 199.159 17.354 L 199.448 16.486 L 199.132 17.435 L 198.868 18.400 L 198.614 19.366 L 198.449 20.353 L 198.285 21.339 L 198.126 22.326 L 198.085 23.325 L 198.043 24.324 L 198.001 25.324 L 197.963 26.323 L 197.997 27.322 L 198.032 28.321 L 198.066 29.321 L 198.101 30.320 L 198.161 31.317 L 198.320 32.304 L 198.480 33.292 L 198.639 34.279 L 198.798 35.266 L 198.957 36.253 L 199.176 37.229 L 199.396 38.205 L 199.616 39.180 L 199.837 40.155 L 200.057 41.131 L 200.335 42.090 L 200.641 43.043 L 200.947 43.995 L 201.253 44.947 L 201.559 45.899 L 201.883 46.845 L 202.211 47.789 L 202.540 48.734 L 202.868 49.678 L 203.240 50.606 L 203.628 51.528 L 204.016 52.450 L 204.409 53.369 L 204.815 54.283 L 205.221 55.197 L 205.627 56.111 L 206.093 56.996 L 206.559 57.880 L 207.024 58.765 L 207.498 59.646 L 207.984 60.520 L 208.470 61.394 L 208.955 62.268 L 209.470 63.126 L 209.984 63.983 L 210.499 64.841 L 211.013 65.698 L 211.528 66.556 L 212.031 67.419 L 212.558 68.268 L 213.088 69.116 L 213.633 69.954 L 214.188 70.786 L 214.743 71.618 L 215.298 72.450 L 215.852 73.282 L 216.413 74.110 L 216.999 74.921 L 217.584 75.731 L 218.170 76.542 L 218.755 77.353 L 219.341 78.163 L 219.926 78.974 L 220.512 79.785 L 221.129 80.571 L 221.753 81.352 L 222.378 82.133 L 223.003 82.914 L 223.627 83.695 L 224.270 84.460 L 224.935 85.208 L 225.599 85.955 L 226.264 86.702 L 226.928 87.450 L 227.592 88.197 L 228.254 88.947 L 228.913 89.699 L 229.571 90.452 L 230.230 91.205 L 230.932 91.916 L 231.639 92.623 L 232.346 93.330 L 233.053 94.038 L 233.760 94.745 L 234.468 95.451 L 235.211 96.120 L 235.954 96.789 L 236.710 97.444 L 237.478 98.084 L 238.278 98.684 L 239.086 99.273 L 239.899 99.855 L 240.708 100.443 L 241.517 101.031 L 242.346 101.591 L 243.178 102.145 L 244.010 102.700 L 244.880 103.192 L 245.756 103.674 L 246.632 104.156 L 247.511 104.632 L 248.440 105.004 L 249.368 105.375 L 250.296 105.747 L 251.225 106.118 L 252.177 106.416 L 253.147 106.659 L 254.117 106.901 L 255.087 107.144 L 256.058 107.387 L 257.043 107.553 L 258.033 107.694 L 259.023 107.836 L 260.014 107.962 L 261.012 108.033 L 262.009 108.104 L 263.009 108.112 L 263.997 107.968 L 264.955 107.699 L 264.354 107.834 L 263.371 108.017 L 262.378 108.112 L 262.877 108.099 L 263.861 107.927 L 264.823 107.652 L 265.557 106.997 L 266.252 106.279 L 266.947 105.560 L 267.643 104.842 L 268.338 104.123 L 269.034 103.404 L 269.729 102.686 L 270.407 101.951 L 271.076 101.208 L 271.745 100.464 L 272.414 99.721 L 273.083 98.978 L 273.752 98.234 L 274.421 97.491 L 275.075 96.735 L 275.728 95.977 L 276.381 95.220 L 277.033 94.462 L 277.686 93.705 L 278.339 92.947 L 278.591 92.056 L 278.525 91.058 L 278.458 90.060 L 278.391 89.063 L 278.325 88.065 L 278.227 87.070 L 278.103 86.078 L 277.979 85.086 L 277.855 84.093 L 277.731 83.101 L 277.607 82.109 L 277.483 81.116 L 277.359 80.124 L 277.235 79.132 L 277.105 78.140 L 276.941 77.154 L 276.776 76.168 L 276.612 75.181 L 276.447 74.195 L 276.283 73.208 L 276.119 72.222 L 275.954 71.236 L 275.790 70.249 L 275.625 69.263 L 275.461 68.276 L 275.297 67.290 L 275.132 66.304 L 274.968 65.317 L 274.741 64.343 L 274.512 63.370 L 274.283 62.397 L 274.054 61.423 L 273.825 60.450 L 273.596 59.476 L 273.367 58.503 L 273.138 57.529 L 272.900 56.558 L 272.630 55.595 L 272.361 54.632 L 272.091 53.669 L 271.821 52.707 L 271.641 52.242 L 271.460 51.777 L 271.138 50.840 L 271.166 50.344 L 271.194 49.848 L 271.437 48.878 L 271.679 47.908 L 271.922 46.938 L 272.155 45.966 L 272.334 44.982 L 272.513 43.998 L 272.691 43.014 L 272.870 42.030 L 273.049 41.046 L 273.228 40.062 L 273.407 39.079 L 273.586 38.095 L 273.765 37.111 L 273.944 36.127 L 274.123 35.143 L 274.301 34.159 L 274.480 33.175 L 274.659 32.192 L 274.838 31.208 L 275.017 30.224 L 275.188 29.238 L 275.345 28.251 L 275.502 27.263 L 275.659 26.276 L 275.816 25.288 L 275.973 24.301 L 276.130 23.313 L 276.287 22.325 L 276.533 21.356 L 276.783 20.388 L 277.033 19.420 L 277.283 18.451 L 277.532 17.483 L 277.837 16.532 L 278.176 15.591 L 278.515 14.650 L 278.853 13.709 L 279.209 12.775 L 279.634 11.870 L 280.060 10.965 L 280.491 10.063 L 281.006 9.206 L 281.534 8.358 L 282.174 7.590 L 282.869 6.872 L 283.576 6.165 L 283.628 6.113" />
<path fill="none" stroke="#000000" stroke-width="1" stroke-linecap="round" stroke-linejoin="round" d="M 212.128 67.613 L 212.683 68.445 L 213.234 69.279 L 213.771 70.123 L 214.308 70.966 L 214.863 71.798 L 215.418 72.630 L 215.972 73.462 L 216.527 74.294 L 217.086 75.123 L 217.659 75.943 L 218.128 76.612" />
<path fill="none" stroke="#000000" stroke-width="1" stroke-linecap="round" stroke-linejoin="round" d="M 270.628 50.112 L 271.221 50.890 L 271.537 51.839 L 271.833 52.794 L 272.120 53.752 L 272.384 54.717 L 272.647 55.681 L 272.910 56.646 L 273.177 57.610 L 273.465 58.568 L 273.628 59.113" />
<path fill="none" stroke="#000000" stroke-width="1" stroke-linecap="round" stroke-linejoin="round" d="M 229.628 138.113 L 230.335 138.820 L 231.042 139.527 L 231.749 140.234 L 232.457 140.941 L 233.164 141.648 L 233.871 142.355 L 234.578 143.062 L 235.285 143.769 L 235.992 144.476 L 236.699 145.184 L 237.406 145.891 L 238.113 146.598 L 238.821 147.305 L 239.528 148.012 L 240.235 148.719 L 240.942 149.426 L 241.649 150.133 L 242.356 150.840 L 243.063 151.548 L 243.770 152.255 L 244.477 152.962 L 245.184 153.669 L 245.892 154.376 L 246.599 155.083 L 247.306 155.790 L 248.014 156.497 L 248.731 157.193 L 249.448 157.890 L 250.165 158.587 L 250.883 159.284 L 251.600 159.980 L 252.317 160.677 L 253.035 161.374 L 253.752 162.071 L 254.510 162.723 L 255.270 163.372 L 256.031 164.021 L 256.792 164.671 L 257.552 165.320 L 258.313 165.969 L 259.073 166.618 L 259.834 167.268 L 260.594 167.917 L 261.380 168.536 L 262.166 169.154 L 262.952 169.772 L 263.738 170.390 L 264.525 171.008 L 265.312 171.624 L 266.153 172.164 L 266.995 172.705 L 267.797 172.932 L 268.479 172.201 L 269.161 171.470 L 269.844 170.739 L 270.454 169.948 L 271.050 169.145 L 271.646 168.342 L 272.242 167.539 L 272.838 166.736 L 273.434 165.933 L 274.016 165.120 L 274.579 164.294 L 275.142 163.467 L 275.705 162.641 L 276.268 161.814 L 276.830 160.987 L 277.393 160.161 L 277.956 159.334 L 278.519 158.508 L 279.082 157.681 L 279.128 157.613" />
<path fill="none" stroke="#000000" stroke-width="1" stroke-linecap="round" stroke-linejoin="round" d="M 339.128 19.612 L 339.524 20.508 L 339.314 20.896 L 339.105 21.285 L 338.738 22.207 L 338.415 23.154 L 338.092 24.100 L 337.769 25.046 L 337.445 25.993 L 337.169 26.951 L 336.989 27.935 L 336.810 28.919 L 336.630 29.902 L 336.451 30.886 L 336.272 31.870 L 336.092 32.854 L 335.913 33.838 L 335.743 34.823 L 335.684 35.821 L 335.625 36.819 L 335.566 37.817 L 335.506 38.816 L 335.447 39.814 L 335.388 40.812 L 335.329 41.810 L 335.269 42.808 L 335.210 43.807 L 335.288 44.801 L 335.412 45.793 L 335.537 46.785 L 335.661 47.777 L 335.785 48.770 L 335.909 49.762 L 336.040 50.753 L 336.180 51.743 L 336.321 52.733 L 336.461 53.723 L 336.602 54.714 L 336.752 55.702 L 336.906 56.690 L 337.059 57.679 L 337.206 58.668 L 337.348 59.657 L 337.492 60.647 L 337.644 61.635 L 337.796 62.624 L 337.895 63.619 L 338.013 64.612 L 338.165 65.600 L 338.315 66.589 L 338.457 67.579 L 338.620 68.565 L 338.785 69.551 L 338.927 70.541 L 339.077 71.530 L 339.229 72.518 L 339.375 73.508 L 339.525 74.496 L 339.690 75.483 L 339.854 76.469 L 340.019 77.455 L 340.183 78.442 L 340.347 79.428 L 340.508 80.415 L 340.660 81.403 L 340.809 82.392 L 340.933 83.385 L 341.070 84.375 L 341.212 85.365 L 341.369 86.352 L 341.548 87.336 L 341.706 88.324 L 341.847 89.313 L 341.993 90.303 L 342.158 91.289 L 342.310 92.277 L 342.400 93.273 L 342.494 94.269 L 342.593 95.264 L 342.628 96.262 L 342.628 97.262 L 342.628 98.262 L 342.628 99.262 L 342.628 99.630 L 342.628 98.630 L 342.628 97.630 L 342.628 96.630 L 342.628 95.630 L 342.530 94.635 L 342.418 93.641 L 342.277 92.651 L 342.135 91.661 L 341.972 90.675 L 341.807 89.688 L 341.643 88.702 L 341.500 87.712 L 341.358 86.722 L 341.217 85.732 L 341.201 85.479 L 341.353 86.467 L 341.464 87.460 L 341.605 88.450 L 341.746 89.440 L 341.888 90.430 L 342.029 91.420 L 342.128 92.113" />
<path fill="none" stroke="#000000" stroke-width="1" stroke-linecap="round" stroke-linejoin="round" d="M 387.628 84.613 L 388.290 85.362 L 388.951 86.112 L 389.613 86.862 L 390.278 87.609 L 390.957 88.343 L 391.635 89.078 L 392.329 89.797 L 393.068 90.471 L 393.817 91.133 L 394.584 91.774 L 395.383 92.371 L 396.247 92.875 L 397.110 93.379 L 398.012 93.804 L 398.944 94.167 L 399.875 94.531 L 400.807 94.894 L 401.765 95.177 L 402.729 95.445 L 403.693 95.712 L 404.673 95.899 L 405.663 96.042 L 406.650 96.091 L 407.179 95.250 L 407.657 94.372 L 408.135 93.493 L 408.612 92.615 L 408.977 91.686 L 409.310 90.743 L 409.642 89.800 L 409.975 88.857 L 410.308 87.914 L 410.641 86.971 L 410.974 86.028 L 411.284 85.078 L 411.527 84.108 L 411.770 83.138 L 412.014 82.168 L 412.257 81.198 L 412.500 80.228 L 412.744 79.258 L 412.987 78.289 L 413.230 77.319 L 413.474 76.349 L 413.717 75.379 L 413.916 74.401 L 414.026 73.407 L 414.136 72.413 L 414.245 71.419 L 414.355 70.425 L 414.464 69.431 L 414.574 68.437 L 414.684 67.443 L 414.793 66.449 L 414.903 65.455 L 415.013 64.461 L 415.122 63.467 L 415.204 62.470 L 415.285 61.474 L 415.367 60.477 L 415.448 59.480 L 415.530 58.484 L 415.612 57.487 L 415.693 56.490 L 415.775 55.494 L 415.856 54.497 L 415.938 53.500 L 416.020 52.504 L 416.103 51.507 L 416.311 50.529 L 416.518 49.551 L 416.726 48.573 L 416.933 47.595 L 417.141 46.616 L 417.348 45.638 L 417.556 44.660 L 417.764 43.682 L 417.971 42.703 L 418.179 41.725 L 418.386 40.747 L 418.594 39.769 L 418.801 38.790 L 419.040 37.820 L 419.303 36.855 L 419.566 35.890 L 419.829 34.925 L 420.092 33.961 L 420.355 32.996 L 420.618 32.031 L 420.880 31.066 L 421.143 30.101 L 421.406 29.137 L 421.806 28.220 L 422.209 27.305 L 422.612 26.389 L 423.014 25.474 L 423.417 24.559 L 423.422 24.573 L 423.013 25.486 L 422.604 26.399 L 422.195 27.311 L 421.786 28.224 L 421.411 29.148 L 421.165 30.118 L 420.919 31.087 L 420.674 32.056 L 420.428 33.026 L 420.182 33.995 L 419.937 34.964 L 419.691 35.934 L 419.445 36.903 L 419.200 37.872 L 418.954 38.842 L 418.727 39.815 L 418.535 40.797 L 418.344 41.778 L 418.152 42.760 L 417.960 43.741 L 417.768 44.722 L 417.577 45.704 L 417.385 46.685 L 417.193 47.667 L 417.001 48.648 L 416.810 49.630 L 416.618 50.611 L 416.426 51.593 L 416.234 52.574 L 416.043 53.555 L 415.851 54.537 L 415.659 55.518 L 415.628 55.677" />
<path fill="none" stroke="#000000" stroke-width="1" stroke-linecap="round" stroke-linejoin="round" d="M 450.608 57.911 L 451.092 58.786 L 451.575 59.662 L 452.058 60.537 L 452.542 61.413 L 453.025 62.288 L 453.510 63.163 L 453.995 64.037 L 454.481 64.911 L 454.967 65.785 L 455.473 66.648 L 456.012 67.489 L 456.356 68.401 L 456.804 69.295 L 457.300 70.163 L 457.796 71.032 L 458.276 71.908 L 458.723 72.803 L 459.197 73.683 L 459.676 74.561 L 460.182 75.424 L 460.696 76.281 L 461.211 77.139 L 461.763 77.973 L 462.321 78.802 L 462.879 79.632 L 463.438 80.461 L 464.032 81.265 L 464.646 82.054 L 465.260 82.844 L 465.874 83.633 L 466.488 84.422 L 467.101 85.212 L 467.817 85.910 L 468.536 86.605 L 469.255 87.300 L 469.974 87.995 L 470.693 88.690 L 471.413 89.384 L 472.132 90.079 L 472.918 90.693 L 473.734 91.271 L 474.550 91.849 L 475.366 92.427 L 476.182 93.006 L 476.998 93.584 L 477.851 94.093 L 478.785 94.449 L 479.720 94.805 L 480.654 95.161 L 481.589 95.517 L 482.531 95.840 L 483.524 95.956 L 484.518 96.073 L 485.515 96.111 L 486.450 95.898 L 487.082 95.137 L 487.658 94.320 L 488.235 93.503 L 488.764 92.658 L 489.191 91.754 L 489.618 90.850 L 490.045 89.945 L 490.472 89.041 L 490.899 88.137 L 491.326 87.233 L 491.673 86.297 L 491.984 85.346 L 492.294 84.395 L 492.605 83.445 L 492.915 82.494 L 493.225 81.544 L 493.536 80.593 L 493.846 79.642 L 494.144 78.689 L 494.311 77.703 L 494.479 76.717 L 494.647 75.731 L 494.815 74.745 L 494.983 73.760 L 495.150 72.774 L 495.318 71.788 L 495.479 70.801 L 495.600 69.808 L 495.721 68.816 L 495.842 67.823 L 495.963 66.830 L 496.084 65.838 L 496.205 64.845 L 496.327 63.853 L 496.451 62.860 L 496.575 61.868 L 496.699 60.876 L 496.823 59.884 L 496.947 58.891 L 497.071 57.899 L 497.210 56.909 L 497.359 55.920 L 497.509 54.931 L 497.659 53.942 L 497.809 52.954 L 497.959 51.965 L 498.105 50.976 L 498.252 49.987 L 498.398 48.997 L 498.545 48.008 L 498.702 47.021 L 498.873 46.036 L 499.045 45.050 L 499.216 44.065 L 499.397 43.082 L 499.586 42.100 L 499.775 41.118 L 499.963 40.136 L 500.158 39.155 L 500.393 38.183 L 500.627 37.211 L 500.862 36.239 L 501.097 35.267 L 501.337 34.296 L 501.606 33.333 L 501.876 32.370 L 502.146 31.407 L 502.415 30.444 L 502.724 29.493 L 503.040 28.544 L 503.356 27.596 L 503.683 26.651 L 504.077 25.732 L 504.471 24.813 L 504.897 23.908 L 505.344 23.014 L 505.791 22.120 L 506.160 21.192 L 506.712 20.370 L 507.224 19.517 L 507.815 18.713 L 508.439 17.932 L 509.077 17.163 L 509.785 16.456 L 510.492 15.749 L 511.258 15.108 L 512.063 14.516 L 512.628 14.112" />
</svg>