<?xml version="1.0" encoding="UTF-8"?>
<svg xmlns="http://www.w3.org/2000/svg" viewBox="19.144 -7.711 437.073 193.099">
<path fill="none" stroke="#000000" stroke-width="1" stroke-linecap="round" stroke-linejoin="round" d="M 56.347 138.113 L 56.628 139.071 L 56.847 140.044 L 57.112 141.005 L 57.347 141.976 L 57.620 142.932 L 57.936 143.881 L 58.252 144.829 L 58.347 145.113" />
<path fill="none" stroke="#000000" stroke-width="1" stroke-linecap="round" stroke-linejoin="round" d="M 57.847 143.613 L 57.566 142.654 L 57.323 141.684 L 57.091 140.711 L 56.874 139.735 L 56.635 138.764 L 56.392 137.794 L 56.150 136.824 L 55.907 135.853 L 55.665 134.883 L 55.422 133.913 L 55.165 132.947 L 54.902 131.982 L 54.639 131.017 L 54.376 130.052 L 54.106 129.089 L 53.836 128.127 L 53.569 127.163 L 53.304 126.199 L 53.038 125.235 L 52.770 124.271 L 52.502 123.308 L 52.233 122.345 L 51.964 121.382 L 51.697 120.418 L 51.431 119.454 L 51.166 118.490 L 50.901 117.526 L 50.635 116.561 L 50.370 115.597 L 50.159 114.621 L 49.979 113.637 L 49.799 112.653 L 49.620 111.670 L 49.440 110.686 L 49.260 109.702 L 49.080 108.719 L 48.908 107.733 L 48.738 106.748 L 48.567 105.763 L 48.396 104.777 L 48.226 103.792 L 48.141 102.796 L 48.064 101.799 L 47.677 100.943 L 46.970 100.235 L 46.238 99.554 L 45.501 98.879 L 44.764 98.203 L 44.026 97.527 L 43.289 96.851 L 42.540 96.190 L 41.842 95.515 L 41.789 94.516 L 41.737 93.517 L 41.684 92.519 L 41.581 91.524 L 41.473 90.530 L 41.366 89.536 L 41.258 88.542 L 41.151 87.547 L 41.043 86.553 L 40.909 85.562 L 40.765 84.573 L 40.621 83.583 L 40.477 82.593 L 40.334 81.604 L 40.190 80.614 L 40.046 79.625 L 39.902 78.635 L 39.758 77.646 L 39.590 76.660 L 39.394 75.680 L 39.198 74.699 L 39.001 73.718 L 38.805 72.738 L 38.609 71.757 L 38.413 70.777 L 38.217 69.796 L 38.021 68.815 L 37.807 67.839 L 37.593 66.862 L 37.378 65.885 L 37.164 64.908 L 36.949 63.932 L 36.735 62.955 L 36.521 61.978 L 36.311 61.000 L 36.101 60.023 L 35.892 59.045 L 35.682 58.067 L 35.474 57.089 L 35.267 56.110 L 35.061 55.132 L 34.855 54.153 L 34.659 53.173 L 34.463 52.192 L 34.261 51.213 L 34.052 50.235 L 33.843 49.257 L 33.679 48.271 L 33.514 47.284 L 33.350 46.298 L 33.186 45.311 L 33.043 44.322 L 32.902 43.332 L 32.756 42.342 L 32.608 41.353 L 32.460 40.364 L 32.318 39.375 L 32.199 38.382 L 32.080 37.389 L 31.961 36.396 L 31.844 35.403 L 31.777 34.405 L 31.711 33.407 L 31.644 32.410 L 31.578 31.412 L 31.514 30.414 L 31.514 29.414 L 31.514 28.414 L 31.514 27.414 L 31.514 26.414 L 31.514 25.414 L 31.603 24.418 L 31.706 23.424 L 31.809 22.429 L 31.911 21.434 L 32.015 20.440 L 32.219 19.461 L 32.423 18.482 L 32.627 17.503 L 32.831 16.524 L 33.166 15.582 L 33.512 14.644 L 33.858 13.706 L 34.284 12.805 L 34.780 11.937 L 35.275 11.068 L 35.879 10.273 L 36.505 9.493 L 37.187 8.763 L 37.896 8.058 L 38.632 7.384 L 39.463 6.830 L 40.346 6.363 L 41.255 5.949 L 42.195 5.608 L 43.144 5.291 L 44.092 4.975 L 45.041 4.659 L 44.371 4.882 L 43.425 5.208 L 42.489 5.559 L 41.559 5.928 L 40.632 6.301 L 39.721 6.715 L 38.847 7.113" />
<path fill="none" stroke="#000000" stroke-width="1" stroke-linecap="round" stroke-linejoin="round" d="M 135.347 11.113 L 134.640 11.820 L 133.933 12.527 L 133.400 13.367 L 132.881 14.222 L 132.365 15.076 L 131.918 15.971 L 131.515 16.886 L 131.134 17.811 L 130.850 18.767 L 130.647 19.744 L 130.537 20.738 L 130.393 21.728 L 130.241 22.716 L 130.130 23.709 L 130.047 24.706 L 130.014 25.705 L 130.014 26.705 L 130.031 27.704 L 130.097 28.702 L 130.164 29.700 L 130.274 30.693 L 130.398 31.686 L 130.519 32.678 L 130.595 33.675 L 130.672 34.672 L 130.827 35.660 L 130.991 36.646 L 131.136 37.636 L 131.347 38.612 L 131.589 39.582 L 131.832 40.552 L 132.105 41.514 L 132.379 42.476 L 132.666 43.434 L 132.964 44.388 L 133.263 45.343 L 133.607 46.281 L 133.969 47.213 L 134.332 48.145 L 134.703 49.073 L 135.084 49.998 L 135.465 50.923 L 135.865 51.839 L 136.291 52.744 L 136.717 53.648 L 137.143 54.553 L 137.568 55.458 L 137.994 56.363 L 138.427 57.264 L 138.895 58.148 L 139.363 59.032 L 139.831 59.916 L 140.320 60.788 L 140.811 61.659 L 141.301 62.531 L 141.796 63.399 L 142.293 64.267 L 142.795 65.132 L 143.319 65.984 L 143.843 66.835 L 144.353 67.695 L 144.857 68.559 L 145.379 69.411 L 145.934 70.243 L 146.489 71.075 L 147.027 71.919 L 147.563 72.762 L 148.129 73.587 L 148.702 74.406 L 149.282 75.221 L 149.863 76.035 L 150.444 76.849 L 151.042 77.650 L 151.639 78.452 L 152.228 79.261 L 152.816 80.070 L 153.438 80.852 L 154.063 81.633 L 154.688 82.414 L 155.313 83.195 L 155.964 83.953 L 156.629 84.700 L 157.296 85.445 L 157.965 86.188 L 158.632 86.933 L 159.296 87.681 L 159.958 88.430 L 160.617 89.183 L 161.237 89.966 L 161.837 90.766 L 162.487 91.526 L 163.141 92.282 L 163.800 93.035 L 164.518 93.728 L 165.266 94.392 L 166.013 95.057 L 166.761 95.721 L 167.526 96.365 L 168.300 96.998 L 169.076 97.629 L 169.856 98.253 L 170.637 98.878 L 171.422 99.497 L 172.249 100.061 L 173.075 100.624 L 173.901 101.187 L 174.727 101.751 L 175.585 102.263 L 176.459 102.749 L 177.333 103.234 L 178.207 103.720 L 179.081 104.206 L 179.984 104.631 L 180.915 104.996 L 181.846 105.362 L 182.776 105.728 L 183.707 106.093 L 184.657 106.398 L 185.627 106.641 L 186.598 106.884 L 187.568 107.126 L 188.538 107.369 L 189.519 107.558 L 190.505 107.722 L 191.492 107.887 L 192.483 108.017 L 193.216 108.113 L 192.218 108.083 L 191.222 107.983 L 190.276 108.195 L 189.360 108.596 L 188.444 108.996 L 187.527 109.396 L 186.611 109.797 L 185.830 110.413 L 185.067 111.060 L 184.304 111.707 L 183.542 112.354 L 182.779 113.001 L 182.017 113.648 L 181.254 114.295 L 180.492 114.942 L 179.729 115.588 L 178.966 116.235 L 178.204 116.882 L 177.448 117.537 L 176.736 118.239 L 176.025 118.942 L 175.313 119.644 L 174.601 120.347 L 173.890 121.049 L 173.178 121.752 L 172.467 122.454 L 171.755 123.157 L 171.043 123.859 L 170.332 124.562 L 169.626 125.270 L 168.993 126.044 L 168.359 126.817 L 167.725 127.591 L 167.091 128.364 L 166.457 129.138 L 165.823 129.911 L 165.189 130.684 L 164.304 131.021 L 165.079 131.173 L 164.900 132.054 L 164.602 133.008 L 164.260 133.947 L 163.860 134.863 L 163.460 135.779 L 163.983 135.522 L 164.592 134.729 L 165.201 133.935 L 165.793 133.130 L 166.385 132.324 L 166.538 131.930 L 166.691 131.537 L 167.168 130.826 L 167.873 130.118 L 168.579 129.409 L 169.285 128.701 L 169.991 127.992 L 170.697 127.284 L 171.403 126.576 L 172.108 125.867 L 172.790 125.136 L 173.465 124.398 L 174.140 123.660 L 174.815 122.922 L 175.490 122.184 L 176.164 121.446 L 176.839 120.708 L 177.514 119.970 L 178.189 119.233 L 178.864 118.495 L 179.542 117.760 L 180.296 117.103 L 181.051 116.447 L 181.805 115.791 L 182.560 115.134 L 183.314 114.478 L 184.069 113.822 L 184.823 113.165 L 185.578 112.509 L 186.332 111.853 L 187.087 111.196 L 187.841 110.540 L 188.622 109.922 L 189.505 109.453 L 190.389 108.985 L 191.272 108.516 L 192.155 108.047 L 193.130 107.946 L 194.130 107.946 L 195.130 107.946 L 196.124 107.849 L 196.579 107.833 L 195.595 108.006 L 194.602 108.112 L 193.602 108.112 L 194.091 108.112 L 195.089 108.078 L 196.075 107.923 L 197.012 107.572 L 197.793 106.984 L 198.489 106.266 L 199.184 105.547 L 199.880 104.829 L 200.575 104.110 L 201.270 103.391 L 201.966 102.673 L 202.649 101.943 L 203.318 101.200 L 203.987 100.457 L 204.656 99.713 L 205.325 98.970 L 205.994 98.227 L 206.663 97.483 L 207.319 96.728 L 207.970 95.969 L 208.620 95.210 L 209.271 94.451 L 209.922 93.691 L 210.573 92.932 L 210.847 92.034 L 210.847 91.034 L 210.843 90.034 L 210.796 89.035 L 210.748 88.036 L 210.700 87.037 L 210.636 86.039 L 210.559 85.042 L 210.483 84.045 L 210.406 83.048 L 210.318 82.052 L 210.194 81.060 L 210.070 80.068 L 209.946 79.075 L 209.819 78.083 L 209.677 77.093 L 209.536 76.104 L 209.395 75.114 L 209.244 74.125 L 209.088 73.137 L 208.931 72.150 L 208.753 71.166 L 208.547 70.187 L 208.341 69.209 L 208.128 68.232 L 207.892 67.260 L 207.656 66.288 L 207.420 65.317 L 207.168 64.349 L 206.913 63.382 L 206.659 62.415 L 206.398 61.450 L 206.132 60.485 L 205.867 59.521 L 205.611 58.555 L 205.361 57.586 L 205.110 56.618 L 204.823 55.661 L 204.532 54.704 L 204.242 53.747 L 203.952 52.790 L 203.607 51.852 L 203.240 50.922 L 202.916 50.044 L 203.264 49.122 L 203.556 48.165 L 203.847 47.208 L 204.138 46.252 L 204.348 45.275 L 204.544 44.294 L 204.740 43.313 L 204.936 42.333 L 205.132 41.352 L 205.328 40.372 L 205.524 39.391 L 205.716 38.410 L 205.892 37.425 L 206.068 36.441 L 206.244 35.456 L 206.420 34.472 L 206.595 33.488 L 206.771 32.503 L 206.947 31.519 L 207.123 30.534 L 207.299 29.550 L 207.458 28.563 L 207.612 27.575 L 207.766 26.587 L 207.919 25.598 L 208.073 24.610 L 208.227 23.622 L 208.381 22.634 L 208.547 21.649 L 208.797 20.680 L 209.047 19.712 L 209.297 18.744 L 209.547 17.776 L 209.797 16.807 L 210.127 15.865 L 210.478 14.928 L 210.830 13.992 L 211.181 13.056 L 211.583 12.141 L 212.030 11.247 L 212.477 10.353 L 212.993 9.499 L 213.567 8.680 L 214.180 7.891 L 214.830 7.132 L 215.536 6.423 L 216.243 5.716 L 216.347 5.612" />
<path fill="none" stroke="#000000" stroke-width="1" stroke-linecap="round" stroke-linejoin="round" d="M 141.347 62.613 L 141.836 63.484 L 142.339 64.348 L 142.841 65.213 L 143.332 66.083 L 144.284 65.873 L 145.253 65.625 L 146.221 65.374 L 147.185 65.107 L 148.148 64.840 L 149.117 64.620 L 150.116 64.670 L 151.115 64.720 L 151.524 64.865 L 151.934 65.009 L 152.658 64.579 L 153.439 63.954 L 154.220 63.329 L 155.001 62.705 L 155.782 62.080 L 156.563 61.455 L 157.343 60.830 L 158.124 60.206 L 158.905 59.581 L 159.686 58.956 L 160.467 58.332 L 161.248 57.707 L 162.003 57.052 L 162.746 56.383 L 163.489 55.714 L 164.233 55.045 L 164.976 54.376 L 165.720 53.707 L 166.463 53.039 L 167.206 52.370 L 167.950 51.701 L 168.693 51.032 L 169.437 50.363 L 170.180 49.694 L 170.924 49.026 L 171.683 48.376 L 172.445 47.728 L 173.207 47.080 L 173.969 46.433 L 174.732 45.785 L 175.494 45.138 L 176.256 44.490 L 177.018 43.843 L 177.780 43.195 L 178.542 42.548 L 179.304 41.900 L 180.066 41.253 L 180.831 40.609 L 181.795 40.366 L 182.771 40.151 L 183.732 40.103 L 184.652 40.494 L 185.572 40.886 L 186.493 41.277 L 187.413 41.668 L 188.333 42.060 L 189.253 42.451 L 190.173 42.843 L 191.090 43.242 L 191.998 43.662 L 192.905 44.082 L 193.813 44.502 L 194.720 44.922 L 195.628 45.342 L 196.535 45.762 L 197.443 46.182 L 198.309 46.670 L 199.106 47.275 L 199.903 47.879 L 200.699 48.483 L 201.496 49.088 L 202.293 49.692 L 202.638 50.038 L 202.983 50.385 L 203.381 51.302 L 203.768 52.224 L 204.153 53.147 L 204.347 53.613" />
<path fill="none" stroke="#000000" stroke-width="1" stroke-linecap="round" stroke-linejoin="round" d="M 161.847 138.113 L 162.554 138.820 L 163.261 139.527 L 163.968 140.234 L 164.675 140.941 L 165.382 141.648 L 166.090 142.355 L 166.797 143.062 L 167.504 143.769 L 168.211 144.476 L 168.918 145.184 L 169.625 145.891 L 170.332 146.598 L 171.039 147.305 L 171.746 148.012 L 172.453 148.719 L 173.161 149.426 L 173.868 150.133 L 174.575 150.840 L 175.282 151.548 L 175.989 152.255 L 176.696 152.962 L 177.403 153.669 L 178.110 154.376 L 178.817 155.083 L 179.525 155.790 L 180.232 156.497 L 180.939 157.204 L 181.646 157.911 L 182.353 158.619 L 183.060 159.326 L 183.767 160.033 L 184.474 160.740 L 185.181 161.447 L 185.924 162.116 L 186.677 162.774 L 187.430 163.432 L 188.184 164.089 L 188.937 164.747 L 189.690 165.405 L 190.443 166.063 L 191.197 166.720 L 191.953 167.374 L 192.725 168.010 L 193.496 168.647 L 194.268 169.283 L 195.039 169.919 L 195.811 170.555 L 196.583 171.190 L 197.404 171.762 L 198.224 172.334 L 199.045 172.905 L 199.941 173.018 L 200.648 172.311 L 201.355 171.604 L 202.057 170.891 L 202.677 170.107 L 203.298 169.323 L 203.919 168.539 L 204.539 167.755 L 205.160 166.971 L 205.745 166.160 L 206.329 165.348 L 206.912 164.536 L 207.496 163.724 L 208.079 162.912 L 208.663 162.100 L 209.211 161.265 L 209.704 160.395 L 210.197 159.525 L 210.690 158.655 L 211.183 157.785 L 211.676 156.915 L 211.847 156.613" />
<path fill="none" stroke="#000000" stroke-width="1" stroke-linecap="round" stroke-linejoin="round" d="M 270.847 18.112 L 271.122 19.074 L 271.334 20.051 L 271.169 21.011 L 270.761 21.925 L 270.354 22.838 L 269.947 23.751 L 269.660 24.700 L 269.500 25.687 L 269.340 26.675 L 269.179 27.662 L 269.019 28.649 L 268.859 29.636 L 268.699 30.623 L 268.539 31.610 L 268.400 32.600 L 268.327 33.597 L 268.255 34.594 L 268.183 35.592 L 268.110 36.589 L 268.038 37.586 L 267.965 38.584 L 267.893 39.581 L 267.821 40.579 L 267.748 41.576 L 267.676 42.573 L 267.603 43.571 L 267.674 44.566 L 267.780 45.560 L 267.886 46.554 L 267.992 47.549 L 268.098 48.543 L 268.204 49.538 L 268.309 50.532 L 268.415 51.526 L 268.521 52.521 L 268.627 53.515 L 268.744 54.508 L 268.883 55.498 L 269.022 56.489 L 269.161 57.479 L 269.301 58.469 L 269.440 59.459 L 269.579 60.450 L 269.718 61.440 L 269.856 62.430 L 269.994 63.421 L 270.132 64.411 L 270.270 65.402 L 270.414 66.391 L 270.567 67.380 L 270.722 68.367 L 270.895 69.352 L 271.063 70.338 L 271.188 71.330 L 271.340 72.318 L 271.492 73.306 L 271.620 74.298 L 271.772 75.286 L 271.951 76.270 L 272.121 77.255 L 272.285 78.242 L 272.469 79.225 L 272.599 80.215 L 272.718 81.208 L 272.859 82.198 L 273.001 83.188 L 273.142 84.178 L 273.283 85.168 L 273.420 86.159 L 273.552 87.150 L 273.684 88.141 L 273.816 89.132 L 273.948 90.124 L 274.052 91.118 L 274.129 92.115 L 274.235 93.108 L 274.399 94.095 L 274.544 95.084 L 274.644 96.079 L 274.750 97.073 L 274.847 98.068 L 274.847 99.068 L 274.847 98.824 L 274.847 98.734 L 274.847 99.734 L 274.847 100.491 L 274.847 99.491 L 274.847 98.491 L 274.847 97.491 L 274.768 96.494 L 274.684 95.497 L 274.546 94.507 L 274.405 93.517 L 274.269 92.526 L 274.137 91.535 L 274.004 90.544 L 273.872 89.553 L 273.740 88.561 L 273.626 87.568 L 273.526 86.573 L 273.584 87.314 L 273.684 88.309 L 273.816 89.301 L 273.949 90.292 L 274.515 90.697 L 275.502 90.536 L 276.489 90.374 L 277.459 90.148 L 278.401 89.813 L 279.344 89.478 L 280.278 89.129 L 281.032 88.473 L 281.786 87.816 L 282.541 87.160 L 283.295 86.503 L 284.049 85.846 L 284.803 85.190 L 285.557 84.533 L 286.312 83.876 L 287.066 83.220 L 287.820 82.563 L 288.574 81.906 L 289.318 81.238 L 290.050 80.557 L 290.782 79.876 L 291.515 79.195 L 292.247 78.514 L 292.980 77.833 L 293.712 77.153 L 294.444 76.472 L 295.186 75.800 L 295.936 75.140 L 296.687 74.479 L 297.438 73.819 L 298.189 73.158 L 298.940 72.498 L 299.690 71.837 L 300.441 71.177 L 301.132 71.192 L 301.754 71.975 L 302.376 72.758 L 302.997 73.541 L 303.619 74.324 L 304.241 75.107 L 304.863 75.891 L 305.534 76.622 L 306.345 77.208 L 307.155 77.793 L 307.966 78.379 L 308.777 78.964 L 309.587 79.550 L 310.398 80.135 L 311.209 80.721 L 312.030 81.291 L 312.857 81.853 L 313.685 82.415 L 314.512 82.977 L 315.339 83.539 L 316.166 84.101 L 316.993 84.663 L 317.847 85.180 L 318.727 85.656 L 319.607 86.131 L 320.486 86.607 L 321.366 87.082 L 322.246 87.558 L 322.973 88.238 L 323.680 88.945 L 324.387 89.653 L 325.100 90.353 L 325.825 91.042 L 326.608 91.662 L 327.414 92.254 L 328.245 92.804 L 329.140 93.252 L 330.034 93.699 L 330.928 94.147 L 331.865 94.492 L 332.813 94.809 L 333.762 95.126 L 334.710 95.443 L 335.687 95.656 L 336.665 95.867 L 337.648 96.036 L 338.645 96.110 L 339.312 95.469 L 339.842 94.621 L 340.372 93.773 L 340.839 92.893 L 341.220 91.968 L 341.600 91.043 L 341.981 90.118 L 342.361 89.193 L 342.742 88.269 L 343.096 87.334 L 343.383 86.377 L 343.670 85.419 L 343.958 84.461 L 344.245 83.503 L 344.532 82.545 L 344.820 81.588 L 345.107 80.630 L 345.394 79.672 L 345.590 78.694 L 345.721 77.703 L 345.852 76.712 L 345.982 75.720 L 346.113 74.729 L 346.244 73.737 L 346.374 72.746 L 346.505 71.754 L 346.635 70.763 L 346.736 69.768 L 346.822 68.772 L 346.907 67.776 L 346.993 66.779 L 347.078 65.783 L 347.164 64.787 L 347.249 63.790 L 347.335 62.794 L 347.420 61.798 L 347.506 60.801 L 347.591 59.805 L 347.676 58.809 L 347.762 57.812 L 347.847 56.816 L 347.932 55.819 L 348.017 54.823 L 348.103 53.827 L 348.188 52.830 L 348.273 51.834 L 348.358 50.838 L 348.444 49.841 L 348.661 48.865 L 348.882 47.890 L 349.102 46.915 L 349.323 45.939 L 349.544 44.964 L 349.764 43.989 L 349.985 43.013 L 350.206 42.038 L 350.426 41.063 L 350.647 40.087 L 350.868 39.112 L 351.088 38.137 L 351.320 37.164 L 351.594 36.202 L 351.868 35.240 L 352.142 34.279 L 352.416 33.317 L 352.690 32.355 L 352.964 31.394 L 353.238 30.432 L 353.512 29.470 L 353.786 28.509 L 354.210 27.603 L 354.634 26.697 L 355.057 25.791 L 355.481 24.885 L 355.788 24.244 L 355.379 25.157 L 354.970 26.069 L 354.561 26.982 L 354.152 27.894 L 353.742 28.807 L 353.465 29.766 L 353.211 30.733 L 352.958 31.700 L 352.704 32.668 L 352.450 33.635 L 352.197 34.602 L 351.943 35.570 L 351.689 36.537 L 351.435 37.504 L 351.182 38.471 L 350.995 39.449 L 350.941 40.448 L 350.887 41.446 L 350.833 42.445 L 350.779 43.443 L 350.724 44.442 L 350.670 45.440 L 350.616 46.439 L 350.562 47.437 L 350.508 48.436 L 350.734 49.370 L 351.217 50.246 L 351.700 51.121 L 352.183 51.997 L 352.675 52.818 L 353.389 52.119 L 354.104 51.419 L 354.818 50.719 L 355.533 50.020 L 355.900 49.097 L 356.240 48.156 L 356.809 47.455 L 357.763 47.155 L 358.717 46.856 L 359.671 46.556 L 360.625 46.260 L 361.624 46.314 L 362.622 46.369 L 363.621 46.423 L 364.619 46.480 L 365.616 46.560 L 366.613 46.640 L 367.610 46.721 L 368.573 46.855 L 369.102 47.704 L 369.630 48.553 L 370.313 49.273 L 371.052 49.947 L 371.791 50.622 L 372.529 51.296 L 373.268 51.970 L 374.006 52.644 L 374.745 53.318 L 375.478 53.998 L 376.199 54.691 L 376.921 55.384 L 377.642 56.076 L 378.363 56.769 L 379.084 57.462 L 379.806 58.154 L 380.527 58.847 L 381.267 59.519 L 382.028 60.167 L 382.789 60.816 L 383.550 61.464 L 384.312 62.113 L 385.073 62.762 L 385.771 63.460 L 386.218 64.354 L 386.713 65.222 L 387.242 66.070 L 387.689 66.964 L 388.180 67.835 L 388.649 68.717 L 389.118 69.600 L 389.603 70.474 L 390.096 71.345 L 390.590 72.214 L 391.087 73.082 L 391.601 73.939 L 392.115 74.797 L 392.629 75.655 L 393.153 76.507 L 393.695 77.347 L 394.238 78.187 L 394.780 79.027 L 395.322 79.867 L 395.887 80.692 L 396.498 81.484 L 397.108 82.276 L 397.719 83.068 L 398.329 83.860 L 398.940 84.652 L 399.550 85.444 L 400.266 86.141 L 400.992 86.828 L 401.718 87.516 L 402.445 88.203 L 403.171 88.890 L 403.897 89.578 L 404.623 90.265 L 405.398 90.889 L 406.257 91.401 L 407.116 91.913 L 407.975 92.425 L 408.834 92.936 L 409.693 93.448 L 410.552 93.960 L 411.435 94.421 L 412.380 94.749 L 413.324 95.077 L 414.269 95.405 L 415.214 95.734 L 416.180 95.961 L 417.176 96.045 L 418.173 96.112 L 418.891 95.491 L 419.550 94.738 L 420.075 93.889 L 420.587 93.030 L 421.100 92.171 L 421.612 91.312 L 422.095 90.438 L 422.536 89.540 L 422.977 88.643 L 423.419 87.745 L 423.860 86.848 L 424.301 85.951 L 424.690 85.033 L 424.986 84.077 L 425.282 83.122 L 425.578 82.167 L 425.874 81.212 L 426.171 80.257 L 426.363 79.276 L 426.542 78.292 L 426.721 77.309 L 426.900 76.325 L 427.056 75.337 L 427.211 74.349 L 427.367 73.361 L 427.538 72.376 L 427.711 71.391 L 427.875 70.405 L 428.007 69.413 L 428.139 68.422 L 428.277 67.432 L 428.419 66.442 L 428.539 65.450 L 428.616 64.453 L 428.706 63.457 L 428.871 62.471 L 429.024 61.483 L 429.100 60.486 L 429.177 59.489 L 429.326 58.500 L 429.478 57.512 L 429.577 56.517 L 429.660 55.521 L 429.774 54.527 L 429.888 53.534 L 429.988 52.539 L 430.126 51.549 L 430.278 50.560 L 430.430 49.572 L 430.582 48.584 L 430.734 47.595 L 430.886 46.607 L 431.038 45.618 L 431.190 44.630 L 431.342 43.642 L 431.506 42.655 L 431.671 41.669 L 431.835 40.682 L 432.029 39.701 L 432.225 38.721 L 432.421 37.740 L 432.647 36.767 L 432.900 35.799 L 433.152 34.831 L 433.405 33.864 L 433.687 32.905 L 433.991 31.952 L 434.296 31.000 L 434.601 30.048 L 434.919 29.100 L 435.290 28.171 L 435.661 27.243 L 436.033 26.314 L 436.404 25.386 L 436.840 24.487 L 437.303 23.600 L 437.765 22.714 L 438.228 21.827 L 438.721 20.959 L 439.264 20.119 L 439.808 19.279 L 440.351 18.440 L 440.976 17.659 L 441.601 16.878 L 442.297 16.162 L 443.004 15.455 L 443.712 14.748 L 443.847 14.613" />
</svg>