<?xml version="1.0" encoding="UTF-8"?>
<svg xmlns="http://www.w3.org/2000/svg" viewBox="-0.812 -9.328 527.880 197.381">
<path fill="none" stroke="#000000" stroke-width="1" stroke-linecap="round" stroke-linejoin="round" d="M 14.128 135.613 L 21.128 135.613 L 26.116 135.920 L 36.110 136.279 L 58.066 137.609 L 63.565 137.496 L 69.063 137.382 L 73.055 137.128 L 77.046 136.874 L 79.524 136.544 L 82.001 136.213 L 82.952 136.275 L 83.849 136.716 L 84.746 137.158 L 86.613 137.876 L 88.479 138.594 L 92.309 139.747 L 96.138 140.900 L 104.982 142.555 L 111.926 143.441 L 117.893 144.070 L 130.861 144.977 L 133.857 145.112 L 150.628 145.113" />
<path fill="none" stroke="#000000" stroke-width="1" stroke-linecap="round" stroke-linejoin="round" d="M 82.628 136.113 L 82.617 134.113 L 82.605 132.113 L 82.129 125.129 L 81.280 115.166 L 80.271 107.230 L 79.461 100.277 L 79.295 98.284 L 78.499 92.341 L 77.957 87.372 L 77.788 84.377 L 77.166 77.405 L 76.129 67.459 L 75.230 57.500 L 75.116 55.505 L 74.649 50.527 L 74.292 43.539 L 74.128 39.542 L 74.128 26.542 L 74.309 21.545 L 74.511 18.553 L 74.994 14.584 L 75.628 10.639 L 76.128 8.613" />
<path fill="none" stroke="#000000" stroke-width="1" stroke-linecap="round" stroke-linejoin="round" d="M 201.128 13.613 L 199.776 16.286 L 198.764 19.107 L 198.203 22.054 L 198.106 23.046 L 197.967 27.044 L 198.270 32.034 L 199.266 37.949 L 200.540 42.783 L 202.101 47.532 L 204.739 54.016 L 207.367 59.409 L 208.824 62.031 L 212.392 68.052 L 215.718 73.045 L 221.546 81.170 L 224.102 84.247 L 226.103 86.482 L 229.336 90.295 L 233.576 94.539 L 235.799 96.552 L 238.908 99.069 L 243.042 101.881 L 243.889 102.410 L 249.255 105.093 L 250.185 105.454 L 255.920 107.208 L 258.857 107.820 L 260.837 108.083 L 259.426 108.009 L 258.567 108.233 L 249.861 119.196 L 241.750 130.607 L 242.413 130.858 L 243.367 130.858 L 252.906 119.282 L 261.915 108.565 L 262.701 108.062 L 264.677 107.763 L 265.563 107.333 L 270.240 102.125 L 274.917 96.917 L 278.182 93.130 L 278.607 92.296 L 278.257 87.309 L 277.141 78.379 L 275.007 65.555 L 272.964 56.790 L 272.117 53.913 L 271.269 51.036 L 271.141 50.060 L 271.718 47.628 L 272.295 45.197 L 273.724 37.325 L 275.153 29.454 L 276.253 22.541 L 277.478 17.695 L 279.118 12.974 L 280.393 10.258 L 281.408 8.536 L 282.715 7.026 L 284.128 5.612" />
<path fill="none" stroke="#000000" stroke-width="1" stroke-linecap="round" stroke-linejoin="round" d="M 203.628 51.613 L 205.283 55.254 L 207.071 58.832 L 209.988 64.075 L 212.067 67.490 L 212.859 67.153 L 226.401 58.632 L 227.285 58.182 L 236.866 55.316 L 246.446 52.450 L 256.055 49.682 L 265.664 46.913 L 266.540 47.092 L 268.070 48.265 L 269.599 49.439 L 271.128 50.613" />
<path fill="none" stroke="#000000" stroke-width="1" stroke-linecap="round" stroke-linejoin="round" d="M 232.128 140.613 L 239.553 148.037 L 246.977 155.462 L 251.995 160.342 L 259.565 166.875 L 264.227 170.652 L 265.928 171.882 L 267.628 173.113" />
<path fill="none" stroke="#000000" stroke-width="1" stroke-linecap="round" stroke-linejoin="round" d="M 339.128 19.613 L 339.524 20.508 L 339.427 20.958 L 339.330 21.407 L 338.544 23.778 L 337.758 26.149 L 337.111 30.602 L 336.464 35.055 L 336.022 41.038 L 335.580 47.020 L 336.574 54.454 L 337.568 61.887 L 341.147 84.604 L 341.766 89.566 L 341.943 91.558 L 342.279 93.528 L 342.628 96.507 L 342.628 98.507 L 342.621 95.385 L 342.511 94.391 L 341.607 88.460 L 340.804 82.514 L 341.063 84.023 L 341.689 88.983 L 341.991 89.766 L 356.960 88.790 L 378.850 90.960 L 399.810 92.260 L 400.710 92.636 L 405.843 95.742 L 406.707 96.034 L 407.547 94.795 L 408.386 93.557 L 409.522 90.781 L 410.657 88.004 L 411.821 83.657 L 412.986 79.311 L 413.187 78.333 L 414.630 67.428 L 415.749 54.477 L 415.889 53.488 L 417.308 46.633 L 418.726 39.779 L 420.072 34.446 L 421.419 29.114 L 422.427 26.828 L 423.436 24.541 L 422.420 26.857 L 421.405 29.172 L 420.192 34.023 L 418.980 38.874 L 418.939 39.802 L 423.790 46.164 L 428.641 52.525 L 429.340 53.226 L 435.368 57.689 L 441.396 62.151 L 442.274 62.602 L 455.588 66.933 L 459.927 74.804 L 462.551 79.059 L 465.423 83.152 L 467.780 85.738 L 470.138 88.325 L 472.898 90.477 L 475.657 92.629 L 476.532 93.104 L 478.794 94.170 L 481.055 95.235 L 481.998 95.545 L 483.470 95.826 L 484.942 96.108 L 485.942 96.112 L 486.765 95.616 L 488.038 94.073 L 490.458 89.698 L 491.728 86.439 L 492.998 83.179 L 494.329 78.360 L 494.558 77.388 L 495.516 71.465 L 496.232 66.517 L 497.020 59.567 L 497.311 57.589 L 497.488 55.597 L 498.892 45.697 L 500.579 36.857 L 501.258 33.935 L 502.111 31.059 L 503.896 26.391 L 505.137 23.660 L 505.570 22.759 L 507.073 20.163 L 508.728 17.663 L 509.379 16.904 L 510.790 15.491 L 512.128 14.613" />
</svg>