<?xml version="1.0" encoding="UTF-8"?>
<svg xmlns="http://www.w3.org/2000/svg" viewBox="-0.812 -9.328 527.880 197.287">
<path fill="none" stroke="#000000" stroke-width="1" stroke-linecap="round" stroke-linejoin="round" d="M 14.128 135.613 L 15.128 135.613 L 16.128 135.613 L 17.128 135.613 L 18.128 135.613 L 19.128 135.613 L 20.128 135.613 L 21.128 135.613 L 22.126 135.662 L 23.121 135.762 L 24.119 135.820 L 25.118 135.870 L 26.116 135.920 L 27.115 135.963 L 28.115 135.997 L 29.114 136.032 L 30.114 136.066 L 31.113 136.100 L 32.112 136.136 L 33.112 136.171 L 34.111 136.207 L 35.110 136.243 L 36.110 136.279 L 37.108 136.331 L 38.107 136.383 L 39.106 136.436 L 40.102 136.519 L 41.098 136.610 L 42.098 136.613 L 43.096 136.661 L 44.095 136.720 L 45.093 136.780 L 46.091 136.844 L 47.089 136.908 L 48.087 136.972 L 49.085 137.035 L 50.083 137.099 L 51.081 137.164 L 52.078 137.229 L 53.076 137.293 L 54.074 137.358 L 55.072 137.423 L 56.070 137.488 L 57.068 137.552 L 58.066 137.609 L 59.066 137.591 L 60.066 137.573 L 61.066 137.555 L 62.065 137.538 L 63.065 137.520 L 64.065 137.502 L 65.065 137.484 L 66.065 137.467 L 67.065 137.449 L 68.065 137.431 L 69.063 137.382 L 70.061 137.322 L 71.060 137.262 L 72.058 137.202 L 73.056 137.142 L 74.054 137.082 L 75.052 137.022 L 76.051 136.962 L 77.046 136.874 L 78.038 136.746 L 79.029 136.617 L 80.021 136.489 L 81.013 136.360 L 82.001 136.213 L 82.952 136.275 L 83.847 136.722 L 84.746 137.158 L 85.679 137.517 L 86.613 137.876 L 87.546 138.235 L 88.479 138.594 L 89.425 138.916 L 90.384 139.200 L 91.343 139.483 L 92.302 139.766 L 93.261 140.050 L 94.220 140.333 L 95.179 140.616 L 96.138 140.900 L 97.117 141.103 L 98.099 141.291 L 99.081 141.479 L 100.063 141.667 L 101.045 141.856 L 102.027 142.044 L 103.010 142.232 L 103.992 142.420 L 104.982 142.555 L 105.974 142.682 L 106.966 142.808 L 107.958 142.935 L 108.950 143.061 L 109.942 143.188 L 110.934 143.315 L 111.926 143.441 L 112.920 143.547 L 113.915 143.651 L 114.909 143.756 L 115.904 143.861 L 116.898 143.966 L 117.893 144.070 L 118.889 144.157 L 119.886 144.230 L 120.884 144.304 L 121.881 144.378 L 122.878 144.451 L 123.877 144.509 L 124.875 144.568 L 125.873 144.631 L 126.870 144.708 L 127.867 144.784 L 128.865 144.850 L 129.862 144.917 L 130.861 144.977 L 131.859 145.033 L 132.858 145.088 L 133.857 145.112 L 134.857 145.112 L 135.857 145.112 L 136.857 145.113 L 137.857 145.113 L 138.857 145.113 L 139.857 145.113 L 140.857 145.113 L 141.857 145.113 L 142.857 145.113 L 143.857 145.113 L 144.857 145.113 L 145.857 145.113 L 146.857 145.113 L 147.857 145.113 L 148.857 145.113 L 149.857 145.113 L 150.628 145.113" />
<path fill="none" stroke="#000000" stroke-width="1" stroke-linecap="round" stroke-linejoin="round" d="M 82.628 136.113 L 82.628 135.113 L 82.628 134.113 L 82.593 133.113 L 82.559 132.114 L 82.524 131.114 L 82.489 130.115 L 82.449 129.116 L 82.380 128.118 L 82.310 127.121 L 82.240 126.123 L 82.171 125.125 L 82.101 124.128 L 82.032 123.130 L 81.962 122.133 L 81.866 121.137 L 81.769 120.142 L 81.672 119.147 L 81.574 118.152 L 81.477 117.156 L 81.380 116.161 L 81.281 115.166 L 81.157 114.174 L 81.033 113.181 L 80.909 112.189 L 80.785 111.197 L 80.660 110.205 L 80.536 109.212 L 80.418 108.219 L 80.307 107.226 L 80.178 106.234 L 80.046 105.243 L 79.921 104.251 L 79.811 103.257 L 79.710 102.262 L 79.606 101.267 L 79.482 100.275 L 79.386 99.280 L 79.295 98.284 L 79.143 97.295 L 78.991 96.307 L 78.900 95.312 L 78.823 94.315 L 78.712 93.321 L 78.579 92.330 L 78.450 91.339 L 78.339 90.345 L 78.229 89.351 L 78.120 88.357 L 78.025 87.361 L 77.930 86.366 L 77.835 85.370 L 77.745 84.374 L 77.658 83.378 L 77.572 82.382 L 77.485 81.386 L 77.404 80.389 L 77.324 79.392 L 77.244 78.395 L 77.164 77.399 L 77.068 76.403 L 76.957 75.409 L 76.847 74.416 L 76.737 73.422 L 76.626 72.428 L 76.527 71.433 L 76.427 70.438 L 76.328 69.443 L 76.228 68.448 L 76.129 67.453 L 76.035 66.457 L 75.942 65.461 L 75.849 64.466 L 75.755 63.470 L 75.662 62.474 L 75.573 61.478 L 75.486 60.482 L 75.400 59.486 L 75.313 58.490 L 75.229 57.493 L 75.146 56.497 L 75.115 55.498 L 75.005 54.504 L 74.907 53.509 L 74.816 52.513 L 74.731 51.517 L 74.648 50.520 L 74.628 49.521 L 74.596 48.522 L 74.519 47.525 L 74.448 46.528 L 74.396 45.529 L 74.343 44.531 L 74.291 43.532 L 74.250 42.533 L 74.208 41.534 L 74.167 40.535 L 74.128 39.535 L 74.128 38.535 L 74.128 37.535 L 74.128 36.535 L 74.128 35.535 L 74.128 34.535 L 74.128 33.535 L 74.128 32.535 L 74.128 31.535 L 74.128 30.535 L 74.128 29.535 L 74.128 28.535 L 74.128 27.535 L 74.128 26.535 L 74.156 25.536 L 74.193 24.537 L 74.230 23.537 L 74.267 22.538 L 74.309 21.539 L 74.368 20.541 L 74.426 19.542 L 74.511 18.546 L 74.628 17.554 L 74.754 16.563 L 74.874 15.570 L 74.995 14.578 L 75.159 13.591 L 75.324 12.605 L 75.493 11.619 L 75.628 10.633 L 75.826 9.653 L 76.101 8.692 L 76.128 8.613" />
<path fill="none" stroke="#000000" stroke-width="1" stroke-linecap="round" stroke-linejoin="round" d="M 201.128 13.613 L 200.615 14.468 L 200.100 15.326 L 199.599 16.190 L 199.248 17.126 L 198.955 18.081 L 198.692 19.046 L 198.464 20.020 L 198.267 20.999 L 198.143 21.992 L 197.984 22.979 L 197.875 23.973 L 197.778 24.968 L 197.687 25.964 L 197.657 26.960 L 197.740 27.956 L 197.826 28.953 L 197.916 29.949 L 198.017 30.943 L 198.127 31.937 L 198.268 32.927 L 198.454 33.910 L 198.628 34.888 L 198.714 35.882 L 198.879 36.868 L 199.075 37.849 L 199.316 38.819 L 199.574 39.785 L 199.838 40.750 L 200.139 41.703 L 200.440 42.657 L 200.741 43.610 L 201.065 44.556 L 201.394 45.501 L 201.722 46.445 L 202.051 47.390 L 202.412 48.322 L 202.783 49.251 L 203.155 50.179 L 203.528 51.107 L 203.909 52.032 L 204.289 52.956 L 204.675 53.879 L 205.098 54.785 L 205.520 55.691 L 205.952 56.593 L 206.399 57.488 L 206.846 58.382 L 207.293 59.277 L 207.779 60.151 L 208.265 61.025 L 208.750 61.899 L 209.248 62.766 L 209.755 63.628 L 210.262 64.490 L 210.774 65.349 L 211.298 66.201 L 211.822 67.053 L 212.356 67.898 L 212.892 68.742 L 213.439 69.579 L 213.994 70.411 L 214.549 71.243 L 215.103 72.075 L 215.658 72.907 L 216.213 73.739 L 216.767 74.572 L 217.329 75.399 L 217.902 76.218 L 218.480 77.034 L 219.068 77.843 L 219.657 78.651 L 220.257 79.451 L 220.857 80.251 L 221.457 81.051 L 222.094 81.822 L 222.741 82.584 L 223.374 83.358 L 224.008 84.132 L 224.673 84.878 L 225.346 85.618 L 226.007 86.368 L 226.648 87.136 L 227.288 87.904 L 227.949 88.654 L 228.618 89.397 L 229.282 90.145 L 229.940 90.898 L 230.634 91.618 L 231.341 92.325 L 232.048 93.032 L 232.755 93.739 L 233.462 94.446 L 234.169 95.153 L 234.890 95.846 L 235.638 96.510 L 236.392 97.166 L 237.160 97.806 L 237.929 98.446 L 238.720 99.057 L 239.520 99.657 L 240.320 100.257 L 241.136 100.834 L 241.975 101.379 L 242.813 101.924 L 243.651 102.469 L 244.514 102.972 L 245.408 103.419 L 246.303 103.867 L 247.197 104.314 L 248.092 104.761 L 249.028 105.112 L 249.965 105.460 L 250.903 105.807 L 251.841 106.154 L 252.785 106.482 L 253.759 106.707 L 254.733 106.932 L 255.708 107.157 L 256.682 107.381 L 257.664 107.570 L 258.649 107.744 L 259.634 107.917 L 260.625 108.050 L 260.636 108.113 L 259.640 108.030 L 258.673 108.035 L 257.866 108.626 L 257.059 109.216 L 256.252 109.807 L 255.444 110.396 L 254.632 110.980 L 253.820 111.564 L 253.009 112.148 L 252.282 112.831 L 251.585 113.548 L 250.888 114.265 L 250.501 114.160 L 250.114 114.056 L 249.525 114.864 L 248.935 115.672 L 248.346 116.479 L 247.756 117.287 L 247.167 118.095 L 246.577 118.903 L 245.988 119.710 L 245.401 120.520 L 244.823 121.336 L 244.245 122.152 L 243.667 122.968 L 243.089 123.784 L 242.510 124.600 L 241.932 125.416 L 241.354 126.232 L 240.748 127.026 L 240.087 127.776 L 239.426 128.527 L 238.765 129.277 L 238.104 130.028 L 237.444 130.778 L 236.783 131.529 L 236.122 132.279 L 235.663 133.126 L 235.434 134.099 L 235.191 135.069 L 234.948 136.039 L 234.914 137.030 L 234.956 138.030 L 234.997 139.029 L 235.108 139.974 L 235.738 139.634 L 236.055 138.685 L 236.341 137.730 L 236.468 136.738 L 236.595 135.746 L 236.839 135.345 L 237.084 134.944 L 237.765 134.212 L 238.446 133.479 L 239.127 132.747 L 239.808 132.014 L 240.489 131.282 L 241.170 130.550 L 241.850 129.817 L 242.531 129.085 L 243.208 128.348 L 243.879 127.607 L 244.550 126.866 L 245.221 126.124 L 245.892 125.383 L 246.563 124.642 L 247.234 123.900 L 247.905 123.159 L 248.577 122.417 L 249.251 121.679 L 249.927 120.942 L 250.603 120.205 L 251.279 119.468 L 251.955 118.731 L 252.631 117.994 L 253.307 117.258 L 253.983 116.521 L 254.659 115.784 L 255.348 115.059 L 256.043 114.341 L 256.739 113.622 L 257.417 112.889 L 258.036 112.103 L 258.654 111.317 L 259.282 110.541 L 260.061 109.913 L 260.839 109.286 L 261.618 108.658 L 262.424 108.096 L 263.417 107.972 L 264.404 107.816 L 263.870 107.931 L 262.881 108.076 L 261.883 108.112 L 261.373 108.112 L 262.373 108.112 L 263.365 108.007 L 264.339 107.790 L 265.207 107.359 L 265.902 106.640 L 266.598 105.922 L 267.293 105.203 L 267.989 104.484 L 268.684 103.766 L 269.379 103.047 L 270.071 102.325 L 270.740 101.581 L 271.408 100.838 L 272.077 100.095 L 272.746 99.351 L 273.415 98.608 L 274.084 97.865 L 274.746 97.115 L 275.399 96.358 L 276.052 95.601 L 276.705 94.843 L 277.358 94.086 L 278.011 93.328 L 278.628 92.558 L 278.628 91.558 L 278.626 90.558 L 278.582 89.559 L 278.539 88.560 L 278.495 87.561 L 278.448 86.562 L 278.388 85.564 L 278.327 84.565 L 278.267 83.567 L 278.206 82.569 L 278.146 81.571 L 278.038 80.577 L 277.910 79.585 L 277.782 78.594 L 277.654 77.602 L 277.526 76.610 L 277.383 75.620 L 277.225 74.633 L 277.067 73.646 L 276.909 72.658 L 276.737 71.673 L 276.531 70.695 L 276.325 69.716 L 276.119 68.738 L 275.894 67.763 L 275.669 66.789 L 275.430 65.818 L 275.187 64.848 L 274.944 63.878 L 274.702 62.908 L 274.445 61.941 L 274.182 60.976 L 273.900 60.017 L 273.612 59.059 L 273.325 58.102 L 273.045 57.142 L 272.782 56.177 L 272.519 55.212 L 272.256 54.247 L 271.965 53.291 L 271.649 52.342 L 271.333 51.393 L 271.128 50.427 L 271.294 49.447 L 271.537 48.477 L 271.780 47.507 L 272.022 46.537 L 272.229 45.559 L 272.408 44.575 L 272.587 43.591 L 272.765 42.607 L 272.944 41.623 L 273.123 40.639 L 273.302 39.656 L 273.481 38.672 L 273.660 37.688 L 273.839 36.704 L 274.018 35.720 L 274.197 34.736 L 274.375 33.752 L 274.554 32.768 L 274.733 31.785 L 274.912 30.801 L 275.091 29.817 L 275.253 28.830 L 275.410 27.842 L 275.567 26.855 L 275.724 25.867 L 275.881 24.880 L 276.038 23.892 L 276.195 22.905 L 276.386 21.924 L 276.636 20.956 L 276.886 19.988 L 277.136 19.019 L 277.386 18.051 L 277.639 17.084 L 277.977 16.143 L 278.316 15.202 L 278.655 14.261 L 278.993 13.320 L 279.385 12.401 L 279.810 11.496 L 280.236 10.591 L 280.704 9.709 L 281.218 8.851 L 281.799 8.041 L 282.454 7.286 L 283.161 6.579 L 283.869 5.872 L 284.128 5.612" />
<path fill="none" stroke="#000000" stroke-width="1" stroke-linecap="round" stroke-linejoin="round" d="M 203.628 51.613 L 204.042 52.523 L 204.456 53.433 L 204.870 54.344 L 205.283 55.254 L 205.730 56.149 L 206.177 57.043 L 206.624 57.938 L 207.071 58.832 L 207.549 59.711 L 208.031 60.587 L 208.513 61.463 L 208.996 62.339 L 209.492 63.207 L 209.988 64.075 L 210.497 64.936 L 211.027 65.784 L 211.544 66.639 L 211.806 67.065 L 212.067 67.490 L 212.988 67.530 L 213.983 67.434 L 214.978 67.339 L 215.865 66.909 L 216.725 66.399 L 217.621 65.978 L 218.594 65.747 L 219.567 65.515 L 219.998 65.296 L 220.428 65.076 L 221.183 64.421 L 221.939 63.766 L 222.694 63.111 L 223.450 62.456 L 224.206 61.801 L 224.961 61.146 L 225.717 60.490 L 226.472 59.835 L 227.228 59.180 L 227.983 58.525 L 228.739 57.870 L 229.494 57.215 L 230.249 56.559 L 231.004 55.903 L 231.759 55.248 L 232.514 54.592 L 233.269 53.936 L 234.024 53.280 L 234.779 52.624 L 235.534 51.969 L 236.289 51.313 L 237.044 50.657 L 237.799 50.001 L 238.554 49.345 L 239.346 48.741 L 240.200 48.221 L 241.054 47.700 L 241.908 47.180 L 242.762 46.659 L 243.616 46.139 L 244.469 45.618 L 245.323 45.098 L 246.177 44.577 L 247.031 44.057 L 247.885 43.536 L 248.739 43.016 L 249.593 42.495 L 250.489 42.083 L 251.469 41.888 L 252.450 41.693 L 253.400 41.845 L 254.331 42.211 L 255.261 42.577 L 256.192 42.943 L 257.122 43.309 L 258.053 43.675 L 258.983 44.041 L 259.915 44.406 L 260.849 44.763 L 261.783 45.120 L 262.717 45.476 L 263.651 45.833 L 264.585 46.190 L 265.520 46.547 L 266.406 46.990 L 267.203 47.594 L 267.999 48.199 L 268.796 48.803 L 269.593 49.407 L 270.389 50.012 L 270.759 50.335 L 271.128 50.659 L 271.406 51.614 L 271.733 52.559 L 272.084 53.495 L 272.128 53.613" />
<path fill="none" stroke="#000000" stroke-width="1" stroke-linecap="round" stroke-linejoin="round" d="M 232.128 140.613 L 232.835 141.320 L 233.542 142.027 L 234.249 142.734 L 234.957 143.441 L 235.664 144.148 L 236.371 144.855 L 237.078 145.562 L 237.785 146.269 L 238.492 146.976 L 239.199 147.684 L 239.906 148.391 L 240.613 149.098 L 241.321 149.805 L 242.028 150.512 L 242.735 151.219 L 243.442 151.926 L 244.149 152.633 L 244.856 153.340 L 245.563 154.048 L 246.270 154.755 L 246.977 155.462 L 247.689 156.164 L 248.407 156.860 L 249.125 157.557 L 249.842 158.253 L 250.560 158.950 L 251.278 159.646 L 251.995 160.342 L 252.734 161.016 L 253.491 161.669 L 254.249 162.321 L 255.006 162.974 L 255.764 163.627 L 256.521 164.280 L 257.279 164.933 L 258.036 165.586 L 258.794 166.239 L 259.565 166.875 L 260.342 167.504 L 261.119 168.134 L 261.896 168.763 L 262.673 169.393 L 263.450 170.022 L 264.227 170.652 L 265.032 171.246 L 265.838 171.837 L 266.645 172.428 L 267.451 173.019 L 268.174 172.528 L 268.856 171.797 L 269.538 171.066 L 270.188 170.307 L 270.784 169.504 L 271.380 168.701 L 271.975 167.898 L 272.571 167.095 L 273.167 166.292 L 273.763 165.489 L 274.328 164.663 L 274.890 163.837 L 275.453 163.010 L 276.016 162.184 L 276.579 161.357 L 277.141 160.530 L 277.704 159.704 L 278.267 158.877 L 278.830 158.051 L 279.128 157.613" />
<path fill="none" stroke="#000000" stroke-width="1" stroke-linecap="round" stroke-linejoin="round" d="M 339.128 19.613 L 339.524 20.508 L 339.427 20.958 L 339.330 21.407 L 339.007 22.353 L 338.683 23.299 L 338.359 24.245 L 338.035 25.192 L 337.758 26.149 L 337.613 27.138 L 337.469 28.128 L 337.325 29.118 L 337.180 30.107 L 337.036 31.097 L 336.892 32.086 L 336.747 33.076 L 336.603 34.065 L 336.464 35.055 L 336.388 36.052 L 336.312 37.049 L 336.236 38.047 L 336.160 39.044 L 336.084 40.041 L 336.008 41.038 L 335.932 42.035 L 335.856 43.032 L 335.780 44.029 L 335.704 45.026 L 335.628 46.023 L 335.580 47.020 L 335.708 48.012 L 335.836 49.003 L 335.964 49.995 L 336.092 50.987 L 336.220 51.979 L 336.348 52.970 L 336.476 53.962 L 336.604 54.954 L 336.734 55.946 L 336.873 56.936 L 337.012 57.926 L 337.151 58.916 L 337.290 59.907 L 337.429 60.897 L 337.568 61.887 L 337.716 62.876 L 337.868 63.865 L 338.020 64.853 L 338.172 65.841 L 338.330 66.829 L 338.490 67.816 L 338.666 68.800 L 338.837 69.785 L 338.961 70.777 L 339.113 71.766 L 339.265 72.754 L 339.409 73.744 L 339.550 74.734 L 339.708 75.721 L 339.887 76.705 L 340.058 77.690 L 340.222 78.676 L 340.386 79.663 L 340.551 80.649 L 340.703 81.637 L 340.848 82.627 L 341.000 83.615 L 341.147 84.604 L 341.264 85.597 L 341.380 86.591 L 341.502 87.583 L 341.634 88.574 L 341.766 89.566 L 341.860 90.561 L 341.943 91.558 L 342.089 92.546 L 342.254 93.533 L 342.369 94.525 L 342.470 95.520 L 342.580 96.514 L 342.628 97.512 L 342.628 98.512 L 342.628 99.380 L 342.628 100.047 L 342.628 99.047 L 342.628 98.047 L 342.628 97.047 L 342.628 96.047 L 342.572 95.049 L 342.472 94.054 L 342.335 93.064 L 342.194 92.074 L 342.040 91.086 L 341.876 90.100 L 341.712 89.113 L 341.562 88.125 L 341.426 87.134 L 341.291 86.143 L 341.156 85.152 L 341.023 84.161 L 340.891 83.170 L 340.810 82.381 L 340.963 83.369 L 341.115 84.358 L 341.235 85.350 L 341.351 86.344 L 341.469 87.337 L 341.601 88.328 L 341.733 89.319 L 342.304 89.611 L 343.253 89.298 L 344.177 88.944 L 344.856 88.210 L 345.534 87.475 L 346.213 86.740 L 346.891 86.006 L 347.609 85.310 L 348.332 84.619 L 349.054 83.928 L 349.777 83.237 L 350.166 83.427 L 350.556 83.617 L 350.665 84.611 L 350.823 85.519 L 351.727 85.093 L 352.632 84.667 L 353.537 84.242 L 354.442 83.816 L 355.347 83.391 L 356.252 82.965 L 357.157 82.540 L 358.053 82.096 L 358.945 81.644 L 359.837 81.192 L 360.729 80.739 L 361.621 80.287 L 362.513 79.835 L 363.405 79.383 L 364.296 78.930 L 365.237 78.594 L 366.182 78.267 L 367.127 77.940 L 368.072 77.612 L 369.017 77.285 L 369.962 76.958 L 370.907 76.630 L 371.852 76.303 L 372.752 76.416 L 373.612 76.926 L 374.473 77.436 L 375.333 77.947 L 376.193 78.457 L 377.053 78.967 L 377.913 79.477 L 378.757 80.014 L 379.600 80.552 L 380.443 81.090 L 381.286 81.628 L 382.129 82.166 L 382.972 82.704 L 383.815 83.242 L 384.671 83.758 L 385.527 84.275 L 386.383 84.791 L 387.240 85.307 L 388.096 85.824 L 388.953 86.340 L 389.652 87.044 L 390.311 87.796 L 391.018 88.503 L 391.736 89.199 L 392.465 89.883 L 393.247 90.506 L 394.029 91.129 L 394.820 91.740 L 395.690 92.233 L 396.560 92.725 L 397.431 93.218 L 398.301 93.710 L 399.226 94.089 L 400.154 94.462 L 401.082 94.835 L 402.010 95.207 L 402.965 95.493 L 403.939 95.723 L 404.912 95.952 L 405.903 96.072 L 406.817 95.916 L 407.284 95.032 L 407.751 94.148 L 408.218 93.263 L 408.685 92.379 L 409.037 91.444 L 409.368 90.501 L 409.700 89.558 L 410.032 88.614 L 410.364 87.671 L 410.696 86.728 L 411.028 85.784 L 411.333 84.833 L 411.572 83.862 L 411.811 82.891 L 412.050 81.920 L 412.289 80.949 L 412.529 79.978 L 412.768 79.007 L 413.007 78.036 L 413.246 77.065 L 413.485 76.094 L 413.724 75.123 L 413.942 74.149 L 414.049 73.154 L 414.155 72.160 L 414.262 71.166 L 414.369 70.171 L 414.476 69.177 L 414.583 68.183 L 414.689 67.189 L 414.796 66.194 L 414.903 65.200 L 415.010 64.206 L 415.116 63.211 L 415.209 62.216 L 415.299 61.220 L 415.389 60.224 L 415.479 59.228 L 415.569 58.232 L 415.659 57.236 L 415.749 56.240 L 415.839 55.244 L 415.929 54.248 L 416.019 53.252 L 416.109 52.256 L 416.199 51.260 L 416.321 50.269 L 416.532 49.292 L 416.744 48.314 L 416.955 47.337 L 417.166 46.360 L 417.377 45.382 L 417.589 44.405 L 417.800 43.427 L 418.011 42.450 L 418.223 41.473 L 418.434 40.495 L 418.645 39.518 L 418.857 38.540 L 419.068 37.563 L 419.334 36.599 L 419.602 35.636 L 419.869 34.672 L 420.137 33.708 L 420.404 32.745 L 420.672 31.781 L 420.939 30.818 L 421.207 29.854 L 421.474 28.891 L 421.833 27.960 L 422.254 27.053 L 422.675 26.146 L 423.096 25.239 L 423.517 24.332 L 423.320 24.800 L 422.911 25.712 L 422.502 26.625 L 422.093 27.537 L 421.684 28.450 L 421.349 29.388 L 421.103 30.357 L 420.857 31.327 L 420.611 32.296 L 420.365 33.265 L 420.118 34.234 L 419.872 35.204 L 419.626 36.173 L 419.380 37.142 L 419.134 38.111 L 418.888 39.080 L 418.801 40.069 L 418.810 41.069 L 418.819 42.069 L 418.828 43.069 L 418.838 44.069 L 418.847 45.069 L 418.856 46.069 L 418.865 47.069 L 418.874 48.069 L 419.054 49.020 L 419.572 49.876 L 420.089 50.732 L 420.606 51.588 L 421.181 51.172 L 421.774 50.366 L 422.366 49.561 L 422.958 48.755 L 423.551 47.950 L 424.032 47.093 L 424.252 46.118 L 424.473 45.142 L 424.694 44.167 L 424.915 43.192 L 425.175 42.233 L 425.727 41.399 L 426.279 40.566 L 426.831 39.732 L 427.431 38.960 L 428.377 38.638 L 429.324 38.315 L 430.197 38.335 L 430.928 39.018 L 431.659 39.700 L 432.388 40.384 L 433.054 41.130 L 433.720 41.877 L 434.385 42.623 L 435.051 43.369 L 435.737 44.095 L 436.467 44.779 L 437.196 45.463 L 437.926 46.147 L 438.655 46.831 L 439.385 47.515 L 440.114 48.199 L 440.845 48.881 L 441.580 49.560 L 442.315 50.238 L 443.050 50.916 L 443.785 51.594 L 444.520 52.272 L 445.255 52.951 L 445.990 53.629 L 446.708 54.325 L 447.416 55.030 L 448.125 55.735 L 448.834 56.441 L 449.543 57.146 L 450.252 57.851 L 450.961 58.556 L 451.499 59.390 L 451.977 60.268 L 452.456 61.146 L 452.934 62.024 L 453.409 62.905 L 453.880 63.787 L 454.351 64.669 L 454.823 65.551 L 455.289 66.435 L 455.801 67.291 L 456.266 68.176 L 456.718 69.068 L 457.181 69.954 L 457.661 70.831 L 458.145 71.707 L 458.632 72.580 L 459.120 73.453 L 459.622 74.317 L 460.127 75.181 L 460.631 76.044 L 461.157 76.894 L 461.708 77.729 L 462.259 78.564 L 462.810 79.398 L 463.360 80.233 L 463.955 81.036 L 464.565 81.829 L 465.175 82.621 L 465.785 83.413 L 466.395 84.206 L 467.005 84.998 L 467.653 85.757 L 468.379 86.444 L 469.105 87.132 L 469.831 87.819 L 470.558 88.506 L 471.284 89.194 L 472.010 89.881 L 472.736 90.569 L 473.567 91.118 L 474.426 91.630 L 475.285 92.142 L 476.144 92.654 L 477.003 93.166 L 477.862 93.678 L 478.721 94.190 L 479.643 94.567 L 480.588 94.895 L 481.532 95.224 L 482.477 95.552 L 483.421 95.881 L 484.411 95.997 L 485.407 96.082 L 486.359 95.957 L 487.060 95.258 L 487.697 94.487 L 488.263 93.668 L 488.747 92.793 L 489.231 91.917 L 489.715 91.042 L 490.199 90.167 L 490.654 89.278 L 491.018 88.347 L 491.382 87.416 L 491.746 86.485 L 492.110 85.553 L 492.475 84.622 L 492.839 83.691 L 493.121 82.732 L 493.388 81.768 L 493.654 80.804 L 493.920 79.840 L 494.186 78.876 L 494.453 77.913 L 494.632 76.930 L 494.790 75.942 L 494.948 74.955 L 495.107 73.968 L 495.268 72.981 L 495.429 71.994 L 495.590 71.007 L 495.729 70.017 L 495.859 69.025 L 495.995 68.034 L 496.149 67.046 L 496.299 66.058 L 496.382 65.061 L 496.469 64.065 L 496.634 63.079 L 496.796 62.092 L 496.873 61.095 L 496.950 60.098 L 497.090 59.108 L 497.242 58.120 L 497.349 57.126 L 497.432 56.130 L 497.553 55.137 L 497.695 54.148 L 497.831 53.157 L 497.955 52.165 L 498.079 51.172 L 498.214 50.181 L 498.355 49.191 L 498.499 48.202 L 498.651 47.214 L 498.804 46.225 L 498.968 45.239 L 499.133 44.253 L 499.317 43.270 L 499.502 42.287 L 499.690 41.305 L 499.886 40.324 L 500.082 39.344 L 500.278 38.363 L 500.474 37.382 L 500.677 36.403 L 500.906 35.430 L 501.135 34.457 L 501.382 33.488 L 501.670 32.530 L 501.957 31.572 L 502.244 30.614 L 502.595 29.678 L 502.959 28.747 L 503.324 27.816 L 503.688 26.885 L 504.088 25.968 L 504.501 25.058 L 504.915 24.148 L 505.329 23.237 L 505.802 22.357 L 506.303 21.492 L 506.804 20.626 L 507.306 19.762 L 507.861 18.930 L 508.416 18.098 L 509.030 17.311 L 509.685 16.555 L 510.392 15.848 L 511.161 15.213 L 512.009 14.684 L 512.128 14.613" />
</svg>