<?xml version="1.0" encoding="UTF-8"?>
<svg xmlns="http://www.w3.org/2000/svg" viewBox="-0.812 -9.328 527.880 197.287">
<path fill="none" stroke="#000000" stroke-width="1" stroke-linecap="round" stroke-linejoin="round" d="M 14.128 135.613 L 21.128 135.613 L 26.116 135.920 L 36.110 136.279 L 58.066 137.609 L 63.565 137.496 L 69.063 137.382 L 73.055 137.128 L 77.046 136.874 L 79.524 136.544 L 82.001 136.213 L 82.952 136.275 L 83.849 136.716 L 84.746 137.158 L 86.613 137.876 L 88.479 138.594 L 92.309 139.747 L 96.138 140.900 L 104.982 142.555 L 111.926 143.441 L 117.893 144.070 L 130.861 144.977 L 133.857 145.112 L 150.628 145.113" />
<path fill="none" stroke="#000000" stroke-width="1" stroke-linecap="round" stroke-linejoin="round" d="M 82.628 136.113 L 82.628 135.113 L 82.628 134.113 L 82.449 129.116 L 81.962 122.133 L 81.281 115.166 L 79.921 104.251 L 78.120 88.357 L 77.164 77.399 L 76.129 67.453 L 75.313 58.490 L 75.115 55.498 L 74.648 50.520 L 74.291 43.532 L 74.128 39.535 L 74.128 26.535 L 74.309 21.539 L 74.511 18.546 L 74.995 14.578 L 75.628 10.633 L 76.128 8.613" />
<path fill="none" stroke="#000000" stroke-width="1" stroke-linecap="round" stroke-linejoin="round" d="M 201.128 13.613 L 199.599 16.190 L 198.955 18.081 L 198.267 20.999 L 197.984 22.979 L 197.687 25.964 L 197.657 26.960 L 198.127 31.937 L 199.075 37.849 L 199.838 40.750 L 202.051 47.390 L 204.675 53.879 L 207.293 59.277 L 209.248 62.766 L 211.822 67.053 L 217.329 75.399 L 221.457 81.051 L 224.008 84.132 L 229.940 90.898 L 234.169 95.153 L 236.392 97.166 L 237.929 98.446 L 240.320 100.257 L 243.651 102.469 L 244.514 102.972 L 248.092 104.761 L 252.785 106.482 L 256.682 107.381 L 260.625 108.050 L 260.636 108.113 L 259.640 108.030 L 258.701 108.064 L 249.995 119.028 L 241.875 130.432 L 242.199 130.836 L 243.194 130.936 L 243.866 130.252 L 252.768 119.446 L 261.776 108.729 L 262.487 108.088 L 264.467 107.806 L 262.818 108.085 L 261.436 108.112 L 262.436 108.112 L 263.428 107.998 L 264.400 107.773 L 265.251 107.313 L 270.113 102.278 L 274.788 97.067 L 278.052 93.280 L 278.628 92.494 L 278.493 87.497 L 278.142 81.508 L 277.518 76.547 L 276.724 71.611 L 275.655 66.727 L 274.687 62.846 L 273.871 59.959 L 273.055 57.073 L 272.239 54.186 L 271.313 51.333 L 271.128 50.363 L 271.684 47.930 L 272.240 45.496 L 273.671 37.625 L 275.102 29.754 L 276.205 22.842 L 277.660 17.024 L 279.015 13.260 L 280.736 9.654 L 281.840 7.992 L 284.128 5.612" />
<path fill="none" stroke="#000000" stroke-width="1" stroke-linecap="round" stroke-linejoin="round" d="M 203.628 51.613 L 205.283 55.254 L 207.071 58.832 L 209.988 64.075 L 212.067 67.490 L 212.859 67.153 L 226.401 58.632 L 227.285 58.182 L 236.866 55.316 L 246.446 52.450 L 256.055 49.682 L 265.664 46.913 L 266.540 47.092 L 268.532 48.603 L 270.524 50.114 L 270.834 50.469 L 271.143 50.825 L 272.128 53.613" />
<path fill="none" stroke="#000000" stroke-width="1" stroke-linecap="round" stroke-linejoin="round" d="M 232.128 140.613 L 239.553 148.037 L 246.977 155.462 L 251.995 160.342 L 259.565 166.875 L 264.227 170.652 L 267.451 173.019 L 268.174 172.528 L 270.188 170.307 L 273.763 165.489 L 279.128 157.613" />
<path fill="none" stroke="#000000" stroke-width="1" stroke-linecap="round" stroke-linejoin="round" d="M 339.128 19.613 L 339.524 20.508 L 339.427 20.958 L 339.330 21.407 L 338.544 23.778 L 337.758 26.149 L 337.111 30.602 L 336.464 35.055 L 336.022 41.038 L 335.580 47.020 L 336.574 54.454 L 337.568 61.887 L 341.147 84.604 L 342.580 96.514 L 342.628 100.047 L 342.628 96.047 L 342.472 94.054 L 341.562 88.125 L 340.810 82.381 L 341.733 89.319 L 342.330 89.744 L 373.266 87.754 L 388.215 86.521 L 389.183 86.509 L 390.515 88.000 L 391.946 89.397 L 394.255 91.309 L 395.071 91.882 L 398.566 93.824 L 402.278 95.315 L 405.194 96.013 L 406.190 96.095 L 406.951 95.661 L 408.800 92.116 L 409.962 88.814 L 411.124 85.512 L 412.458 80.178 L 413.793 74.843 L 413.973 73.862 L 415.145 62.924 L 416.225 50.973 L 416.382 49.987 L 417.763 43.636 L 419.144 37.285 L 420.348 32.949 L 421.552 28.613 L 422.581 26.382 L 423.611 24.151 L 422.588 26.432 L 421.566 28.713 L 420.649 32.262 L 419.733 35.811 L 418.817 39.360 L 419.378 40.146 L 423.217 44.757 L 427.057 49.368 L 432.622 52.720 L 438.187 56.072 L 439.116 56.399 L 450.895 58.690 L 451.501 59.394 L 457.663 70.835 L 461.160 76.898 L 463.363 80.237 L 465.509 82.998 L 467.656 85.760 L 470.198 88.166 L 472.740 90.572 L 475.732 92.382 L 478.725 94.192 L 481.075 95.037 L 483.426 95.882 L 485.412 96.082 L 486.362 95.955 L 487.700 94.483 L 488.265 93.664 L 490.655 89.274 L 492.841 83.686 L 494.454 77.908 L 495.591 71.002 L 496.300 66.053 L 496.470 64.061 L 496.797 62.088 L 496.950 60.094 L 497.243 58.116 L 497.554 55.133 L 498.805 46.221 L 499.503 42.282 L 500.678 36.399 L 501.383 33.484 L 502.246 30.610 L 503.690 26.881 L 505.331 23.233 L 507.309 19.758 L 508.418 18.094 L 509.688 16.552 L 511.165 15.210 L 512.128 14.613" />
</svg>