<?xml version="1.0" encoding="UTF-8"?>
<svg xmlns="http://www.w3.org/2000/svg" viewBox="-12.619 -20.491 556.399 219.255">
<path fill="none" stroke="#000000" stroke-width="1" stroke-linecap="round" stroke-linejoin="round" d="M 3.128 154.138 L 57.128 154.138 L 111.128 154.138 L 112.885 152.360 L 114.643 150.582 L 116.392 148.570 L 118.141 146.558 L 119.891 144.545 L 120.768 144.350 L 124.752 144.706 L 128.736 145.062 L 132.733 145.124 L 137.707 145.613 L 144.707 145.613 L 149.680 145.113 L 152.679 145.078 L 155.666 144.806 L 157.638 144.474 L 158.372 145.057 L 160.232 146.967 L 162.093 148.877 L 163.953 150.787 L 165.282 152.282 L 166.611 153.776 L 167.449 154.138 L 167.995 154.138 L 168.541 154.138" />
<path fill="none" stroke="#000000" stroke-width="1" stroke-linecap="round" stroke-linejoin="round" d="M 85.834 154.138 L 85.279 150.682 L 84.724 147.226 L 84.197 144.273 L 83.670 141.320 L 83.179 138.868 L 82.689 136.417 L 82.623 131.423 L 82.451 126.426 L 82.127 121.436 L 80.497 108.540 L 80.304 106.549 L 79.983 104.576 L 79.340 98.611 L 78.425 91.676 L 77.782 83.702 L 77.457 81.729 L 77.185 78.742 L 75.842 62.798 L 75.315 58.837 L 74.628 49.864 L 74.628 48.864 L 76.425 47.525 L 78.223 46.186 L 80.020 44.848 L 81.817 43.509 L 83.732 41.902 L 85.647 40.296 L 85.834 39.382 L 85.834 30.382 L 85.224 29.693 L 83.607 28.516 L 81.990 27.338 L 80.238 25.928 L 78.485 24.517 L 76.732 23.106 L 74.979 21.696 L 74.487 20.944 L 74.724 17.954 L 74.960 14.963 L 75.570 11.013 L 76.032 9.069 L 76.088 8.580 L 76.145 8.090 L 78.211 5.474 L 80.276 2.858 L 82.341 0.242 L 84.088 -1.873 L 85.834 -3.988" />
<path fill="none" stroke="#000000" stroke-width="1" stroke-linecap="round" stroke-linejoin="round" d="M 188.305 -4.744 L 189.512 -1.997 L 190.719 0.749 L 192.757 2.951 L 194.795 5.152 L 196.443 7.032 L 198.092 8.911 L 199.740 10.791 L 201.389 12.671 L 201.301 13.490 L 199.680 16.009 L 199.271 16.921 L 198.526 19.823 L 197.813 24.766 L 197.795 26.765 L 197.978 29.759 L 198.682 35.716 L 199.074 37.678 L 199.789 40.591 L 200.636 43.469 L 201.635 46.298 L 204.606 53.725 L 206.709 58.261 L 208.624 61.772 L 213.304 69.460 L 216.620 74.459 L 221.985 81.683 L 225.899 86.230 L 231.220 92.204 L 234.755 95.740 L 237.742 98.399 L 239.318 99.630 L 240.930 100.814 L 244.270 103.014 L 244.915 103.625 L 244.412 105.560 L 243.909 107.496 L 243.087 110.377 L 242.264 113.258 L 241.442 116.140 L 243.858 121.631 L 246.275 127.123 L 246.763 127.996 L 247.442 128.623 L 248.216 128.294 L 248.779 127.476 L 250.394 123.817 L 252.010 120.158 L 253.127 117.921 L 254.243 115.684 L 255.452 113.497 L 256.662 111.309 L 257.448 110.031 L 258.234 108.754 L 258.875 108.113 L 260.375 108.113 L 261.875 108.112 L 262.871 108.041 L 264.828 107.646 L 265.295 107.469 L 265.762 107.292 L 265.430 105.074 L 265.098 102.855 L 264.766 100.637 L 264.435 98.418 L 264.217 95.928 L 264.000 93.437 L 264.161 92.482 L 265.368 89.735 L 266.037 89.096 L 267.896 88.359 L 269.755 87.621 L 272.051 86.632 L 274.347 85.644 L 276.141 84.759 L 277.934 83.874 L 278.430 83.202 L 278.263 81.210 L 277.622 76.251 L 276.298 69.378 L 274.456 61.594 L 273.231 57.789 L 271.326 51.054 L 271.244 50.575 L 271.162 50.096 L 273.409 49.000 L 275.656 47.904 L 277.412 46.946 L 279.168 45.989 L 280.924 45.032 L 282.637 44.000 L 284.351 42.969 L 286.064 41.938 L 286.694 41.222 L 296.796 18.239 L 306.899 -4.744" />
<path fill="none" stroke="#000000" stroke-width="1" stroke-linecap="round" stroke-linejoin="round" d="M 209.128 62.612 L 216.972 58.200 L 221.532 56.149 L 222.492 55.960 L 253.492 55.960 L 254.467 55.799 L 256.758 55.084 L 259.049 54.368 L 261.340 53.653 L 263.630 52.937 L 265.921 52.222 L 267.493 51.668 L 269.065 51.114 L 270.637 50.560 L 270.828 50.713 L 271.018 50.867 L 271.208 51.020 L 272.152 53.867 L 273.128 57.612" />
<path fill="none" stroke="#000000" stroke-width="1" stroke-linecap="round" stroke-linejoin="round" d="M 217.953 154.435 L 245.523 182.020 L 246.240 182.715 L 247.193 183.017 L 248.141 182.981 L 249.076 182.636 L 251.200 180.520 L 253.324 178.403 L 256.075 177.207 L 258.826 176.010 L 261.174 175.154 L 263.523 174.298 L 265.438 173.722 L 267.353 173.145 L 267.760 172.890 L 268.167 172.636 L 270.338 170.569 L 272.988 167.574 L 275.259 164.283 L 277.795 159.974 L 279.628 156.613" />
<path fill="none" stroke="#000000" stroke-width="1" stroke-linecap="round" stroke-linejoin="round" d="M 324.464 -0.447 L 326.684 2.259 L 328.903 4.966 L 331.171 7.631 L 333.440 10.297 L 334.983 12.047 L 336.527 13.797 L 338.070 15.547 L 338.406 16.834 L 338.741 18.121 L 339.077 19.408 L 339.128 20.401 L 338.663 21.270 L 338.198 22.138 L 336.757 25.869 L 336.467 26.824 L 335.097 32.665 L 334.669 38.650 L 334.684 39.646 L 335.041 43.127 L 335.399 46.609 L 335.226 47.513 L 333.507 49.328 L 331.789 51.143 L 329.934 52.820 L 328.079 54.496 L 326.552 55.787 L 325.025 57.079 L 324.464 57.819 L 324.464 85.319 L 324.464 112.819 L 324.572 113.796 L 325.008 114.667 L 326.004 114.750 L 327.720 113.725 L 329.436 112.700 L 331.675 111.587 L 333.913 110.474 L 336.554 109.052 L 339.196 107.630 L 340.501 106.890 L 341.806 106.151 L 342.521 105.540 L 342.575 105.047 L 342.628 104.553 L 342.640 100.555 L 342.846 99.576 L 343.060 99.163 L 343.275 98.750 L 345.885 98.205 L 348.495 97.661 L 351.106 97.116 L 353.525 96.487 L 355.945 95.858 L 356.851 95.464 L 371.246 86.421 L 373.223 84.892 L 375.200 83.364 L 377.139 81.787 L 379.079 80.209 L 380.674 79.004 L 382.270 77.798 L 383.195 78.951 L 384.119 80.104 L 384.491 80.112 L 384.862 80.120 L 387.007 78.322 L 389.153 76.523 L 391.298 74.725 L 393.443 72.927 L 395.589 71.129 L 401.516 67.405 L 402.401 66.999 L 404.899 66.898 L 407.396 66.798 L 409.383 66.576 L 411.370 66.354 L 412.839 66.051 L 414.308 65.747 L 414.992 65.281 L 415.283 62.798 L 415.575 60.316 L 415.628 55.320 L 415.767 53.827 L 415.906 52.334 L 416.403 51.745 L 417.898 51.629 L 419.394 51.513 L 420.386 51.545 L 422.360 51.868 L 424.333 52.192 L 426.716 52.949 L 429.099 53.705 L 439.277 60.053 L 440.243 60.004 L 442.709 59.599 L 445.176 59.193 L 447.643 58.788 L 450.109 58.383 L 450.944 58.547 L 451.941 60.281 L 452.938 62.014 L 455.740 67.318 L 460.085 75.200 L 462.141 78.631 L 464.406 81.928 L 467.472 85.876 L 470.089 88.901 L 473.003 91.641 L 476.324 93.863 L 479.081 95.045 L 480.025 95.359 L 482.967 95.946 L 484.961 96.100 L 485.961 96.112 L 486.376 95.864 L 486.791 95.615 L 489.236 96.133 L 491.682 96.651 L 493.606 97.196 L 495.529 97.741 L 497.453 98.286 L 500.275 99.303 L 503.097 100.320 L 504.010 100.718 L 514.594 107.367 L 525.179 114.017 L 526.059 114.475 L 527.020 114.752 L 527.796 114.176 L 528.033 112.210 L 528.033 67.710 L 528.033 23.210 L 527.820 22.321 L 525.351 20.618 L 522.882 18.915 L 520.701 17.692 L 518.521 16.469 L 516.232 15.465 L 513.944 14.461 L 513.228 14.061 L 515.884 12.669 L 518.541 11.277 L 520.640 9.919 L 522.739 8.561 L 525.113 6.729 L 527.487 4.896 L 528.033 4.162 L 528.033 1.858 L 528.033 -0.447" />
</svg>