<?xml version="1.0" encoding="UTF-8"?>
<svg xmlns="http://www.w3.org/2000/svg" viewBox="-0.812 -9.328 527.880 197.287">
<path fill="none" stroke="#000000" stroke-width="1" stroke-linecap="round" stroke-linejoin="round" d="M 14.128 135.613 L 15.128 135.613 L 16.128 135.613 L 17.128 135.613 L 18.128 135.613 L 19.128 135.613 L 20.128 135.613 L 21.128 135.613 L 22.126 135.662 L 23.121 135.762 L 24.119 135.820 L 25.118 135.870 L 26.116 135.920 L 27.115 135.963 L 28.115 135.997 L 29.114 136.032 L 30.114 136.066 L 31.113 136.100 L 32.112 136.136 L 33.112 136.171 L 34.111 136.207 L 35.110 136.243 L 36.110 136.279 L 37.108 136.331 L 38.107 136.383 L 39.106 136.436 L 40.102 136.519 L 41.098 136.610 L 42.098 136.613 L 43.096 136.661 L 44.095 136.720 L 45.093 136.780 L 46.091 136.844 L 47.089 136.908 L 48.087 136.972 L 49.085 137.035 L 50.083 137.099 L 51.081 137.164 L 52.078 137.229 L 53.076 137.293 L 54.074 137.358 L 55.072 137.423 L 56.070 137.488 L 57.068 137.552 L 58.066 137.609 L 59.066 137.591 L 60.066 137.573 L 61.066 137.555 L 62.065 137.538 L 63.065 137.520 L 64.065 137.502 L 65.065 137.484 L 66.065 137.467 L 67.065 137.449 L 68.065 137.431 L 69.063 137.382 L 70.061 137.322 L 71.060 137.262 L 72.058 137.202 L 73.056 137.142 L 74.054 137.082 L 75.052 137.022 L 76.051 136.962 L 77.046 136.874 L 78.038 136.746 L 79.029 136.617 L 80.021 136.489 L 81.013 136.360 L 82.001 136.213 L 82.952 136.275 L 83.847 136.722 L 84.746 137.158 L 85.679 137.517 L 86.613 137.876 L 87.546 138.235 L 88.479 138.594 L 89.425 138.916 L 90.384 139.200 L 91.343 139.483 L 92.302 139.766 L 93.261 140.050 L 94.220 140.333 L 95.179 140.616 L 96.138 140.900 L 97.117 141.103 L 98.099 141.291 L 99.081 141.479 L 100.063 141.667 L 101.045 141.856 L 102.027 142.044 L 103.010 142.232 L 103.992 142.420 L 104.982 142.555 L 105.974 142.682 L 106.966 142.808 L 107.958 142.935 L 108.950 143.061 L 109.942 143.188 L 110.934 143.315 L 111.926 143.441 L 112.920 143.547 L 113.915 143.651 L 114.909 143.756 L 115.904 143.861 L 116.898 143.966 L 117.893 144.070 L 118.889 144.157 L 119.886 144.230 L 120.884 144.304 L 121.881 144.378 L 122.878 144.451 L 123.877 144.509 L 124.875 144.568 L 125.873 144.631 L 126.870 144.708 L 127.867 144.784 L 128.865 144.850 L 129.862 144.917 L 130.861 144.977 L 131.859 145.033 L 132.858 145.088 L 133.857 145.112 L 134.857 145.112 L 135.857 145.112 L 136.857 145.113 L 137.857 145.113 L 138.857 145.113 L 139.857 145.113 L 140.857 145.113 L 141.857 145.113 L 142.857 145.113 L 143.857 145.113 L 144.857 145.113 L 145.857 145.113 L 146.857 145.113 L 147.857 145.113 L 148.857 145.113 L 149.857 145.113 L 150.628 145.113" />
<path fill="none" stroke="#000000" stroke-width="1" stroke-linecap="round" stroke-linejoin="round" d="M 82.628 136.113 L 82.628 135.613 L 82.628 135.113 L 82.628 134.113 L 82.593 133.113 L 82.559 132.114 L 82.524 131.114 L 82.489 130.115 L 82.449 129.116 L 82.380 128.118 L 82.310 127.121 L 82.240 126.123 L 82.171 125.125 L 82.101 124.128 L 82.032 123.130 L 81.962 122.133 L 81.866 121.137 L 81.769 120.142 L 81.672 119.147 L 81.574 118.152 L 81.477 117.156 L 81.380 116.161 L 81.281 115.166 L 81.157 114.174 L 81.033 113.181 L 80.909 112.189 L 80.785 111.197 L 80.660 110.205 L 80.536 109.212 L 80.418 108.219 L 80.307 107.226 L 80.178 106.234 L 80.046 105.243 L 79.921 104.251 L 79.811 103.257 L 79.710 102.262 L 79.606 101.267 L 79.482 100.275 L 79.386 99.280 L 79.295 98.284 L 79.143 97.295 L 78.991 96.307 L 78.900 95.312 L 78.823 94.315 L 78.712 93.321 L 78.579 92.330 L 78.450 91.339 L 78.339 90.345 L 78.229 89.351 L 78.120 88.357 L 78.025 87.361 L 77.930 86.366 L 77.835 85.370 L 77.745 84.374 L 77.658 83.378 L 77.572 82.382 L 77.485 81.386 L 77.404 80.389 L 77.324 79.392 L 77.244 78.395 L 77.164 77.399 L 77.068 76.403 L 76.957 75.409 L 76.847 74.416 L 76.737 73.422 L 76.626 72.428 L 76.527 71.433 L 76.427 70.438 L 76.328 69.443 L 76.228 68.448 L 76.129 67.453 L 76.035 66.457 L 75.942 65.461 L 75.849 64.466 L 75.755 63.470 L 75.662 62.474 L 75.573 61.478 L 75.486 60.482 L 75.400 59.486 L 75.313 58.490 L 75.229 57.493 L 75.146 56.497 L 75.115 55.498 L 75.005 54.504 L 74.907 53.509 L 74.816 52.513 L 74.731 51.517 L 74.648 50.520 L 74.628 49.521 L 74.596 48.522 L 74.519 47.525 L 74.448 46.528 L 74.396 45.529 L 74.343 44.531 L 74.291 43.532 L 74.250 42.533 L 74.208 41.534 L 74.167 40.535 L 74.128 39.535 L 74.128 38.535 L 74.128 37.535 L 74.128 36.535 L 74.128 35.535 L 74.128 34.535 L 74.128 33.535 L 74.128 32.535 L 74.128 31.535 L 74.128 30.535 L 74.128 29.535 L 74.128 28.535 L 74.128 27.535 L 74.128 26.535 L 74.156 25.536 L 74.193 24.537 L 74.230 23.537 L 74.267 22.538 L 74.309 21.539 L 74.368 20.541 L 74.426 19.542 L 74.511 18.546 L 74.628 17.554 L 74.754 16.563 L 74.874 15.570 L 74.995 14.578 L 75.159 13.591 L 75.324 12.605 L 75.493 11.619 L 75.628 10.633 L 75.826 9.653 L 76.101 8.692 L 76.128 8.613" />
<path fill="none" stroke="#000000" stroke-width="1" stroke-linecap="round" stroke-linejoin="round" d="M 201.128 13.613 L 200.615 14.468 L 200.100 15.326 L 199.599 16.190 L 199.248 17.126 L 198.955 18.081 L 198.692 19.046 L 198.464 20.020 L 198.267 20.999 L 198.143 21.992 L 197.984 22.979 L 197.875 23.973 L 197.778 24.968 L 197.687 25.964 L 197.657 26.960 L 197.740 27.956 L 197.826 28.953 L 197.916 29.949 L 198.017 30.943 L 198.127 31.937 L 198.268 32.927 L 198.454 33.910 L 198.628 34.888 L 198.714 35.882 L 198.879 36.868 L 199.075 37.849 L 199.316 38.819 L 199.574 39.785 L 199.838 40.750 L 200.139 41.703 L 200.440 42.657 L 200.741 43.610 L 201.065 44.556 L 201.394 45.501 L 201.722 46.445 L 202.051 47.390 L 202.412 48.322 L 202.783 49.251 L 203.155 50.179 L 203.528 51.107 L 203.909 52.032 L 204.289 52.956 L 204.675 53.879 L 205.098 54.785 L 205.520 55.691 L 205.952 56.593 L 206.399 57.488 L 206.846 58.382 L 207.293 59.277 L 207.779 60.151 L 208.265 61.025 L 208.750 61.899 L 209.248 62.766 L 209.755 63.628 L 210.262 64.490 L 210.774 65.349 L 211.298 66.201 L 211.822 67.053 L 212.356 67.898 L 212.892 68.742 L 213.439 69.579 L 213.994 70.411 L 214.549 71.243 L 215.103 72.075 L 215.658 72.907 L 216.213 73.739 L 216.767 74.572 L 217.329 75.399 L 217.902 76.218 L 218.480 77.034 L 219.068 77.843 L 219.657 78.651 L 220.257 79.451 L 220.857 80.251 L 221.457 81.051 L 222.094 81.822 L 222.741 82.584 L 223.374 83.358 L 224.008 84.132 L 224.673 84.878 L 225.346 85.618 L 226.007 86.368 L 226.648 87.136 L 227.288 87.904 L 227.949 88.654 L 228.618 89.397 L 229.282 90.145 L 229.940 90.898 L 230.634 91.618 L 231.341 92.325 L 232.048 93.032 L 232.755 93.739 L 233.462 94.446 L 234.169 95.153 L 234.890 95.846 L 235.638 96.510 L 236.392 97.166 L 237.160 97.806 L 237.929 98.446 L 238.720 99.057 L 239.520 99.657 L 240.320 100.257 L 241.136 100.834 L 241.975 101.379 L 242.813 101.924 L 243.651 102.469 L 244.514 102.972 L 245.408 103.419 L 246.303 103.867 L 247.197 104.314 L 248.092 104.761 L 249.028 105.112 L 249.965 105.460 L 250.903 105.807 L 251.841 106.154 L 252.785 106.482 L 253.759 106.707 L 254.733 106.932 L 255.708 107.157 L 256.682 107.381 L 257.664 107.570 L 258.649 107.744 L 259.634 107.917 L 260.625 108.050 L 260.636 108.113 L 259.640 108.030 L 258.645 107.927 L 257.653 107.803 L 256.660 107.679 L 256.128 107.613" />
<path fill="none" stroke="#000000" stroke-width="1" stroke-linecap="round" stroke-linejoin="round" d="M 234.128 142.113 L 234.628 142.613" />
<path fill="none" stroke="#000000" stroke-width="1" stroke-linecap="round" stroke-linejoin="round" d="M 261.128 108.113 L 262.128 108.112 L 263.122 108.009 L 264.111 107.865 L 264.162 107.872 L 263.175 108.034 L 262.181 108.112 L 261.181 108.112 L 262.076 108.112 L 263.071 108.049 L 264.053 107.872 L 265.000 107.573 L 265.696 106.854 L 266.391 106.135 L 267.086 105.417 L 267.782 104.698 L 268.477 103.980 L 269.173 103.261 L 269.868 102.542 L 270.541 101.802 L 271.210 101.059 L 271.879 100.316 L 272.547 99.572 L 273.216 98.829 L 273.885 98.086 L 274.552 97.341 L 275.205 96.583 L 275.858 95.826 L 276.511 95.068 L 277.164 94.311 L 277.817 93.554 L 278.470 92.796 L 278.628 91.855 L 278.628 90.855 L 278.595 89.856 L 278.552 88.857 L 278.508 87.858 L 278.465 86.859 L 278.406 85.860 L 278.345 84.862 L 278.285 83.864 L 278.224 82.866 L 278.164 81.868 L 278.076 80.872 L 277.948 79.880 L 277.820 78.889 L 277.692 77.897 L 277.564 76.905 L 277.430 75.914 L 277.272 74.927 L 277.114 73.939 L 276.956 72.952 L 276.798 71.964 L 276.593 70.986 L 276.387 70.007 L 276.181 69.028 L 275.961 68.053 L 275.736 67.079 L 275.502 66.106 L 275.259 65.136 L 275.017 64.166 L 274.774 63.196 L 274.523 62.228 L 274.260 61.263 L 273.985 60.302 L 273.698 59.344 L 273.410 58.386 L 273.123 57.428 L 272.860 56.464 L 272.597 55.499 L 272.334 54.534 L 272.059 53.573 L 271.743 52.624 L 271.427 51.675 L 271.128 50.724 L 271.175 50.230 L 271.222 49.736 L 271.465 48.765 L 271.707 47.795 L 271.950 46.825 L 272.176 45.851 L 272.355 44.867 L 272.533 43.884 L 272.712 42.900 L 272.891 41.916 L 273.070 40.932 L 273.249 39.948 L 273.428 38.964 L 273.607 37.980 L 273.786 36.996 L 273.964 36.013 L 274.143 35.029 L 274.322 34.045 L 274.501 33.061 L 274.680 32.077 L 274.859 31.093 L 275.038 30.109 L 275.206 29.124 L 275.363 28.136 L 275.520 27.149 L 275.677 26.161 L 275.834 25.173 L 275.991 24.186 L 276.149 23.198 L 276.312 22.212 L 276.562 21.244 L 276.812 20.275 L 277.062 19.307 L 277.312 18.339 L 277.562 17.371 L 277.877 16.422 L 278.215 15.481 L 278.554 14.541 L 278.893 13.600 L 279.258 12.670 L 279.684 11.765 L 280.110 10.860 L 280.551 9.964 L 281.065 9.106 L 281.609 8.269 L 282.249 7.501 L 282.951 6.789 L 283.658 6.082 L 284.128 5.612" />
<path fill="none" stroke="#000000" stroke-width="1" stroke-linecap="round" stroke-linejoin="round" d="M 203.628 51.613 L 204.042 52.523 L 204.456 53.433 L 204.870 54.344 L 205.283 55.254 L 205.730 56.149 L 206.177 57.043 L 206.624 57.938 L 207.071 58.832 L 207.549 59.711 L 208.031 60.587 L 208.513 61.463 L 208.996 62.339 L 209.492 63.207 L 209.988 64.075 L 210.497 64.936 L 211.027 65.784 L 211.544 66.639 L 212.067 67.490 L 212.128 67.613" />
<path fill="none" stroke="#000000" stroke-width="1" stroke-linecap="round" stroke-linejoin="round" d="M 256.628 39.613 L 257.426 40.215 L 258.225 40.817 L 259.023 41.419 L 259.821 42.021 L 260.620 42.624 L 261.418 43.226 L 262.216 43.828 L 263.015 44.430 L 263.813 45.033 L 264.611 45.635 L 265.410 46.237 L 266.208 46.840 L 267.004 47.444 L 267.801 48.048 L 268.598 48.653 L 269.395 49.257 L 270.191 49.862 L 270.985 50.469 L 271.328 51.378 L 271.646 52.326 L 271.997 53.262 L 272.128 53.613" />
<path fill="none" stroke="#000000" stroke-width="1" stroke-linecap="round" stroke-linejoin="round" d="M 232.128 140.613 L 232.835 141.320 L 233.542 142.027 L 234.249 142.734 L 234.957 143.441 L 235.664 144.148 L 236.371 144.855 L 237.078 145.562 L 237.785 146.269 L 238.492 146.976 L 239.199 147.684 L 239.906 148.391 L 240.613 149.098 L 241.321 149.805 L 242.028 150.512 L 242.735 151.219 L 243.442 151.926 L 244.149 152.633 L 244.856 153.340 L 245.563 154.048 L 246.270 154.755 L 246.977 155.462 L 247.689 156.164 L 248.407 156.860 L 249.125 157.557 L 249.842 158.253 L 250.560 158.950 L 251.278 159.646 L 251.995 160.342 L 252.734 161.016 L 253.491 161.669 L 254.249 162.321 L 255.006 162.974 L 255.764 163.627 L 256.521 164.280 L 257.279 164.933 L 258.036 165.586 L 258.794 166.239 L 259.565 166.875 L 260.342 167.504 L 261.119 168.134 L 261.896 168.763 L 262.673 169.393 L 263.450 170.022 L 264.227 170.652 L 265.032 171.246 L 265.838 171.837 L 266.645 172.428 L 267.451 173.019 L 268.174 172.528 L 268.856 171.797 L 269.538 171.066 L 270.188 170.307 L 270.784 169.504 L 271.380 168.701 L 271.975 167.898 L 272.571 167.095 L 273.167 166.292 L 273.763 165.489 L 274.328 164.663 L 274.890 163.837 L 275.453 163.010 L 276.016 162.184 L 276.579 161.357 L 277.141 160.530 L 277.704 159.704 L 278.267 158.877 L 278.830 158.051 L 279.128 157.613" />
<path fill="none" stroke="#000000" stroke-width="1" stroke-linecap="round" stroke-linejoin="round" d="M 339.128 19.613 L 339.524 20.508 L 339.427 20.958 L 339.330 21.407 L 339.007 22.353 L 338.683 23.299 L 338.359 24.245 L 338.035 25.192 L 337.758 26.149 L 337.613 27.138 L 337.469 28.128 L 337.325 29.118 L 337.180 30.107 L 337.036 31.097 L 336.892 32.086 L 336.747 33.076 L 336.603 34.065 L 336.464 35.055 L 336.388 36.052 L 336.312 37.049 L 336.236 38.047 L 336.160 39.044 L 336.084 40.041 L 336.008 41.038 L 335.932 42.035 L 335.856 43.032 L 335.780 44.029 L 335.704 45.026 L 335.628 46.023 L 335.580 47.020 L 335.708 48.012 L 335.836 49.003 L 335.964 49.995 L 336.092 50.987 L 336.220 51.979 L 336.348 52.970 L 336.476 53.962 L 336.604 54.954 L 336.734 55.946 L 336.873 56.936 L 337.012 57.926 L 337.151 58.916 L 337.290 59.907 L 337.429 60.897 L 337.568 61.887 L 337.716 62.876 L 337.868 63.865 L 338.020 64.853 L 338.172 65.841 L 338.330 66.829 L 338.490 67.816 L 338.666 68.800 L 338.837 69.785 L 338.961 70.777 L 339.113 71.766 L 339.265 72.754 L 339.409 73.744 L 339.550 74.734 L 339.708 75.721 L 339.887 76.705 L 340.058 77.690 L 340.222 78.676 L 340.386 79.663 L 340.551 80.649 L 340.703 81.637 L 340.848 82.627 L 341.000 83.615 L 341.147 84.604 L 341.264 85.597 L 341.380 86.591 L 341.502 87.583 L 341.634 88.574 L 341.766 89.566 L 341.860 90.561 L 341.943 91.558 L 342.089 92.546 L 342.254 93.533 L 342.369 94.525 L 342.470 95.520 L 342.580 96.514 L 342.628 97.512 L 342.628 98.512 L 342.628 99.380 L 342.628 100.047 L 342.628 99.047 L 342.628 98.047 L 342.628 97.047 L 342.628 96.047 L 342.572 95.049 L 342.472 94.054 L 342.335 93.064 L 342.194 92.074 L 342.040 91.086 L 341.876 90.100 L 341.712 89.113 L 341.562 88.125 L 341.426 87.134 L 341.291 86.143 L 341.156 85.152 L 341.023 84.161 L 340.891 83.170 L 340.810 82.381 L 340.963 83.369 L 341.115 84.358 L 341.235 85.350 L 341.351 86.344 L 341.469 87.337 L 341.601 88.328 L 341.733 89.319 L 341.871 90.310 L 342.012 91.300 L 342.128 92.113" />
<path fill="none" stroke="#000000" stroke-width="1" stroke-linecap="round" stroke-linejoin="round" d="M 387.628 84.613 L 388.261 85.386 L 388.895 86.160 L 389.544 86.921 L 390.202 87.673 L 390.903 88.387 L 391.617 89.086 L 392.343 89.774 L 393.119 90.404 L 393.901 91.027 L 394.683 91.650 L 395.548 92.152 L 396.418 92.645 L 397.288 93.137 L 398.158 93.630 L 399.074 94.028 L 400.002 94.401 L 400.930 94.773 L 401.858 95.146 L 402.806 95.456 L 403.779 95.685 L 404.753 95.915 L 405.739 96.058 L 406.705 96.035 L 407.207 95.177 L 407.674 94.292 L 408.141 93.408 L 408.608 92.524 L 408.982 91.599 L 409.314 90.656 L 409.646 89.712 L 409.978 88.769 L 410.310 87.826 L 410.642 86.882 L 410.973 85.939 L 411.294 84.992 L 411.533 84.021 L 411.772 83.050 L 412.011 82.079 L 412.250 81.108 L 412.489 80.137 L 412.729 79.166 L 412.968 78.195 L 413.207 77.224 L 413.446 76.253 L 413.685 75.282 L 413.924 74.311 L 414.031 73.317 L 414.138 72.323 L 414.245 71.329 L 414.352 70.334 L 414.458 69.340 L 414.565 68.346 L 414.672 67.351 L 414.779 66.357 L 414.885 65.363 L 414.992 64.369 L 415.099 63.374 L 415.195 62.379 L 415.284 61.383 L 415.374 60.387 L 415.464 59.391 L 415.554 58.395 L 415.644 57.399 L 415.734 56.403 L 415.824 55.407 L 415.914 54.411 L 416.004 53.415 L 416.094 52.419 L 416.184 51.423 L 416.286 50.429 L 416.498 49.452 L 416.709 48.475 L 416.920 47.497 L 417.132 46.520 L 417.343 45.542 L 417.554 44.565 L 417.765 43.587 L 417.977 42.610 L 418.188 41.633 L 418.399 40.655 L 418.611 39.678 L 418.822 38.700 L 419.033 37.723 L 419.291 36.757 L 419.558 35.793 L 419.826 34.830 L 420.093 33.866 L 420.361 32.903 L 420.628 31.939 L 420.896 30.976 L 421.163 30.012 L 421.431 29.048 L 421.764 28.109 L 422.185 27.202 L 422.606 26.295 L 423.027 25.388 L 423.448 24.481 L 423.387 24.650 L 422.978 25.563 L 422.569 26.475 L 422.160 27.388 L 421.751 28.300 L 421.389 29.229 L 421.143 30.199 L 420.897 31.168 L 420.651 32.137 L 420.405 33.106 L 420.159 34.076 L 419.913 35.045 L 419.666 36.014 L 419.420 36.983 L 419.174 37.953 L 418.928 38.922 L 418.707 39.897 L 418.514 40.878 L 418.322 41.859 L 418.130 42.841 L 417.938 43.822 L 417.745 44.803 L 417.553 45.785 L 417.361 46.766 L 417.169 47.747 L 416.977 48.729 L 416.784 49.710 L 416.592 50.691 L 416.400 51.673 L 416.208 52.654 L 416.015 53.635 L 415.823 54.617 L 415.631 55.598 L 415.628 55.613" />
<path fill="none" stroke="#000000" stroke-width="1" stroke-linecap="round" stroke-linejoin="round" d="M 448.658 54.172 L 449.136 55.050 L 449.614 55.928 L 450.092 56.806 L 450.570 57.685 L 451.048 58.563 L 451.527 59.441 L 452.005 60.319 L 452.484 61.197 L 452.962 62.075 L 453.436 62.956 L 453.907 63.838 L 454.379 64.720 L 454.850 65.602 L 455.316 66.487 L 455.827 67.343 L 456.294 68.227 L 456.744 69.120 L 457.209 70.005 L 457.689 70.882 L 458.173 71.758 L 458.661 72.631 L 459.148 73.504 L 459.652 74.368 L 460.156 75.231 L 460.661 76.095 L 461.189 76.943 L 461.740 77.778 L 462.291 78.612 L 462.842 79.447 L 463.393 80.281 L 463.990 81.083 L 464.600 81.875 L 465.211 82.667 L 465.821 83.459 L 466.431 84.252 L 467.041 85.044 L 467.695 85.797 L 468.421 86.484 L 469.147 87.172 L 469.874 87.859 L 470.600 88.547 L 471.326 89.234 L 472.052 89.921 L 472.779 90.609 L 473.617 91.147 L 474.476 91.660 L 475.335 92.172 L 476.194 92.684 L 477.053 93.196 L 477.912 93.708 L 478.771 94.220 L 479.698 94.586 L 480.643 94.914 L 481.587 95.243 L 482.532 95.571 L 483.476 95.900 L 484.469 96.002 L 485.465 96.087 L 486.407 95.925 L 487.097 95.213 L 487.734 94.442 L 488.291 93.617 L 488.775 92.742 L 489.259 91.867 L 489.743 90.991 L 490.227 90.116 L 490.675 89.224 L 491.039 88.293 L 491.403 87.362 L 491.767 86.430 L 492.132 85.499 L 492.496 84.568 L 492.860 83.636 L 493.137 82.676 L 493.403 81.712 L 493.669 80.748 L 493.936 79.784 L 494.202 78.820 L 494.468 77.856 L 494.641 76.872 L 494.799 75.885 L 494.958 74.897 L 495.116 73.910 L 495.277 72.923 L 495.438 71.936 L 495.600 70.949 L 495.737 69.959 L 495.867 68.967 L 496.004 67.977 L 496.158 66.989 L 496.304 66.000 L 496.387 65.003 L 496.479 64.008 L 496.643 63.021 L 496.801 62.034 L 496.878 61.037 L 496.954 60.040 L 497.099 59.051 L 497.251 58.062 L 497.354 57.068 L 497.437 56.072 L 497.561 55.080 L 497.703 54.090 L 497.838 53.099 L 497.962 52.107 L 498.086 51.115 L 498.222 50.124 L 498.363 49.134 L 498.508 48.144 L 498.660 47.156 L 498.813 46.168 L 498.978 45.181 L 499.144 44.195 L 499.328 43.212 L 499.512 42.230 L 499.701 41.248 L 499.897 40.267 L 500.093 39.286 L 500.289 38.306 L 500.486 37.325 L 500.691 36.347 L 500.920 35.373 L 501.149 34.400 L 501.399 33.432 L 501.686 32.474 L 501.974 31.516 L 502.261 30.559 L 502.616 29.624 L 502.981 28.693 L 503.345 27.762 L 503.710 26.830 L 504.112 25.915 L 504.526 25.005 L 504.939 24.094 L 505.353 23.184 L 505.831 22.307 L 506.332 21.441 L 506.833 20.576 L 507.339 19.713 L 507.893 18.881 L 508.448 18.049 L 509.068 17.266 L 509.726 16.514 L 510.433 15.807 L 511.208 15.178 L 512.059 14.654 L 512.128 14.613" />
</svg>