<?xml version="1.0" encoding="UTF-8"?>
<svg xmlns="http://www.w3.org/2000/svg" viewBox="-3.485 -19.357 516.339 216.978">
<path fill="none" stroke="#000000" stroke-width="1" stroke-linecap="round" stroke-linejoin="round" d="M 11.128 135.612 L 26.128 135.612 L 32.107 136.095 L 36.105 136.138 L 42.086 136.609 L 44.086 136.612 L 60.043 137.774 L 65.040 137.943 L 71.037 137.769 L 77.991 136.990 L 80.948 136.486 L 82.885 136.020 L 84.297 135.514 L 85.709 135.008 L 87.121 134.502 L 88.533 133.996 L 91.389 133.076 L 94.244 132.156 L 97.605 131.178 L 100.966 130.201 L 112.958 130.185 L 124.950 130.169 L 136.942 130.154" />
<path fill="none" stroke="#000000" stroke-width="1" stroke-linecap="round" stroke-linejoin="round" d="M 70.128 138.112 L 72.075 135.830 L 74.022 133.548 L 74.091 132.575 L 74.071 129.575 L 73.915 128.632 L 71.975 126.355 L 70.035 124.079 L 70.089 118.102 L 71.908 116.386 L 73.726 114.670 L 75.623 113.042 L 77.520 111.414 L 78.988 110.072 L 80.456 108.729 L 80.185 106.748 L 79.915 104.767 L 79.243 97.801 L 78.440 91.859 L 77.859 84.883 L 76.924 77.953 L 76.339 70.977 L 75.940 68.005 L 75.628 64.019 L 75.569 62.022 L 74.628 51.063 L 74.596 49.064 L 74.128 43.083 L 74.084 39.085 L 73.643 34.105 L 73.644 28.106 L 74.447 18.138 L 75.020 14.182 L 76.094 8.281 L 76.111 7.782 L 76.128 7.284 L 75.762 6.370 L 73.987 2.785 L 70.035 -4.744" />
<path fill="none" stroke="#000000" stroke-width="1" stroke-linecap="round" stroke-linejoin="round" d="M 183.777 -4.744 L 183.045 -1.834 L 182.313 1.075 L 181.582 3.984 L 181.207 5.948 L 180.832 7.913 L 181.592 8.112 L 182.592 8.112 L 184.585 8.276 L 186.558 8.601 L 189.447 9.408 L 191.325 10.091 L 194.057 11.327 L 197.595 13.192 L 199.304 14.230 L 201.800 15.894 L 203.413 17.076 L 203.037 19.023 L 202.662 20.970 L 202.039 23.563 L 201.416 26.155 L 200.792 28.748 L 200.855 29.688 L 231.514 91.502 L 233.061 94.071 L 234.609 96.639 L 235.596 98.379 L 236.582 100.119 L 237.495 101.898 L 238.408 103.678 L 238.266 104.475 L 237.205 105.536 L 236.144 106.596 L 236.124 106.971 L 236.103 107.346 L 237.962 109.701 L 239.820 112.056 L 241.679 114.411 L 243.196 116.398 L 244.713 118.385 L 245.260 119.217 L 247.259 123.248 L 249.259 127.280 L 249.792 128.113 L 250.499 128.766 L 251.395 128.406 L 252.406 126.682 L 272.179 86.816 L 291.952 46.950 L 292.487 46.114 L 293.975 44.318 L 295.464 42.522 L 296.952 40.726 L 299.120 37.605 L 301.288 34.485 L 303.456 31.364 L 305.625 28.243 L 307.793 25.123 L 308.589 23.290 L 309.386 21.457 L 309.493 20.981 L 309.601 20.505 L 309.278 19.211 L 308.954 17.918 L 308.631 16.624 L 308.937 15.674 L 309.572 13.778 L 310.206 11.882 L 310.841 9.985 L 311.597 8.133 L 312.352 6.282 L 313.108 4.430 L 314.004 2.595 L 314.901 0.760 L 315.798 -1.074 L 316.694 -2.909 L 317.591 -4.744" />
<path fill="none" stroke="#000000" stroke-width="1" stroke-linecap="round" stroke-linejoin="round" d="M 217.230 55.960 L 219.230 55.960 L 221.230 55.960 L 223.230 55.960 L 225.458 55.266 L 227.686 54.572 L 229.913 53.878 L 232.276 53.060 L 234.639 52.243 L 236.970 51.340 L 239.301 50.437 L 239.588 50.364 L 239.876 50.291 L 240.163 50.218 L 240.668 51.797 L 241.173 53.376 L 241.677 54.955 L 244.139 55.390 L 246.601 55.825 L 248.597 55.938 L 250.592 56.051 L 252.588 56.164 L 254.920 56.096 L 257.252 56.028 L 259.584 55.960 L 271.861 55.960 L 284.137 55.960" />
<path fill="none" stroke="#000000" stroke-width="1" stroke-linecap="round" stroke-linejoin="round" d="M 216.128 155.113 L 228.150 167.132 L 230.359 169.162 L 232.761 170.954 L 234.490 171.960 L 236.279 172.855 L 237.612 173.851 L 238.946 174.848 L 240.279 175.844 L 242.918 177.881 L 245.557 179.918 L 248.196 181.954 L 249.028 182.500 L 249.919 182.953 L 250.889 183.007 L 251.845 182.807 L 253.467 181.643 L 284.137 154.435" />
<path fill="none" stroke="#000000" stroke-width="1" stroke-linecap="round" stroke-linejoin="round" d="M 364.426 -4.744 L 364.426 34.256 L 364.426 73.256 L 363.371 75.850 L 362.316 78.443 L 361.261 81.037 L 360.205 83.631 L 359.150 86.224 L 359.752 87.004 L 360.354 87.784 L 361.749 89.213 L 365.579 92.428 L 367.222 93.564 L 369.008 94.464 L 370.870 95.193 L 372.782 95.776 L 373.670 95.994 L 374.559 96.211 L 373.003 98.479 L 371.447 100.746 L 369.891 103.014 L 368.336 105.281 L 367.058 107.234 L 365.780 109.186 L 364.503 111.138 L 364.426 112.116 L 364.426 119.616 L 364.426 127.116 L 364.579 128.102 L 365.131 128.747 L 365.943 128.324 L 366.681 127.653 L 373.713 119.855 L 380.745 112.057 L 381.194 111.250 L 380.852 109.280 L 380.511 107.310 L 380.169 105.341 L 379.511 102.929 L 378.853 100.518 L 378.124 98.656 L 377.395 96.794 L 377.261 96.319 L 377.128 95.844 L 377.519 95.706 L 377.909 95.567 L 379.520 95.991 L 381.132 96.414 L 382.743 96.838 L 385.213 97.225 L 387.683 97.612 L 390.171 97.848 L 392.660 98.085 L 393.536 97.873 L 414.297 74.851 L 415.003 74.146 L 417.305 72.222 L 419.606 70.298 L 421.908 68.373 L 423.391 67.032 L 424.875 65.691 L 424.736 65.254 L 424.597 64.816 L 423.612 63.080 L 423.804 62.733 L 423.996 62.386 L 425.210 61.507 L 426.425 60.629 L 427.774 59.974 L 429.124 59.319 L 430.064 59.003 L 433.008 58.425 L 433.825 58.724 L 450.568 77.290 L 452.611 79.486 L 454.654 81.683 L 455.934 83.220 L 457.213 84.756 L 458.493 86.293 L 459.693 87.893 L 460.893 89.493 L 461.079 90.330 L 460.852 90.776 L 460.625 91.221 L 459.623 92.952 L 459.005 93.735 L 457.591 95.150 L 457.544 95.345 L 457.498 95.541 L 457.451 95.736 L 459.787 96.627 L 462.123 97.518 L 463.954 98.323 L 465.785 99.128 L 467.615 99.933 L 470.310 101.253 L 473.004 102.572 L 473.839 103.095 L 484.889 115.349 L 495.939 127.602 L 496.650 128.298 L 497.469 128.872 L 498.106 128.201 L 498.240 126.208 L 498.240 74.708 L 498.240 23.208 L 497.706 22.483 L 495.249 20.763 L 492.793 19.042 L 490.630 17.790 L 488.466 16.537 L 486.192 15.501 L 483.917 14.465 L 483.250 14.054 L 485.045 13.172 L 486.839 12.291 L 488.633 11.410 L 490.766 10.104 L 492.898 8.799 L 495.313 7.021 L 497.729 5.243 L 498.240 4.500 L 498.240 -0.122 L 498.240 -4.744" />
</svg>