<?xml version="1.0" encoding="UTF-8"?>
<svg xmlns="http://www.w3.org/2000/svg" viewBox="-0.812 -9.328 527.880 197.287">
<path fill="none" stroke="#000000" stroke-width="1" stroke-linecap="round" stroke-linejoin="round" d="M 14.128 135.613 L 15.128 135.613 L 16.128 135.613 L 17.128 135.613 L 18.128 135.613 L 19.128 135.613 L 20.128 135.613 L 21.128 135.613 L 22.126 135.662 L 23.121 135.762 L 24.119 135.820 L 25.118 135.870 L 26.116 135.920 L 27.115 135.963 L 28.115 135.997 L 29.114 136.032 L 30.114 136.066 L 31.113 136.100 L 32.112 136.136 L 33.112 136.171 L 34.111 136.207 L 35.110 136.243 L 36.110 136.279 L 37.108 136.331 L 38.107 136.383 L 39.106 136.436 L 40.102 136.519 L 41.098 136.610 L 42.098 136.613 L 43.096 136.661 L 44.095 136.720 L 45.093 136.780 L 46.091 136.844 L 47.089 136.908 L 48.087 136.972 L 49.085 137.035 L 50.083 137.099 L 51.081 137.164 L 52.078 137.229 L 53.076 137.293 L 54.074 137.358 L 55.072 137.423 L 56.070 137.488 L 57.068 137.552 L 58.066 137.609 L 59.066 137.591 L 60.066 137.573 L 61.066 137.555 L 62.065 137.538 L 63.065 137.520 L 64.065 137.502 L 65.065 137.484 L 66.065 137.467 L 67.065 137.449 L 68.065 137.431 L 69.063 137.382 L 70.061 137.322 L 71.060 137.262 L 72.058 137.202 L 73.056 137.142 L 74.054 137.082 L 75.052 137.022 L 76.051 136.962 L 77.046 136.874 L 78.038 136.746 L 79.029 136.617 L 80.021 136.489 L 81.013 136.360 L 82.001 136.213 L 82.952 136.275 L 83.847 136.722 L 84.746 137.158 L 85.679 137.517 L 86.613 137.876 L 87.546 138.235 L 88.479 138.594 L 89.425 138.916 L 90.384 139.200 L 91.343 139.483 L 92.302 139.766 L 93.261 140.050 L 94.220 140.333 L 95.179 140.616 L 96.138 140.900 L 97.117 141.103 L 98.099 141.291 L 99.081 141.479 L 100.063 141.667 L 101.045 141.856 L 102.027 142.044 L 103.010 142.232 L 103.992 142.420 L 104.982 142.555 L 105.974 142.682 L 106.966 142.808 L 107.958 142.935 L 108.950 143.061 L 109.942 143.188 L 110.934 143.315 L 111.926 143.441 L 112.920 143.547 L 113.915 143.651 L 114.909 143.756 L 115.904 143.861 L 116.898 143.966 L 117.893 144.070 L 118.889 144.157 L 119.886 144.230 L 120.884 144.304 L 121.881 144.378 L 122.878 144.451 L 123.877 144.509 L 124.875 144.568 L 125.873 144.631 L 126.870 144.708 L 127.867 144.784 L 128.865 144.850 L 129.862 144.917 L 130.861 144.977 L 131.859 145.033 L 132.858 145.088 L 133.857 145.112 L 134.857 145.112 L 135.857 145.112 L 136.857 145.113 L 137.857 145.113 L 138.857 145.113 L 139.857 145.113 L 140.857 145.113 L 141.857 145.113 L 142.857 145.113 L 143.857 145.113 L 144.857 145.113 L 145.857 145.113 L 146.857 145.113 L 147.857 145.113 L 148.857 145.113 L 149.857 145.113 L 150.628 145.113" />
<path fill="none" stroke="#000000" stroke-width="1" stroke-linecap="round" stroke-linejoin="round" d="M 82.628 136.113 L 82.628 135.113 L 82.628 134.113 L 82.593 133.113 L 82.559 132.114 L 82.524 131.114 L 82.489 130.115 L 82.449 129.116 L 82.380 128.118 L 82.310 127.121 L 82.240 126.123 L 82.171 125.125 L 82.101 124.128 L 82.032 123.130 L 81.962 122.133 L 81.866 121.137 L 81.769 120.142 L 81.672 119.147 L 81.574 118.152 L 81.477 117.156 L 81.380 116.161 L 81.281 115.166 L 81.157 114.174 L 81.033 113.181 L 80.909 112.189 L 80.785 111.197 L 80.660 110.205 L 80.536 109.212 L 80.418 108.219 L 80.307 107.226 L 80.178 106.234 L 80.046 105.243 L 79.921 104.251 L 79.811 103.257 L 79.710 102.262 L 79.606 101.267 L 79.482 100.275 L 79.386 99.280 L 79.295 98.284 L 79.143 97.295 L 78.991 96.307 L 78.900 95.312 L 78.823 94.315 L 78.712 93.321 L 78.579 92.330 L 78.450 91.339 L 78.339 90.345 L 78.229 89.351 L 78.120 88.357 L 78.025 87.361 L 77.930 86.366 L 77.835 85.370 L 77.745 84.374 L 77.658 83.378 L 77.572 82.382 L 77.485 81.386 L 77.404 80.389 L 77.324 79.392 L 77.244 78.395 L 77.164 77.399 L 77.068 76.403 L 76.957 75.409 L 76.847 74.416 L 76.737 73.422 L 76.626 72.428 L 76.527 71.433 L 76.427 70.438 L 76.328 69.443 L 76.228 68.448 L 76.129 67.453 L 76.035 66.457 L 75.942 65.461 L 75.849 64.466 L 75.755 63.470 L 75.662 62.474 L 75.573 61.478 L 75.486 60.482 L 75.400 59.486 L 75.313 58.490 L 75.229 57.493 L 75.146 56.497 L 75.115 55.498 L 75.005 54.504 L 74.907 53.509 L 74.816 52.513 L 74.731 51.517 L 74.648 50.520 L 74.628 49.521 L 74.596 48.522 L 74.519 47.525 L 74.448 46.528 L 74.396 45.529 L 74.343 44.531 L 74.291 43.532 L 74.250 42.533 L 74.208 41.534 L 74.167 40.535 L 74.128 39.535 L 74.128 38.535 L 74.128 37.535 L 74.128 36.535 L 74.128 35.535 L 74.128 34.535 L 74.128 33.535 L 74.128 32.535 L 74.128 31.535 L 74.128 30.535 L 74.128 29.535 L 74.128 28.535 L 74.128 27.535 L 74.128 26.535 L 74.156 25.536 L 74.193 24.537 L 74.230 23.537 L 74.267 22.538 L 74.309 21.539 L 74.368 20.541 L 74.426 19.542 L 74.511 18.546 L 74.628 17.554 L 74.754 16.563 L 74.874 15.570 L 74.995 14.578 L 75.159 13.591 L 75.324 12.605 L 75.493 11.619 L 75.628 10.633 L 75.826 9.653 L 76.101 8.692 L 76.128 8.613" />
<path fill="none" stroke="#000000" stroke-width="1" stroke-linecap="round" stroke-linejoin="round" d="M 201.128 13.613 L 200.615 14.468 L 200.100 15.326 L 199.599 16.190 L 199.248 17.126 L 198.955 18.081 L 198.692 19.046 L 198.464 20.020 L 198.267 20.999 L 198.143 21.992 L 197.984 22.979 L 197.875 23.973 L 197.778 24.968 L 197.687 25.964 L 197.657 26.960 L 197.740 27.956 L 197.826 28.953 L 197.916 29.949 L 198.017 30.943 L 198.127 31.937 L 198.268 32.927 L 198.454 33.910 L 198.628 34.888 L 198.714 35.882 L 198.879 36.868 L 199.075 37.849 L 199.316 38.819 L 199.574 39.785 L 199.838 40.750 L 200.139 41.703 L 200.440 42.657 L 200.741 43.610 L 201.065 44.556 L 201.394 45.501 L 201.722 46.445 L 202.051 47.390 L 202.412 48.322 L 202.783 49.251 L 203.155 50.179 L 203.528 51.107 L 203.909 52.032 L 204.289 52.956 L 204.675 53.879 L 205.098 54.785 L 205.520 55.691 L 205.952 56.593 L 206.399 57.488 L 206.846 58.382 L 207.293 59.277 L 207.779 60.151 L 208.265 61.025 L 208.750 61.899 L 209.248 62.766 L 209.755 63.628 L 210.262 64.490 L 210.774 65.349 L 211.298 66.201 L 211.822 67.053 L 212.356 67.898 L 212.892 68.742 L 213.439 69.579 L 213.994 70.411 L 214.549 71.243 L 215.103 72.075 L 215.658 72.907 L 216.213 73.739 L 216.767 74.572 L 217.329 75.399 L 217.902 76.218 L 218.480 77.034 L 219.068 77.843 L 219.657 78.651 L 220.257 79.451 L 220.857 80.251 L 221.457 81.051 L 222.094 81.822 L 222.741 82.584 L 223.374 83.358 L 224.008 84.132 L 224.673 84.878 L 225.346 85.618 L 226.007 86.368 L 226.648 87.136 L 227.288 87.904 L 227.949 88.654 L 228.618 89.397 L 229.282 90.145 L 229.940 90.898 L 230.634 91.618 L 231.341 92.325 L 232.048 93.032 L 232.755 93.739 L 233.462 94.446 L 234.169 95.153 L 234.890 95.846 L 235.638 96.510 L 236.392 97.166 L 237.160 97.806 L 237.929 98.446 L 238.720 99.057 L 239.520 99.657 L 240.320 100.257 L 241.136 100.834 L 241.975 101.379 L 242.813 101.924 L 243.651 102.469 L 244.514 102.972 L 245.408 103.419 L 246.303 103.867 L 247.197 104.314 L 248.092 104.761 L 249.028 105.112 L 249.965 105.460 L 250.903 105.807 L 251.841 106.154 L 252.785 106.482 L 253.759 106.707 L 254.733 106.932 L 255.708 107.157 L 256.682 107.381 L 257.664 107.570 L 258.649 107.744 L 259.634 107.917 L 260.625 108.050 L 260.636 108.113 L 259.640 108.030 L 258.673 108.035 L 257.866 108.626 L 257.059 109.216 L 256.252 109.807 L 255.479 110.435 L 254.807 111.175 L 254.135 111.916 L 253.462 112.656 L 252.790 113.396 L 252.118 114.136 L 251.445 114.877 L 250.773 115.617 L 250.101 116.357 L 249.428 117.098 L 248.756 117.838 L 248.084 118.578 L 247.409 119.316 L 246.735 120.055 L 246.060 120.793 L 245.386 121.531 L 244.711 122.269 L 244.036 123.008 L 243.362 123.746 L 242.687 124.484 L 242.013 125.222 L 241.338 125.960 L 240.672 126.706 L 240.065 127.501 L 239.459 128.296 L 238.852 129.091 L 238.246 129.886 L 237.639 130.681 L 237.032 131.476 L 236.426 132.271 L 235.819 133.066 L 235.464 133.982 L 235.220 134.951 L 234.977 135.921 L 234.909 136.909 L 234.951 137.909 L 234.992 138.908 L 235.033 139.907 L 235.699 139.748 L 236.016 138.800 L 236.326 137.850 L 236.453 136.858 L 236.579 135.866 L 237.001 135.001 L 237.634 134.227 L 238.268 133.454 L 238.902 132.680 L 239.535 131.906 L 240.169 131.133 L 240.802 130.359 L 241.436 129.585 L 242.070 128.812 L 242.738 128.068 L 243.410 127.328 L 244.082 126.587 L 244.754 125.846 L 245.426 125.106 L 246.097 124.365 L 246.769 123.624 L 247.441 122.883 L 248.113 122.143 L 248.785 121.402 L 249.457 120.661 L 250.128 119.921 L 250.817 119.196 L 251.516 118.480 L 252.215 117.765 L 252.914 117.050 L 253.612 116.334 L 254.311 115.619 L 255.010 114.904 L 255.709 114.188 L 256.408 113.473 L 257.106 112.758 L 257.805 112.042 L 258.504 111.327 L 259.203 110.612 L 259.978 109.980 L 260.756 109.353 L 261.535 108.725 L 262.318 108.110 L 263.311 107.986 L 264.299 107.834 L 263.975 107.910 L 262.987 108.061 L 261.990 108.112 L 261.266 108.112 L 262.266 108.112 L 263.260 108.022 L 264.237 107.820 L 265.133 107.436 L 265.828 106.717 L 266.523 105.998 L 267.219 105.280 L 267.914 104.561 L 268.610 103.843 L 269.305 103.124 L 269.999 102.404 L 270.668 101.661 L 271.337 100.917 L 272.006 100.174 L 272.675 99.431 L 273.344 98.688 L 274.013 97.944 L 274.677 97.196 L 275.329 96.439 L 275.982 95.682 L 276.635 94.924 L 277.288 94.167 L 277.941 93.409 L 278.594 92.652 L 278.628 91.665 L 278.628 90.665 L 278.587 89.665 L 278.544 88.666 L 278.500 87.667 L 278.455 86.668 L 278.394 85.670 L 278.334 84.672 L 278.273 83.674 L 278.213 82.676 L 278.152 81.678 L 278.051 80.683 L 277.923 79.691 L 277.795 78.700 L 277.667 77.708 L 277.539 76.716 L 277.400 75.726 L 277.242 74.739 L 277.084 73.751 L 276.926 72.764 L 276.759 71.778 L 276.553 70.799 L 276.347 69.821 L 276.141 68.842 L 275.918 67.867 L 275.693 66.893 L 275.455 65.922 L 275.213 64.952 L 274.970 63.981 L 274.728 63.011 L 274.473 62.044 L 274.210 61.080 L 273.930 60.120 L 273.643 59.162 L 273.356 58.204 L 273.073 57.245 L 272.810 56.280 L 272.547 55.315 L 272.284 54.350 L 271.999 53.392 L 271.683 52.443 L 271.367 51.495 L 271.128 50.533 L 271.269 49.551 L 271.511 48.581 L 271.754 47.610 L 271.996 46.640 L 272.210 45.664 L 272.389 44.680 L 272.567 43.696 L 272.746 42.712 L 272.925 41.728 L 273.104 40.745 L 273.283 39.761 L 273.462 38.777 L 273.641 37.793 L 273.820 36.809 L 273.999 35.825 L 274.177 34.841 L 274.356 33.857 L 274.535 32.874 L 274.714 31.890 L 274.893 30.906 L 275.072 29.922 L 275.236 28.936 L 275.393 27.948 L 275.550 26.960 L 275.707 25.973 L 275.864 24.985 L 276.021 23.998 L 276.179 23.010 L 276.360 22.028 L 276.610 21.059 L 276.859 20.091 L 277.109 19.123 L 277.359 18.154 L 277.609 17.186 L 277.941 16.243 L 278.280 15.302 L 278.619 14.361 L 278.957 13.421 L 279.339 12.497 L 279.765 11.593 L 280.191 10.688 L 280.649 9.800 L 281.163 8.943 L 281.731 8.123 L 282.379 7.362 L 283.086 6.655 L 283.793 5.948 L 284.128 5.612" />
<path fill="none" stroke="#000000" stroke-width="1" stroke-linecap="round" stroke-linejoin="round" d="M 203.628 51.613 L 204.042 52.523 L 204.456 53.433 L 204.870 54.344 L 205.283 55.254 L 205.730 56.149 L 206.177 57.043 L 206.624 57.938 L 207.071 58.832 L 207.549 59.711 L 208.031 60.587 L 208.513 61.463 L 208.996 62.339 L 209.492 63.207 L 209.988 64.075 L 210.497 64.936 L 211.027 65.784 L 211.544 66.639 L 211.806 67.065 L 212.067 67.490 L 212.988 67.530 L 213.983 67.434 L 214.978 67.339 L 215.824 66.847 L 216.635 66.261 L 217.445 65.675 L 218.255 65.089 L 219.065 64.503 L 219.876 63.917 L 220.686 63.331 L 221.496 62.744 L 222.306 62.158 L 223.117 61.572 L 223.927 60.986 L 224.737 60.400 L 225.547 59.814 L 226.358 59.228 L 227.168 58.642 L 227.990 58.073 L 228.816 57.509 L 229.642 56.946 L 230.468 56.382 L 231.294 55.818 L 232.120 55.254 L 232.946 54.691 L 233.772 54.127 L 234.598 53.563 L 235.424 52.999 L 236.250 52.436 L 237.076 51.872 L 237.902 51.308 L 238.728 50.744 L 239.554 50.181 L 240.362 49.593 L 241.158 48.988 L 241.955 48.383 L 242.751 47.778 L 243.547 47.173 L 244.344 46.568 L 245.140 45.963 L 245.936 45.358 L 246.733 44.754 L 247.529 44.149 L 248.325 43.544 L 249.121 42.939 L 249.918 42.334 L 250.842 42.013 L 251.823 41.818 L 252.803 41.623 L 253.735 41.976 L 254.666 42.343 L 255.596 42.709 L 256.527 43.075 L 257.457 43.441 L 258.388 43.807 L 259.318 44.173 L 260.251 44.535 L 261.185 44.891 L 262.119 45.248 L 263.053 45.605 L 263.988 45.962 L 264.922 46.318 L 265.856 46.675 L 266.693 47.207 L 267.489 47.812 L 268.286 48.416 L 269.083 49.021 L 269.879 49.625 L 270.676 50.229 L 270.940 50.618 L 271.204 51.006 L 271.520 51.955 L 271.859 52.896 L 272.128 53.613" />
<path fill="none" stroke="#000000" stroke-width="1" stroke-linecap="round" stroke-linejoin="round" d="M 232.128 140.613 L 232.835 141.320 L 233.542 142.027 L 234.249 142.734 L 234.957 143.441 L 235.664 144.148 L 236.371 144.855 L 237.078 145.562 L 237.785 146.269 L 238.492 146.976 L 239.199 147.684 L 239.906 148.391 L 240.613 149.098 L 241.321 149.805 L 242.028 150.512 L 242.735 151.219 L 243.442 151.926 L 244.149 152.633 L 244.856 153.340 L 245.563 154.048 L 246.270 154.755 L 246.977 155.462 L 247.689 156.164 L 248.407 156.860 L 249.125 157.557 L 249.842 158.253 L 250.560 158.950 L 251.278 159.646 L 251.995 160.342 L 252.734 161.016 L 253.491 161.669 L 254.249 162.321 L 255.006 162.974 L 255.764 163.627 L 256.521 164.280 L 257.279 164.933 L 258.036 165.586 L 258.794 166.239 L 259.565 166.875 L 260.342 167.504 L 261.119 168.134 L 261.896 168.763 L 262.673 169.393 L 263.450 170.022 L 264.227 170.652 L 265.032 171.246 L 265.838 171.837 L 266.645 172.428 L 267.451 173.019 L 268.174 172.528 L 268.856 171.797 L 269.538 171.066 L 270.188 170.307 L 270.784 169.504 L 271.380 168.701 L 271.975 167.898 L 272.571 167.095 L 273.167 166.292 L 273.763 165.489 L 274.328 164.663 L 274.890 163.837 L 275.453 163.010 L 276.016 162.184 L 276.579 161.357 L 277.141 160.530 L 277.704 159.704 L 278.267 158.877 L 278.830 158.051 L 279.128 157.613" />
<path fill="none" stroke="#000000" stroke-width="1" stroke-linecap="round" stroke-linejoin="round" d="M 339.128 19.613 L 339.524 20.508 L 339.427 20.958 L 339.330 21.407 L 339.007 22.353 L 338.683 23.299 L 338.359 24.245 L 338.035 25.192 L 337.758 26.149 L 337.613 27.138 L 337.469 28.128 L 337.325 29.118 L 337.180 30.107 L 337.036 31.097 L 336.892 32.086 L 336.747 33.076 L 336.603 34.065 L 336.464 35.055 L 336.388 36.052 L 336.312 37.049 L 336.236 38.047 L 336.160 39.044 L 336.084 40.041 L 336.008 41.038 L 335.932 42.035 L 335.856 43.032 L 335.780 44.029 L 335.704 45.026 L 335.628 46.023 L 335.580 47.020 L 335.708 48.012 L 335.836 49.003 L 335.964 49.995 L 336.092 50.987 L 336.220 51.979 L 336.348 52.970 L 336.476 53.962 L 336.604 54.954 L 336.734 55.946 L 336.873 56.936 L 337.012 57.926 L 337.151 58.916 L 337.290 59.907 L 337.429 60.897 L 337.568 61.887 L 337.716 62.876 L 337.868 63.865 L 338.020 64.853 L 338.172 65.841 L 338.330 66.829 L 338.490 67.816 L 338.666 68.800 L 338.837 69.785 L 338.961 70.777 L 339.113 71.766 L 339.265 72.754 L 339.409 73.744 L 339.550 74.734 L 339.708 75.721 L 339.887 76.705 L 340.058 77.690 L 340.222 78.676 L 340.386 79.663 L 340.551 80.649 L 340.703 81.637 L 340.848 82.627 L 341.000 83.615 L 341.147 84.604 L 341.264 85.597 L 341.380 86.591 L 341.502 87.583 L 341.634 88.574 L 341.766 89.566 L 341.860 90.561 L 341.943 91.558 L 342.089 92.546 L 342.254 93.533 L 342.369 94.525 L 342.470 95.520 L 342.580 96.514 L 342.628 97.512 L 342.628 98.512 L 342.628 99.380 L 342.628 100.047 L 342.628 99.047 L 342.628 98.047 L 342.628 97.047 L 342.628 96.047 L 342.572 95.049 L 342.472 94.054 L 342.335 93.064 L 342.194 92.074 L 342.040 91.086 L 341.876 90.100 L 341.712 89.113 L 341.562 88.125 L 341.426 87.134 L 341.291 86.143 L 341.156 85.152 L 341.023 84.161 L 340.891 83.170 L 340.810 82.381 L 340.963 83.369 L 341.115 84.358 L 341.235 85.350 L 341.351 86.344 L 341.469 87.337 L 341.601 88.328 L 341.733 89.319 L 342.304 89.611 L 343.253 89.298 L 344.177 88.944 L 344.856 88.210 L 345.534 87.475 L 346.213 86.740 L 346.891 86.006 L 347.738 85.483 L 348.607 84.987 L 349.475 84.492 L 350.344 83.996 L 351.212 83.501 L 352.081 83.005 L 352.949 82.509 L 353.818 82.014 L 354.686 81.518 L 355.555 81.023 L 356.424 80.527 L 357.353 80.182 L 358.321 79.930 L 359.289 79.679 L 360.257 79.427 L 361.225 79.175 L 362.192 78.924 L 363.160 78.672 L 364.128 78.420 L 365.096 78.169 L 366.080 78.141 L 367.073 78.255 L 368.067 78.368 L 369.060 78.482 L 370.054 78.595 L 371.047 78.709 L 372.041 78.822 L 373.034 78.936 L 374.028 79.049 L 375.021 79.163 L 376.015 79.276 L 377.008 79.390 L 377.994 79.526 L 378.837 80.064 L 379.680 80.602 L 380.523 81.140 L 381.365 81.678 L 382.208 82.216 L 383.051 82.754 L 383.895 83.291 L 384.752 83.807 L 385.608 84.323 L 386.465 84.840 L 387.321 85.356 L 388.177 85.872 L 389.034 86.389 L 389.714 87.115 L 390.378 87.863 L 391.085 88.570 L 391.805 89.264 L 392.539 89.942 L 393.321 90.565 L 394.104 91.188 L 394.902 91.787 L 395.772 92.279 L 396.643 92.772 L 397.513 93.264 L 398.386 93.752 L 399.314 94.125 L 400.242 94.497 L 401.170 94.870 L 402.098 95.242 L 403.057 95.515 L 404.031 95.744 L 405.004 95.974 L 405.997 96.079 L 406.861 95.832 L 407.328 94.948 L 407.795 94.064 L 408.262 93.180 L 408.729 92.295 L 409.068 91.355 L 409.400 90.412 L 409.732 89.468 L 410.064 88.525 L 410.395 87.582 L 410.727 86.638 L 411.059 85.695 L 411.356 84.741 L 411.595 83.770 L 411.834 82.799 L 412.073 81.828 L 412.312 80.857 L 412.551 79.886 L 412.790 78.915 L 413.029 77.944 L 413.269 76.973 L 413.508 76.002 L 413.747 75.031 L 413.952 74.054 L 414.059 73.060 L 414.166 72.066 L 414.272 71.072 L 414.379 70.077 L 414.486 69.083 L 414.593 68.089 L 414.699 67.094 L 414.806 66.100 L 414.913 65.106 L 415.020 64.112 L 415.127 63.117 L 415.218 62.121 L 415.308 61.126 L 415.398 60.130 L 415.488 59.134 L 415.578 58.138 L 415.667 57.142 L 415.757 56.146 L 415.847 55.150 L 415.937 54.154 L 416.027 53.158 L 416.117 52.162 L 416.207 51.166 L 416.341 50.177 L 416.552 49.199 L 416.764 48.222 L 416.975 47.245 L 417.186 46.267 L 417.397 45.290 L 417.609 44.312 L 417.820 43.335 L 418.031 42.357 L 418.243 41.380 L 418.454 40.403 L 418.665 39.425 L 418.877 38.448 L 419.092 37.471 L 419.360 36.508 L 419.627 35.544 L 419.895 34.581 L 420.162 33.617 L 420.430 32.654 L 420.697 31.690 L 420.965 30.727 L 421.232 29.763 L 421.500 28.799 L 421.873 27.875 L 422.294 26.968 L 422.715 26.061 L 423.136 25.154 L 423.557 24.247 L 423.281 24.886 L 422.872 25.799 L 422.463 26.711 L 422.054 27.624 L 421.645 28.536 L 421.326 29.480 L 421.080 30.449 L 420.834 31.418 L 420.587 32.388 L 420.341 33.357 L 420.095 34.326 L 419.849 35.295 L 419.603 36.265 L 419.357 37.234 L 419.110 38.203 L 418.864 39.172 L 418.801 40.164 L 418.811 41.163 L 418.820 42.163 L 418.829 43.163 L 418.838 44.163 L 418.848 45.163 L 418.857 46.163 L 418.866 47.163 L 418.875 48.163 L 419.103 49.101 L 419.621 49.957 L 420.138 50.813 L 420.655 51.669 L 421.454 51.328 L 422.298 50.792 L 423.142 50.256 L 423.987 49.720 L 424.831 49.185 L 425.676 48.649 L 426.520 48.113 L 427.412 47.690 L 428.384 47.452 L 429.355 47.213 L 430.326 46.974 L 431.297 46.736 L 432.268 46.637 L 433.239 46.876 L 434.210 47.115 L 435.181 47.354 L 436.152 47.592 L 437.123 47.831 L 438.094 48.070 L 439.066 48.309 L 440.037 48.548 L 440.920 48.950 L 441.655 49.628 L 442.389 50.306 L 443.124 50.985 L 443.859 51.663 L 444.594 52.341 L 445.329 53.019 L 446.064 53.697 L 446.779 54.396 L 447.488 55.101 L 448.197 55.807 L 448.906 56.512 L 449.615 57.217 L 450.324 57.922 L 451.033 58.628 L 451.547 59.479 L 452.026 60.357 L 452.504 61.235 L 452.983 62.113 L 453.457 62.994 L 453.928 63.876 L 454.399 64.758 L 454.870 65.640 L 455.335 66.525 L 455.846 67.381 L 456.314 68.265 L 456.763 69.158 L 457.230 70.043 L 457.710 70.920 L 458.194 71.795 L 458.682 72.668 L 459.169 73.541 L 459.673 74.405 L 460.178 75.268 L 460.682 76.132 L 461.213 76.979 L 461.764 77.813 L 462.314 78.648 L 462.865 79.483 L 463.416 80.317 L 464.016 81.116 L 464.627 81.909 L 465.237 82.701 L 465.847 83.493 L 466.457 84.286 L 467.067 85.078 L 467.726 85.826 L 468.452 86.514 L 469.178 87.201 L 469.905 87.889 L 470.631 88.576 L 471.357 89.263 L 472.084 89.951 L 472.810 90.638 L 473.654 91.169 L 474.513 91.681 L 475.372 92.194 L 476.231 92.706 L 477.090 93.218 L 477.949 93.730 L 478.808 94.242 L 479.739 94.600 L 480.683 94.928 L 481.628 95.257 L 482.572 95.585 L 483.517 95.914 L 484.512 96.006 L 485.508 96.091 L 486.442 95.901 L 487.125 95.180 L 487.761 94.409 L 488.312 93.579 L 488.796 92.704 L 489.280 91.829 L 489.764 90.954 L 490.248 90.079 L 490.690 89.184 L 491.055 88.253 L 491.419 87.322 L 491.783 86.390 L 492.147 85.459 L 492.512 84.528 L 492.876 83.596 L 493.148 82.635 L 493.415 81.671 L 493.681 80.707 L 493.947 79.743 L 494.213 78.779 L 494.479 77.815 L 494.648 76.830 L 494.806 75.842 L 494.964 74.855 L 495.123 73.868 L 495.284 72.881 L 495.445 71.894 L 495.607 70.907 L 495.742 69.916 L 495.873 68.925 L 496.011 67.934 L 496.165 66.946 L 496.308 65.957 L 496.391 64.960 L 496.486 63.965 L 496.650 62.979 L 496.804 61.991 L 496.881 60.994 L 496.958 59.997 L 497.106 59.008 L 497.258 58.020 L 497.358 57.026 L 497.441 56.029 L 497.567 55.037 L 497.709 54.047 L 497.843 53.057 L 497.967 52.064 L 498.092 51.072 L 498.228 50.081 L 498.369 49.091 L 498.514 48.102 L 498.666 47.114 L 498.820 46.126 L 498.985 45.139 L 499.152 44.153 L 499.336 43.170 L 499.520 42.187 L 499.710 41.206 L 499.906 40.225 L 500.102 39.244 L 500.298 38.264 L 500.494 37.283 L 500.700 36.305 L 500.930 35.332 L 501.159 34.358 L 501.411 33.391 L 501.699 32.433 L 501.986 31.475 L 502.273 30.518 L 502.632 29.584 L 502.996 28.653 L 503.361 27.722 L 503.725 26.791 L 504.129 25.876 L 504.543 24.966 L 504.957 24.055 L 505.371 23.145 L 505.853 22.270 L 506.354 21.404 L 506.855 20.539 L 507.362 19.678 L 507.917 18.846 L 508.472 18.014 L 509.096 17.234 L 509.757 16.484 L 510.464 15.777 L 511.242 15.152 L 512.096 14.632 L 512.128 14.613" />
</svg>