<svg xmlns="http://www.w3.org/2000/svg" viewBox="0 0 210.0 297.0" width="210.0mm" height="297.0mm" style="background:#0d1117">
  <!-- Khung giấy A4 -->
  <rect x="20" y="20" width="170" height="257" fill="#161b22" stroke="#30363d" stroke-width="0.8" rx="2" ry="2"/>
  <!-- Stroke 1 -->
  <g stroke="#4fc3f7" stroke-linecap="round" fill="none">
    <line x1="33.18" y1="163.16" x2="32.41" y2="159.12" stroke-width="1.93"/>
    <line x1="32.41" y1="159.12" x2="30.81" y2="157.70" stroke-width="1.97"/>
    <line x1="30.81" y1="157.70" x2="28.87" y2="158.31" stroke-width="2.00"/>
    <line x1="28.87" y1="158.31" x2="27.06" y2="160.36" stroke-width="2.04"/>
    <line x1="27.06" y1="160.36" x2="25.84" y2="163.27" stroke-width="2.08"/>
    <line x1="25.84" y1="163.27" x2="25.27" y2="166.66" stroke-width="2.12"/>
    <line x1="25.27" y1="166.66" x2="25.20" y2="170.22" stroke-width="2.16"/>
    <line x1="25.20" y1="170.22" x2="25.51" y2="173.66" stroke-width="2.19"/>
    <line x1="25.51" y1="173.66" x2="26.06" y2="176.69" stroke-width="2.23"/>
    <line x1="26.06" y1="176.69" x2="26.73" y2="179.01" stroke-width="2.27"/>
    <line x1="26.73" y1="179.01" x2="27.37" y2="180.32" stroke-width="2.31"/>
    <line x1="27.37" y1="180.32" x2="27.85" y2="180.32" stroke-width="2.35"/>
    <line x1="27.85" y1="180.32" x2="28.11" y2="178.92" stroke-width="2.38"/>
    <line x1="28.11" y1="178.92" x2="28.25" y2="176.46" stroke-width="2.42"/>
    <line x1="28.25" y1="176.46" x2="28.39" y2="173.37" stroke-width="2.46"/>
    <line x1="28.39" y1="173.37" x2="28.66" y2="170.08" stroke-width="2.50"/>
    <line x1="28.66" y1="170.08" x2="29.17" y2="166.99" stroke-width="2.54"/>
    <line x1="29.17" y1="166.99" x2="29.99" y2="164.30" stroke-width="2.57"/>
    <line x1="29.99" y1="164.30" x2="31.15" y2="161.98" stroke-width="2.61"/>
    <line x1="31.15" y1="161.98" x2="32.65" y2="160.01" stroke-width="2.63"/>
    <line x1="32.65" y1="160.01" x2="34.52" y2="158.33" stroke-width="2.61"/>
    <line x1="34.52" y1="158.33" x2="36.75" y2="156.94" stroke-width="2.57"/>
    <line x1="36.75" y1="156.94" x2="39.27" y2="155.89" stroke-width="2.54"/>
    <line x1="39.27" y1="155.89" x2="41.90" y2="155.29" stroke-width="2.50"/>
    <line x1="41.90" y1="155.29" x2="44.49" y2="155.25" stroke-width="2.46"/>
    <line x1="44.49" y1="155.25" x2="46.86" y2="155.89" stroke-width="2.42"/>
    <line x1="46.86" y1="155.89" x2="48.90" y2="157.25" stroke-width="2.38"/>
    <line x1="48.90" y1="157.25" x2="50.56" y2="159.23" stroke-width="2.35"/>
    <line x1="50.56" y1="159.23" x2="51.80" y2="161.71" stroke-width="2.31"/>
    <line x1="51.80" y1="161.71" x2="52.58" y2="164.60" stroke-width="2.27"/>
    <line x1="52.58" y1="164.60" x2="52.88" y2="167.76" stroke-width="2.23"/>
    <line x1="52.88" y1="167.76" x2="52.87" y2="171.00" stroke-width="2.19"/>
    <line x1="52.87" y1="171.00" x2="52.73" y2="174.10" stroke-width="2.16"/>
    <line x1="52.73" y1="174.10" x2="52.66" y2="176.83" stroke-width="2.12"/>
    <line x1="52.66" y1="176.83" x2="52.86" y2="178.96" stroke-width="2.08"/>
    <line x1="52.86" y1="178.96" x2="53.51" y2="180.29" stroke-width="2.04"/>
    <line x1="53.51" y1="180.29" x2="54.81" y2="180.59" stroke-width="2.00"/>
    <line x1="54.81" y1="180.59" x2="56.96" y2="179.63" stroke-width="1.97"/>
    <line x1="56.96" y1="179.63" x2="60.16" y2="177.19" stroke-width="1.93"/>
  </g>
  <!-- Stroke 2 -->
  <g stroke="#4fc3f7" stroke-linecap="round" fill="none">
    <line x1="65.56" y1="180.97" x2="66.22" y2="177.32" stroke-width="3.57"/>
    <line x1="66.22" y1="177.32" x2="67.09" y2="174.14" stroke-width="3.56"/>
    <line x1="67.09" y1="174.14" x2="68.12" y2="171.36" stroke-width="3.55"/>
    <line x1="68.12" y1="171.36" x2="69.30" y2="168.92" stroke-width="3.54"/>
    <line x1="69.30" y1="168.92" x2="70.57" y2="166.73" stroke-width="3.53"/>
    <line x1="70.57" y1="166.73" x2="71.93" y2="164.72" stroke-width="3.52"/>
    <line x1="71.93" y1="164.72" x2="73.33" y2="162.84" stroke-width="3.51"/>
    <line x1="73.33" y1="162.84" x2="74.73" y2="161.00" stroke-width="3.50"/>
    <line x1="74.73" y1="161.00" x2="76.12" y2="159.12" stroke-width="3.49"/>
    <line x1="76.12" y1="159.12" x2="77.46" y2="157.16" stroke-width="3.48"/>
    <line x1="77.46" y1="157.16" x2="78.71" y2="155.02" stroke-width="3.48"/>
    <line x1="78.71" y1="155.02" x2="79.85" y2="152.64" stroke-width="3.47"/>
    <line x1="79.85" y1="152.64" x2="80.84" y2="149.94" stroke-width="3.46"/>
    <line x1="80.84" y1="149.94" x2="81.66" y2="146.87" stroke-width="3.45"/>
    <line x1="81.66" y1="146.87" x2="82.26" y2="143.33" stroke-width="3.44"/>
    <line x1="82.26" y1="143.33" x2="82.62" y2="139.41" stroke-width="3.43"/>
    <line x1="82.62" y1="139.41" x2="82.63" y2="135.73" stroke-width="3.42"/>
    <line x1="82.63" y1="135.73" x2="82.18" y2="133.13" stroke-width="3.41"/>
    <line x1="82.18" y1="133.13" x2="81.18" y2="132.41" stroke-width="3.40"/>
    <line x1="81.18" y1="132.41" x2="79.64" y2="134.01" stroke-width="3.39"/>
    <line x1="79.64" y1="134.01" x2="78.10" y2="136.93" stroke-width="3.36"/>
    <line x1="78.10" y1="136.93" x2="77.12" y2="139.96" stroke-width="3.33"/>
    <line x1="77.12" y1="139.96" x2="76.74" y2="142.84" stroke-width="3.30"/>
    <line x1="76.74" y1="142.84" x2="76.82" y2="145.61" stroke-width="3.28"/>
    <line x1="76.82" y1="145.61" x2="77.24" y2="148.28" stroke-width="3.25"/>
    <line x1="77.24" y1="148.28" x2="77.86" y2="150.91" stroke-width="3.22"/>
    <line x1="77.86" y1="150.91" x2="78.54" y2="153.52" stroke-width="3.19"/>
    <line x1="78.54" y1="153.52" x2="79.16" y2="156.14" stroke-width="3.16"/>
    <line x1="79.16" y1="156.14" x2="79.62" y2="158.81" stroke-width="3.13"/>
    <line x1="79.62" y1="158.81" x2="79.94" y2="161.52" stroke-width="3.11"/>
    <line x1="79.94" y1="161.52" x2="80.13" y2="164.25" stroke-width="3.08"/>
    <line x1="80.13" y1="164.25" x2="80.23" y2="167.01" stroke-width="3.05"/>
    <line x1="80.23" y1="167.01" x2="80.25" y2="169.78" stroke-width="3.02"/>
    <line x1="80.25" y1="169.78" x2="80.22" y2="172.57" stroke-width="2.99"/>
    <line x1="80.22" y1="172.57" x2="80.17" y2="175.35" stroke-width="2.96"/>
    <line x1="80.17" y1="175.35" x2="80.10" y2="178.13" stroke-width="2.93"/>
    <line x1="80.10" y1="178.13" x2="80.06" y2="180.89" stroke-width="2.91"/>
    <line x1="80.06" y1="180.89" x2="80.06" y2="183.64" stroke-width="2.88"/>
    <line x1="80.06" y1="183.64" x2="80.12" y2="186.36" stroke-width="2.85"/>
  </g>
  <!-- Stroke 3 -->
  <g stroke="#4fc3f7" stroke-linecap="round" fill="none">
    <line x1="80.12" y1="170.17" x2="79.94" y2="169.01" stroke-width="2.30"/>
    <line x1="79.94" y1="169.01" x2="80.03" y2="167.79" stroke-width="2.35"/>
    <line x1="80.03" y1="167.79" x2="80.35" y2="166.51" stroke-width="2.40"/>
    <line x1="80.35" y1="166.51" x2="80.88" y2="165.20" stroke-width="2.45"/>
    <line x1="80.88" y1="165.20" x2="81.61" y2="163.89" stroke-width="2.49"/>
    <line x1="81.61" y1="163.89" x2="82.51" y2="162.59" stroke-width="2.54"/>
    <line x1="82.51" y1="162.59" x2="83.56" y2="161.33" stroke-width="2.59"/>
    <line x1="83.56" y1="161.33" x2="84.73" y2="160.13" stroke-width="2.64"/>
    <line x1="84.73" y1="160.13" x2="86.00" y2="159.01" stroke-width="2.68"/>
    <line x1="86.00" y1="159.01" x2="87.35" y2="157.99" stroke-width="2.73"/>
    <line x1="87.35" y1="157.99" x2="88.76" y2="157.09" stroke-width="2.78"/>
    <line x1="88.76" y1="157.09" x2="90.20" y2="156.34" stroke-width="2.83"/>
    <line x1="90.20" y1="156.34" x2="91.65" y2="155.75" stroke-width="2.87"/>
    <line x1="91.65" y1="155.75" x2="93.09" y2="155.35" stroke-width="2.92"/>
    <line x1="93.09" y1="155.35" x2="94.49" y2="155.16" stroke-width="2.97"/>
    <line x1="94.49" y1="155.16" x2="95.83" y2="155.20" stroke-width="3.02"/>
    <line x1="95.83" y1="155.20" x2="97.10" y2="155.49" stroke-width="3.06"/>
    <line x1="97.10" y1="155.49" x2="98.26" y2="156.06" stroke-width="3.11"/>
    <line x1="98.26" y1="156.06" x2="99.30" y2="156.87" stroke-width="3.16"/>
    <line x1="99.30" y1="156.87" x2="100.23" y2="157.91" stroke-width="3.18"/>
    <line x1="100.23" y1="157.91" x2="101.03" y2="159.13" stroke-width="3.17"/>
    <line x1="101.03" y1="159.13" x2="101.69" y2="160.50" stroke-width="3.13"/>
    <line x1="101.69" y1="160.50" x2="102.22" y2="162.00" stroke-width="3.09"/>
    <line x1="102.22" y1="162.00" x2="102.60" y2="163.57" stroke-width="3.05"/>
    <line x1="102.60" y1="163.57" x2="102.83" y2="165.20" stroke-width="3.02"/>
    <line x1="102.83" y1="165.20" x2="102.92" y2="166.86" stroke-width="2.98"/>
    <line x1="102.92" y1="166.86" x2="102.90" y2="168.51" stroke-width="2.94"/>
    <line x1="102.90" y1="168.51" x2="102.82" y2="170.15" stroke-width="2.90"/>
    <line x1="102.82" y1="170.15" x2="102.71" y2="171.74" stroke-width="2.86"/>
    <line x1="102.71" y1="171.74" x2="102.62" y2="173.28" stroke-width="2.83"/>
    <line x1="102.62" y1="173.28" x2="102.59" y2="174.73" stroke-width="2.79"/>
    <line x1="102.59" y1="174.73" x2="102.65" y2="176.08" stroke-width="2.75"/>
    <line x1="102.65" y1="176.08" x2="102.86" y2="177.31" stroke-width="2.71"/>
    <line x1="102.86" y1="177.31" x2="103.24" y2="178.40" stroke-width="2.67"/>
    <line x1="103.24" y1="178.40" x2="103.84" y2="179.32" stroke-width="2.64"/>
    <line x1="103.84" y1="179.32" x2="104.70" y2="180.06" stroke-width="2.60"/>
    <line x1="104.70" y1="180.06" x2="105.87" y2="180.59" stroke-width="2.56"/>
    <line x1="105.87" y1="180.59" x2="107.37" y2="180.90" stroke-width="2.52"/>
    <line x1="107.37" y1="180.90" x2="109.26" y2="180.97" stroke-width="2.48"/>
  </g>
  <!-- Stroke 4 -->
  <g stroke="#4fc3f7" stroke-linecap="round" fill="none">
    <line x1="112.50" y1="170.17" x2="111.96" y2="165.90" stroke-width="1.93"/>
    <line x1="111.96" y1="165.90" x2="112.46" y2="161.97" stroke-width="1.97"/>
    <line x1="112.46" y1="161.97" x2="113.87" y2="158.46" stroke-width="2.00"/>
    <line x1="113.87" y1="158.46" x2="116.03" y2="155.41" stroke-width="2.04"/>
    <line x1="116.03" y1="155.41" x2="118.80" y2="152.87" stroke-width="2.08"/>
    <line x1="118.80" y1="152.87" x2="122.05" y2="150.91" stroke-width="2.12"/>
    <line x1="122.05" y1="150.91" x2="125.62" y2="149.57" stroke-width="2.16"/>
    <line x1="125.62" y1="149.57" x2="129.38" y2="148.90" stroke-width="2.19"/>
    <line x1="129.38" y1="148.90" x2="133.18" y2="148.97" stroke-width="2.23"/>
    <line x1="133.18" y1="148.97" x2="136.87" y2="149.83" stroke-width="2.27"/>
    <line x1="136.87" y1="149.83" x2="140.32" y2="151.51" stroke-width="2.31"/>
    <line x1="140.32" y1="151.51" x2="143.37" y2="153.93" stroke-width="2.35"/>
    <line x1="143.37" y1="153.93" x2="145.86" y2="156.91" stroke-width="2.38"/>
    <line x1="145.86" y1="156.91" x2="147.65" y2="160.30" stroke-width="2.42"/>
    <line x1="147.65" y1="160.30" x2="148.57" y2="163.93" stroke-width="2.46"/>
    <line x1="148.57" y1="163.93" x2="148.50" y2="167.62" stroke-width="2.50"/>
    <line x1="148.50" y1="167.62" x2="147.49" y2="171.24" stroke-width="2.54"/>
    <line x1="147.49" y1="171.24" x2="145.67" y2="174.60" stroke-width="2.57"/>
    <line x1="145.67" y1="174.60" x2="143.19" y2="177.56" stroke-width="2.61"/>
    <line x1="143.19" y1="177.56" x2="140.19" y2="179.97" stroke-width="2.63"/>
    <line x1="140.19" y1="179.97" x2="136.81" y2="181.69" stroke-width="2.61"/>
    <line x1="136.81" y1="181.69" x2="133.16" y2="182.68" stroke-width="2.57"/>
    <line x1="133.16" y1="182.68" x2="129.38" y2="182.90" stroke-width="2.54"/>
    <line x1="129.38" y1="182.90" x2="125.58" y2="182.30" stroke-width="2.50"/>
    <line x1="125.58" y1="182.30" x2="121.90" y2="180.84" stroke-width="2.46"/>
    <line x1="121.90" y1="180.84" x2="118.55" y2="178.60" stroke-width="2.42"/>
    <line x1="118.55" y1="178.60" x2="115.89" y2="175.79" stroke-width="2.38"/>
    <line x1="115.89" y1="175.79" x2="114.31" y2="172.65" stroke-width="2.35"/>
    <line x1="114.31" y1="172.65" x2="114.12" y2="169.41" stroke-width="2.31"/>
    <line x1="114.12" y1="169.41" x2="115.29" y2="166.21" stroke-width="2.27"/>
    <line x1="115.29" y1="166.21" x2="117.58" y2="163.16" stroke-width="2.23"/>
    <line x1="117.58" y1="163.16" x2="120.72" y2="160.38" stroke-width="2.19"/>
    <line x1="120.72" y1="160.38" x2="124.50" y2="157.98" stroke-width="2.16"/>
    <line x1="124.50" y1="157.98" x2="128.64" y2="156.07" stroke-width="2.12"/>
    <line x1="128.64" y1="156.07" x2="132.93" y2="154.77" stroke-width="2.08"/>
    <line x1="132.93" y1="154.77" x2="137.10" y2="154.17" stroke-width="2.04"/>
    <line x1="137.10" y1="154.17" x2="140.91" y2="154.40" stroke-width="2.00"/>
    <line x1="140.91" y1="154.40" x2="144.12" y2="155.56" stroke-width="1.97"/>
    <line x1="144.12" y1="155.56" x2="146.49" y2="157.76" stroke-width="1.93"/>
  </g>
  <!-- Stroke 5 -->
  <g stroke="#4fc3f7" stroke-linecap="round" fill="none">
    <line x1="146.49" y1="157.76" x2="150.81" y2="179.35" stroke-width="2.47"/>
  </g>
  <!-- Stroke 6 -->
  <g stroke="#ffb74d" stroke-linecap="round" fill="none">
    <line x1="117.35" y1="129.71" x2="118.07" y2="128.63" stroke-width="1.54"/>
    <line x1="118.07" y1="128.63" x2="118.79" y2="127.61" stroke-width="1.53"/>
    <line x1="118.79" y1="127.61" x2="119.51" y2="126.64" stroke-width="1.53"/>
    <line x1="119.51" y1="126.64" x2="120.23" y2="125.73" stroke-width="1.53"/>
    <line x1="120.23" y1="125.73" x2="120.95" y2="124.88" stroke-width="1.52"/>
    <line x1="120.95" y1="124.88" x2="121.67" y2="124.09" stroke-width="1.52"/>
    <line x1="121.67" y1="124.09" x2="122.39" y2="123.35" stroke-width="1.52"/>
    <line x1="122.39" y1="123.35" x2="123.11" y2="122.67" stroke-width="1.51"/>
    <line x1="123.11" y1="122.67" x2="123.83" y2="122.04" stroke-width="1.51"/>
    <line x1="123.83" y1="122.04" x2="124.55" y2="121.48" stroke-width="1.50"/>
    <line x1="124.55" y1="121.48" x2="125.27" y2="120.97" stroke-width="1.50"/>
    <line x1="125.27" y1="120.97" x2="125.99" y2="120.51" stroke-width="1.50"/>
    <line x1="125.99" y1="120.51" x2="126.71" y2="120.11" stroke-width="1.49"/>
    <line x1="126.71" y1="120.11" x2="127.43" y2="119.77" stroke-width="1.49"/>
    <line x1="127.43" y1="119.77" x2="128.15" y2="119.49" stroke-width="1.48"/>
    <line x1="128.15" y1="119.49" x2="128.86" y2="119.26" stroke-width="1.48"/>
    <line x1="128.86" y1="119.26" x2="129.58" y2="119.09" stroke-width="1.48"/>
    <line x1="129.58" y1="119.09" x2="130.30" y2="118.98" stroke-width="1.47"/>
    <line x1="130.30" y1="118.98" x2="131.02" y2="118.92" stroke-width="1.47"/>
    <line x1="131.02" y1="118.92" x2="131.74" y2="118.92" stroke-width="1.46"/>
    <line x1="131.74" y1="118.92" x2="132.46" y2="118.98" stroke-width="1.45"/>
    <line x1="132.46" y1="118.98" x2="133.18" y2="119.09" stroke-width="1.43"/>
    <line x1="133.18" y1="119.09" x2="133.90" y2="119.26" stroke-width="1.41"/>
    <line x1="133.90" y1="119.26" x2="134.62" y2="119.49" stroke-width="1.39"/>
    <line x1="134.62" y1="119.49" x2="135.34" y2="119.77" stroke-width="1.37"/>
    <line x1="135.34" y1="119.77" x2="136.06" y2="120.11" stroke-width="1.35"/>
    <line x1="136.06" y1="120.11" x2="136.78" y2="120.51" stroke-width="1.33"/>
    <line x1="136.78" y1="120.51" x2="137.50" y2="120.97" stroke-width="1.31"/>
    <line x1="137.50" y1="120.97" x2="138.22" y2="121.48" stroke-width="1.30"/>
    <line x1="138.22" y1="121.48" x2="138.94" y2="122.04" stroke-width="1.28"/>
    <line x1="138.94" y1="122.04" x2="139.66" y2="122.67" stroke-width="1.26"/>
    <line x1="139.66" y1="122.67" x2="140.38" y2="123.35" stroke-width="1.24"/>
    <line x1="140.38" y1="123.35" x2="141.09" y2="124.09" stroke-width="1.22"/>
    <line x1="141.09" y1="124.09" x2="141.81" y2="124.88" stroke-width="1.20"/>
    <line x1="141.81" y1="124.88" x2="142.53" y2="125.73" stroke-width="1.18"/>
    <line x1="142.53" y1="125.73" x2="143.25" y2="126.64" stroke-width="1.16"/>
    <line x1="143.25" y1="126.64" x2="143.97" y2="127.61" stroke-width="1.14"/>
    <line x1="143.97" y1="127.61" x2="144.69" y2="128.63" stroke-width="1.12"/>
    <line x1="144.69" y1="128.63" x2="145.41" y2="129.71" stroke-width="1.11"/>
  </g>
  <!-- Stroke 7 -->
  <g stroke="#ef5350" stroke-linecap="round" fill="none">
    <line x1="116.27" y1="118.92" x2="117.16" y2="117.00" stroke-width="1.61"/>
    <line x1="117.16" y1="117.00" x2="118.03" y2="115.37" stroke-width="1.60"/>
    <line x1="118.03" y1="115.37" x2="118.88" y2="114.01" stroke-width="1.59"/>
    <line x1="118.88" y1="114.01" x2="119.72" y2="112.90" stroke-width="1.59"/>
    <line x1="119.72" y1="112.90" x2="120.54" y2="112.03" stroke-width="1.58"/>
    <line x1="120.54" y1="112.03" x2="121.35" y2="111.39" stroke-width="1.57"/>
    <line x1="121.35" y1="111.39" x2="122.15" y2="110.95" stroke-width="1.56"/>
    <line x1="122.15" y1="110.95" x2="122.93" y2="110.70" stroke-width="1.56"/>
    <line x1="122.93" y1="110.70" x2="123.70" y2="110.64" stroke-width="1.55"/>
    <line x1="123.70" y1="110.64" x2="124.46" y2="110.73" stroke-width="1.54"/>
    <line x1="124.46" y1="110.73" x2="125.22" y2="110.97" stroke-width="1.53"/>
    <line x1="125.22" y1="110.97" x2="125.96" y2="111.35" stroke-width="1.53"/>
    <line x1="125.96" y1="111.35" x2="126.70" y2="111.83" stroke-width="1.52"/>
    <line x1="126.70" y1="111.83" x2="127.43" y2="112.42" stroke-width="1.51"/>
    <line x1="127.43" y1="112.42" x2="128.16" y2="113.09" stroke-width="1.50"/>
    <line x1="128.16" y1="113.09" x2="128.88" y2="113.84" stroke-width="1.50"/>
    <line x1="128.88" y1="113.84" x2="129.60" y2="114.63" stroke-width="1.49"/>
    <line x1="129.60" y1="114.63" x2="130.31" y2="115.47" stroke-width="1.48"/>
    <line x1="130.31" y1="115.47" x2="131.03" y2="116.32" stroke-width="1.47"/>
    <line x1="131.03" y1="116.32" x2="131.74" y2="117.19" stroke-width="1.46"/>
    <line x1="131.74" y1="117.19" x2="132.45" y2="118.05" stroke-width="1.45"/>
    <line x1="132.45" y1="118.05" x2="133.17" y2="118.88" stroke-width="1.43"/>
    <line x1="133.17" y1="118.88" x2="133.89" y2="119.68" stroke-width="1.41"/>
    <line x1="133.89" y1="119.68" x2="134.61" y2="120.42" stroke-width="1.39"/>
    <line x1="134.61" y1="120.42" x2="135.34" y2="121.09" stroke-width="1.37"/>
    <line x1="135.34" y1="121.09" x2="136.07" y2="121.68" stroke-width="1.35"/>
    <line x1="136.07" y1="121.68" x2="136.80" y2="122.17" stroke-width="1.33"/>
    <line x1="136.80" y1="122.17" x2="137.55" y2="122.54" stroke-width="1.31"/>
    <line x1="137.55" y1="122.54" x2="138.30" y2="122.78" stroke-width="1.30"/>
    <line x1="138.30" y1="122.78" x2="139.06" y2="122.88" stroke-width="1.28"/>
    <line x1="139.06" y1="122.88" x2="139.84" y2="122.81" stroke-width="1.26"/>
    <line x1="139.84" y1="122.81" x2="140.62" y2="122.57" stroke-width="1.24"/>
    <line x1="140.62" y1="122.57" x2="141.41" y2="122.13" stroke-width="1.22"/>
    <line x1="141.41" y1="122.13" x2="142.22" y2="121.48" stroke-width="1.20"/>
    <line x1="142.22" y1="121.48" x2="143.04" y2="120.62" stroke-width="1.18"/>
    <line x1="143.04" y1="120.62" x2="143.88" y2="119.51" stroke-width="1.16"/>
    <line x1="143.88" y1="119.51" x2="144.73" y2="118.15" stroke-width="1.14"/>
    <line x1="144.73" y1="118.15" x2="145.60" y2="116.52" stroke-width="1.12"/>
    <line x1="145.60" y1="116.52" x2="146.49" y2="114.60" stroke-width="1.11"/>
  </g>
  <!-- Stroke 8 -->
  <g stroke="#4fc3f7" stroke-linecap="round" fill="none">
    <line x1="157.82" y1="163.16" x2="157.05" y2="159.12" stroke-width="1.93"/>
    <line x1="157.05" y1="159.12" x2="155.45" y2="157.70" stroke-width="1.97"/>
    <line x1="155.45" y1="157.70" x2="153.51" y2="158.31" stroke-width="2.00"/>
    <line x1="153.51" y1="158.31" x2="151.70" y2="160.36" stroke-width="2.04"/>
    <line x1="151.70" y1="160.36" x2="150.48" y2="163.27" stroke-width="2.08"/>
    <line x1="150.48" y1="163.27" x2="149.91" y2="166.66" stroke-width="2.12"/>
    <line x1="149.91" y1="166.66" x2="149.84" y2="170.22" stroke-width="2.16"/>
    <line x1="149.84" y1="170.22" x2="150.15" y2="173.66" stroke-width="2.19"/>
    <line x1="150.15" y1="173.66" x2="150.70" y2="176.69" stroke-width="2.23"/>
    <line x1="150.70" y1="176.69" x2="151.37" y2="179.01" stroke-width="2.27"/>
    <line x1="151.37" y1="179.01" x2="152.01" y2="180.32" stroke-width="2.31"/>
    <line x1="152.01" y1="180.32" x2="152.49" y2="180.32" stroke-width="2.35"/>
    <line x1="152.49" y1="180.32" x2="152.75" y2="178.92" stroke-width="2.38"/>
    <line x1="152.75" y1="178.92" x2="152.89" y2="176.46" stroke-width="2.42"/>
    <line x1="152.89" y1="176.46" x2="153.03" y2="173.37" stroke-width="2.46"/>
    <line x1="153.03" y1="173.37" x2="153.30" y2="170.08" stroke-width="2.50"/>
    <line x1="153.30" y1="170.08" x2="153.81" y2="166.99" stroke-width="2.54"/>
    <line x1="153.81" y1="166.99" x2="154.63" y2="164.30" stroke-width="2.57"/>
    <line x1="154.63" y1="164.30" x2="155.79" y2="161.98" stroke-width="2.61"/>
    <line x1="155.79" y1="161.98" x2="157.29" y2="160.01" stroke-width="2.63"/>
    <line x1="157.29" y1="160.01" x2="159.16" y2="158.33" stroke-width="2.61"/>
    <line x1="159.16" y1="158.33" x2="161.39" y2="156.94" stroke-width="2.57"/>
    <line x1="161.39" y1="156.94" x2="163.91" y2="155.89" stroke-width="2.54"/>
    <line x1="163.91" y1="155.89" x2="166.54" y2="155.29" stroke-width="2.50"/>
    <line x1="166.54" y1="155.29" x2="169.13" y2="155.25" stroke-width="2.46"/>
    <line x1="169.13" y1="155.25" x2="171.50" y2="155.89" stroke-width="2.42"/>
    <line x1="171.50" y1="155.89" x2="173.54" y2="157.25" stroke-width="2.38"/>
    <line x1="173.54" y1="157.25" x2="175.20" y2="159.23" stroke-width="2.35"/>
    <line x1="175.20" y1="159.23" x2="176.44" y2="161.71" stroke-width="2.31"/>
    <line x1="176.44" y1="161.71" x2="177.22" y2="164.60" stroke-width="2.27"/>
    <line x1="177.22" y1="164.60" x2="177.52" y2="167.76" stroke-width="2.23"/>
    <line x1="177.52" y1="167.76" x2="177.51" y2="171.00" stroke-width="2.19"/>
    <line x1="177.51" y1="171.00" x2="177.37" y2="174.10" stroke-width="2.16"/>
    <line x1="177.37" y1="174.10" x2="177.30" y2="176.83" stroke-width="2.12"/>
    <line x1="177.30" y1="176.83" x2="177.50" y2="178.96" stroke-width="2.08"/>
    <line x1="177.50" y1="178.96" x2="178.15" y2="180.29" stroke-width="2.04"/>
    <line x1="178.15" y1="180.29" x2="179.45" y2="180.59" stroke-width="2.00"/>
    <line x1="179.45" y1="180.59" x2="181.60" y2="179.63" stroke-width="1.97"/>
    <line x1="181.60" y1="179.63" x2="184.80" y2="177.19" stroke-width="1.93"/>
  </g>
</svg>